<?xml version="1.0" encoding="utf-8" standalone="no"?>
<!DOCTYPE svg PUBLIC "-//W3C//DTD SVG 1.1//EN"
  "http://www.w3.org/Graphics/SVG/1.1/DTD/svg11.dtd">
<svg xmlns:xlink="http://www.w3.org/1999/xlink" width="1382.4pt" height="707.76pt" viewBox="0 0 1382.4 707.76" xmlns="http://www.w3.org/2000/svg" version="1.1">
 <metadata>
  <rdf:RDF xmlns:dc="http://purl.org/dc/elements/1.1/" xmlns:cc="http://creativecommons.org/ns#" xmlns:rdf="http://www.w3.org/1999/02/22-rdf-syntax-ns#">
   <cc:Work>
    <dc:type rdf:resource="http://purl.org/dc/dcmitype/StillImage"/>
    <dc:date>2022-04-10T20:13:52.209848</dc:date>
    <dc:format>image/svg+xml</dc:format>
    <dc:creator>
     <cc:Agent>
      <dc:title>Matplotlib v3.5.1, https://matplotlib.org/</dc:title>
     </cc:Agent>
    </dc:creator>
   </cc:Work>
  </rdf:RDF>
 </metadata>
 <defs>
  <style type="text/css">*{stroke-linejoin: round; stroke-linecap: butt}</style>
 </defs>
 <g id="figure_1">
  <g id="patch_1">
   <path d="M 0 707.76 
L 1382.4 707.76 
L 1382.4 0 
L 0 0 
z
" style="fill: #ffffff"/>
  </g>
  <g id="axes_1">
   <g id="patch_2">
    <path d="M 159.954 621.829417 
L 1212.996 621.829417 
L 1212.996 109.6045 
L 159.954 109.6045 
z
" style="fill: #ffffff"/>
   </g>
   <g id="matplotlib.axis_1">
    <g id="xtick_1">
     <g id="line2d_1">
      <defs>
       <path id="mc400d27733" d="M 0 0 
L 0 3.5 
" style="stroke: #000000; stroke-width: 0.8"/>
      </defs>
      <g>
       <use xlink:href="#mc400d27733" x="207.819545" y="621.829417" style="stroke: #000000; stroke-width: 0.8"/>
      </g>
     </g>
     <g id="text_1">
      <!-- 0 -->
      <g transform="translate(204.638295 636.427854)scale(0.1 -0.1)">
       <defs>
        <path id="DejaVuSans-30" d="M 2034 4250 
Q 1547 4250 1301 3770 
Q 1056 3291 1056 2328 
Q 1056 1369 1301 889 
Q 1547 409 2034 409 
Q 2525 409 2770 889 
Q 3016 1369 3016 2328 
Q 3016 3291 2770 3770 
Q 2525 4250 2034 4250 
z
M 2034 4750 
Q 2819 4750 3233 4129 
Q 3647 3509 3647 2328 
Q 3647 1150 3233 529 
Q 2819 -91 2034 -91 
Q 1250 -91 836 529 
Q 422 1150 422 2328 
Q 422 3509 836 4129 
Q 1250 4750 2034 4750 
z
" transform="scale(0.015625)"/>
       </defs>
       <use xlink:href="#DejaVuSans-30"/>
      </g>
     </g>
    </g>
    <g id="xtick_2">
     <g id="line2d_2">
      <g>
       <use xlink:href="#mc400d27733" x="328.084735" y="621.829417" style="stroke: #000000; stroke-width: 0.8"/>
      </g>
     </g>
     <g id="text_2">
      <!-- 25 -->
      <g transform="translate(321.722235 636.427854)scale(0.1 -0.1)">
       <defs>
        <path id="DejaVuSans-32" d="M 1228 531 
L 3431 531 
L 3431 0 
L 469 0 
L 469 531 
Q 828 903 1448 1529 
Q 2069 2156 2228 2338 
Q 2531 2678 2651 2914 
Q 2772 3150 2772 3378 
Q 2772 3750 2511 3984 
Q 2250 4219 1831 4219 
Q 1534 4219 1204 4116 
Q 875 4013 500 3803 
L 500 4441 
Q 881 4594 1212 4672 
Q 1544 4750 1819 4750 
Q 2544 4750 2975 4387 
Q 3406 4025 3406 3419 
Q 3406 3131 3298 2873 
Q 3191 2616 2906 2266 
Q 2828 2175 2409 1742 
Q 1991 1309 1228 531 
z
" transform="scale(0.015625)"/>
        <path id="DejaVuSans-35" d="M 691 4666 
L 3169 4666 
L 3169 4134 
L 1269 4134 
L 1269 2991 
Q 1406 3038 1543 3061 
Q 1681 3084 1819 3084 
Q 2600 3084 3056 2656 
Q 3513 2228 3513 1497 
Q 3513 744 3044 326 
Q 2575 -91 1722 -91 
Q 1428 -91 1123 -41 
Q 819 9 494 109 
L 494 744 
Q 775 591 1075 516 
Q 1375 441 1709 441 
Q 2250 441 2565 725 
Q 2881 1009 2881 1497 
Q 2881 1984 2565 2268 
Q 2250 2553 1709 2553 
Q 1456 2553 1204 2497 
Q 953 2441 691 2322 
L 691 4666 
z
" transform="scale(0.015625)"/>
       </defs>
       <use xlink:href="#DejaVuSans-32"/>
       <use xlink:href="#DejaVuSans-35" x="63.623047"/>
      </g>
     </g>
    </g>
    <g id="xtick_3">
     <g id="line2d_3">
      <g>
       <use xlink:href="#mc400d27733" x="448.349925" y="621.829417" style="stroke: #000000; stroke-width: 0.8"/>
      </g>
     </g>
     <g id="text_3">
      <!-- 50 -->
      <g transform="translate(441.987425 636.427854)scale(0.1 -0.1)">
       <use xlink:href="#DejaVuSans-35"/>
       <use xlink:href="#DejaVuSans-30" x="63.623047"/>
      </g>
     </g>
    </g>
    <g id="xtick_4">
     <g id="line2d_4">
      <g>
       <use xlink:href="#mc400d27733" x="568.615114" y="621.829417" style="stroke: #000000; stroke-width: 0.8"/>
      </g>
     </g>
     <g id="text_4">
      <!-- 75 -->
      <g transform="translate(562.252614 636.427854)scale(0.1 -0.1)">
       <defs>
        <path id="DejaVuSans-37" d="M 525 4666 
L 3525 4666 
L 3525 4397 
L 1831 0 
L 1172 0 
L 2766 4134 
L 525 4134 
L 525 4666 
z
" transform="scale(0.015625)"/>
       </defs>
       <use xlink:href="#DejaVuSans-37"/>
       <use xlink:href="#DejaVuSans-35" x="63.623047"/>
      </g>
     </g>
    </g>
    <g id="xtick_5">
     <g id="line2d_5">
      <g>
       <use xlink:href="#mc400d27733" x="688.880304" y="621.829417" style="stroke: #000000; stroke-width: 0.8"/>
      </g>
     </g>
     <g id="text_5">
      <!-- 100 -->
      <g transform="translate(679.336554 636.427854)scale(0.1 -0.1)">
       <defs>
        <path id="DejaVuSans-31" d="M 794 531 
L 1825 531 
L 1825 4091 
L 703 3866 
L 703 4441 
L 1819 4666 
L 2450 4666 
L 2450 531 
L 3481 531 
L 3481 0 
L 794 0 
L 794 531 
z
" transform="scale(0.015625)"/>
       </defs>
       <use xlink:href="#DejaVuSans-31"/>
       <use xlink:href="#DejaVuSans-30" x="63.623047"/>
       <use xlink:href="#DejaVuSans-30" x="127.246094"/>
      </g>
     </g>
    </g>
    <g id="xtick_6">
     <g id="line2d_6">
      <g>
       <use xlink:href="#mc400d27733" x="809.145493" y="621.829417" style="stroke: #000000; stroke-width: 0.8"/>
      </g>
     </g>
     <g id="text_6">
      <!-- 125 -->
      <g transform="translate(799.601743 636.427854)scale(0.1 -0.1)">
       <use xlink:href="#DejaVuSans-31"/>
       <use xlink:href="#DejaVuSans-32" x="63.623047"/>
       <use xlink:href="#DejaVuSans-35" x="127.246094"/>
      </g>
     </g>
    </g>
    <g id="xtick_7">
     <g id="line2d_7">
      <g>
       <use xlink:href="#mc400d27733" x="929.410683" y="621.829417" style="stroke: #000000; stroke-width: 0.8"/>
      </g>
     </g>
     <g id="text_7">
      <!-- 150 -->
      <g transform="translate(919.866933 636.427854)scale(0.1 -0.1)">
       <use xlink:href="#DejaVuSans-31"/>
       <use xlink:href="#DejaVuSans-35" x="63.623047"/>
       <use xlink:href="#DejaVuSans-30" x="127.246094"/>
      </g>
     </g>
    </g>
    <g id="xtick_8">
     <g id="line2d_8">
      <g>
       <use xlink:href="#mc400d27733" x="1049.675873" y="621.829417" style="stroke: #000000; stroke-width: 0.8"/>
      </g>
     </g>
     <g id="text_8">
      <!-- 175 -->
      <g transform="translate(1040.132123 636.427854)scale(0.1 -0.1)">
       <use xlink:href="#DejaVuSans-31"/>
       <use xlink:href="#DejaVuSans-37" x="63.623047"/>
       <use xlink:href="#DejaVuSans-35" x="127.246094"/>
      </g>
     </g>
    </g>
    <g id="xtick_9">
     <g id="line2d_9">
      <g>
       <use xlink:href="#mc400d27733" x="1169.941062" y="621.829417" style="stroke: #000000; stroke-width: 0.8"/>
      </g>
     </g>
     <g id="text_9">
      <!-- 200 -->
      <g transform="translate(1160.397312 636.427854)scale(0.1 -0.1)">
       <use xlink:href="#DejaVuSans-32"/>
       <use xlink:href="#DejaVuSans-30" x="63.623047"/>
       <use xlink:href="#DejaVuSans-30" x="127.246094"/>
      </g>
     </g>
    </g>
    <g id="text_10">
     <!-- Time (ms) -->
     <g transform="translate(661.275781 650.105979)scale(0.1 -0.1)">
      <defs>
       <path id="DejaVuSans-54" d="M -19 4666 
L 3928 4666 
L 3928 4134 
L 2272 4134 
L 2272 0 
L 1638 0 
L 1638 4134 
L -19 4134 
L -19 4666 
z
" transform="scale(0.015625)"/>
       <path id="DejaVuSans-69" d="M 603 3500 
L 1178 3500 
L 1178 0 
L 603 0 
L 603 3500 
z
M 603 4863 
L 1178 4863 
L 1178 4134 
L 603 4134 
L 603 4863 
z
" transform="scale(0.015625)"/>
       <path id="DejaVuSans-6d" d="M 3328 2828 
Q 3544 3216 3844 3400 
Q 4144 3584 4550 3584 
Q 5097 3584 5394 3201 
Q 5691 2819 5691 2113 
L 5691 0 
L 5113 0 
L 5113 2094 
Q 5113 2597 4934 2840 
Q 4756 3084 4391 3084 
Q 3944 3084 3684 2787 
Q 3425 2491 3425 1978 
L 3425 0 
L 2847 0 
L 2847 2094 
Q 2847 2600 2669 2842 
Q 2491 3084 2119 3084 
Q 1678 3084 1418 2786 
Q 1159 2488 1159 1978 
L 1159 0 
L 581 0 
L 581 3500 
L 1159 3500 
L 1159 2956 
Q 1356 3278 1631 3431 
Q 1906 3584 2284 3584 
Q 2666 3584 2933 3390 
Q 3200 3197 3328 2828 
z
" transform="scale(0.015625)"/>
       <path id="DejaVuSans-65" d="M 3597 1894 
L 3597 1613 
L 953 1613 
Q 991 1019 1311 708 
Q 1631 397 2203 397 
Q 2534 397 2845 478 
Q 3156 559 3463 722 
L 3463 178 
Q 3153 47 2828 -22 
Q 2503 -91 2169 -91 
Q 1331 -91 842 396 
Q 353 884 353 1716 
Q 353 2575 817 3079 
Q 1281 3584 2069 3584 
Q 2775 3584 3186 3129 
Q 3597 2675 3597 1894 
z
M 3022 2063 
Q 3016 2534 2758 2815 
Q 2500 3097 2075 3097 
Q 1594 3097 1305 2825 
Q 1016 2553 972 2059 
L 3022 2063 
z
" transform="scale(0.015625)"/>
       <path id="DejaVuSans-20" transform="scale(0.015625)"/>
       <path id="DejaVuSans-28" d="M 1984 4856 
Q 1566 4138 1362 3434 
Q 1159 2731 1159 2009 
Q 1159 1288 1364 580 
Q 1569 -128 1984 -844 
L 1484 -844 
Q 1016 -109 783 600 
Q 550 1309 550 2009 
Q 550 2706 781 3412 
Q 1013 4119 1484 4856 
L 1984 4856 
z
" transform="scale(0.015625)"/>
       <path id="DejaVuSans-73" d="M 2834 3397 
L 2834 2853 
Q 2591 2978 2328 3040 
Q 2066 3103 1784 3103 
Q 1356 3103 1142 2972 
Q 928 2841 928 2578 
Q 928 2378 1081 2264 
Q 1234 2150 1697 2047 
L 1894 2003 
Q 2506 1872 2764 1633 
Q 3022 1394 3022 966 
Q 3022 478 2636 193 
Q 2250 -91 1575 -91 
Q 1294 -91 989 -36 
Q 684 19 347 128 
L 347 722 
Q 666 556 975 473 
Q 1284 391 1588 391 
Q 1994 391 2212 530 
Q 2431 669 2431 922 
Q 2431 1156 2273 1281 
Q 2116 1406 1581 1522 
L 1381 1569 
Q 847 1681 609 1914 
Q 372 2147 372 2553 
Q 372 3047 722 3315 
Q 1072 3584 1716 3584 
Q 2034 3584 2315 3537 
Q 2597 3491 2834 3397 
z
" transform="scale(0.015625)"/>
       <path id="DejaVuSans-29" d="M 513 4856 
L 1013 4856 
Q 1481 4119 1714 3412 
Q 1947 2706 1947 2009 
Q 1947 1309 1714 600 
Q 1481 -109 1013 -844 
L 513 -844 
Q 928 -128 1133 580 
Q 1338 1288 1338 2009 
Q 1338 2731 1133 3434 
Q 928 4138 513 4856 
z
" transform="scale(0.015625)"/>
      </defs>
      <use xlink:href="#DejaVuSans-54"/>
      <use xlink:href="#DejaVuSans-69" x="57.958984"/>
      <use xlink:href="#DejaVuSans-6d" x="85.742188"/>
      <use xlink:href="#DejaVuSans-65" x="183.154297"/>
      <use xlink:href="#DejaVuSans-20" x="244.677734"/>
      <use xlink:href="#DejaVuSans-28" x="276.464844"/>
      <use xlink:href="#DejaVuSans-6d" x="315.478516"/>
      <use xlink:href="#DejaVuSans-73" x="412.890625"/>
      <use xlink:href="#DejaVuSans-29" x="464.990234"/>
     </g>
    </g>
   </g>
   <g id="matplotlib.axis_2">
    <g id="ytick_1">
     <g id="line2d_10">
      <defs>
       <path id="m4e880b2c8f" d="M 0 0 
L -3.5 0 
" style="stroke: #000000; stroke-width: 0.8"/>
      </defs>
      <g>
       <use xlink:href="#m4e880b2c8f" x="159.954" y="598.841022" style="stroke: #000000; stroke-width: 0.8"/>
      </g>
     </g>
     <g id="text_11">
      <!-- 0 -->
      <g style="fill: #d62728" transform="translate(146.5915 602.640241)scale(0.1 -0.1)">
       <use xlink:href="#DejaVuSans-30"/>
      </g>
     </g>
    </g>
    <g id="ytick_2">
     <g id="line2d_11">
      <g>
       <use xlink:href="#m4e880b2c8f" x="159.954" y="540.596826" style="stroke: #000000; stroke-width: 0.8"/>
      </g>
     </g>
     <g id="text_12">
      <!-- 50 -->
      <g style="fill: #d62728" transform="translate(140.229 544.396044)scale(0.1 -0.1)">
       <use xlink:href="#DejaVuSans-35"/>
       <use xlink:href="#DejaVuSans-30" x="63.623047"/>
      </g>
     </g>
    </g>
    <g id="ytick_3">
     <g id="line2d_12">
      <g>
       <use xlink:href="#m4e880b2c8f" x="159.954" y="482.352629" style="stroke: #000000; stroke-width: 0.8"/>
      </g>
     </g>
     <g id="text_13">
      <!-- 100 -->
      <g style="fill: #d62728" transform="translate(133.8665 486.151848)scale(0.1 -0.1)">
       <use xlink:href="#DejaVuSans-31"/>
       <use xlink:href="#DejaVuSans-30" x="63.623047"/>
       <use xlink:href="#DejaVuSans-30" x="127.246094"/>
      </g>
     </g>
    </g>
    <g id="ytick_4">
     <g id="line2d_13">
      <g>
       <use xlink:href="#m4e880b2c8f" x="159.954" y="424.108433" style="stroke: #000000; stroke-width: 0.8"/>
      </g>
     </g>
     <g id="text_14">
      <!-- 150 -->
      <g style="fill: #d62728" transform="translate(133.8665 427.907652)scale(0.1 -0.1)">
       <use xlink:href="#DejaVuSans-31"/>
       <use xlink:href="#DejaVuSans-35" x="63.623047"/>
       <use xlink:href="#DejaVuSans-30" x="127.246094"/>
      </g>
     </g>
    </g>
    <g id="ytick_5">
     <g id="line2d_14">
      <g>
       <use xlink:href="#m4e880b2c8f" x="159.954" y="365.864236" style="stroke: #000000; stroke-width: 0.8"/>
      </g>
     </g>
     <g id="text_15">
      <!-- 200 -->
      <g style="fill: #d62728" transform="translate(133.8665 369.663455)scale(0.1 -0.1)">
       <use xlink:href="#DejaVuSans-32"/>
       <use xlink:href="#DejaVuSans-30" x="63.623047"/>
       <use xlink:href="#DejaVuSans-30" x="127.246094"/>
      </g>
     </g>
    </g>
    <g id="ytick_6">
     <g id="line2d_15">
      <g>
       <use xlink:href="#m4e880b2c8f" x="159.954" y="307.62004" style="stroke: #000000; stroke-width: 0.8"/>
      </g>
     </g>
     <g id="text_16">
      <!-- 250 -->
      <g style="fill: #d62728" transform="translate(133.8665 311.419259)scale(0.1 -0.1)">
       <use xlink:href="#DejaVuSans-32"/>
       <use xlink:href="#DejaVuSans-35" x="63.623047"/>
       <use xlink:href="#DejaVuSans-30" x="127.246094"/>
      </g>
     </g>
    </g>
    <g id="ytick_7">
     <g id="line2d_16">
      <g>
       <use xlink:href="#m4e880b2c8f" x="159.954" y="249.375844" style="stroke: #000000; stroke-width: 0.8"/>
      </g>
     </g>
     <g id="text_17">
      <!-- 300 -->
      <g style="fill: #d62728" transform="translate(133.8665 253.175062)scale(0.1 -0.1)">
       <defs>
        <path id="DejaVuSans-33" d="M 2597 2516 
Q 3050 2419 3304 2112 
Q 3559 1806 3559 1356 
Q 3559 666 3084 287 
Q 2609 -91 1734 -91 
Q 1441 -91 1130 -33 
Q 819 25 488 141 
L 488 750 
Q 750 597 1062 519 
Q 1375 441 1716 441 
Q 2309 441 2620 675 
Q 2931 909 2931 1356 
Q 2931 1769 2642 2001 
Q 2353 2234 1838 2234 
L 1294 2234 
L 1294 2753 
L 1863 2753 
Q 2328 2753 2575 2939 
Q 2822 3125 2822 3475 
Q 2822 3834 2567 4026 
Q 2313 4219 1838 4219 
Q 1578 4219 1281 4162 
Q 984 4106 628 3988 
L 628 4550 
Q 988 4650 1302 4700 
Q 1616 4750 1894 4750 
Q 2613 4750 3031 4423 
Q 3450 4097 3450 3541 
Q 3450 3153 3228 2886 
Q 3006 2619 2597 2516 
z
" transform="scale(0.015625)"/>
       </defs>
       <use xlink:href="#DejaVuSans-33"/>
       <use xlink:href="#DejaVuSans-30" x="63.623047"/>
       <use xlink:href="#DejaVuSans-30" x="127.246094"/>
      </g>
     </g>
    </g>
    <g id="ytick_8">
     <g id="line2d_17">
      <g>
       <use xlink:href="#m4e880b2c8f" x="159.954" y="191.131647" style="stroke: #000000; stroke-width: 0.8"/>
      </g>
     </g>
     <g id="text_18">
      <!-- 350 -->
      <g style="fill: #d62728" transform="translate(133.8665 194.930866)scale(0.1 -0.1)">
       <use xlink:href="#DejaVuSans-33"/>
       <use xlink:href="#DejaVuSans-35" x="63.623047"/>
       <use xlink:href="#DejaVuSans-30" x="127.246094"/>
      </g>
     </g>
    </g>
    <g id="ytick_9">
     <g id="line2d_18">
      <g>
       <use xlink:href="#m4e880b2c8f" x="159.954" y="132.887451" style="stroke: #000000; stroke-width: 0.8"/>
      </g>
     </g>
     <g id="text_19">
      <!-- 400 -->
      <g style="fill: #d62728" transform="translate(133.8665 136.68667)scale(0.1 -0.1)">
       <defs>
        <path id="DejaVuSans-34" d="M 2419 4116 
L 825 1625 
L 2419 1625 
L 2419 4116 
z
M 2253 4666 
L 3047 4666 
L 3047 1625 
L 3713 1625 
L 3713 1100 
L 3047 1100 
L 3047 0 
L 2419 0 
L 2419 1100 
L 313 1100 
L 313 1709 
L 2253 4666 
z
" transform="scale(0.015625)"/>
       </defs>
       <use xlink:href="#DejaVuSans-34"/>
       <use xlink:href="#DejaVuSans-30" x="63.623047"/>
       <use xlink:href="#DejaVuSans-30" x="127.246094"/>
      </g>
     </g>
    </g>
    <g id="text_20">
     <!-- $V_m$ (mV) -->
     <g style="fill: #d62728" transform="translate(127.786812 386.466958)rotate(-90)scale(0.1 -0.1)">
      <defs>
       <path id="DejaVuSans-Oblique-56" d="M 1319 0 
L 500 4666 
L 1119 4666 
L 1797 653 
L 4063 4666 
L 4750 4666 
L 2053 0 
L 1319 0 
z
" transform="scale(0.015625)"/>
       <path id="DejaVuSans-Oblique-6d" d="M 5747 2113 
L 5338 0 
L 4763 0 
L 5166 2094 
Q 5191 2228 5203 2325 
Q 5216 2422 5216 2491 
Q 5216 2772 5059 2928 
Q 4903 3084 4622 3084 
Q 4203 3084 3875 2770 
Q 3547 2456 3450 1953 
L 3066 0 
L 2491 0 
L 2900 2094 
Q 2925 2209 2937 2307 
Q 2950 2406 2950 2484 
Q 2950 2769 2794 2926 
Q 2638 3084 2363 3084 
Q 1938 3084 1609 2770 
Q 1281 2456 1184 1953 
L 800 0 
L 225 0 
L 909 3500 
L 1484 3500 
L 1375 2956 
Q 1609 3263 1923 3423 
Q 2238 3584 2597 3584 
Q 2978 3584 3223 3384 
Q 3469 3184 3519 2828 
Q 3781 3197 4126 3390 
Q 4472 3584 4856 3584 
Q 5306 3584 5551 3325 
Q 5797 3066 5797 2591 
Q 5797 2488 5784 2364 
Q 5772 2241 5747 2113 
z
" transform="scale(0.015625)"/>
       <path id="DejaVuSans-56" d="M 1831 0 
L 50 4666 
L 709 4666 
L 2188 738 
L 3669 4666 
L 4325 4666 
L 2547 0 
L 1831 0 
z
" transform="scale(0.015625)"/>
      </defs>
      <use xlink:href="#DejaVuSans-Oblique-56" transform="translate(0 0.125)"/>
      <use xlink:href="#DejaVuSans-Oblique-6d" transform="translate(68.408203 -16.28125)scale(0.7)"/>
      <use xlink:href="#DejaVuSans-20" transform="translate(139.331055 0.125)"/>
      <use xlink:href="#DejaVuSans-28" transform="translate(171.118164 0.125)"/>
      <use xlink:href="#DejaVuSans-6d" transform="translate(210.131836 0.125)"/>
      <use xlink:href="#DejaVuSans-56" transform="translate(307.543945 0.125)"/>
      <use xlink:href="#DejaVuSans-29" transform="translate(375.952148 0.125)"/>
     </g>
    </g>
   </g>
   <g id="line2d_19">
    <path d="M 207.819545 132.887451 
L 279.978659 132.887451 
L 284.789267 597.955392 
L 289.599874 132.887451 
L 294.410482 598.281815 
L 299.22109 132.887451 
L 304.031697 598.546466 
L 313.652912 598.265554 
L 328.084735 598.247108 
L 337.70595 598.21437 
L 347.327165 597.946948 
L 352.137773 132.887451 
L 356.948381 598.423006 
L 361.758988 132.887451 
L 366.569596 598.12512 
L 371.380203 132.887451 
L 520.509038 132.887451 
L 525.319646 597.955392 
L 530.130254 132.887451 
L 534.940861 598.281815 
L 539.751469 132.887451 
L 544.562076 598.546466 
L 554.183291 598.265554 
L 568.615114 598.247108 
L 578.236329 598.21437 
L 587.857545 597.946948 
L 592.668152 132.887451 
L 597.47876 598.423006 
L 602.289367 132.887451 
L 607.099975 598.12512 
L 611.910582 132.887451 
L 761.039418 132.887451 
L 765.850025 597.955392 
L 770.660633 132.887451 
L 775.47124 598.281815 
L 780.281848 132.887451 
L 785.092455 598.546466 
L 794.713671 598.265554 
L 809.145493 598.247108 
L 818.766709 598.21437 
L 828.387924 597.946948 
L 833.198531 132.887451 
L 838.009139 598.423006 
L 842.819746 132.887451 
L 847.630354 598.12512 
L 852.440962 132.887451 
L 1001.569797 132.887451 
L 1006.380404 597.955392 
L 1011.191012 132.887451 
L 1016.001619 598.281815 
L 1020.812227 132.887451 
L 1025.622835 598.546466 
L 1035.24405 598.265554 
L 1049.675873 598.247108 
L 1059.297088 598.21437 
L 1068.918303 597.946948 
L 1073.72891 132.887451 
L 1078.539518 598.423006 
L 1083.350126 132.887451 
L 1088.160733 598.12512 
L 1092.971341 132.887451 
L 1165.130455 132.887451 
L 1165.130455 132.887451 
" clip-path="url(#p6f3b11de79)" style="fill: none; stroke: #d62728; stroke-width: 1.5; stroke-linecap: square"/>
   </g>
   <g id="patch_3">
    <path d="M 159.954 621.829417 
L 159.954 109.6045 
" style="fill: none; stroke: #000000; stroke-width: 0.8; stroke-linejoin: miter; stroke-linecap: square"/>
   </g>
   <g id="patch_4">
    <path d="M 1212.996 621.829417 
L 1212.996 109.6045 
" style="fill: none; stroke: #000000; stroke-width: 0.8; stroke-linejoin: miter; stroke-linecap: square"/>
   </g>
   <g id="patch_5">
    <path d="M 159.954 621.829417 
L 1212.996 621.829417 
" style="fill: none; stroke: #000000; stroke-width: 0.8; stroke-linejoin: miter; stroke-linecap: square"/>
   </g>
   <g id="patch_6">
    <path d="M 159.954 109.6045 
L 1212.996 109.6045 
" style="fill: none; stroke: #000000; stroke-width: 0.8; stroke-linejoin: miter; stroke-linecap: square"/>
   </g>
   <g id="text_21">
    <!-- $R_m$: 5632757.444849065, $V_{thr}$: 0.0007857569482519929, $C_m$:  7.552819703100932e-09 -->
    <g transform="translate(421.335 103.6045)scale(0.12 -0.12)">
     <defs>
      <path id="DejaVuSans-Oblique-52" d="M 1613 4147 
L 1294 2491 
L 2106 2491 
Q 2584 2491 2879 2755 
Q 3175 3019 3175 3444 
Q 3175 3784 2976 3965 
Q 2778 4147 2406 4147 
L 1613 4147 
z
M 2772 2241 
Q 2972 2194 3105 2009 
Q 3238 1825 3413 1275 
L 3809 0 
L 3144 0 
L 2778 1197 
Q 2638 1659 2453 1815 
Q 2269 1972 1888 1972 
L 1191 1972 
L 806 0 
L 172 0 
L 1081 4666 
L 2503 4666 
Q 3150 4666 3495 4373 
Q 3841 4081 3841 3531 
Q 3841 3044 3547 2687 
Q 3253 2331 2772 2241 
z
" transform="scale(0.015625)"/>
      <path id="DejaVuSans-3a" d="M 750 794 
L 1409 794 
L 1409 0 
L 750 0 
L 750 794 
z
M 750 3309 
L 1409 3309 
L 1409 2516 
L 750 2516 
L 750 3309 
z
" transform="scale(0.015625)"/>
      <path id="DejaVuSans-36" d="M 2113 2584 
Q 1688 2584 1439 2293 
Q 1191 2003 1191 1497 
Q 1191 994 1439 701 
Q 1688 409 2113 409 
Q 2538 409 2786 701 
Q 3034 994 3034 1497 
Q 3034 2003 2786 2293 
Q 2538 2584 2113 2584 
z
M 3366 4563 
L 3366 3988 
Q 3128 4100 2886 4159 
Q 2644 4219 2406 4219 
Q 1781 4219 1451 3797 
Q 1122 3375 1075 2522 
Q 1259 2794 1537 2939 
Q 1816 3084 2150 3084 
Q 2853 3084 3261 2657 
Q 3669 2231 3669 1497 
Q 3669 778 3244 343 
Q 2819 -91 2113 -91 
Q 1303 -91 875 529 
Q 447 1150 447 2328 
Q 447 3434 972 4092 
Q 1497 4750 2381 4750 
Q 2619 4750 2861 4703 
Q 3103 4656 3366 4563 
z
" transform="scale(0.015625)"/>
      <path id="DejaVuSans-2e" d="M 684 794 
L 1344 794 
L 1344 0 
L 684 0 
L 684 794 
z
" transform="scale(0.015625)"/>
      <path id="DejaVuSans-38" d="M 2034 2216 
Q 1584 2216 1326 1975 
Q 1069 1734 1069 1313 
Q 1069 891 1326 650 
Q 1584 409 2034 409 
Q 2484 409 2743 651 
Q 3003 894 3003 1313 
Q 3003 1734 2745 1975 
Q 2488 2216 2034 2216 
z
M 1403 2484 
Q 997 2584 770 2862 
Q 544 3141 544 3541 
Q 544 4100 942 4425 
Q 1341 4750 2034 4750 
Q 2731 4750 3128 4425 
Q 3525 4100 3525 3541 
Q 3525 3141 3298 2862 
Q 3072 2584 2669 2484 
Q 3125 2378 3379 2068 
Q 3634 1759 3634 1313 
Q 3634 634 3220 271 
Q 2806 -91 2034 -91 
Q 1263 -91 848 271 
Q 434 634 434 1313 
Q 434 1759 690 2068 
Q 947 2378 1403 2484 
z
M 1172 3481 
Q 1172 3119 1398 2916 
Q 1625 2713 2034 2713 
Q 2441 2713 2670 2916 
Q 2900 3119 2900 3481 
Q 2900 3844 2670 4047 
Q 2441 4250 2034 4250 
Q 1625 4250 1398 4047 
Q 1172 3844 1172 3481 
z
" transform="scale(0.015625)"/>
      <path id="DejaVuSans-39" d="M 703 97 
L 703 672 
Q 941 559 1184 500 
Q 1428 441 1663 441 
Q 2288 441 2617 861 
Q 2947 1281 2994 2138 
Q 2813 1869 2534 1725 
Q 2256 1581 1919 1581 
Q 1219 1581 811 2004 
Q 403 2428 403 3163 
Q 403 3881 828 4315 
Q 1253 4750 1959 4750 
Q 2769 4750 3195 4129 
Q 3622 3509 3622 2328 
Q 3622 1225 3098 567 
Q 2575 -91 1691 -91 
Q 1453 -91 1209 -44 
Q 966 3 703 97 
z
M 1959 2075 
Q 2384 2075 2632 2365 
Q 2881 2656 2881 3163 
Q 2881 3666 2632 3958 
Q 2384 4250 1959 4250 
Q 1534 4250 1286 3958 
Q 1038 3666 1038 3163 
Q 1038 2656 1286 2365 
Q 1534 2075 1959 2075 
z
" transform="scale(0.015625)"/>
      <path id="DejaVuSans-2c" d="M 750 794 
L 1409 794 
L 1409 256 
L 897 -744 
L 494 -744 
L 750 256 
L 750 794 
z
" transform="scale(0.015625)"/>
      <path id="DejaVuSans-Oblique-74" d="M 2706 3500 
L 2619 3053 
L 1472 3053 
L 1100 1153 
Q 1081 1047 1072 975 
Q 1063 903 1063 863 
Q 1063 663 1183 572 
Q 1303 481 1569 481 
L 2150 481 
L 2053 0 
L 1503 0 
Q 991 0 739 200 
Q 488 400 488 806 
Q 488 878 497 964 
Q 506 1050 525 1153 
L 897 3053 
L 409 3053 
L 500 3500 
L 978 3500 
L 1172 4494 
L 1747 4494 
L 1556 3500 
L 2706 3500 
z
" transform="scale(0.015625)"/>
      <path id="DejaVuSans-Oblique-68" d="M 3566 2113 
L 3156 0 
L 2578 0 
L 2988 2091 
Q 3016 2238 3031 2350 
Q 3047 2463 3047 2528 
Q 3047 2791 2881 2937 
Q 2716 3084 2419 3084 
Q 1956 3084 1617 2771 
Q 1278 2459 1178 1941 
L 800 0 
L 225 0 
L 1172 4863 
L 1747 4863 
L 1375 2950 
Q 1594 3244 1934 3414 
Q 2275 3584 2650 3584 
Q 3113 3584 3367 3334 
Q 3622 3084 3622 2631 
Q 3622 2519 3608 2391 
Q 3594 2263 3566 2113 
z
" transform="scale(0.015625)"/>
      <path id="DejaVuSans-Oblique-72" d="M 2853 2969 
Q 2766 3016 2653 3041 
Q 2541 3066 2413 3066 
Q 1953 3066 1609 2717 
Q 1266 2369 1153 1784 
L 800 0 
L 225 0 
L 909 3500 
L 1484 3500 
L 1375 2956 
Q 1603 3259 1920 3421 
Q 2238 3584 2597 3584 
Q 2691 3584 2781 3573 
Q 2872 3563 2963 3538 
L 2853 2969 
z
" transform="scale(0.015625)"/>
      <path id="DejaVuSans-Oblique-43" d="M 4447 4306 
L 4319 3641 
Q 4019 3944 3683 4091 
Q 3347 4238 2956 4238 
Q 2422 4238 2017 3981 
Q 1613 3725 1319 3200 
Q 1131 2863 1032 2486 
Q 934 2109 934 1728 
Q 934 1091 1264 756 
Q 1594 422 2222 422 
Q 2656 422 3056 561 
Q 3456 700 3834 978 
L 3688 231 
Q 3316 72 2936 -9 
Q 2556 -91 2175 -91 
Q 1278 -91 773 396 
Q 269 884 269 1753 
Q 269 2309 461 2846 
Q 653 3384 1013 3828 
Q 1394 4300 1883 4525 
Q 2372 4750 3022 4750 
Q 3422 4750 3780 4639 
Q 4138 4528 4447 4306 
z
" transform="scale(0.015625)"/>
      <path id="DejaVuSans-2d" d="M 313 2009 
L 1997 2009 
L 1997 1497 
L 313 1497 
L 313 2009 
z
" transform="scale(0.015625)"/>
     </defs>
     <use xlink:href="#DejaVuSans-Oblique-52" transform="translate(0 0.78125)"/>
     <use xlink:href="#DejaVuSans-Oblique-6d" transform="translate(69.482422 -15.625)scale(0.7)"/>
     <use xlink:href="#DejaVuSans-3a" transform="translate(140.405273 0.78125)"/>
     <use xlink:href="#DejaVuSans-20" transform="translate(174.09668 0.78125)"/>
     <use xlink:href="#DejaVuSans-35" transform="translate(205.883789 0.78125)"/>
     <use xlink:href="#DejaVuSans-36" transform="translate(269.506836 0.78125)"/>
     <use xlink:href="#DejaVuSans-33" transform="translate(333.129883 0.78125)"/>
     <use xlink:href="#DejaVuSans-32" transform="translate(396.75293 0.78125)"/>
     <use xlink:href="#DejaVuSans-37" transform="translate(460.375977 0.78125)"/>
     <use xlink:href="#DejaVuSans-35" transform="translate(523.999023 0.78125)"/>
     <use xlink:href="#DejaVuSans-37" transform="translate(580.37207 0.78125)"/>
     <use xlink:href="#DejaVuSans-2e" transform="translate(643.995117 0.78125)"/>
     <use xlink:href="#DejaVuSans-34" transform="translate(675.782227 0.78125)"/>
     <use xlink:href="#DejaVuSans-34" transform="translate(739.405273 0.78125)"/>
     <use xlink:href="#DejaVuSans-34" transform="translate(803.02832 0.78125)"/>
     <use xlink:href="#DejaVuSans-38" transform="translate(866.651367 0.78125)"/>
     <use xlink:href="#DejaVuSans-34" transform="translate(930.274414 0.78125)"/>
     <use xlink:href="#DejaVuSans-39" transform="translate(993.897461 0.78125)"/>
     <use xlink:href="#DejaVuSans-30" transform="translate(1057.520508 0.78125)"/>
     <use xlink:href="#DejaVuSans-36" transform="translate(1121.143555 0.78125)"/>
     <use xlink:href="#DejaVuSans-35" transform="translate(1184.766602 0.78125)"/>
     <use xlink:href="#DejaVuSans-2c" transform="translate(1248.389648 0.78125)"/>
     <use xlink:href="#DejaVuSans-20" transform="translate(1280.176758 0.78125)"/>
     <use xlink:href="#DejaVuSans-Oblique-56" transform="translate(1311.963867 0.78125)"/>
     <use xlink:href="#DejaVuSans-Oblique-74" transform="translate(1380.37207 -15.625)scale(0.7)"/>
     <use xlink:href="#DejaVuSans-Oblique-68" transform="translate(1407.818359 -15.625)scale(0.7)"/>
     <use xlink:href="#DejaVuSans-Oblique-72" transform="translate(1452.183594 -15.625)scale(0.7)"/>
     <use xlink:href="#DejaVuSans-3a" transform="translate(1483.697266 0.78125)"/>
     <use xlink:href="#DejaVuSans-20" transform="translate(1517.388672 0.78125)"/>
     <use xlink:href="#DejaVuSans-30" transform="translate(1549.175781 0.78125)"/>
     <use xlink:href="#DejaVuSans-2e" transform="translate(1612.798828 0.78125)"/>
     <use xlink:href="#DejaVuSans-30" transform="translate(1644.585938 0.78125)"/>
     <use xlink:href="#DejaVuSans-30" transform="translate(1708.208984 0.78125)"/>
     <use xlink:href="#DejaVuSans-30" transform="translate(1771.832031 0.78125)"/>
     <use xlink:href="#DejaVuSans-37" transform="translate(1835.455078 0.78125)"/>
     <use xlink:href="#DejaVuSans-38" transform="translate(1899.078125 0.78125)"/>
     <use xlink:href="#DejaVuSans-35" transform="translate(1962.701172 0.78125)"/>
     <use xlink:href="#DejaVuSans-37" transform="translate(2019.074219 0.78125)"/>
     <use xlink:href="#DejaVuSans-35" transform="translate(2082.697266 0.78125)"/>
     <use xlink:href="#DejaVuSans-36" transform="translate(2146.320312 0.78125)"/>
     <use xlink:href="#DejaVuSans-39" transform="translate(2209.943359 0.78125)"/>
     <use xlink:href="#DejaVuSans-34" transform="translate(2273.566406 0.78125)"/>
     <use xlink:href="#DejaVuSans-38" transform="translate(2337.189453 0.78125)"/>
     <use xlink:href="#DejaVuSans-32" transform="translate(2400.8125 0.78125)"/>
     <use xlink:href="#DejaVuSans-35" transform="translate(2464.435547 0.78125)"/>
     <use xlink:href="#DejaVuSans-31" transform="translate(2528.058594 0.78125)"/>
     <use xlink:href="#DejaVuSans-39" transform="translate(2591.681641 0.78125)"/>
     <use xlink:href="#DejaVuSans-39" transform="translate(2655.304688 0.78125)"/>
     <use xlink:href="#DejaVuSans-32" transform="translate(2717.177734 0.78125)"/>
     <use xlink:href="#DejaVuSans-39" transform="translate(2779.050781 0.78125)"/>
     <use xlink:href="#DejaVuSans-2c" transform="translate(2842.673828 0.78125)"/>
     <use xlink:href="#DejaVuSans-20" transform="translate(2874.460938 0.78125)"/>
     <use xlink:href="#DejaVuSans-Oblique-43" transform="translate(2906.248047 0.78125)"/>
     <use xlink:href="#DejaVuSans-Oblique-6d" transform="translate(2976.072266 -15.625)scale(0.7)"/>
     <use xlink:href="#DejaVuSans-3a" transform="translate(3046.995117 0.78125)"/>
     <use xlink:href="#DejaVuSans-20" transform="translate(3080.686523 0.78125)"/>
     <use xlink:href="#DejaVuSans-20" transform="translate(3112.473633 0.78125)"/>
     <use xlink:href="#DejaVuSans-37" transform="translate(3144.260742 0.78125)"/>
     <use xlink:href="#DejaVuSans-2e" transform="translate(3207.883789 0.78125)"/>
     <use xlink:href="#DejaVuSans-35" transform="translate(3239.670898 0.78125)"/>
     <use xlink:href="#DejaVuSans-35" transform="translate(3303.293945 0.78125)"/>
     <use xlink:href="#DejaVuSans-32" transform="translate(3366.916992 0.78125)"/>
     <use xlink:href="#DejaVuSans-38" transform="translate(3430.540039 0.78125)"/>
     <use xlink:href="#DejaVuSans-31" transform="translate(3494.163086 0.78125)"/>
     <use xlink:href="#DejaVuSans-39" transform="translate(3557.786133 0.78125)"/>
     <use xlink:href="#DejaVuSans-37" transform="translate(3621.40918 0.78125)"/>
     <use xlink:href="#DejaVuSans-30" transform="translate(3685.032227 0.78125)"/>
     <use xlink:href="#DejaVuSans-33" transform="translate(3748.655273 0.78125)"/>
     <use xlink:href="#DejaVuSans-31" transform="translate(3812.27832 0.78125)"/>
     <use xlink:href="#DejaVuSans-30" transform="translate(3875.901367 0.78125)"/>
     <use xlink:href="#DejaVuSans-30" transform="translate(3939.524414 0.78125)"/>
     <use xlink:href="#DejaVuSans-39" transform="translate(4003.147461 0.78125)"/>
     <use xlink:href="#DejaVuSans-33" transform="translate(4066.770508 0.78125)"/>
     <use xlink:href="#DejaVuSans-32" transform="translate(4130.393555 0.78125)"/>
     <use xlink:href="#DejaVuSans-65" transform="translate(4194.016602 0.78125)"/>
     <use xlink:href="#DejaVuSans-2d" transform="translate(4255.540039 0.78125)"/>
     <use xlink:href="#DejaVuSans-30" transform="translate(4291.624023 0.78125)"/>
     <use xlink:href="#DejaVuSans-39" transform="translate(4355.24707 0.78125)"/>
    </g>
   </g>
  </g>
  <g id="axes_2">
   <g id="matplotlib.axis_3">
    <g id="ytick_10">
     <g id="line2d_20">
      <defs>
       <path id="m3cda62a80b" d="M 0 0 
L 3.5 0 
" style="stroke: #000000; stroke-width: 0.8"/>
      </defs>
      <g>
       <use xlink:href="#m3cda62a80b" x="1212.996" y="598.546466" style="stroke: #000000; stroke-width: 0.8"/>
      </g>
     </g>
     <g id="text_22">
      <!-- 0.0 -->
      <g style="fill: #1f77b4" transform="translate(1219.996 602.345685)scale(0.1 -0.1)">
       <use xlink:href="#DejaVuSans-30"/>
       <use xlink:href="#DejaVuSans-2e" x="63.623047"/>
       <use xlink:href="#DejaVuSans-30" x="95.410156"/>
      </g>
     </g>
    </g>
    <g id="ytick_11">
     <g id="line2d_21">
      <g>
       <use xlink:href="#m3cda62a80b" x="1212.996" y="540.339089" style="stroke: #000000; stroke-width: 0.8"/>
      </g>
     </g>
     <g id="text_23">
      <!-- 2.5 -->
      <g style="fill: #1f77b4" transform="translate(1219.996 544.138308)scale(0.1 -0.1)">
       <use xlink:href="#DejaVuSans-32"/>
       <use xlink:href="#DejaVuSans-2e" x="63.623047"/>
       <use xlink:href="#DejaVuSans-35" x="95.410156"/>
      </g>
     </g>
    </g>
    <g id="ytick_12">
     <g id="line2d_22">
      <g>
       <use xlink:href="#m3cda62a80b" x="1212.996" y="482.131712" style="stroke: #000000; stroke-width: 0.8"/>
      </g>
     </g>
     <g id="text_24">
      <!-- 5.0 -->
      <g style="fill: #1f77b4" transform="translate(1219.996 485.930931)scale(0.1 -0.1)">
       <use xlink:href="#DejaVuSans-35"/>
       <use xlink:href="#DejaVuSans-2e" x="63.623047"/>
       <use xlink:href="#DejaVuSans-30" x="95.410156"/>
      </g>
     </g>
    </g>
    <g id="ytick_13">
     <g id="line2d_23">
      <g>
       <use xlink:href="#m3cda62a80b" x="1212.996" y="423.924335" style="stroke: #000000; stroke-width: 0.8"/>
      </g>
     </g>
     <g id="text_25">
      <!-- 7.5 -->
      <g style="fill: #1f77b4" transform="translate(1219.996 427.723554)scale(0.1 -0.1)">
       <use xlink:href="#DejaVuSans-37"/>
       <use xlink:href="#DejaVuSans-2e" x="63.623047"/>
       <use xlink:href="#DejaVuSans-35" x="95.410156"/>
      </g>
     </g>
    </g>
    <g id="ytick_14">
     <g id="line2d_24">
      <g>
       <use xlink:href="#m3cda62a80b" x="1212.996" y="365.716958" style="stroke: #000000; stroke-width: 0.8"/>
      </g>
     </g>
     <g id="text_26">
      <!-- 10.0 -->
      <g style="fill: #1f77b4" transform="translate(1219.996 369.516177)scale(0.1 -0.1)">
       <use xlink:href="#DejaVuSans-31"/>
       <use xlink:href="#DejaVuSans-30" x="63.623047"/>
       <use xlink:href="#DejaVuSans-2e" x="127.246094"/>
       <use xlink:href="#DejaVuSans-30" x="159.033203"/>
      </g>
     </g>
    </g>
    <g id="ytick_15">
     <g id="line2d_25">
      <g>
       <use xlink:href="#m3cda62a80b" x="1212.996" y="307.509581" style="stroke: #000000; stroke-width: 0.8"/>
      </g>
     </g>
     <g id="text_27">
      <!-- 12.5 -->
      <g style="fill: #1f77b4" transform="translate(1219.996 311.3088)scale(0.1 -0.1)">
       <use xlink:href="#DejaVuSans-31"/>
       <use xlink:href="#DejaVuSans-32" x="63.623047"/>
       <use xlink:href="#DejaVuSans-2e" x="127.246094"/>
       <use xlink:href="#DejaVuSans-35" x="159.033203"/>
      </g>
     </g>
    </g>
    <g id="ytick_16">
     <g id="line2d_26">
      <g>
       <use xlink:href="#m3cda62a80b" x="1212.996" y="249.302205" style="stroke: #000000; stroke-width: 0.8"/>
      </g>
     </g>
     <g id="text_28">
      <!-- 15.0 -->
      <g style="fill: #1f77b4" transform="translate(1219.996 253.101423)scale(0.1 -0.1)">
       <use xlink:href="#DejaVuSans-31"/>
       <use xlink:href="#DejaVuSans-35" x="63.623047"/>
       <use xlink:href="#DejaVuSans-2e" x="127.246094"/>
       <use xlink:href="#DejaVuSans-30" x="159.033203"/>
      </g>
     </g>
    </g>
    <g id="ytick_17">
     <g id="line2d_27">
      <g>
       <use xlink:href="#m3cda62a80b" x="1212.996" y="191.094828" style="stroke: #000000; stroke-width: 0.8"/>
      </g>
     </g>
     <g id="text_29">
      <!-- 17.5 -->
      <g style="fill: #1f77b4" transform="translate(1219.996 194.894046)scale(0.1 -0.1)">
       <use xlink:href="#DejaVuSans-31"/>
       <use xlink:href="#DejaVuSans-37" x="63.623047"/>
       <use xlink:href="#DejaVuSans-2e" x="127.246094"/>
       <use xlink:href="#DejaVuSans-35" x="159.033203"/>
      </g>
     </g>
    </g>
    <g id="ytick_18">
     <g id="line2d_28">
      <g>
       <use xlink:href="#m3cda62a80b" x="1212.996" y="132.887451" style="stroke: #000000; stroke-width: 0.8"/>
      </g>
     </g>
     <g id="text_30">
      <!-- 20.0 -->
      <g style="fill: #1f77b4" transform="translate(1219.996 136.68667)scale(0.1 -0.1)">
       <use xlink:href="#DejaVuSans-32"/>
       <use xlink:href="#DejaVuSans-30" x="63.623047"/>
       <use xlink:href="#DejaVuSans-2e" x="127.246094"/>
       <use xlink:href="#DejaVuSans-30" x="159.033203"/>
      </g>
     </g>
    </g>
    <g id="text_31">
     <!-- $I_{ext}$ (nA) -->
     <g style="fill: #1f77b4" transform="translate(1253.860063 385.016958)rotate(-90)scale(0.1 -0.1)">
      <defs>
       <path id="DejaVuSans-Oblique-49" d="M 1081 4666 
L 1716 4666 
L 806 0 
L 172 0 
L 1081 4666 
z
" transform="scale(0.015625)"/>
       <path id="DejaVuSans-Oblique-65" d="M 3078 2063 
Q 3088 2113 3092 2166 
Q 3097 2219 3097 2272 
Q 3097 2653 2873 2875 
Q 2650 3097 2266 3097 
Q 1838 3097 1509 2826 
Q 1181 2556 1013 2059 
L 3078 2063 
z
M 3578 1613 
L 903 1613 
Q 884 1494 878 1425 
Q 872 1356 872 1306 
Q 872 872 1139 634 
Q 1406 397 1894 397 
Q 2269 397 2603 481 
Q 2938 566 3225 728 
L 3116 159 
Q 2806 34 2476 -28 
Q 2147 -91 1806 -91 
Q 1078 -91 686 257 
Q 294 606 294 1247 
Q 294 1794 489 2264 
Q 684 2734 1063 3103 
Q 1306 3334 1642 3459 
Q 1978 3584 2356 3584 
Q 2950 3584 3301 3228 
Q 3653 2872 3653 2272 
Q 3653 2128 3634 1964 
Q 3616 1800 3578 1613 
z
" transform="scale(0.015625)"/>
       <path id="DejaVuSans-Oblique-78" d="M 3841 3500 
L 2234 1784 
L 3219 0 
L 2559 0 
L 1819 1388 
L 531 0 
L -166 0 
L 1556 1844 
L 641 3500 
L 1300 3500 
L 1972 2234 
L 3144 3500 
L 3841 3500 
z
" transform="scale(0.015625)"/>
       <path id="DejaVuSans-6e" d="M 3513 2113 
L 3513 0 
L 2938 0 
L 2938 2094 
Q 2938 2591 2744 2837 
Q 2550 3084 2163 3084 
Q 1697 3084 1428 2787 
Q 1159 2491 1159 1978 
L 1159 0 
L 581 0 
L 581 3500 
L 1159 3500 
L 1159 2956 
Q 1366 3272 1645 3428 
Q 1925 3584 2291 3584 
Q 2894 3584 3203 3211 
Q 3513 2838 3513 2113 
z
" transform="scale(0.015625)"/>
       <path id="DejaVuSans-41" d="M 2188 4044 
L 1331 1722 
L 3047 1722 
L 2188 4044 
z
M 1831 4666 
L 2547 4666 
L 4325 0 
L 3669 0 
L 3244 1197 
L 1141 1197 
L 716 0 
L 50 0 
L 1831 4666 
z
" transform="scale(0.015625)"/>
      </defs>
      <use xlink:href="#DejaVuSans-Oblique-49" transform="translate(0 0.125)"/>
      <use xlink:href="#DejaVuSans-Oblique-65" transform="translate(29.492188 -16.28125)scale(0.7)"/>
      <use xlink:href="#DejaVuSans-Oblique-78" transform="translate(72.558594 -16.28125)scale(0.7)"/>
      <use xlink:href="#DejaVuSans-Oblique-74" transform="translate(113.984375 -16.28125)scale(0.7)"/>
      <use xlink:href="#DejaVuSans-20" transform="translate(144.165039 0.125)"/>
      <use xlink:href="#DejaVuSans-28" transform="translate(175.952148 0.125)"/>
      <use xlink:href="#DejaVuSans-6e" transform="translate(214.96582 0.125)"/>
      <use xlink:href="#DejaVuSans-41" transform="translate(278.344727 0.125)"/>
      <use xlink:href="#DejaVuSans-29" transform="translate(346.75293 0.125)"/>
     </g>
    </g>
   </g>
   <g id="line2d_29">
    <path d="M 207.819545 132.887451 
L 212.630153 134.723381 
L 217.440761 140.202218 
L 222.251368 149.237557 
L 227.061976 161.686906 
L 231.872583 177.35393 
L 236.683191 195.991552 
L 241.493799 217.305845 
L 246.304406 240.96067 
L 251.115014 266.582976 
L 255.925621 293.768684 
L 260.736229 322.089059 
L 279.978659 437.665233 
L 284.789267 464.850941 
L 289.599874 490.473247 
L 294.410482 514.128072 
L 299.22109 535.442365 
L 304.031697 554.079987 
L 308.842305 569.747011 
L 313.652912 582.19636 
L 318.46352 591.231699 
L 323.274127 596.710536 
L 328.084735 598.546466 
L 332.895343 596.710536 
L 337.70595 591.231699 
L 342.516558 582.19636 
L 347.327165 569.747011 
L 352.137773 554.079987 
L 356.948381 535.442365 
L 361.758988 514.128072 
L 366.569596 490.473247 
L 371.380203 464.850941 
L 376.190811 437.665233 
L 381.001418 409.344858 
L 400.243849 293.768684 
L 405.054456 266.582976 
L 409.865064 240.96067 
L 414.675672 217.305845 
L 419.486279 195.991552 
L 424.296887 177.35393 
L 429.107494 161.686906 
L 433.918102 149.237557 
L 438.728709 140.202218 
L 443.539317 134.723381 
L 448.349925 132.887451 
L 453.160532 134.723381 
L 457.97114 140.202218 
L 462.781747 149.237557 
L 467.592355 161.686906 
L 472.402963 177.35393 
L 477.21357 195.991552 
L 482.024178 217.305845 
L 486.834785 240.96067 
L 491.645393 266.582976 
L 496.456 293.768684 
L 501.266608 322.089059 
L 520.509038 437.665233 
L 525.319646 464.850941 
L 530.130254 490.473247 
L 534.940861 514.128072 
L 539.751469 535.442365 
L 544.562076 554.079987 
L 549.372684 569.747011 
L 554.183291 582.19636 
L 558.993899 591.231699 
L 563.804507 596.710536 
L 568.615114 598.546466 
L 573.425722 596.710536 
L 578.236329 591.231699 
L 583.046937 582.19636 
L 587.857545 569.747011 
L 592.668152 554.079987 
L 597.47876 535.442365 
L 602.289367 514.128072 
L 607.099975 490.473247 
L 611.910582 464.850941 
L 616.72119 437.665233 
L 621.531798 409.344858 
L 640.774228 293.768684 
L 645.584836 266.582976 
L 650.395443 240.96067 
L 655.206051 217.305845 
L 660.016658 195.991552 
L 664.827266 177.35393 
L 669.637873 161.686906 
L 674.448481 149.237557 
L 679.259089 140.202218 
L 684.069696 134.723381 
L 688.880304 132.887451 
L 693.690911 134.723381 
L 698.501519 140.202218 
L 703.312127 149.237557 
L 708.122734 161.686906 
L 712.933342 177.35393 
L 717.743949 195.991552 
L 722.554557 217.305845 
L 727.365164 240.96067 
L 732.175772 266.582976 
L 736.98638 293.768684 
L 741.796987 322.089059 
L 761.039418 437.665233 
L 765.850025 464.850941 
L 770.660633 490.473247 
L 775.47124 514.128072 
L 780.281848 535.442365 
L 785.092455 554.079987 
L 789.903063 569.747011 
L 794.713671 582.19636 
L 799.524278 591.231699 
L 804.334886 596.710536 
L 809.145493 598.546466 
L 813.956101 596.710536 
L 818.766709 591.231699 
L 823.577316 582.19636 
L 828.387924 569.747011 
L 833.198531 554.079987 
L 838.009139 535.442365 
L 842.819746 514.128072 
L 847.630354 490.473247 
L 852.440962 464.850941 
L 857.251569 437.665233 
L 862.062177 409.344858 
L 881.304607 293.768684 
L 886.115215 266.582976 
L 890.925822 240.96067 
L 895.73643 217.305845 
L 900.547037 195.991552 
L 905.357645 177.35393 
L 910.168253 161.686906 
L 914.97886 149.237557 
L 919.789468 140.202218 
L 924.600075 134.723381 
L 929.410683 132.887451 
L 934.221291 134.723381 
L 939.031898 140.202218 
L 943.842506 149.237557 
L 948.653113 161.686906 
L 953.463721 177.35393 
L 958.274328 195.991552 
L 963.084936 217.305845 
L 967.895544 240.96067 
L 972.706151 266.582976 
L 977.516759 293.768684 
L 982.327366 322.089059 
L 1001.569797 437.665233 
L 1006.380404 464.850941 
L 1011.191012 490.473247 
L 1016.001619 514.128072 
L 1020.812227 535.442365 
L 1025.622835 554.079987 
L 1030.433442 569.747011 
L 1035.24405 582.19636 
L 1040.054657 591.231699 
L 1044.865265 596.710536 
L 1049.675873 598.546466 
L 1054.48648 596.710536 
L 1059.297088 591.231699 
L 1064.107695 582.19636 
L 1068.918303 569.747011 
L 1073.72891 554.079987 
L 1078.539518 535.442365 
L 1083.350126 514.128072 
L 1088.160733 490.473247 
L 1092.971341 464.850941 
L 1097.781948 437.665233 
L 1102.592556 409.344858 
L 1121.834986 293.768684 
L 1126.645594 266.582976 
L 1131.456201 240.96067 
L 1136.266809 217.305845 
L 1141.077417 195.991552 
L 1145.888024 177.35393 
L 1150.698632 161.686906 
L 1155.509239 149.237557 
L 1160.319847 140.202218 
L 1165.130455 134.723381 
L 1165.130455 134.723381 
" clip-path="url(#p6f3b11de79)" style="fill: none; stroke: #1f77b4; stroke-width: 1.5; stroke-linecap: square"/>
   </g>
   <g id="patch_7">
    <path d="M 159.954 621.829417 
L 159.954 109.6045 
" style="fill: none; stroke: #000000; stroke-width: 0.8; stroke-linejoin: miter; stroke-linecap: square"/>
   </g>
   <g id="patch_8">
    <path d="M 1212.996 621.829417 
L 1212.996 109.6045 
" style="fill: none; stroke: #000000; stroke-width: 0.8; stroke-linejoin: miter; stroke-linecap: square"/>
   </g>
   <g id="patch_9">
    <path d="M 159.954 621.829417 
L 1212.996 621.829417 
" style="fill: none; stroke: #000000; stroke-width: 0.8; stroke-linejoin: miter; stroke-linecap: square"/>
   </g>
   <g id="patch_10">
    <path d="M 159.954 109.6045 
L 1212.996 109.6045 
" style="fill: none; stroke: #000000; stroke-width: 0.8; stroke-linejoin: miter; stroke-linecap: square"/>
   </g>
  </g>
  <g id="text_32">
   <!-- Time course of $I_{ext}$ and a neurone's $V_m$ -->
   <g transform="translate(575.46 23.273325)scale(0.12 -0.12)">
    <defs>
     <path id="DejaVuSans-63" d="M 3122 3366 
L 3122 2828 
Q 2878 2963 2633 3030 
Q 2388 3097 2138 3097 
Q 1578 3097 1268 2742 
Q 959 2388 959 1747 
Q 959 1106 1268 751 
Q 1578 397 2138 397 
Q 2388 397 2633 464 
Q 2878 531 3122 666 
L 3122 134 
Q 2881 22 2623 -34 
Q 2366 -91 2075 -91 
Q 1284 -91 818 406 
Q 353 903 353 1747 
Q 353 2603 823 3093 
Q 1294 3584 2113 3584 
Q 2378 3584 2631 3529 
Q 2884 3475 3122 3366 
z
" transform="scale(0.015625)"/>
     <path id="DejaVuSans-6f" d="M 1959 3097 
Q 1497 3097 1228 2736 
Q 959 2375 959 1747 
Q 959 1119 1226 758 
Q 1494 397 1959 397 
Q 2419 397 2687 759 
Q 2956 1122 2956 1747 
Q 2956 2369 2687 2733 
Q 2419 3097 1959 3097 
z
M 1959 3584 
Q 2709 3584 3137 3096 
Q 3566 2609 3566 1747 
Q 3566 888 3137 398 
Q 2709 -91 1959 -91 
Q 1206 -91 779 398 
Q 353 888 353 1747 
Q 353 2609 779 3096 
Q 1206 3584 1959 3584 
z
" transform="scale(0.015625)"/>
     <path id="DejaVuSans-75" d="M 544 1381 
L 544 3500 
L 1119 3500 
L 1119 1403 
Q 1119 906 1312 657 
Q 1506 409 1894 409 
Q 2359 409 2629 706 
Q 2900 1003 2900 1516 
L 2900 3500 
L 3475 3500 
L 3475 0 
L 2900 0 
L 2900 538 
Q 2691 219 2414 64 
Q 2138 -91 1772 -91 
Q 1169 -91 856 284 
Q 544 659 544 1381 
z
M 1991 3584 
L 1991 3584 
z
" transform="scale(0.015625)"/>
     <path id="DejaVuSans-72" d="M 2631 2963 
Q 2534 3019 2420 3045 
Q 2306 3072 2169 3072 
Q 1681 3072 1420 2755 
Q 1159 2438 1159 1844 
L 1159 0 
L 581 0 
L 581 3500 
L 1159 3500 
L 1159 2956 
Q 1341 3275 1631 3429 
Q 1922 3584 2338 3584 
Q 2397 3584 2469 3576 
Q 2541 3569 2628 3553 
L 2631 2963 
z
" transform="scale(0.015625)"/>
     <path id="DejaVuSans-66" d="M 2375 4863 
L 2375 4384 
L 1825 4384 
Q 1516 4384 1395 4259 
Q 1275 4134 1275 3809 
L 1275 3500 
L 2222 3500 
L 2222 3053 
L 1275 3053 
L 1275 0 
L 697 0 
L 697 3053 
L 147 3053 
L 147 3500 
L 697 3500 
L 697 3744 
Q 697 4328 969 4595 
Q 1241 4863 1831 4863 
L 2375 4863 
z
" transform="scale(0.015625)"/>
     <path id="DejaVuSans-61" d="M 2194 1759 
Q 1497 1759 1228 1600 
Q 959 1441 959 1056 
Q 959 750 1161 570 
Q 1363 391 1709 391 
Q 2188 391 2477 730 
Q 2766 1069 2766 1631 
L 2766 1759 
L 2194 1759 
z
M 3341 1997 
L 3341 0 
L 2766 0 
L 2766 531 
Q 2569 213 2275 61 
Q 1981 -91 1556 -91 
Q 1019 -91 701 211 
Q 384 513 384 1019 
Q 384 1609 779 1909 
Q 1175 2209 1959 2209 
L 2766 2209 
L 2766 2266 
Q 2766 2663 2505 2880 
Q 2244 3097 1772 3097 
Q 1472 3097 1187 3025 
Q 903 2953 641 2809 
L 641 3341 
Q 956 3463 1253 3523 
Q 1550 3584 1831 3584 
Q 2591 3584 2966 3190 
Q 3341 2797 3341 1997 
z
" transform="scale(0.015625)"/>
     <path id="DejaVuSans-64" d="M 2906 2969 
L 2906 4863 
L 3481 4863 
L 3481 0 
L 2906 0 
L 2906 525 
Q 2725 213 2448 61 
Q 2172 -91 1784 -91 
Q 1150 -91 751 415 
Q 353 922 353 1747 
Q 353 2572 751 3078 
Q 1150 3584 1784 3584 
Q 2172 3584 2448 3432 
Q 2725 3281 2906 2969 
z
M 947 1747 
Q 947 1113 1208 752 
Q 1469 391 1925 391 
Q 2381 391 2643 752 
Q 2906 1113 2906 1747 
Q 2906 2381 2643 2742 
Q 2381 3103 1925 3103 
Q 1469 3103 1208 2742 
Q 947 2381 947 1747 
z
" transform="scale(0.015625)"/>
     <path id="DejaVuSans-27" d="M 1147 4666 
L 1147 2931 
L 616 2931 
L 616 4666 
L 1147 4666 
z
" transform="scale(0.015625)"/>
    </defs>
    <use xlink:href="#DejaVuSans-54" transform="translate(0 0.015625)"/>
    <use xlink:href="#DejaVuSans-69" transform="translate(61.083984 0.015625)"/>
    <use xlink:href="#DejaVuSans-6d" transform="translate(88.867188 0.015625)"/>
    <use xlink:href="#DejaVuSans-65" transform="translate(186.279297 0.015625)"/>
    <use xlink:href="#DejaVuSans-20" transform="translate(247.802734 0.015625)"/>
    <use xlink:href="#DejaVuSans-63" transform="translate(279.589844 0.015625)"/>
    <use xlink:href="#DejaVuSans-6f" transform="translate(334.570312 0.015625)"/>
    <use xlink:href="#DejaVuSans-75" transform="translate(395.751953 0.015625)"/>
    <use xlink:href="#DejaVuSans-72" transform="translate(459.130859 0.015625)"/>
    <use xlink:href="#DejaVuSans-73" transform="translate(500.244141 0.015625)"/>
    <use xlink:href="#DejaVuSans-65" transform="translate(552.34375 0.015625)"/>
    <use xlink:href="#DejaVuSans-20" transform="translate(613.867188 0.015625)"/>
    <use xlink:href="#DejaVuSans-6f" transform="translate(645.654297 0.015625)"/>
    <use xlink:href="#DejaVuSans-66" transform="translate(706.835938 0.015625)"/>
    <use xlink:href="#DejaVuSans-20" transform="translate(742.041016 0.015625)"/>
    <use xlink:href="#DejaVuSans-Oblique-49" transform="translate(773.828125 0.015625)"/>
    <use xlink:href="#DejaVuSans-Oblique-65" transform="translate(803.320312 -16.390625)scale(0.7)"/>
    <use xlink:href="#DejaVuSans-Oblique-78" transform="translate(846.386719 -16.390625)scale(0.7)"/>
    <use xlink:href="#DejaVuSans-Oblique-74" transform="translate(887.8125 -16.390625)scale(0.7)"/>
    <use xlink:href="#DejaVuSans-20" transform="translate(917.993164 0.015625)"/>
    <use xlink:href="#DejaVuSans-61" transform="translate(949.780273 0.015625)"/>
    <use xlink:href="#DejaVuSans-6e" transform="translate(1011.05957 0.015625)"/>
    <use xlink:href="#DejaVuSans-64" transform="translate(1074.438477 0.015625)"/>
    <use xlink:href="#DejaVuSans-20" transform="translate(1137.915039 0.015625)"/>
    <use xlink:href="#DejaVuSans-61" transform="translate(1169.702148 0.015625)"/>
    <use xlink:href="#DejaVuSans-20" transform="translate(1230.981445 0.015625)"/>
    <use xlink:href="#DejaVuSans-6e" transform="translate(1262.768555 0.015625)"/>
    <use xlink:href="#DejaVuSans-65" transform="translate(1326.147461 0.015625)"/>
    <use xlink:href="#DejaVuSans-75" transform="translate(1387.670898 0.015625)"/>
    <use xlink:href="#DejaVuSans-72" transform="translate(1451.049805 0.015625)"/>
    <use xlink:href="#DejaVuSans-6f" transform="translate(1492.163086 0.015625)"/>
    <use xlink:href="#DejaVuSans-6e" transform="translate(1553.344727 0.015625)"/>
    <use xlink:href="#DejaVuSans-65" transform="translate(1616.723633 0.015625)"/>
    <use xlink:href="#DejaVuSans-27" transform="translate(1678.24707 0.015625)"/>
    <use xlink:href="#DejaVuSans-73" transform="translate(1705.737305 0.015625)"/>
    <use xlink:href="#DejaVuSans-20" transform="translate(1757.836914 0.015625)"/>
    <use xlink:href="#DejaVuSans-Oblique-56" transform="translate(1789.624023 0.015625)"/>
    <use xlink:href="#DejaVuSans-Oblique-6d" transform="translate(1858.032227 -16.390625)scale(0.7)"/>
   </g>
  </g>
 </g>
 <defs>
  <clipPath id="p6f3b11de79">
   <rect x="159.954" y="109.6045" width="1053.042" height="512.224917"/>
  </clipPath>
 </defs>
</svg>
