<?xml version="1.0" encoding="utf-8" standalone="no"?>
<!DOCTYPE svg PUBLIC "-//W3C//DTD SVG 1.1//EN"
  "http://www.w3.org/Graphics/SVG/1.1/DTD/svg11.dtd">
<svg xmlns:xlink="http://www.w3.org/1999/xlink" width="1382.4pt" height="707.76pt" viewBox="0 0 1382.4 707.76" xmlns="http://www.w3.org/2000/svg" version="1.1">
 <metadata>
  <rdf:RDF xmlns:dc="http://purl.org/dc/elements/1.1/" xmlns:cc="http://creativecommons.org/ns#" xmlns:rdf="http://www.w3.org/1999/02/22-rdf-syntax-ns#">
   <cc:Work>
    <dc:type rdf:resource="http://purl.org/dc/dcmitype/StillImage"/>
    <dc:date>2022-04-10T20:19:25.742610</dc:date>
    <dc:format>image/svg+xml</dc:format>
    <dc:creator>
     <cc:Agent>
      <dc:title>Matplotlib v3.5.1, https://matplotlib.org/</dc:title>
     </cc:Agent>
    </dc:creator>
   </cc:Work>
  </rdf:RDF>
 </metadata>
 <defs>
  <style type="text/css">*{stroke-linejoin: round; stroke-linecap: butt}</style>
 </defs>
 <g id="figure_1">
  <g id="patch_1">
   <path d="M 0 707.76 
L 1382.4 707.76 
L 1382.4 0 
L 0 0 
z
" style="fill: #ffffff"/>
  </g>
  <g id="axes_1">
   <g id="patch_2">
    <path d="M 141.054 621.829417 
L 1212.996 621.829417 
L 1212.996 109.6045 
L 141.054 109.6045 
z
" style="fill: #ffffff"/>
   </g>
   <g id="matplotlib.axis_1">
    <g id="xtick_1">
     <g id="line2d_1">
      <defs>
       <path id="maa1133c6e3" d="M 0 0 
L 0 3.5 
" style="stroke: #000000; stroke-width: 0.8"/>
      </defs>
      <g>
       <use xlink:href="#maa1133c6e3" x="189.778636" y="621.829417" style="stroke: #000000; stroke-width: 0.8"/>
      </g>
     </g>
     <g id="text_1">
      <!-- 0 -->
      <g transform="translate(186.597386 636.427854)scale(0.1 -0.1)">
       <defs>
        <path id="DejaVuSans-30" d="M 2034 4250 
Q 1547 4250 1301 3770 
Q 1056 3291 1056 2328 
Q 1056 1369 1301 889 
Q 1547 409 2034 409 
Q 2525 409 2770 889 
Q 3016 1369 3016 2328 
Q 3016 3291 2770 3770 
Q 2525 4250 2034 4250 
z
M 2034 4750 
Q 2819 4750 3233 4129 
Q 3647 3509 3647 2328 
Q 3647 1150 3233 529 
Q 2819 -91 2034 -91 
Q 1250 -91 836 529 
Q 422 1150 422 2328 
Q 422 3509 836 4129 
Q 1250 4750 2034 4750 
z
" transform="scale(0.015625)"/>
       </defs>
       <use xlink:href="#DejaVuSans-30"/>
      </g>
     </g>
    </g>
    <g id="xtick_2">
     <g id="line2d_2">
      <g>
       <use xlink:href="#maa1133c6e3" x="312.202346" y="621.829417" style="stroke: #000000; stroke-width: 0.8"/>
      </g>
     </g>
     <g id="text_2">
      <!-- 25 -->
      <g transform="translate(305.839846 636.427854)scale(0.1 -0.1)">
       <defs>
        <path id="DejaVuSans-32" d="M 1228 531 
L 3431 531 
L 3431 0 
L 469 0 
L 469 531 
Q 828 903 1448 1529 
Q 2069 2156 2228 2338 
Q 2531 2678 2651 2914 
Q 2772 3150 2772 3378 
Q 2772 3750 2511 3984 
Q 2250 4219 1831 4219 
Q 1534 4219 1204 4116 
Q 875 4013 500 3803 
L 500 4441 
Q 881 4594 1212 4672 
Q 1544 4750 1819 4750 
Q 2544 4750 2975 4387 
Q 3406 4025 3406 3419 
Q 3406 3131 3298 2873 
Q 3191 2616 2906 2266 
Q 2828 2175 2409 1742 
Q 1991 1309 1228 531 
z
" transform="scale(0.015625)"/>
        <path id="DejaVuSans-35" d="M 691 4666 
L 3169 4666 
L 3169 4134 
L 1269 4134 
L 1269 2991 
Q 1406 3038 1543 3061 
Q 1681 3084 1819 3084 
Q 2600 3084 3056 2656 
Q 3513 2228 3513 1497 
Q 3513 744 3044 326 
Q 2575 -91 1722 -91 
Q 1428 -91 1123 -41 
Q 819 9 494 109 
L 494 744 
Q 775 591 1075 516 
Q 1375 441 1709 441 
Q 2250 441 2565 725 
Q 2881 1009 2881 1497 
Q 2881 1984 2565 2268 
Q 2250 2553 1709 2553 
Q 1456 2553 1204 2497 
Q 953 2441 691 2322 
L 691 4666 
z
" transform="scale(0.015625)"/>
       </defs>
       <use xlink:href="#DejaVuSans-32"/>
       <use xlink:href="#DejaVuSans-35" x="63.623047"/>
      </g>
     </g>
    </g>
    <g id="xtick_3">
     <g id="line2d_3">
      <g>
       <use xlink:href="#maa1133c6e3" x="434.626055" y="621.829417" style="stroke: #000000; stroke-width: 0.8"/>
      </g>
     </g>
     <g id="text_3">
      <!-- 50 -->
      <g transform="translate(428.263555 636.427854)scale(0.1 -0.1)">
       <use xlink:href="#DejaVuSans-35"/>
       <use xlink:href="#DejaVuSans-30" x="63.623047"/>
      </g>
     </g>
    </g>
    <g id="xtick_4">
     <g id="line2d_4">
      <g>
       <use xlink:href="#maa1133c6e3" x="557.049765" y="621.829417" style="stroke: #000000; stroke-width: 0.8"/>
      </g>
     </g>
     <g id="text_4">
      <!-- 75 -->
      <g transform="translate(550.687265 636.427854)scale(0.1 -0.1)">
       <defs>
        <path id="DejaVuSans-37" d="M 525 4666 
L 3525 4666 
L 3525 4397 
L 1831 0 
L 1172 0 
L 2766 4134 
L 525 4134 
L 525 4666 
z
" transform="scale(0.015625)"/>
       </defs>
       <use xlink:href="#DejaVuSans-37"/>
       <use xlink:href="#DejaVuSans-35" x="63.623047"/>
      </g>
     </g>
    </g>
    <g id="xtick_5">
     <g id="line2d_5">
      <g>
       <use xlink:href="#maa1133c6e3" x="679.473474" y="621.829417" style="stroke: #000000; stroke-width: 0.8"/>
      </g>
     </g>
     <g id="text_5">
      <!-- 100 -->
      <g transform="translate(669.929724 636.427854)scale(0.1 -0.1)">
       <defs>
        <path id="DejaVuSans-31" d="M 794 531 
L 1825 531 
L 1825 4091 
L 703 3866 
L 703 4441 
L 1819 4666 
L 2450 4666 
L 2450 531 
L 3481 531 
L 3481 0 
L 794 0 
L 794 531 
z
" transform="scale(0.015625)"/>
       </defs>
       <use xlink:href="#DejaVuSans-31"/>
       <use xlink:href="#DejaVuSans-30" x="63.623047"/>
       <use xlink:href="#DejaVuSans-30" x="127.246094"/>
      </g>
     </g>
    </g>
    <g id="xtick_6">
     <g id="line2d_6">
      <g>
       <use xlink:href="#maa1133c6e3" x="801.897184" y="621.829417" style="stroke: #000000; stroke-width: 0.8"/>
      </g>
     </g>
     <g id="text_6">
      <!-- 125 -->
      <g transform="translate(792.353434 636.427854)scale(0.1 -0.1)">
       <use xlink:href="#DejaVuSans-31"/>
       <use xlink:href="#DejaVuSans-32" x="63.623047"/>
       <use xlink:href="#DejaVuSans-35" x="127.246094"/>
      </g>
     </g>
    </g>
    <g id="xtick_7">
     <g id="line2d_7">
      <g>
       <use xlink:href="#maa1133c6e3" x="924.320893" y="621.829417" style="stroke: #000000; stroke-width: 0.8"/>
      </g>
     </g>
     <g id="text_7">
      <!-- 150 -->
      <g transform="translate(914.777143 636.427854)scale(0.1 -0.1)">
       <use xlink:href="#DejaVuSans-31"/>
       <use xlink:href="#DejaVuSans-35" x="63.623047"/>
       <use xlink:href="#DejaVuSans-30" x="127.246094"/>
      </g>
     </g>
    </g>
    <g id="xtick_8">
     <g id="line2d_8">
      <g>
       <use xlink:href="#maa1133c6e3" x="1046.744603" y="621.829417" style="stroke: #000000; stroke-width: 0.8"/>
      </g>
     </g>
     <g id="text_8">
      <!-- 175 -->
      <g transform="translate(1037.200853 636.427854)scale(0.1 -0.1)">
       <use xlink:href="#DejaVuSans-31"/>
       <use xlink:href="#DejaVuSans-37" x="63.623047"/>
       <use xlink:href="#DejaVuSans-35" x="127.246094"/>
      </g>
     </g>
    </g>
    <g id="xtick_9">
     <g id="line2d_9">
      <g>
       <use xlink:href="#maa1133c6e3" x="1169.168312" y="621.829417" style="stroke: #000000; stroke-width: 0.8"/>
      </g>
     </g>
     <g id="text_9">
      <!-- 200 -->
      <g transform="translate(1159.624562 636.427854)scale(0.1 -0.1)">
       <use xlink:href="#DejaVuSans-32"/>
       <use xlink:href="#DejaVuSans-30" x="63.623047"/>
       <use xlink:href="#DejaVuSans-30" x="127.246094"/>
      </g>
     </g>
    </g>
    <g id="text_10">
     <!-- Time (ms) -->
     <g transform="translate(651.825781 650.105979)scale(0.1 -0.1)">
      <defs>
       <path id="DejaVuSans-54" d="M -19 4666 
L 3928 4666 
L 3928 4134 
L 2272 4134 
L 2272 0 
L 1638 0 
L 1638 4134 
L -19 4134 
L -19 4666 
z
" transform="scale(0.015625)"/>
       <path id="DejaVuSans-69" d="M 603 3500 
L 1178 3500 
L 1178 0 
L 603 0 
L 603 3500 
z
M 603 4863 
L 1178 4863 
L 1178 4134 
L 603 4134 
L 603 4863 
z
" transform="scale(0.015625)"/>
       <path id="DejaVuSans-6d" d="M 3328 2828 
Q 3544 3216 3844 3400 
Q 4144 3584 4550 3584 
Q 5097 3584 5394 3201 
Q 5691 2819 5691 2113 
L 5691 0 
L 5113 0 
L 5113 2094 
Q 5113 2597 4934 2840 
Q 4756 3084 4391 3084 
Q 3944 3084 3684 2787 
Q 3425 2491 3425 1978 
L 3425 0 
L 2847 0 
L 2847 2094 
Q 2847 2600 2669 2842 
Q 2491 3084 2119 3084 
Q 1678 3084 1418 2786 
Q 1159 2488 1159 1978 
L 1159 0 
L 581 0 
L 581 3500 
L 1159 3500 
L 1159 2956 
Q 1356 3278 1631 3431 
Q 1906 3584 2284 3584 
Q 2666 3584 2933 3390 
Q 3200 3197 3328 2828 
z
" transform="scale(0.015625)"/>
       <path id="DejaVuSans-65" d="M 3597 1894 
L 3597 1613 
L 953 1613 
Q 991 1019 1311 708 
Q 1631 397 2203 397 
Q 2534 397 2845 478 
Q 3156 559 3463 722 
L 3463 178 
Q 3153 47 2828 -22 
Q 2503 -91 2169 -91 
Q 1331 -91 842 396 
Q 353 884 353 1716 
Q 353 2575 817 3079 
Q 1281 3584 2069 3584 
Q 2775 3584 3186 3129 
Q 3597 2675 3597 1894 
z
M 3022 2063 
Q 3016 2534 2758 2815 
Q 2500 3097 2075 3097 
Q 1594 3097 1305 2825 
Q 1016 2553 972 2059 
L 3022 2063 
z
" transform="scale(0.015625)"/>
       <path id="DejaVuSans-20" transform="scale(0.015625)"/>
       <path id="DejaVuSans-28" d="M 1984 4856 
Q 1566 4138 1362 3434 
Q 1159 2731 1159 2009 
Q 1159 1288 1364 580 
Q 1569 -128 1984 -844 
L 1484 -844 
Q 1016 -109 783 600 
Q 550 1309 550 2009 
Q 550 2706 781 3412 
Q 1013 4119 1484 4856 
L 1984 4856 
z
" transform="scale(0.015625)"/>
       <path id="DejaVuSans-73" d="M 2834 3397 
L 2834 2853 
Q 2591 2978 2328 3040 
Q 2066 3103 1784 3103 
Q 1356 3103 1142 2972 
Q 928 2841 928 2578 
Q 928 2378 1081 2264 
Q 1234 2150 1697 2047 
L 1894 2003 
Q 2506 1872 2764 1633 
Q 3022 1394 3022 966 
Q 3022 478 2636 193 
Q 2250 -91 1575 -91 
Q 1294 -91 989 -36 
Q 684 19 347 128 
L 347 722 
Q 666 556 975 473 
Q 1284 391 1588 391 
Q 1994 391 2212 530 
Q 2431 669 2431 922 
Q 2431 1156 2273 1281 
Q 2116 1406 1581 1522 
L 1381 1569 
Q 847 1681 609 1914 
Q 372 2147 372 2553 
Q 372 3047 722 3315 
Q 1072 3584 1716 3584 
Q 2034 3584 2315 3537 
Q 2597 3491 2834 3397 
z
" transform="scale(0.015625)"/>
       <path id="DejaVuSans-29" d="M 513 4856 
L 1013 4856 
Q 1481 4119 1714 3412 
Q 1947 2706 1947 2009 
Q 1947 1309 1714 600 
Q 1481 -109 1013 -844 
L 513 -844 
Q 928 -128 1133 580 
Q 1338 1288 1338 2009 
Q 1338 2731 1133 3434 
Q 928 4138 513 4856 
z
" transform="scale(0.015625)"/>
      </defs>
      <use xlink:href="#DejaVuSans-54"/>
      <use xlink:href="#DejaVuSans-69" x="57.958984"/>
      <use xlink:href="#DejaVuSans-6d" x="85.742188"/>
      <use xlink:href="#DejaVuSans-65" x="183.154297"/>
      <use xlink:href="#DejaVuSans-20" x="244.677734"/>
      <use xlink:href="#DejaVuSans-28" x="276.464844"/>
      <use xlink:href="#DejaVuSans-6d" x="315.478516"/>
      <use xlink:href="#DejaVuSans-73" x="412.890625"/>
      <use xlink:href="#DejaVuSans-29" x="464.990234"/>
     </g>
    </g>
   </g>
   <g id="matplotlib.axis_2">
    <g id="ytick_1">
     <g id="line2d_10">
      <defs>
       <path id="me6c80c972d" d="M 0 0 
L -3.5 0 
" style="stroke: #000000; stroke-width: 0.8"/>
      </defs>
      <g>
       <use xlink:href="#me6c80c972d" x="141.054" y="601.508894" style="stroke: #000000; stroke-width: 0.8"/>
      </g>
     </g>
     <g id="text_11">
      <!-- 0 -->
      <g style="fill: #d62728" transform="translate(127.6915 605.308112)scale(0.1 -0.1)">
       <use xlink:href="#DejaVuSans-30"/>
      </g>
     </g>
    </g>
    <g id="ytick_2">
     <g id="line2d_11">
      <g>
       <use xlink:href="#me6c80c972d" x="141.054" y="542.931213" style="stroke: #000000; stroke-width: 0.8"/>
      </g>
     </g>
     <g id="text_12">
      <!-- 5 -->
      <g style="fill: #d62728" transform="translate(127.6915 546.730432)scale(0.1 -0.1)">
       <use xlink:href="#DejaVuSans-35"/>
      </g>
     </g>
    </g>
    <g id="ytick_3">
     <g id="line2d_12">
      <g>
       <use xlink:href="#me6c80c972d" x="141.054" y="484.353533" style="stroke: #000000; stroke-width: 0.8"/>
      </g>
     </g>
     <g id="text_13">
      <!-- 10 -->
      <g style="fill: #d62728" transform="translate(121.329 488.152752)scale(0.1 -0.1)">
       <use xlink:href="#DejaVuSans-31"/>
       <use xlink:href="#DejaVuSans-30" x="63.623047"/>
      </g>
     </g>
    </g>
    <g id="ytick_4">
     <g id="line2d_13">
      <g>
       <use xlink:href="#me6c80c972d" x="141.054" y="425.775853" style="stroke: #000000; stroke-width: 0.8"/>
      </g>
     </g>
     <g id="text_14">
      <!-- 15 -->
      <g style="fill: #d62728" transform="translate(121.329 429.575071)scale(0.1 -0.1)">
       <use xlink:href="#DejaVuSans-31"/>
       <use xlink:href="#DejaVuSans-35" x="63.623047"/>
      </g>
     </g>
    </g>
    <g id="ytick_5">
     <g id="line2d_14">
      <g>
       <use xlink:href="#me6c80c972d" x="141.054" y="367.198172" style="stroke: #000000; stroke-width: 0.8"/>
      </g>
     </g>
     <g id="text_15">
      <!-- 20 -->
      <g style="fill: #d62728" transform="translate(121.329 370.997391)scale(0.1 -0.1)">
       <use xlink:href="#DejaVuSans-32"/>
       <use xlink:href="#DejaVuSans-30" x="63.623047"/>
      </g>
     </g>
    </g>
    <g id="ytick_6">
     <g id="line2d_15">
      <g>
       <use xlink:href="#me6c80c972d" x="141.054" y="308.620492" style="stroke: #000000; stroke-width: 0.8"/>
      </g>
     </g>
     <g id="text_16">
      <!-- 25 -->
      <g style="fill: #d62728" transform="translate(121.329 312.419711)scale(0.1 -0.1)">
       <use xlink:href="#DejaVuSans-32"/>
       <use xlink:href="#DejaVuSans-35" x="63.623047"/>
      </g>
     </g>
    </g>
    <g id="ytick_7">
     <g id="line2d_16">
      <g>
       <use xlink:href="#me6c80c972d" x="141.054" y="250.042811" style="stroke: #000000; stroke-width: 0.8"/>
      </g>
     </g>
     <g id="text_17">
      <!-- 30 -->
      <g style="fill: #d62728" transform="translate(121.329 253.84203)scale(0.1 -0.1)">
       <defs>
        <path id="DejaVuSans-33" d="M 2597 2516 
Q 3050 2419 3304 2112 
Q 3559 1806 3559 1356 
Q 3559 666 3084 287 
Q 2609 -91 1734 -91 
Q 1441 -91 1130 -33 
Q 819 25 488 141 
L 488 750 
Q 750 597 1062 519 
Q 1375 441 1716 441 
Q 2309 441 2620 675 
Q 2931 909 2931 1356 
Q 2931 1769 2642 2001 
Q 2353 2234 1838 2234 
L 1294 2234 
L 1294 2753 
L 1863 2753 
Q 2328 2753 2575 2939 
Q 2822 3125 2822 3475 
Q 2822 3834 2567 4026 
Q 2313 4219 1838 4219 
Q 1578 4219 1281 4162 
Q 984 4106 628 3988 
L 628 4550 
Q 988 4650 1302 4700 
Q 1616 4750 1894 4750 
Q 2613 4750 3031 4423 
Q 3450 4097 3450 3541 
Q 3450 3153 3228 2886 
Q 3006 2619 2597 2516 
z
" transform="scale(0.015625)"/>
       </defs>
       <use xlink:href="#DejaVuSans-33"/>
       <use xlink:href="#DejaVuSans-30" x="63.623047"/>
      </g>
     </g>
    </g>
    <g id="ytick_8">
     <g id="line2d_17">
      <g>
       <use xlink:href="#me6c80c972d" x="141.054" y="191.465131" style="stroke: #000000; stroke-width: 0.8"/>
      </g>
     </g>
     <g id="text_18">
      <!-- 35 -->
      <g style="fill: #d62728" transform="translate(121.329 195.26435)scale(0.1 -0.1)">
       <use xlink:href="#DejaVuSans-33"/>
       <use xlink:href="#DejaVuSans-35" x="63.623047"/>
      </g>
     </g>
    </g>
    <g id="ytick_9">
     <g id="line2d_18">
      <g>
       <use xlink:href="#me6c80c972d" x="141.054" y="132.887451" style="stroke: #000000; stroke-width: 0.8"/>
      </g>
     </g>
     <g id="text_19">
      <!-- 40 -->
      <g style="fill: #d62728" transform="translate(121.329 136.68667)scale(0.1 -0.1)">
       <defs>
        <path id="DejaVuSans-34" d="M 2419 4116 
L 825 1625 
L 2419 1625 
L 2419 4116 
z
M 2253 4666 
L 3047 4666 
L 3047 1625 
L 3713 1625 
L 3713 1100 
L 3047 1100 
L 3047 0 
L 2419 0 
L 2419 1100 
L 313 1100 
L 313 1709 
L 2253 4666 
z
" transform="scale(0.015625)"/>
       </defs>
       <use xlink:href="#DejaVuSans-34"/>
       <use xlink:href="#DejaVuSans-30" x="63.623047"/>
      </g>
     </g>
    </g>
    <g id="text_20">
     <!-- $V_m$ (mV) -->
     <g style="fill: #d62728" transform="translate(115.249313 386.466958)rotate(-90)scale(0.1 -0.1)">
      <defs>
       <path id="DejaVuSans-Oblique-56" d="M 1319 0 
L 500 4666 
L 1119 4666 
L 1797 653 
L 4063 4666 
L 4750 4666 
L 2053 0 
L 1319 0 
z
" transform="scale(0.015625)"/>
       <path id="DejaVuSans-Oblique-6d" d="M 5747 2113 
L 5338 0 
L 4763 0 
L 5166 2094 
Q 5191 2228 5203 2325 
Q 5216 2422 5216 2491 
Q 5216 2772 5059 2928 
Q 4903 3084 4622 3084 
Q 4203 3084 3875 2770 
Q 3547 2456 3450 1953 
L 3066 0 
L 2491 0 
L 2900 2094 
Q 2925 2209 2937 2307 
Q 2950 2406 2950 2484 
Q 2950 2769 2794 2926 
Q 2638 3084 2363 3084 
Q 1938 3084 1609 2770 
Q 1281 2456 1184 1953 
L 800 0 
L 225 0 
L 909 3500 
L 1484 3500 
L 1375 2956 
Q 1609 3263 1923 3423 
Q 2238 3584 2597 3584 
Q 2978 3584 3223 3384 
Q 3469 3184 3519 2828 
Q 3781 3197 4126 3390 
Q 4472 3584 4856 3584 
Q 5306 3584 5551 3325 
Q 5797 3066 5797 2591 
Q 5797 2488 5784 2364 
Q 5772 2241 5747 2113 
z
" transform="scale(0.015625)"/>
       <path id="DejaVuSans-56" d="M 1831 0 
L 50 4666 
L 709 4666 
L 2188 738 
L 3669 4666 
L 4325 4666 
L 2547 0 
L 1831 0 
z
" transform="scale(0.015625)"/>
      </defs>
      <use xlink:href="#DejaVuSans-Oblique-56" transform="translate(0 0.125)"/>
      <use xlink:href="#DejaVuSans-Oblique-6d" transform="translate(68.408203 -16.28125)scale(0.7)"/>
      <use xlink:href="#DejaVuSans-20" transform="translate(139.331055 0.125)"/>
      <use xlink:href="#DejaVuSans-28" transform="translate(171.118164 0.125)"/>
      <use xlink:href="#DejaVuSans-6d" transform="translate(210.131836 0.125)"/>
      <use xlink:href="#DejaVuSans-56" transform="translate(307.543945 0.125)"/>
      <use xlink:href="#DejaVuSans-29" transform="translate(375.952148 0.125)"/>
     </g>
    </g>
   </g>
   <g id="line2d_19">
    <path d="M 189.778636 132.887451 
L 263.232862 132.887451 
L 268.12981 592.601885 
L 273.026759 132.887451 
L 277.923707 595.884806 
L 282.820656 132.887451 
L 287.717604 598.546466 
L 292.614552 596.697434 
L 297.511501 595.721259 
L 302.408449 595.369979 
L 307.305397 595.391965 
L 312.202346 595.535747 
L 317.099294 595.553836 
L 321.996243 595.206491 
L 326.893191 594.265362 
L 331.790139 592.51696 
L 336.687088 132.887451 
L 341.584036 597.304798 
L 346.480984 132.887451 
L 351.377933 594.308883 
L 356.274881 132.887451 
L 508.080281 132.887451 
L 512.977229 592.601885 
L 517.874178 132.887451 
L 522.771126 595.884806 
L 527.668074 132.887451 
L 532.565023 598.546466 
L 537.461971 596.697434 
L 542.35892 595.721259 
L 547.255868 595.369979 
L 552.152816 595.391965 
L 557.049765 595.535747 
L 561.946713 595.553836 
L 566.843661 595.206491 
L 571.74061 594.265362 
L 576.637558 592.51696 
L 581.534507 132.887451 
L 586.431455 597.304798 
L 591.328403 132.887451 
L 596.225352 594.308883 
L 601.1223 132.887451 
L 752.9277 132.887451 
L 757.824648 592.601885 
L 762.721597 132.887451 
L 767.618545 595.884806 
L 772.515493 132.887451 
L 777.412442 598.546466 
L 782.30939 596.697434 
L 787.206339 595.721259 
L 792.103287 595.369979 
L 797.000235 595.391965 
L 801.897184 595.535747 
L 806.794132 595.553836 
L 811.69108 595.206491 
L 816.588029 594.265362 
L 821.484977 592.51696 
L 826.381926 132.887451 
L 831.278874 597.304798 
L 836.175822 132.887451 
L 841.072771 594.308883 
L 845.969719 132.887451 
L 997.775119 132.887451 
L 1002.672067 592.601885 
L 1007.569016 132.887451 
L 1012.465964 595.884806 
L 1017.362912 132.887451 
L 1022.259861 598.546466 
L 1027.156809 596.697434 
L 1032.053757 595.721259 
L 1036.950706 595.369979 
L 1041.847654 595.391965 
L 1046.744603 595.535747 
L 1051.641551 595.553836 
L 1056.538499 595.206491 
L 1061.435448 594.265362 
L 1066.332396 592.51696 
L 1071.229344 132.887451 
L 1076.126293 597.304798 
L 1081.023241 132.887451 
L 1085.92019 594.308883 
L 1090.817138 132.887451 
L 1164.271364 132.887451 
L 1164.271364 132.887451 
" clip-path="url(#p99be4f90ff)" style="fill: none; stroke: #d62728; stroke-width: 1.5; stroke-linecap: square"/>
   </g>
   <g id="patch_3">
    <path d="M 141.054 621.829417 
L 141.054 109.6045 
" style="fill: none; stroke: #000000; stroke-width: 0.8; stroke-linejoin: miter; stroke-linecap: square"/>
   </g>
   <g id="patch_4">
    <path d="M 1212.996 621.829417 
L 1212.996 109.6045 
" style="fill: none; stroke: #000000; stroke-width: 0.8; stroke-linejoin: miter; stroke-linecap: square"/>
   </g>
   <g id="patch_5">
    <path d="M 141.054 621.829417 
L 1212.996 621.829417 
" style="fill: none; stroke: #000000; stroke-width: 0.8; stroke-linejoin: miter; stroke-linecap: square"/>
   </g>
   <g id="patch_6">
    <path d="M 141.054 109.6045 
L 1212.996 109.6045 
" style="fill: none; stroke: #000000; stroke-width: 0.8; stroke-linejoin: miter; stroke-linecap: square"/>
   </g>
   <g id="text_21">
    <!-- $R_m$: 5.632757444849064MΩ, $V_{thr}$: 0.7857569482519928mV, $C_m$:  7.5528197031009315e-06 -->
    <g transform="translate(400.125 103.6045)scale(0.12 -0.12)">
     <defs>
      <path id="DejaVuSans-Oblique-52" d="M 1613 4147 
L 1294 2491 
L 2106 2491 
Q 2584 2491 2879 2755 
Q 3175 3019 3175 3444 
Q 3175 3784 2976 3965 
Q 2778 4147 2406 4147 
L 1613 4147 
z
M 2772 2241 
Q 2972 2194 3105 2009 
Q 3238 1825 3413 1275 
L 3809 0 
L 3144 0 
L 2778 1197 
Q 2638 1659 2453 1815 
Q 2269 1972 1888 1972 
L 1191 1972 
L 806 0 
L 172 0 
L 1081 4666 
L 2503 4666 
Q 3150 4666 3495 4373 
Q 3841 4081 3841 3531 
Q 3841 3044 3547 2687 
Q 3253 2331 2772 2241 
z
" transform="scale(0.015625)"/>
      <path id="DejaVuSans-3a" d="M 750 794 
L 1409 794 
L 1409 0 
L 750 0 
L 750 794 
z
M 750 3309 
L 1409 3309 
L 1409 2516 
L 750 2516 
L 750 3309 
z
" transform="scale(0.015625)"/>
      <path id="DejaVuSans-2e" d="M 684 794 
L 1344 794 
L 1344 0 
L 684 0 
L 684 794 
z
" transform="scale(0.015625)"/>
      <path id="DejaVuSans-36" d="M 2113 2584 
Q 1688 2584 1439 2293 
Q 1191 2003 1191 1497 
Q 1191 994 1439 701 
Q 1688 409 2113 409 
Q 2538 409 2786 701 
Q 3034 994 3034 1497 
Q 3034 2003 2786 2293 
Q 2538 2584 2113 2584 
z
M 3366 4563 
L 3366 3988 
Q 3128 4100 2886 4159 
Q 2644 4219 2406 4219 
Q 1781 4219 1451 3797 
Q 1122 3375 1075 2522 
Q 1259 2794 1537 2939 
Q 1816 3084 2150 3084 
Q 2853 3084 3261 2657 
Q 3669 2231 3669 1497 
Q 3669 778 3244 343 
Q 2819 -91 2113 -91 
Q 1303 -91 875 529 
Q 447 1150 447 2328 
Q 447 3434 972 4092 
Q 1497 4750 2381 4750 
Q 2619 4750 2861 4703 
Q 3103 4656 3366 4563 
z
" transform="scale(0.015625)"/>
      <path id="DejaVuSans-38" d="M 2034 2216 
Q 1584 2216 1326 1975 
Q 1069 1734 1069 1313 
Q 1069 891 1326 650 
Q 1584 409 2034 409 
Q 2484 409 2743 651 
Q 3003 894 3003 1313 
Q 3003 1734 2745 1975 
Q 2488 2216 2034 2216 
z
M 1403 2484 
Q 997 2584 770 2862 
Q 544 3141 544 3541 
Q 544 4100 942 4425 
Q 1341 4750 2034 4750 
Q 2731 4750 3128 4425 
Q 3525 4100 3525 3541 
Q 3525 3141 3298 2862 
Q 3072 2584 2669 2484 
Q 3125 2378 3379 2068 
Q 3634 1759 3634 1313 
Q 3634 634 3220 271 
Q 2806 -91 2034 -91 
Q 1263 -91 848 271 
Q 434 634 434 1313 
Q 434 1759 690 2068 
Q 947 2378 1403 2484 
z
M 1172 3481 
Q 1172 3119 1398 2916 
Q 1625 2713 2034 2713 
Q 2441 2713 2670 2916 
Q 2900 3119 2900 3481 
Q 2900 3844 2670 4047 
Q 2441 4250 2034 4250 
Q 1625 4250 1398 4047 
Q 1172 3844 1172 3481 
z
" transform="scale(0.015625)"/>
      <path id="DejaVuSans-39" d="M 703 97 
L 703 672 
Q 941 559 1184 500 
Q 1428 441 1663 441 
Q 2288 441 2617 861 
Q 2947 1281 2994 2138 
Q 2813 1869 2534 1725 
Q 2256 1581 1919 1581 
Q 1219 1581 811 2004 
Q 403 2428 403 3163 
Q 403 3881 828 4315 
Q 1253 4750 1959 4750 
Q 2769 4750 3195 4129 
Q 3622 3509 3622 2328 
Q 3622 1225 3098 567 
Q 2575 -91 1691 -91 
Q 1453 -91 1209 -44 
Q 966 3 703 97 
z
M 1959 2075 
Q 2384 2075 2632 2365 
Q 2881 2656 2881 3163 
Q 2881 3666 2632 3958 
Q 2384 4250 1959 4250 
Q 1534 4250 1286 3958 
Q 1038 3666 1038 3163 
Q 1038 2656 1286 2365 
Q 1534 2075 1959 2075 
z
" transform="scale(0.015625)"/>
      <path id="DejaVuSans-4d" d="M 628 4666 
L 1569 4666 
L 2759 1491 
L 3956 4666 
L 4897 4666 
L 4897 0 
L 4281 0 
L 4281 4097 
L 3078 897 
L 2444 897 
L 1241 4097 
L 1241 0 
L 628 0 
L 628 4666 
z
" transform="scale(0.015625)"/>
      <path id="DejaVuSans-3a9" d="M 4647 556 
L 4647 0 
L 2772 0 
L 2772 556 
Q 3325 859 3634 1378 
Q 3944 1897 3944 2528 
Q 3944 3278 3531 3731 
Q 3119 4184 2444 4184 
Q 1769 4184 1355 3729 
Q 941 3275 941 2528 
Q 941 1897 1250 1378 
Q 1563 859 2119 556 
L 2119 0 
L 244 0 
L 244 556 
L 1241 556 
Q 747 991 519 1456 
Q 294 1922 294 2497 
Q 294 3491 894 4106 
Q 1491 4722 2444 4722 
Q 3391 4722 3994 4106 
Q 4594 3494 4594 2528 
Q 4594 1922 4372 1459 
Q 4150 997 3647 556 
L 4647 556 
z
" transform="scale(0.015625)"/>
      <path id="DejaVuSans-2c" d="M 750 794 
L 1409 794 
L 1409 256 
L 897 -744 
L 494 -744 
L 750 256 
L 750 794 
z
" transform="scale(0.015625)"/>
      <path id="DejaVuSans-Oblique-74" d="M 2706 3500 
L 2619 3053 
L 1472 3053 
L 1100 1153 
Q 1081 1047 1072 975 
Q 1063 903 1063 863 
Q 1063 663 1183 572 
Q 1303 481 1569 481 
L 2150 481 
L 2053 0 
L 1503 0 
Q 991 0 739 200 
Q 488 400 488 806 
Q 488 878 497 964 
Q 506 1050 525 1153 
L 897 3053 
L 409 3053 
L 500 3500 
L 978 3500 
L 1172 4494 
L 1747 4494 
L 1556 3500 
L 2706 3500 
z
" transform="scale(0.015625)"/>
      <path id="DejaVuSans-Oblique-68" d="M 3566 2113 
L 3156 0 
L 2578 0 
L 2988 2091 
Q 3016 2238 3031 2350 
Q 3047 2463 3047 2528 
Q 3047 2791 2881 2937 
Q 2716 3084 2419 3084 
Q 1956 3084 1617 2771 
Q 1278 2459 1178 1941 
L 800 0 
L 225 0 
L 1172 4863 
L 1747 4863 
L 1375 2950 
Q 1594 3244 1934 3414 
Q 2275 3584 2650 3584 
Q 3113 3584 3367 3334 
Q 3622 3084 3622 2631 
Q 3622 2519 3608 2391 
Q 3594 2263 3566 2113 
z
" transform="scale(0.015625)"/>
      <path id="DejaVuSans-Oblique-72" d="M 2853 2969 
Q 2766 3016 2653 3041 
Q 2541 3066 2413 3066 
Q 1953 3066 1609 2717 
Q 1266 2369 1153 1784 
L 800 0 
L 225 0 
L 909 3500 
L 1484 3500 
L 1375 2956 
Q 1603 3259 1920 3421 
Q 2238 3584 2597 3584 
Q 2691 3584 2781 3573 
Q 2872 3563 2963 3538 
L 2853 2969 
z
" transform="scale(0.015625)"/>
      <path id="DejaVuSans-Oblique-43" d="M 4447 4306 
L 4319 3641 
Q 4019 3944 3683 4091 
Q 3347 4238 2956 4238 
Q 2422 4238 2017 3981 
Q 1613 3725 1319 3200 
Q 1131 2863 1032 2486 
Q 934 2109 934 1728 
Q 934 1091 1264 756 
Q 1594 422 2222 422 
Q 2656 422 3056 561 
Q 3456 700 3834 978 
L 3688 231 
Q 3316 72 2936 -9 
Q 2556 -91 2175 -91 
Q 1278 -91 773 396 
Q 269 884 269 1753 
Q 269 2309 461 2846 
Q 653 3384 1013 3828 
Q 1394 4300 1883 4525 
Q 2372 4750 3022 4750 
Q 3422 4750 3780 4639 
Q 4138 4528 4447 4306 
z
" transform="scale(0.015625)"/>
      <path id="DejaVuSans-2d" d="M 313 2009 
L 1997 2009 
L 1997 1497 
L 313 1497 
L 313 2009 
z
" transform="scale(0.015625)"/>
     </defs>
     <use xlink:href="#DejaVuSans-Oblique-52" transform="translate(0 0.78125)"/>
     <use xlink:href="#DejaVuSans-Oblique-6d" transform="translate(69.482422 -15.625)scale(0.7)"/>
     <use xlink:href="#DejaVuSans-3a" transform="translate(140.405273 0.78125)"/>
     <use xlink:href="#DejaVuSans-20" transform="translate(174.09668 0.78125)"/>
     <use xlink:href="#DejaVuSans-35" transform="translate(205.883789 0.78125)"/>
     <use xlink:href="#DejaVuSans-2e" transform="translate(269.506836 0.78125)"/>
     <use xlink:href="#DejaVuSans-36" transform="translate(301.293945 0.78125)"/>
     <use xlink:href="#DejaVuSans-33" transform="translate(364.916992 0.78125)"/>
     <use xlink:href="#DejaVuSans-32" transform="translate(428.540039 0.78125)"/>
     <use xlink:href="#DejaVuSans-37" transform="translate(492.163086 0.78125)"/>
     <use xlink:href="#DejaVuSans-35" transform="translate(555.786133 0.78125)"/>
     <use xlink:href="#DejaVuSans-37" transform="translate(612.15918 0.78125)"/>
     <use xlink:href="#DejaVuSans-34" transform="translate(675.782227 0.78125)"/>
     <use xlink:href="#DejaVuSans-34" transform="translate(739.405273 0.78125)"/>
     <use xlink:href="#DejaVuSans-34" transform="translate(803.02832 0.78125)"/>
     <use xlink:href="#DejaVuSans-38" transform="translate(866.651367 0.78125)"/>
     <use xlink:href="#DejaVuSans-34" transform="translate(930.274414 0.78125)"/>
     <use xlink:href="#DejaVuSans-39" transform="translate(993.897461 0.78125)"/>
     <use xlink:href="#DejaVuSans-30" transform="translate(1057.520508 0.78125)"/>
     <use xlink:href="#DejaVuSans-36" transform="translate(1121.143555 0.78125)"/>
     <use xlink:href="#DejaVuSans-34" transform="translate(1184.766602 0.78125)"/>
     <use xlink:href="#DejaVuSans-4d" transform="translate(1248.389648 0.78125)"/>
     <use xlink:href="#DejaVuSans-3a9" transform="translate(1334.668945 0.78125)"/>
     <use xlink:href="#DejaVuSans-2c" transform="translate(1411.084961 0.78125)"/>
     <use xlink:href="#DejaVuSans-20" transform="translate(1442.87207 0.78125)"/>
     <use xlink:href="#DejaVuSans-Oblique-56" transform="translate(1474.65918 0.78125)"/>
     <use xlink:href="#DejaVuSans-Oblique-74" transform="translate(1543.067383 -15.625)scale(0.7)"/>
     <use xlink:href="#DejaVuSans-Oblique-68" transform="translate(1570.513672 -15.625)scale(0.7)"/>
     <use xlink:href="#DejaVuSans-Oblique-72" transform="translate(1614.878906 -15.625)scale(0.7)"/>
     <use xlink:href="#DejaVuSans-3a" transform="translate(1646.392578 0.78125)"/>
     <use xlink:href="#DejaVuSans-20" transform="translate(1680.083984 0.78125)"/>
     <use xlink:href="#DejaVuSans-30" transform="translate(1711.871094 0.78125)"/>
     <use xlink:href="#DejaVuSans-2e" transform="translate(1775.494141 0.78125)"/>
     <use xlink:href="#DejaVuSans-37" transform="translate(1799.53125 0.78125)"/>
     <use xlink:href="#DejaVuSans-38" transform="translate(1863.154297 0.78125)"/>
     <use xlink:href="#DejaVuSans-35" transform="translate(1926.777344 0.78125)"/>
     <use xlink:href="#DejaVuSans-37" transform="translate(1983.150391 0.78125)"/>
     <use xlink:href="#DejaVuSans-35" transform="translate(2046.773438 0.78125)"/>
     <use xlink:href="#DejaVuSans-36" transform="translate(2110.396484 0.78125)"/>
     <use xlink:href="#DejaVuSans-39" transform="translate(2174.019531 0.78125)"/>
     <use xlink:href="#DejaVuSans-34" transform="translate(2237.642578 0.78125)"/>
     <use xlink:href="#DejaVuSans-38" transform="translate(2301.265625 0.78125)"/>
     <use xlink:href="#DejaVuSans-32" transform="translate(2364.888672 0.78125)"/>
     <use xlink:href="#DejaVuSans-35" transform="translate(2428.511719 0.78125)"/>
     <use xlink:href="#DejaVuSans-31" transform="translate(2492.134766 0.78125)"/>
     <use xlink:href="#DejaVuSans-39" transform="translate(2555.757812 0.78125)"/>
     <use xlink:href="#DejaVuSans-39" transform="translate(2619.380859 0.78125)"/>
     <use xlink:href="#DejaVuSans-32" transform="translate(2681.253906 0.78125)"/>
     <use xlink:href="#DejaVuSans-38" transform="translate(2744.876953 0.78125)"/>
     <use xlink:href="#DejaVuSans-6d" transform="translate(2808.5 0.78125)"/>
     <use xlink:href="#DejaVuSans-56" transform="translate(2905.912109 0.78125)"/>
     <use xlink:href="#DejaVuSans-2c" transform="translate(2974.320312 0.78125)"/>
     <use xlink:href="#DejaVuSans-20" transform="translate(3006.107422 0.78125)"/>
     <use xlink:href="#DejaVuSans-Oblique-43" transform="translate(3037.894531 0.78125)"/>
     <use xlink:href="#DejaVuSans-Oblique-6d" transform="translate(3107.71875 -15.625)scale(0.7)"/>
     <use xlink:href="#DejaVuSans-3a" transform="translate(3178.641602 0.78125)"/>
     <use xlink:href="#DejaVuSans-20" transform="translate(3212.333008 0.78125)"/>
     <use xlink:href="#DejaVuSans-20" transform="translate(3244.120117 0.78125)"/>
     <use xlink:href="#DejaVuSans-37" transform="translate(3275.907227 0.78125)"/>
     <use xlink:href="#DejaVuSans-2e" transform="translate(3339.530273 0.78125)"/>
     <use xlink:href="#DejaVuSans-35" transform="translate(3371.317383 0.78125)"/>
     <use xlink:href="#DejaVuSans-35" transform="translate(3434.94043 0.78125)"/>
     <use xlink:href="#DejaVuSans-32" transform="translate(3498.563477 0.78125)"/>
     <use xlink:href="#DejaVuSans-38" transform="translate(3562.186523 0.78125)"/>
     <use xlink:href="#DejaVuSans-31" transform="translate(3625.80957 0.78125)"/>
     <use xlink:href="#DejaVuSans-39" transform="translate(3689.432617 0.78125)"/>
     <use xlink:href="#DejaVuSans-37" transform="translate(3753.055664 0.78125)"/>
     <use xlink:href="#DejaVuSans-30" transform="translate(3816.678711 0.78125)"/>
     <use xlink:href="#DejaVuSans-33" transform="translate(3880.301758 0.78125)"/>
     <use xlink:href="#DejaVuSans-31" transform="translate(3943.924805 0.78125)"/>
     <use xlink:href="#DejaVuSans-30" transform="translate(4007.547852 0.78125)"/>
     <use xlink:href="#DejaVuSans-30" transform="translate(4071.170898 0.78125)"/>
     <use xlink:href="#DejaVuSans-39" transform="translate(4134.793945 0.78125)"/>
     <use xlink:href="#DejaVuSans-33" transform="translate(4198.416992 0.78125)"/>
     <use xlink:href="#DejaVuSans-31" transform="translate(4262.040039 0.78125)"/>
     <use xlink:href="#DejaVuSans-35" transform="translate(4325.663086 0.78125)"/>
     <use xlink:href="#DejaVuSans-65" transform="translate(4389.286133 0.78125)"/>
     <use xlink:href="#DejaVuSans-2d" transform="translate(4450.80957 0.78125)"/>
     <use xlink:href="#DejaVuSans-30" transform="translate(4486.893555 0.78125)"/>
     <use xlink:href="#DejaVuSans-36" transform="translate(4550.516602 0.78125)"/>
    </g>
   </g>
  </g>
  <g id="axes_2">
   <g id="matplotlib.axis_3">
    <g id="ytick_10">
     <g id="line2d_20">
      <defs>
       <path id="m06a5c98c3e" d="M 0 0 
L 3.5 0 
" style="stroke: #000000; stroke-width: 0.8"/>
      </defs>
      <g>
       <use xlink:href="#m06a5c98c3e" x="1212.996" y="598.546466" style="stroke: #000000; stroke-width: 0.8"/>
      </g>
     </g>
     <g id="text_22">
      <!-- 0.0 -->
      <g style="fill: #1f77b4" transform="translate(1219.996 602.345685)scale(0.1 -0.1)">
       <use xlink:href="#DejaVuSans-30"/>
       <use xlink:href="#DejaVuSans-2e" x="63.623047"/>
       <use xlink:href="#DejaVuSans-30" x="95.410156"/>
      </g>
     </g>
    </g>
    <g id="ytick_11">
     <g id="line2d_21">
      <g>
       <use xlink:href="#m06a5c98c3e" x="1212.996" y="540.339089" style="stroke: #000000; stroke-width: 0.8"/>
      </g>
     </g>
     <g id="text_23">
      <!-- 2.5 -->
      <g style="fill: #1f77b4" transform="translate(1219.996 544.138308)scale(0.1 -0.1)">
       <use xlink:href="#DejaVuSans-32"/>
       <use xlink:href="#DejaVuSans-2e" x="63.623047"/>
       <use xlink:href="#DejaVuSans-35" x="95.410156"/>
      </g>
     </g>
    </g>
    <g id="ytick_12">
     <g id="line2d_22">
      <g>
       <use xlink:href="#m06a5c98c3e" x="1212.996" y="482.131712" style="stroke: #000000; stroke-width: 0.8"/>
      </g>
     </g>
     <g id="text_24">
      <!-- 5.0 -->
      <g style="fill: #1f77b4" transform="translate(1219.996 485.930931)scale(0.1 -0.1)">
       <use xlink:href="#DejaVuSans-35"/>
       <use xlink:href="#DejaVuSans-2e" x="63.623047"/>
       <use xlink:href="#DejaVuSans-30" x="95.410156"/>
      </g>
     </g>
    </g>
    <g id="ytick_13">
     <g id="line2d_23">
      <g>
       <use xlink:href="#m06a5c98c3e" x="1212.996" y="423.924335" style="stroke: #000000; stroke-width: 0.8"/>
      </g>
     </g>
     <g id="text_25">
      <!-- 7.5 -->
      <g style="fill: #1f77b4" transform="translate(1219.996 427.723554)scale(0.1 -0.1)">
       <use xlink:href="#DejaVuSans-37"/>
       <use xlink:href="#DejaVuSans-2e" x="63.623047"/>
       <use xlink:href="#DejaVuSans-35" x="95.410156"/>
      </g>
     </g>
    </g>
    <g id="ytick_14">
     <g id="line2d_24">
      <g>
       <use xlink:href="#m06a5c98c3e" x="1212.996" y="365.716958" style="stroke: #000000; stroke-width: 0.8"/>
      </g>
     </g>
     <g id="text_26">
      <!-- 10.0 -->
      <g style="fill: #1f77b4" transform="translate(1219.996 369.516177)scale(0.1 -0.1)">
       <use xlink:href="#DejaVuSans-31"/>
       <use xlink:href="#DejaVuSans-30" x="63.623047"/>
       <use xlink:href="#DejaVuSans-2e" x="127.246094"/>
       <use xlink:href="#DejaVuSans-30" x="159.033203"/>
      </g>
     </g>
    </g>
    <g id="ytick_15">
     <g id="line2d_25">
      <g>
       <use xlink:href="#m06a5c98c3e" x="1212.996" y="307.509581" style="stroke: #000000; stroke-width: 0.8"/>
      </g>
     </g>
     <g id="text_27">
      <!-- 12.5 -->
      <g style="fill: #1f77b4" transform="translate(1219.996 311.3088)scale(0.1 -0.1)">
       <use xlink:href="#DejaVuSans-31"/>
       <use xlink:href="#DejaVuSans-32" x="63.623047"/>
       <use xlink:href="#DejaVuSans-2e" x="127.246094"/>
       <use xlink:href="#DejaVuSans-35" x="159.033203"/>
      </g>
     </g>
    </g>
    <g id="ytick_16">
     <g id="line2d_26">
      <g>
       <use xlink:href="#m06a5c98c3e" x="1212.996" y="249.302205" style="stroke: #000000; stroke-width: 0.8"/>
      </g>
     </g>
     <g id="text_28">
      <!-- 15.0 -->
      <g style="fill: #1f77b4" transform="translate(1219.996 253.101423)scale(0.1 -0.1)">
       <use xlink:href="#DejaVuSans-31"/>
       <use xlink:href="#DejaVuSans-35" x="63.623047"/>
       <use xlink:href="#DejaVuSans-2e" x="127.246094"/>
       <use xlink:href="#DejaVuSans-30" x="159.033203"/>
      </g>
     </g>
    </g>
    <g id="ytick_17">
     <g id="line2d_27">
      <g>
       <use xlink:href="#m06a5c98c3e" x="1212.996" y="191.094828" style="stroke: #000000; stroke-width: 0.8"/>
      </g>
     </g>
     <g id="text_29">
      <!-- 17.5 -->
      <g style="fill: #1f77b4" transform="translate(1219.996 194.894046)scale(0.1 -0.1)">
       <use xlink:href="#DejaVuSans-31"/>
       <use xlink:href="#DejaVuSans-37" x="63.623047"/>
       <use xlink:href="#DejaVuSans-2e" x="127.246094"/>
       <use xlink:href="#DejaVuSans-35" x="159.033203"/>
      </g>
     </g>
    </g>
    <g id="ytick_18">
     <g id="line2d_28">
      <g>
       <use xlink:href="#m06a5c98c3e" x="1212.996" y="132.887451" style="stroke: #000000; stroke-width: 0.8"/>
      </g>
     </g>
     <g id="text_30">
      <!-- 20.0 -->
      <g style="fill: #1f77b4" transform="translate(1219.996 136.68667)scale(0.1 -0.1)">
       <use xlink:href="#DejaVuSans-32"/>
       <use xlink:href="#DejaVuSans-30" x="63.623047"/>
       <use xlink:href="#DejaVuSans-2e" x="127.246094"/>
       <use xlink:href="#DejaVuSans-30" x="159.033203"/>
      </g>
     </g>
    </g>
    <g id="text_31">
     <!-- $I_{ext}$ (nA) -->
     <g style="fill: #1f77b4" transform="translate(1253.860063 385.016958)rotate(-90)scale(0.1 -0.1)">
      <defs>
       <path id="DejaVuSans-Oblique-49" d="M 1081 4666 
L 1716 4666 
L 806 0 
L 172 0 
L 1081 4666 
z
" transform="scale(0.015625)"/>
       <path id="DejaVuSans-Oblique-65" d="M 3078 2063 
Q 3088 2113 3092 2166 
Q 3097 2219 3097 2272 
Q 3097 2653 2873 2875 
Q 2650 3097 2266 3097 
Q 1838 3097 1509 2826 
Q 1181 2556 1013 2059 
L 3078 2063 
z
M 3578 1613 
L 903 1613 
Q 884 1494 878 1425 
Q 872 1356 872 1306 
Q 872 872 1139 634 
Q 1406 397 1894 397 
Q 2269 397 2603 481 
Q 2938 566 3225 728 
L 3116 159 
Q 2806 34 2476 -28 
Q 2147 -91 1806 -91 
Q 1078 -91 686 257 
Q 294 606 294 1247 
Q 294 1794 489 2264 
Q 684 2734 1063 3103 
Q 1306 3334 1642 3459 
Q 1978 3584 2356 3584 
Q 2950 3584 3301 3228 
Q 3653 2872 3653 2272 
Q 3653 2128 3634 1964 
Q 3616 1800 3578 1613 
z
" transform="scale(0.015625)"/>
       <path id="DejaVuSans-Oblique-78" d="M 3841 3500 
L 2234 1784 
L 3219 0 
L 2559 0 
L 1819 1388 
L 531 0 
L -166 0 
L 1556 1844 
L 641 3500 
L 1300 3500 
L 1972 2234 
L 3144 3500 
L 3841 3500 
z
" transform="scale(0.015625)"/>
       <path id="DejaVuSans-6e" d="M 3513 2113 
L 3513 0 
L 2938 0 
L 2938 2094 
Q 2938 2591 2744 2837 
Q 2550 3084 2163 3084 
Q 1697 3084 1428 2787 
Q 1159 2491 1159 1978 
L 1159 0 
L 581 0 
L 581 3500 
L 1159 3500 
L 1159 2956 
Q 1366 3272 1645 3428 
Q 1925 3584 2291 3584 
Q 2894 3584 3203 3211 
Q 3513 2838 3513 2113 
z
" transform="scale(0.015625)"/>
       <path id="DejaVuSans-41" d="M 2188 4044 
L 1331 1722 
L 3047 1722 
L 2188 4044 
z
M 1831 4666 
L 2547 4666 
L 4325 0 
L 3669 0 
L 3244 1197 
L 1141 1197 
L 716 0 
L 50 0 
L 1831 4666 
z
" transform="scale(0.015625)"/>
      </defs>
      <use xlink:href="#DejaVuSans-Oblique-49" transform="translate(0 0.125)"/>
      <use xlink:href="#DejaVuSans-Oblique-65" transform="translate(29.492188 -16.28125)scale(0.7)"/>
      <use xlink:href="#DejaVuSans-Oblique-78" transform="translate(72.558594 -16.28125)scale(0.7)"/>
      <use xlink:href="#DejaVuSans-Oblique-74" transform="translate(113.984375 -16.28125)scale(0.7)"/>
      <use xlink:href="#DejaVuSans-20" transform="translate(144.165039 0.125)"/>
      <use xlink:href="#DejaVuSans-28" transform="translate(175.952148 0.125)"/>
      <use xlink:href="#DejaVuSans-6e" transform="translate(214.96582 0.125)"/>
      <use xlink:href="#DejaVuSans-41" transform="translate(278.344727 0.125)"/>
      <use xlink:href="#DejaVuSans-29" transform="translate(346.75293 0.125)"/>
     </g>
    </g>
   </g>
   <g id="line2d_29">
    <path d="M 189.778636 132.887451 
L 194.675585 134.723381 
L 199.572533 140.202218 
L 204.469481 149.237557 
L 209.36643 161.686906 
L 214.263378 177.35393 
L 219.160327 195.991552 
L 224.057275 217.305845 
L 228.954223 240.96067 
L 233.851172 266.582976 
L 238.74812 293.768684 
L 243.645069 322.089059 
L 263.232862 437.665233 
L 268.12981 464.850941 
L 273.026759 490.473247 
L 277.923707 514.128072 
L 282.820656 535.442365 
L 287.717604 554.079987 
L 292.614552 569.747011 
L 297.511501 582.19636 
L 302.408449 591.231699 
L 307.305397 596.710536 
L 312.202346 598.546466 
L 317.099294 596.710536 
L 321.996243 591.231699 
L 326.893191 582.19636 
L 331.790139 569.747011 
L 336.687088 554.079987 
L 341.584036 535.442365 
L 346.480984 514.128072 
L 351.377933 490.473247 
L 356.274881 464.850941 
L 361.17183 437.665233 
L 366.068778 409.344858 
L 385.656571 293.768684 
L 390.55352 266.582976 
L 395.450468 240.96067 
L 400.347417 217.305845 
L 405.244365 195.991552 
L 410.141313 177.35393 
L 415.038262 161.686906 
L 419.93521 149.237557 
L 424.832159 140.202218 
L 429.729107 134.723381 
L 434.626055 132.887451 
L 439.523004 134.723381 
L 444.419952 140.202218 
L 449.3169 149.237557 
L 454.213849 161.686906 
L 459.110797 177.35393 
L 464.007746 195.991552 
L 468.904694 217.305845 
L 473.801642 240.96067 
L 478.698591 266.582976 
L 483.595539 293.768684 
L 488.492487 322.089059 
L 508.080281 437.665233 
L 512.977229 464.850941 
L 517.874178 490.473247 
L 522.771126 514.128072 
L 527.668074 535.442365 
L 532.565023 554.079987 
L 537.461971 569.747011 
L 542.35892 582.19636 
L 547.255868 591.231699 
L 552.152816 596.710536 
L 557.049765 598.546466 
L 561.946713 596.710536 
L 566.843661 591.231699 
L 571.74061 582.19636 
L 576.637558 569.747011 
L 581.534507 554.079987 
L 586.431455 535.442365 
L 591.328403 514.128072 
L 596.225352 490.473247 
L 601.1223 464.850941 
L 606.019249 437.665233 
L 610.916197 409.344858 
L 630.50399 293.768684 
L 635.400939 266.582976 
L 640.297887 240.96067 
L 645.194836 217.305845 
L 650.091784 195.991552 
L 654.988732 177.35393 
L 659.885681 161.686906 
L 664.782629 149.237557 
L 669.679577 140.202218 
L 674.576526 134.723381 
L 679.473474 132.887451 
L 684.370423 134.723381 
L 689.267371 140.202218 
L 694.164319 149.237557 
L 699.061268 161.686906 
L 703.958216 177.35393 
L 708.855164 195.991552 
L 713.752113 217.305845 
L 718.649061 240.96067 
L 723.54601 266.582976 
L 728.442958 293.768684 
L 733.339906 322.089059 
L 752.9277 437.665233 
L 757.824648 464.850941 
L 762.721597 490.473247 
L 767.618545 514.128072 
L 772.515493 535.442365 
L 777.412442 554.079987 
L 782.30939 569.747011 
L 787.206339 582.19636 
L 792.103287 591.231699 
L 797.000235 596.710536 
L 801.897184 598.546466 
L 806.794132 596.710536 
L 811.69108 591.231699 
L 816.588029 582.19636 
L 821.484977 569.747011 
L 826.381926 554.079987 
L 831.278874 535.442365 
L 836.175822 514.128072 
L 841.072771 490.473247 
L 845.969719 464.850941 
L 850.866667 437.665233 
L 855.763616 409.344858 
L 875.351409 293.768684 
L 880.248358 266.582976 
L 885.145306 240.96067 
L 890.042254 217.305845 
L 894.939203 195.991552 
L 899.836151 177.35393 
L 904.7331 161.686906 
L 909.630048 149.237557 
L 914.526996 140.202218 
L 919.423945 134.723381 
L 924.320893 132.887451 
L 929.217841 134.723381 
L 934.11479 140.202218 
L 939.011738 149.237557 
L 943.908687 161.686906 
L 948.805635 177.35393 
L 953.702583 195.991552 
L 958.599532 217.305845 
L 963.49648 240.96067 
L 968.393429 266.582976 
L 973.290377 293.768684 
L 978.187325 322.089059 
L 997.775119 437.665233 
L 1002.672067 464.850941 
L 1007.569016 490.473247 
L 1012.465964 514.128072 
L 1017.362912 535.442365 
L 1022.259861 554.079987 
L 1027.156809 569.747011 
L 1032.053757 582.19636 
L 1036.950706 591.231699 
L 1041.847654 596.710536 
L 1046.744603 598.546466 
L 1051.641551 596.710536 
L 1056.538499 591.231699 
L 1061.435448 582.19636 
L 1066.332396 569.747011 
L 1071.229344 554.079987 
L 1076.126293 535.442365 
L 1081.023241 514.128072 
L 1085.92019 490.473247 
L 1090.817138 464.850941 
L 1095.714086 437.665233 
L 1100.611035 409.344858 
L 1120.198828 293.768684 
L 1125.095777 266.582976 
L 1129.992725 240.96067 
L 1134.889673 217.305845 
L 1139.786622 195.991552 
L 1144.68357 177.35393 
L 1149.580519 161.686906 
L 1154.477467 149.237557 
L 1159.374415 140.202218 
L 1164.271364 134.723381 
L 1164.271364 134.723381 
" clip-path="url(#p99be4f90ff)" style="fill: none; stroke: #1f77b4; stroke-width: 1.5; stroke-linecap: square"/>
   </g>
   <g id="patch_7">
    <path d="M 141.054 621.829417 
L 141.054 109.6045 
" style="fill: none; stroke: #000000; stroke-width: 0.8; stroke-linejoin: miter; stroke-linecap: square"/>
   </g>
   <g id="patch_8">
    <path d="M 1212.996 621.829417 
L 1212.996 109.6045 
" style="fill: none; stroke: #000000; stroke-width: 0.8; stroke-linejoin: miter; stroke-linecap: square"/>
   </g>
   <g id="patch_9">
    <path d="M 141.054 621.829417 
L 1212.996 621.829417 
" style="fill: none; stroke: #000000; stroke-width: 0.8; stroke-linejoin: miter; stroke-linecap: square"/>
   </g>
   <g id="patch_10">
    <path d="M 141.054 109.6045 
L 1212.996 109.6045 
" style="fill: none; stroke: #000000; stroke-width: 0.8; stroke-linejoin: miter; stroke-linecap: square"/>
   </g>
  </g>
  <g id="text_32">
   <!-- Time course of $I_{ext}$ and a neurone's $V_m$ -->
   <g transform="translate(575.46 23.273325)scale(0.12 -0.12)">
    <defs>
     <path id="DejaVuSans-63" d="M 3122 3366 
L 3122 2828 
Q 2878 2963 2633 3030 
Q 2388 3097 2138 3097 
Q 1578 3097 1268 2742 
Q 959 2388 959 1747 
Q 959 1106 1268 751 
Q 1578 397 2138 397 
Q 2388 397 2633 464 
Q 2878 531 3122 666 
L 3122 134 
Q 2881 22 2623 -34 
Q 2366 -91 2075 -91 
Q 1284 -91 818 406 
Q 353 903 353 1747 
Q 353 2603 823 3093 
Q 1294 3584 2113 3584 
Q 2378 3584 2631 3529 
Q 2884 3475 3122 3366 
z
" transform="scale(0.015625)"/>
     <path id="DejaVuSans-6f" d="M 1959 3097 
Q 1497 3097 1228 2736 
Q 959 2375 959 1747 
Q 959 1119 1226 758 
Q 1494 397 1959 397 
Q 2419 397 2687 759 
Q 2956 1122 2956 1747 
Q 2956 2369 2687 2733 
Q 2419 3097 1959 3097 
z
M 1959 3584 
Q 2709 3584 3137 3096 
Q 3566 2609 3566 1747 
Q 3566 888 3137 398 
Q 2709 -91 1959 -91 
Q 1206 -91 779 398 
Q 353 888 353 1747 
Q 353 2609 779 3096 
Q 1206 3584 1959 3584 
z
" transform="scale(0.015625)"/>
     <path id="DejaVuSans-75" d="M 544 1381 
L 544 3500 
L 1119 3500 
L 1119 1403 
Q 1119 906 1312 657 
Q 1506 409 1894 409 
Q 2359 409 2629 706 
Q 2900 1003 2900 1516 
L 2900 3500 
L 3475 3500 
L 3475 0 
L 2900 0 
L 2900 538 
Q 2691 219 2414 64 
Q 2138 -91 1772 -91 
Q 1169 -91 856 284 
Q 544 659 544 1381 
z
M 1991 3584 
L 1991 3584 
z
" transform="scale(0.015625)"/>
     <path id="DejaVuSans-72" d="M 2631 2963 
Q 2534 3019 2420 3045 
Q 2306 3072 2169 3072 
Q 1681 3072 1420 2755 
Q 1159 2438 1159 1844 
L 1159 0 
L 581 0 
L 581 3500 
L 1159 3500 
L 1159 2956 
Q 1341 3275 1631 3429 
Q 1922 3584 2338 3584 
Q 2397 3584 2469 3576 
Q 2541 3569 2628 3553 
L 2631 2963 
z
" transform="scale(0.015625)"/>
     <path id="DejaVuSans-66" d="M 2375 4863 
L 2375 4384 
L 1825 4384 
Q 1516 4384 1395 4259 
Q 1275 4134 1275 3809 
L 1275 3500 
L 2222 3500 
L 2222 3053 
L 1275 3053 
L 1275 0 
L 697 0 
L 697 3053 
L 147 3053 
L 147 3500 
L 697 3500 
L 697 3744 
Q 697 4328 969 4595 
Q 1241 4863 1831 4863 
L 2375 4863 
z
" transform="scale(0.015625)"/>
     <path id="DejaVuSans-61" d="M 2194 1759 
Q 1497 1759 1228 1600 
Q 959 1441 959 1056 
Q 959 750 1161 570 
Q 1363 391 1709 391 
Q 2188 391 2477 730 
Q 2766 1069 2766 1631 
L 2766 1759 
L 2194 1759 
z
M 3341 1997 
L 3341 0 
L 2766 0 
L 2766 531 
Q 2569 213 2275 61 
Q 1981 -91 1556 -91 
Q 1019 -91 701 211 
Q 384 513 384 1019 
Q 384 1609 779 1909 
Q 1175 2209 1959 2209 
L 2766 2209 
L 2766 2266 
Q 2766 2663 2505 2880 
Q 2244 3097 1772 3097 
Q 1472 3097 1187 3025 
Q 903 2953 641 2809 
L 641 3341 
Q 956 3463 1253 3523 
Q 1550 3584 1831 3584 
Q 2591 3584 2966 3190 
Q 3341 2797 3341 1997 
z
" transform="scale(0.015625)"/>
     <path id="DejaVuSans-64" d="M 2906 2969 
L 2906 4863 
L 3481 4863 
L 3481 0 
L 2906 0 
L 2906 525 
Q 2725 213 2448 61 
Q 2172 -91 1784 -91 
Q 1150 -91 751 415 
Q 353 922 353 1747 
Q 353 2572 751 3078 
Q 1150 3584 1784 3584 
Q 2172 3584 2448 3432 
Q 2725 3281 2906 2969 
z
M 947 1747 
Q 947 1113 1208 752 
Q 1469 391 1925 391 
Q 2381 391 2643 752 
Q 2906 1113 2906 1747 
Q 2906 2381 2643 2742 
Q 2381 3103 1925 3103 
Q 1469 3103 1208 2742 
Q 947 2381 947 1747 
z
" transform="scale(0.015625)"/>
     <path id="DejaVuSans-27" d="M 1147 4666 
L 1147 2931 
L 616 2931 
L 616 4666 
L 1147 4666 
z
" transform="scale(0.015625)"/>
    </defs>
    <use xlink:href="#DejaVuSans-54" transform="translate(0 0.015625)"/>
    <use xlink:href="#DejaVuSans-69" transform="translate(61.083984 0.015625)"/>
    <use xlink:href="#DejaVuSans-6d" transform="translate(88.867188 0.015625)"/>
    <use xlink:href="#DejaVuSans-65" transform="translate(186.279297 0.015625)"/>
    <use xlink:href="#DejaVuSans-20" transform="translate(247.802734 0.015625)"/>
    <use xlink:href="#DejaVuSans-63" transform="translate(279.589844 0.015625)"/>
    <use xlink:href="#DejaVuSans-6f" transform="translate(334.570312 0.015625)"/>
    <use xlink:href="#DejaVuSans-75" transform="translate(395.751953 0.015625)"/>
    <use xlink:href="#DejaVuSans-72" transform="translate(459.130859 0.015625)"/>
    <use xlink:href="#DejaVuSans-73" transform="translate(500.244141 0.015625)"/>
    <use xlink:href="#DejaVuSans-65" transform="translate(552.34375 0.015625)"/>
    <use xlink:href="#DejaVuSans-20" transform="translate(613.867188 0.015625)"/>
    <use xlink:href="#DejaVuSans-6f" transform="translate(645.654297 0.015625)"/>
    <use xlink:href="#DejaVuSans-66" transform="translate(706.835938 0.015625)"/>
    <use xlink:href="#DejaVuSans-20" transform="translate(742.041016 0.015625)"/>
    <use xlink:href="#DejaVuSans-Oblique-49" transform="translate(773.828125 0.015625)"/>
    <use xlink:href="#DejaVuSans-Oblique-65" transform="translate(803.320312 -16.390625)scale(0.7)"/>
    <use xlink:href="#DejaVuSans-Oblique-78" transform="translate(846.386719 -16.390625)scale(0.7)"/>
    <use xlink:href="#DejaVuSans-Oblique-74" transform="translate(887.8125 -16.390625)scale(0.7)"/>
    <use xlink:href="#DejaVuSans-20" transform="translate(917.993164 0.015625)"/>
    <use xlink:href="#DejaVuSans-61" transform="translate(949.780273 0.015625)"/>
    <use xlink:href="#DejaVuSans-6e" transform="translate(1011.05957 0.015625)"/>
    <use xlink:href="#DejaVuSans-64" transform="translate(1074.438477 0.015625)"/>
    <use xlink:href="#DejaVuSans-20" transform="translate(1137.915039 0.015625)"/>
    <use xlink:href="#DejaVuSans-61" transform="translate(1169.702148 0.015625)"/>
    <use xlink:href="#DejaVuSans-20" transform="translate(1230.981445 0.015625)"/>
    <use xlink:href="#DejaVuSans-6e" transform="translate(1262.768555 0.015625)"/>
    <use xlink:href="#DejaVuSans-65" transform="translate(1326.147461 0.015625)"/>
    <use xlink:href="#DejaVuSans-75" transform="translate(1387.670898 0.015625)"/>
    <use xlink:href="#DejaVuSans-72" transform="translate(1451.049805 0.015625)"/>
    <use xlink:href="#DejaVuSans-6f" transform="translate(1492.163086 0.015625)"/>
    <use xlink:href="#DejaVuSans-6e" transform="translate(1553.344727 0.015625)"/>
    <use xlink:href="#DejaVuSans-65" transform="translate(1616.723633 0.015625)"/>
    <use xlink:href="#DejaVuSans-27" transform="translate(1678.24707 0.015625)"/>
    <use xlink:href="#DejaVuSans-73" transform="translate(1705.737305 0.015625)"/>
    <use xlink:href="#DejaVuSans-20" transform="translate(1757.836914 0.015625)"/>
    <use xlink:href="#DejaVuSans-Oblique-56" transform="translate(1789.624023 0.015625)"/>
    <use xlink:href="#DejaVuSans-Oblique-6d" transform="translate(1858.032227 -16.390625)scale(0.7)"/>
   </g>
  </g>
 </g>
 <defs>
  <clipPath id="p99be4f90ff">
   <rect x="141.054" y="109.6045" width="1071.942" height="512.224917"/>
  </clipPath>
 </defs>
</svg>
