<?xml version="1.0" encoding="utf-8" standalone="no"?>
<!DOCTYPE svg PUBLIC "-//W3C//DTD SVG 1.1//EN"
  "http://www.w3.org/Graphics/SVG/1.1/DTD/svg11.dtd">
<svg xmlns:xlink="http://www.w3.org/1999/xlink" width="460.8pt" height="460.08pt" viewBox="0 0 460.8 460.08" xmlns="http://www.w3.org/2000/svg" version="1.1">
 <metadata>
  <rdf:RDF xmlns:dc="http://purl.org/dc/elements/1.1/" xmlns:cc="http://creativecommons.org/ns#" xmlns:rdf="http://www.w3.org/1999/02/22-rdf-syntax-ns#">
   <cc:Work>
    <dc:type rdf:resource="http://purl.org/dc/dcmitype/StillImage"/>
    <dc:date>2022-04-10T13:22:42.254351</dc:date>
    <dc:format>image/svg+xml</dc:format>
    <dc:creator>
     <cc:Agent>
      <dc:title>Matplotlib v3.5.1, https://matplotlib.org/</dc:title>
     </cc:Agent>
    </dc:creator>
   </cc:Work>
  </rdf:RDF>
 </metadata>
 <defs>
  <style type="text/css">*{stroke-linejoin: round; stroke-linecap: butt}</style>
 </defs>
 <g id="figure_1">
  <g id="patch_1">
   <path d="M 0 460.08 
L 460.8 460.08 
L 460.8 0 
L 0 0 
z
" style="fill: #ffffff"/>
  </g>
  <g id="axes_1">
   <g id="patch_2">
    <path d="M 57.6 409.4712 
L 414.72 409.4712 
L 414.72 55.2096 
L 57.6 55.2096 
z
" style="fill: #ffffff"/>
   </g>
   <g id="patch_3">
    <path d="M 73.832727 409.4712 
L 77.079273 409.4712 
L 77.079273 409.4712 
L 73.832727 409.4712 
z
" clip-path="url(#p032774d202)" style="fill: #1f77b4"/>
   </g>
   <g id="patch_4">
    <path d="M 77.079273 409.4712 
L 80.325818 409.4712 
L 80.325818 409.4712 
L 77.079273 409.4712 
z
" clip-path="url(#p032774d202)" style="fill: #1f77b4"/>
   </g>
   <g id="patch_5">
    <path d="M 80.325818 409.4712 
L 83.572364 409.4712 
L 83.572364 409.4712 
L 80.325818 409.4712 
z
" clip-path="url(#p032774d202)" style="fill: #1f77b4"/>
   </g>
   <g id="patch_6">
    <path d="M 83.572364 409.4712 
L 86.818909 409.4712 
L 86.818909 72.0792 
L 83.572364 72.0792 
z
" clip-path="url(#p032774d202)" style="fill: #1f77b4"/>
   </g>
   <g id="patch_7">
    <path d="M 86.818909 409.4712 
L 90.065455 409.4712 
L 90.065455 409.4712 
L 86.818909 409.4712 
z
" clip-path="url(#p032774d202)" style="fill: #1f77b4"/>
   </g>
   <g id="patch_8">
    <path d="M 90.065455 409.4712 
L 93.312 409.4712 
L 93.312 409.4712 
L 90.065455 409.4712 
z
" clip-path="url(#p032774d202)" style="fill: #1f77b4"/>
   </g>
   <g id="patch_9">
    <path d="M 93.312 409.4712 
L 96.558545 409.4712 
L 96.558545 409.4712 
L 93.312 409.4712 
z
" clip-path="url(#p032774d202)" style="fill: #1f77b4"/>
   </g>
   <g id="patch_10">
    <path d="M 96.558545 409.4712 
L 99.805091 409.4712 
L 99.805091 409.4712 
L 96.558545 409.4712 
z
" clip-path="url(#p032774d202)" style="fill: #1f77b4"/>
   </g>
   <g id="patch_11">
    <path d="M 99.805091 409.4712 
L 103.051636 409.4712 
L 103.051636 409.4712 
L 99.805091 409.4712 
z
" clip-path="url(#p032774d202)" style="fill: #1f77b4"/>
   </g>
   <g id="patch_12">
    <path d="M 103.051636 409.4712 
L 106.298182 409.4712 
L 106.298182 409.4712 
L 103.051636 409.4712 
z
" clip-path="url(#p032774d202)" style="fill: #1f77b4"/>
   </g>
   <g id="patch_13">
    <path d="M 106.298182 409.4712 
L 109.544727 409.4712 
L 109.544727 409.4712 
L 106.298182 409.4712 
z
" clip-path="url(#p032774d202)" style="fill: #1f77b4"/>
   </g>
   <g id="patch_14">
    <path d="M 109.544727 409.4712 
L 112.791273 409.4712 
L 112.791273 409.4712 
L 109.544727 409.4712 
z
" clip-path="url(#p032774d202)" style="fill: #1f77b4"/>
   </g>
   <g id="patch_15">
    <path d="M 112.791273 409.4712 
L 116.037818 409.4712 
L 116.037818 409.4712 
L 112.791273 409.4712 
z
" clip-path="url(#p032774d202)" style="fill: #1f77b4"/>
   </g>
   <g id="patch_16">
    <path d="M 116.037818 409.4712 
L 119.284364 409.4712 
L 119.284364 409.4712 
L 116.037818 409.4712 
z
" clip-path="url(#p032774d202)" style="fill: #1f77b4"/>
   </g>
   <g id="patch_17">
    <path d="M 119.284364 409.4712 
L 122.530909 409.4712 
L 122.530909 409.4712 
L 119.284364 409.4712 
z
" clip-path="url(#p032774d202)" style="fill: #1f77b4"/>
   </g>
   <g id="patch_18">
    <path d="M 122.530909 409.4712 
L 125.777455 409.4712 
L 125.777455 409.4712 
L 122.530909 409.4712 
z
" clip-path="url(#p032774d202)" style="fill: #1f77b4"/>
   </g>
   <g id="patch_19">
    <path d="M 125.777455 409.4712 
L 129.024 409.4712 
L 129.024 409.4712 
L 125.777455 409.4712 
z
" clip-path="url(#p032774d202)" style="fill: #1f77b4"/>
   </g>
   <g id="patch_20">
    <path d="M 129.024 409.4712 
L 132.270545 409.4712 
L 132.270545 409.4712 
L 129.024 409.4712 
z
" clip-path="url(#p032774d202)" style="fill: #1f77b4"/>
   </g>
   <g id="patch_21">
    <path d="M 132.270545 409.4712 
L 135.517091 409.4712 
L 135.517091 409.4712 
L 132.270545 409.4712 
z
" clip-path="url(#p032774d202)" style="fill: #1f77b4"/>
   </g>
   <g id="patch_22">
    <path d="M 135.517091 409.4712 
L 138.763636 409.4712 
L 138.763636 409.4712 
L 135.517091 409.4712 
z
" clip-path="url(#p032774d202)" style="fill: #1f77b4"/>
   </g>
   <g id="patch_23">
    <path d="M 138.763636 409.4712 
L 142.010182 409.4712 
L 142.010182 409.4712 
L 138.763636 409.4712 
z
" clip-path="url(#p032774d202)" style="fill: #1f77b4"/>
   </g>
   <g id="patch_24">
    <path d="M 142.010182 409.4712 
L 145.256727 409.4712 
L 145.256727 409.4712 
L 142.010182 409.4712 
z
" clip-path="url(#p032774d202)" style="fill: #1f77b4"/>
   </g>
   <g id="patch_25">
    <path d="M 145.256727 409.4712 
L 148.503273 409.4712 
L 148.503273 72.0792 
L 145.256727 72.0792 
z
" clip-path="url(#p032774d202)" style="fill: #1f77b4"/>
   </g>
   <g id="patch_26">
    <path d="M 148.503273 409.4712 
L 151.749818 409.4712 
L 151.749818 409.4712 
L 148.503273 409.4712 
z
" clip-path="url(#p032774d202)" style="fill: #1f77b4"/>
   </g>
   <g id="patch_27">
    <path d="M 151.749818 409.4712 
L 154.996364 409.4712 
L 154.996364 409.4712 
L 151.749818 409.4712 
z
" clip-path="url(#p032774d202)" style="fill: #1f77b4"/>
   </g>
   <g id="patch_28">
    <path d="M 154.996364 409.4712 
L 158.242909 409.4712 
L 158.242909 409.4712 
L 154.996364 409.4712 
z
" clip-path="url(#p032774d202)" style="fill: #1f77b4"/>
   </g>
   <g id="patch_29">
    <path d="M 158.242909 409.4712 
L 161.489455 409.4712 
L 161.489455 72.0792 
L 158.242909 72.0792 
z
" clip-path="url(#p032774d202)" style="fill: #1f77b4"/>
   </g>
   <g id="patch_30">
    <path d="M 161.489455 409.4712 
L 164.736 409.4712 
L 164.736 409.4712 
L 161.489455 409.4712 
z
" clip-path="url(#p032774d202)" style="fill: #1f77b4"/>
   </g>
   <g id="patch_31">
    <path d="M 164.736 409.4712 
L 167.982545 409.4712 
L 167.982545 409.4712 
L 164.736 409.4712 
z
" clip-path="url(#p032774d202)" style="fill: #1f77b4"/>
   </g>
   <g id="patch_32">
    <path d="M 167.982545 409.4712 
L 171.229091 409.4712 
L 171.229091 409.4712 
L 167.982545 409.4712 
z
" clip-path="url(#p032774d202)" style="fill: #1f77b4"/>
   </g>
   <g id="patch_33">
    <path d="M 171.229091 409.4712 
L 174.475636 409.4712 
L 174.475636 409.4712 
L 171.229091 409.4712 
z
" clip-path="url(#p032774d202)" style="fill: #1f77b4"/>
   </g>
   <g id="patch_34">
    <path d="M 174.475636 409.4712 
L 177.722182 409.4712 
L 177.722182 409.4712 
L 174.475636 409.4712 
z
" clip-path="url(#p032774d202)" style="fill: #1f77b4"/>
   </g>
   <g id="patch_35">
    <path d="M 177.722182 409.4712 
L 180.968727 409.4712 
L 180.968727 409.4712 
L 177.722182 409.4712 
z
" clip-path="url(#p032774d202)" style="fill: #1f77b4"/>
   </g>
   <g id="patch_36">
    <path d="M 180.968727 409.4712 
L 184.215273 409.4712 
L 184.215273 409.4712 
L 180.968727 409.4712 
z
" clip-path="url(#p032774d202)" style="fill: #1f77b4"/>
   </g>
   <g id="patch_37">
    <path d="M 184.215273 409.4712 
L 187.461818 409.4712 
L 187.461818 409.4712 
L 184.215273 409.4712 
z
" clip-path="url(#p032774d202)" style="fill: #1f77b4"/>
   </g>
   <g id="patch_38">
    <path d="M 187.461818 409.4712 
L 190.708364 409.4712 
L 190.708364 409.4712 
L 187.461818 409.4712 
z
" clip-path="url(#p032774d202)" style="fill: #1f77b4"/>
   </g>
   <g id="patch_39">
    <path d="M 190.708364 409.4712 
L 193.954909 409.4712 
L 193.954909 409.4712 
L 190.708364 409.4712 
z
" clip-path="url(#p032774d202)" style="fill: #1f77b4"/>
   </g>
   <g id="patch_40">
    <path d="M 193.954909 409.4712 
L 197.201455 409.4712 
L 197.201455 409.4712 
L 193.954909 409.4712 
z
" clip-path="url(#p032774d202)" style="fill: #1f77b4"/>
   </g>
   <g id="patch_41">
    <path d="M 197.201455 409.4712 
L 200.448 409.4712 
L 200.448 409.4712 
L 197.201455 409.4712 
z
" clip-path="url(#p032774d202)" style="fill: #1f77b4"/>
   </g>
   <g id="patch_42">
    <path d="M 200.448 409.4712 
L 203.694545 409.4712 
L 203.694545 409.4712 
L 200.448 409.4712 
z
" clip-path="url(#p032774d202)" style="fill: #1f77b4"/>
   </g>
   <g id="patch_43">
    <path d="M 203.694545 409.4712 
L 206.941091 409.4712 
L 206.941091 409.4712 
L 203.694545 409.4712 
z
" clip-path="url(#p032774d202)" style="fill: #1f77b4"/>
   </g>
   <g id="patch_44">
    <path d="M 206.941091 409.4712 
L 210.187636 409.4712 
L 210.187636 409.4712 
L 206.941091 409.4712 
z
" clip-path="url(#p032774d202)" style="fill: #1f77b4"/>
   </g>
   <g id="patch_45">
    <path d="M 210.187636 409.4712 
L 213.434182 409.4712 
L 213.434182 409.4712 
L 210.187636 409.4712 
z
" clip-path="url(#p032774d202)" style="fill: #1f77b4"/>
   </g>
   <g id="patch_46">
    <path d="M 213.434182 409.4712 
L 216.680727 409.4712 
L 216.680727 409.4712 
L 213.434182 409.4712 
z
" clip-path="url(#p032774d202)" style="fill: #1f77b4"/>
   </g>
   <g id="patch_47">
    <path d="M 216.680727 409.4712 
L 219.927273 409.4712 
L 219.927273 409.4712 
L 216.680727 409.4712 
z
" clip-path="url(#p032774d202)" style="fill: #1f77b4"/>
   </g>
   <g id="patch_48">
    <path d="M 219.927273 409.4712 
L 223.173818 409.4712 
L 223.173818 409.4712 
L 219.927273 409.4712 
z
" clip-path="url(#p032774d202)" style="fill: #1f77b4"/>
   </g>
   <g id="patch_49">
    <path d="M 223.173818 409.4712 
L 226.420364 409.4712 
L 226.420364 409.4712 
L 223.173818 409.4712 
z
" clip-path="url(#p032774d202)" style="fill: #1f77b4"/>
   </g>
   <g id="patch_50">
    <path d="M 226.420364 409.4712 
L 229.666909 409.4712 
L 229.666909 72.0792 
L 226.420364 72.0792 
z
" clip-path="url(#p032774d202)" style="fill: #1f77b4"/>
   </g>
   <g id="patch_51">
    <path d="M 229.666909 409.4712 
L 232.913455 409.4712 
L 232.913455 409.4712 
L 229.666909 409.4712 
z
" clip-path="url(#p032774d202)" style="fill: #1f77b4"/>
   </g>
   <g id="patch_52">
    <path d="M 232.913455 409.4712 
L 236.16 409.4712 
L 236.16 409.4712 
L 232.913455 409.4712 
z
" clip-path="url(#p032774d202)" style="fill: #1f77b4"/>
   </g>
   <g id="patch_53">
    <path d="M 236.16 409.4712 
L 239.406545 409.4712 
L 239.406545 409.4712 
L 236.16 409.4712 
z
" clip-path="url(#p032774d202)" style="fill: #1f77b4"/>
   </g>
   <g id="patch_54">
    <path d="M 239.406545 409.4712 
L 242.653091 409.4712 
L 242.653091 72.0792 
L 239.406545 72.0792 
z
" clip-path="url(#p032774d202)" style="fill: #1f77b4"/>
   </g>
   <g id="patch_55">
    <path d="M 242.653091 409.4712 
L 245.899636 409.4712 
L 245.899636 409.4712 
L 242.653091 409.4712 
z
" clip-path="url(#p032774d202)" style="fill: #1f77b4"/>
   </g>
   <g id="patch_56">
    <path d="M 245.899636 409.4712 
L 249.146182 409.4712 
L 249.146182 409.4712 
L 245.899636 409.4712 
z
" clip-path="url(#p032774d202)" style="fill: #1f77b4"/>
   </g>
   <g id="patch_57">
    <path d="M 249.146182 409.4712 
L 252.392727 409.4712 
L 252.392727 409.4712 
L 249.146182 409.4712 
z
" clip-path="url(#p032774d202)" style="fill: #1f77b4"/>
   </g>
   <g id="patch_58">
    <path d="M 252.392727 409.4712 
L 255.639273 409.4712 
L 255.639273 409.4712 
L 252.392727 409.4712 
z
" clip-path="url(#p032774d202)" style="fill: #1f77b4"/>
   </g>
   <g id="patch_59">
    <path d="M 255.639273 409.4712 
L 258.885818 409.4712 
L 258.885818 409.4712 
L 255.639273 409.4712 
z
" clip-path="url(#p032774d202)" style="fill: #1f77b4"/>
   </g>
   <g id="patch_60">
    <path d="M 258.885818 409.4712 
L 262.132364 409.4712 
L 262.132364 409.4712 
L 258.885818 409.4712 
z
" clip-path="url(#p032774d202)" style="fill: #1f77b4"/>
   </g>
   <g id="patch_61">
    <path d="M 262.132364 409.4712 
L 265.378909 409.4712 
L 265.378909 409.4712 
L 262.132364 409.4712 
z
" clip-path="url(#p032774d202)" style="fill: #1f77b4"/>
   </g>
   <g id="patch_62">
    <path d="M 265.378909 409.4712 
L 268.625455 409.4712 
L 268.625455 409.4712 
L 265.378909 409.4712 
z
" clip-path="url(#p032774d202)" style="fill: #1f77b4"/>
   </g>
   <g id="patch_63">
    <path d="M 268.625455 409.4712 
L 271.872 409.4712 
L 271.872 409.4712 
L 268.625455 409.4712 
z
" clip-path="url(#p032774d202)" style="fill: #1f77b4"/>
   </g>
   <g id="patch_64">
    <path d="M 271.872 409.4712 
L 275.118545 409.4712 
L 275.118545 409.4712 
L 271.872 409.4712 
z
" clip-path="url(#p032774d202)" style="fill: #1f77b4"/>
   </g>
   <g id="patch_65">
    <path d="M 275.118545 409.4712 
L 278.365091 409.4712 
L 278.365091 409.4712 
L 275.118545 409.4712 
z
" clip-path="url(#p032774d202)" style="fill: #1f77b4"/>
   </g>
   <g id="patch_66">
    <path d="M 278.365091 409.4712 
L 281.611636 409.4712 
L 281.611636 409.4712 
L 278.365091 409.4712 
z
" clip-path="url(#p032774d202)" style="fill: #1f77b4"/>
   </g>
   <g id="patch_67">
    <path d="M 281.611636 409.4712 
L 284.858182 409.4712 
L 284.858182 409.4712 
L 281.611636 409.4712 
z
" clip-path="url(#p032774d202)" style="fill: #1f77b4"/>
   </g>
   <g id="patch_68">
    <path d="M 284.858182 409.4712 
L 288.104727 409.4712 
L 288.104727 409.4712 
L 284.858182 409.4712 
z
" clip-path="url(#p032774d202)" style="fill: #1f77b4"/>
   </g>
   <g id="patch_69">
    <path d="M 288.104727 409.4712 
L 291.351273 409.4712 
L 291.351273 409.4712 
L 288.104727 409.4712 
z
" clip-path="url(#p032774d202)" style="fill: #1f77b4"/>
   </g>
   <g id="patch_70">
    <path d="M 291.351273 409.4712 
L 294.597818 409.4712 
L 294.597818 409.4712 
L 291.351273 409.4712 
z
" clip-path="url(#p032774d202)" style="fill: #1f77b4"/>
   </g>
   <g id="patch_71">
    <path d="M 294.597818 409.4712 
L 297.844364 409.4712 
L 297.844364 409.4712 
L 294.597818 409.4712 
z
" clip-path="url(#p032774d202)" style="fill: #1f77b4"/>
   </g>
   <g id="patch_72">
    <path d="M 297.844364 409.4712 
L 301.090909 409.4712 
L 301.090909 409.4712 
L 297.844364 409.4712 
z
" clip-path="url(#p032774d202)" style="fill: #1f77b4"/>
   </g>
   <g id="patch_73">
    <path d="M 301.090909 409.4712 
L 304.337455 409.4712 
L 304.337455 409.4712 
L 301.090909 409.4712 
z
" clip-path="url(#p032774d202)" style="fill: #1f77b4"/>
   </g>
   <g id="patch_74">
    <path d="M 304.337455 409.4712 
L 307.584 409.4712 
L 307.584 409.4712 
L 304.337455 409.4712 
z
" clip-path="url(#p032774d202)" style="fill: #1f77b4"/>
   </g>
   <g id="patch_75">
    <path d="M 307.584 409.4712 
L 310.830545 409.4712 
L 310.830545 72.0792 
L 307.584 72.0792 
z
" clip-path="url(#p032774d202)" style="fill: #1f77b4"/>
   </g>
   <g id="patch_76">
    <path d="M 310.830545 409.4712 
L 314.077091 409.4712 
L 314.077091 409.4712 
L 310.830545 409.4712 
z
" clip-path="url(#p032774d202)" style="fill: #1f77b4"/>
   </g>
   <g id="patch_77">
    <path d="M 314.077091 409.4712 
L 317.323636 409.4712 
L 317.323636 409.4712 
L 314.077091 409.4712 
z
" clip-path="url(#p032774d202)" style="fill: #1f77b4"/>
   </g>
   <g id="patch_78">
    <path d="M 317.323636 409.4712 
L 320.570182 409.4712 
L 320.570182 409.4712 
L 317.323636 409.4712 
z
" clip-path="url(#p032774d202)" style="fill: #1f77b4"/>
   </g>
   <g id="patch_79">
    <path d="M 320.570182 409.4712 
L 323.816727 409.4712 
L 323.816727 72.0792 
L 320.570182 72.0792 
z
" clip-path="url(#p032774d202)" style="fill: #1f77b4"/>
   </g>
   <g id="patch_80">
    <path d="M 323.816727 409.4712 
L 327.063273 409.4712 
L 327.063273 409.4712 
L 323.816727 409.4712 
z
" clip-path="url(#p032774d202)" style="fill: #1f77b4"/>
   </g>
   <g id="patch_81">
    <path d="M 327.063273 409.4712 
L 330.309818 409.4712 
L 330.309818 409.4712 
L 327.063273 409.4712 
z
" clip-path="url(#p032774d202)" style="fill: #1f77b4"/>
   </g>
   <g id="patch_82">
    <path d="M 330.309818 409.4712 
L 333.556364 409.4712 
L 333.556364 409.4712 
L 330.309818 409.4712 
z
" clip-path="url(#p032774d202)" style="fill: #1f77b4"/>
   </g>
   <g id="patch_83">
    <path d="M 333.556364 409.4712 
L 336.802909 409.4712 
L 336.802909 409.4712 
L 333.556364 409.4712 
z
" clip-path="url(#p032774d202)" style="fill: #1f77b4"/>
   </g>
   <g id="patch_84">
    <path d="M 336.802909 409.4712 
L 340.049455 409.4712 
L 340.049455 409.4712 
L 336.802909 409.4712 
z
" clip-path="url(#p032774d202)" style="fill: #1f77b4"/>
   </g>
   <g id="patch_85">
    <path d="M 340.049455 409.4712 
L 343.296 409.4712 
L 343.296 409.4712 
L 340.049455 409.4712 
z
" clip-path="url(#p032774d202)" style="fill: #1f77b4"/>
   </g>
   <g id="patch_86">
    <path d="M 343.296 409.4712 
L 346.542545 409.4712 
L 346.542545 409.4712 
L 343.296 409.4712 
z
" clip-path="url(#p032774d202)" style="fill: #1f77b4"/>
   </g>
   <g id="patch_87">
    <path d="M 346.542545 409.4712 
L 349.789091 409.4712 
L 349.789091 409.4712 
L 346.542545 409.4712 
z
" clip-path="url(#p032774d202)" style="fill: #1f77b4"/>
   </g>
   <g id="patch_88">
    <path d="M 349.789091 409.4712 
L 353.035636 409.4712 
L 353.035636 409.4712 
L 349.789091 409.4712 
z
" clip-path="url(#p032774d202)" style="fill: #1f77b4"/>
   </g>
   <g id="patch_89">
    <path d="M 353.035636 409.4712 
L 356.282182 409.4712 
L 356.282182 409.4712 
L 353.035636 409.4712 
z
" clip-path="url(#p032774d202)" style="fill: #1f77b4"/>
   </g>
   <g id="patch_90">
    <path d="M 356.282182 409.4712 
L 359.528727 409.4712 
L 359.528727 409.4712 
L 356.282182 409.4712 
z
" clip-path="url(#p032774d202)" style="fill: #1f77b4"/>
   </g>
   <g id="patch_91">
    <path d="M 359.528727 409.4712 
L 362.775273 409.4712 
L 362.775273 409.4712 
L 359.528727 409.4712 
z
" clip-path="url(#p032774d202)" style="fill: #1f77b4"/>
   </g>
   <g id="patch_92">
    <path d="M 362.775273 409.4712 
L 366.021818 409.4712 
L 366.021818 409.4712 
L 362.775273 409.4712 
z
" clip-path="url(#p032774d202)" style="fill: #1f77b4"/>
   </g>
   <g id="patch_93">
    <path d="M 366.021818 409.4712 
L 369.268364 409.4712 
L 369.268364 409.4712 
L 366.021818 409.4712 
z
" clip-path="url(#p032774d202)" style="fill: #1f77b4"/>
   </g>
   <g id="patch_94">
    <path d="M 369.268364 409.4712 
L 372.514909 409.4712 
L 372.514909 409.4712 
L 369.268364 409.4712 
z
" clip-path="url(#p032774d202)" style="fill: #1f77b4"/>
   </g>
   <g id="patch_95">
    <path d="M 372.514909 409.4712 
L 375.761455 409.4712 
L 375.761455 409.4712 
L 372.514909 409.4712 
z
" clip-path="url(#p032774d202)" style="fill: #1f77b4"/>
   </g>
   <g id="patch_96">
    <path d="M 375.761455 409.4712 
L 379.008 409.4712 
L 379.008 409.4712 
L 375.761455 409.4712 
z
" clip-path="url(#p032774d202)" style="fill: #1f77b4"/>
   </g>
   <g id="patch_97">
    <path d="M 379.008 409.4712 
L 382.254545 409.4712 
L 382.254545 409.4712 
L 379.008 409.4712 
z
" clip-path="url(#p032774d202)" style="fill: #1f77b4"/>
   </g>
   <g id="patch_98">
    <path d="M 382.254545 409.4712 
L 385.501091 409.4712 
L 385.501091 409.4712 
L 382.254545 409.4712 
z
" clip-path="url(#p032774d202)" style="fill: #1f77b4"/>
   </g>
   <g id="patch_99">
    <path d="M 385.501091 409.4712 
L 388.747636 409.4712 
L 388.747636 409.4712 
L 385.501091 409.4712 
z
" clip-path="url(#p032774d202)" style="fill: #1f77b4"/>
   </g>
   <g id="patch_100">
    <path d="M 388.747636 409.4712 
L 391.994182 409.4712 
L 391.994182 72.0792 
L 388.747636 72.0792 
z
" clip-path="url(#p032774d202)" style="fill: #1f77b4"/>
   </g>
   <g id="patch_101">
    <path d="M 391.994182 409.4712 
L 395.240727 409.4712 
L 395.240727 409.4712 
L 391.994182 409.4712 
z
" clip-path="url(#p032774d202)" style="fill: #1f77b4"/>
   </g>
   <g id="patch_102">
    <path d="M 395.240727 409.4712 
L 398.487273 409.4712 
L 398.487273 409.4712 
L 395.240727 409.4712 
z
" clip-path="url(#p032774d202)" style="fill: #1f77b4"/>
   </g>
   <g id="matplotlib.axis_1">
    <g id="xtick_1">
     <g id="line2d_1">
      <defs>
       <path id="m2bc1a1a306" d="M 0 0 
L 0 3.5 
" style="stroke: #000000; stroke-width: 0.8"/>
      </defs>
      <g>
       <use xlink:href="#m2bc1a1a306" x="74.644364" y="409.4712" style="stroke: #000000; stroke-width: 0.8"/>
      </g>
     </g>
     <g id="text_1">
      <!-- 0 -->
      <g transform="translate(71.463114 424.069637)scale(0.1 -0.1)">
       <defs>
        <path id="DejaVuSans-30" d="M 2034 4250 
Q 1547 4250 1301 3770 
Q 1056 3291 1056 2328 
Q 1056 1369 1301 889 
Q 1547 409 2034 409 
Q 2525 409 2770 889 
Q 3016 1369 3016 2328 
Q 3016 3291 2770 3770 
Q 2525 4250 2034 4250 
z
M 2034 4750 
Q 2819 4750 3233 4129 
Q 3647 3509 3647 2328 
Q 3647 1150 3233 529 
Q 2819 -91 2034 -91 
Q 1250 -91 836 529 
Q 422 1150 422 2328 
Q 422 3509 836 4129 
Q 1250 4750 2034 4750 
z
" transform="scale(0.015625)"/>
       </defs>
       <use xlink:href="#DejaVuSans-30"/>
      </g>
     </g>
    </g>
    <g id="xtick_2">
     <g id="line2d_2">
      <g>
       <use xlink:href="#m2bc1a1a306" x="115.226182" y="409.4712" style="stroke: #000000; stroke-width: 0.8"/>
      </g>
     </g>
     <g id="text_2">
      <!-- 25 -->
      <g transform="translate(108.863682 424.069637)scale(0.1 -0.1)">
       <defs>
        <path id="DejaVuSans-32" d="M 1228 531 
L 3431 531 
L 3431 0 
L 469 0 
L 469 531 
Q 828 903 1448 1529 
Q 2069 2156 2228 2338 
Q 2531 2678 2651 2914 
Q 2772 3150 2772 3378 
Q 2772 3750 2511 3984 
Q 2250 4219 1831 4219 
Q 1534 4219 1204 4116 
Q 875 4013 500 3803 
L 500 4441 
Q 881 4594 1212 4672 
Q 1544 4750 1819 4750 
Q 2544 4750 2975 4387 
Q 3406 4025 3406 3419 
Q 3406 3131 3298 2873 
Q 3191 2616 2906 2266 
Q 2828 2175 2409 1742 
Q 1991 1309 1228 531 
z
" transform="scale(0.015625)"/>
        <path id="DejaVuSans-35" d="M 691 4666 
L 3169 4666 
L 3169 4134 
L 1269 4134 
L 1269 2991 
Q 1406 3038 1543 3061 
Q 1681 3084 1819 3084 
Q 2600 3084 3056 2656 
Q 3513 2228 3513 1497 
Q 3513 744 3044 326 
Q 2575 -91 1722 -91 
Q 1428 -91 1123 -41 
Q 819 9 494 109 
L 494 744 
Q 775 591 1075 516 
Q 1375 441 1709 441 
Q 2250 441 2565 725 
Q 2881 1009 2881 1497 
Q 2881 1984 2565 2268 
Q 2250 2553 1709 2553 
Q 1456 2553 1204 2497 
Q 953 2441 691 2322 
L 691 4666 
z
" transform="scale(0.015625)"/>
       </defs>
       <use xlink:href="#DejaVuSans-32"/>
       <use xlink:href="#DejaVuSans-35" x="63.623047"/>
      </g>
     </g>
    </g>
    <g id="xtick_3">
     <g id="line2d_3">
      <g>
       <use xlink:href="#m2bc1a1a306" x="155.808" y="409.4712" style="stroke: #000000; stroke-width: 0.8"/>
      </g>
     </g>
     <g id="text_3">
      <!-- 50 -->
      <g transform="translate(149.4455 424.069637)scale(0.1 -0.1)">
       <use xlink:href="#DejaVuSans-35"/>
       <use xlink:href="#DejaVuSans-30" x="63.623047"/>
      </g>
     </g>
    </g>
    <g id="xtick_4">
     <g id="line2d_4">
      <g>
       <use xlink:href="#m2bc1a1a306" x="196.389818" y="409.4712" style="stroke: #000000; stroke-width: 0.8"/>
      </g>
     </g>
     <g id="text_4">
      <!-- 75 -->
      <g transform="translate(190.027318 424.069637)scale(0.1 -0.1)">
       <defs>
        <path id="DejaVuSans-37" d="M 525 4666 
L 3525 4666 
L 3525 4397 
L 1831 0 
L 1172 0 
L 2766 4134 
L 525 4134 
L 525 4666 
z
" transform="scale(0.015625)"/>
       </defs>
       <use xlink:href="#DejaVuSans-37"/>
       <use xlink:href="#DejaVuSans-35" x="63.623047"/>
      </g>
     </g>
    </g>
    <g id="xtick_5">
     <g id="line2d_5">
      <g>
       <use xlink:href="#m2bc1a1a306" x="236.971636" y="409.4712" style="stroke: #000000; stroke-width: 0.8"/>
      </g>
     </g>
     <g id="text_5">
      <!-- 100 -->
      <g transform="translate(227.427886 424.069637)scale(0.1 -0.1)">
       <defs>
        <path id="DejaVuSans-31" d="M 794 531 
L 1825 531 
L 1825 4091 
L 703 3866 
L 703 4441 
L 1819 4666 
L 2450 4666 
L 2450 531 
L 3481 531 
L 3481 0 
L 794 0 
L 794 531 
z
" transform="scale(0.015625)"/>
       </defs>
       <use xlink:href="#DejaVuSans-31"/>
       <use xlink:href="#DejaVuSans-30" x="63.623047"/>
       <use xlink:href="#DejaVuSans-30" x="127.246094"/>
      </g>
     </g>
    </g>
    <g id="xtick_6">
     <g id="line2d_6">
      <g>
       <use xlink:href="#m2bc1a1a306" x="277.553455" y="409.4712" style="stroke: #000000; stroke-width: 0.8"/>
      </g>
     </g>
     <g id="text_6">
      <!-- 125 -->
      <g transform="translate(268.009705 424.069637)scale(0.1 -0.1)">
       <use xlink:href="#DejaVuSans-31"/>
       <use xlink:href="#DejaVuSans-32" x="63.623047"/>
       <use xlink:href="#DejaVuSans-35" x="127.246094"/>
      </g>
     </g>
    </g>
    <g id="xtick_7">
     <g id="line2d_7">
      <g>
       <use xlink:href="#m2bc1a1a306" x="318.135273" y="409.4712" style="stroke: #000000; stroke-width: 0.8"/>
      </g>
     </g>
     <g id="text_7">
      <!-- 150 -->
      <g transform="translate(308.591523 424.069637)scale(0.1 -0.1)">
       <use xlink:href="#DejaVuSans-31"/>
       <use xlink:href="#DejaVuSans-35" x="63.623047"/>
       <use xlink:href="#DejaVuSans-30" x="127.246094"/>
      </g>
     </g>
    </g>
    <g id="xtick_8">
     <g id="line2d_8">
      <g>
       <use xlink:href="#m2bc1a1a306" x="358.717091" y="409.4712" style="stroke: #000000; stroke-width: 0.8"/>
      </g>
     </g>
     <g id="text_8">
      <!-- 175 -->
      <g transform="translate(349.173341 424.069637)scale(0.1 -0.1)">
       <use xlink:href="#DejaVuSans-31"/>
       <use xlink:href="#DejaVuSans-37" x="63.623047"/>
       <use xlink:href="#DejaVuSans-35" x="127.246094"/>
      </g>
     </g>
    </g>
    <g id="xtick_9">
     <g id="line2d_9">
      <g>
       <use xlink:href="#m2bc1a1a306" x="399.298909" y="409.4712" style="stroke: #000000; stroke-width: 0.8"/>
      </g>
     </g>
     <g id="text_9">
      <!-- 200 -->
      <g transform="translate(389.755159 424.069637)scale(0.1 -0.1)">
       <use xlink:href="#DejaVuSans-32"/>
       <use xlink:href="#DejaVuSans-30" x="63.623047"/>
       <use xlink:href="#DejaVuSans-30" x="127.246094"/>
      </g>
     </g>
    </g>
    <g id="text_10">
     <!-- Time (ms) -->
     <g transform="translate(210.960781 437.747763)scale(0.1 -0.1)">
      <defs>
       <path id="DejaVuSans-54" d="M -19 4666 
L 3928 4666 
L 3928 4134 
L 2272 4134 
L 2272 0 
L 1638 0 
L 1638 4134 
L -19 4134 
L -19 4666 
z
" transform="scale(0.015625)"/>
       <path id="DejaVuSans-69" d="M 603 3500 
L 1178 3500 
L 1178 0 
L 603 0 
L 603 3500 
z
M 603 4863 
L 1178 4863 
L 1178 4134 
L 603 4134 
L 603 4863 
z
" transform="scale(0.015625)"/>
       <path id="DejaVuSans-6d" d="M 3328 2828 
Q 3544 3216 3844 3400 
Q 4144 3584 4550 3584 
Q 5097 3584 5394 3201 
Q 5691 2819 5691 2113 
L 5691 0 
L 5113 0 
L 5113 2094 
Q 5113 2597 4934 2840 
Q 4756 3084 4391 3084 
Q 3944 3084 3684 2787 
Q 3425 2491 3425 1978 
L 3425 0 
L 2847 0 
L 2847 2094 
Q 2847 2600 2669 2842 
Q 2491 3084 2119 3084 
Q 1678 3084 1418 2786 
Q 1159 2488 1159 1978 
L 1159 0 
L 581 0 
L 581 3500 
L 1159 3500 
L 1159 2956 
Q 1356 3278 1631 3431 
Q 1906 3584 2284 3584 
Q 2666 3584 2933 3390 
Q 3200 3197 3328 2828 
z
" transform="scale(0.015625)"/>
       <path id="DejaVuSans-65" d="M 3597 1894 
L 3597 1613 
L 953 1613 
Q 991 1019 1311 708 
Q 1631 397 2203 397 
Q 2534 397 2845 478 
Q 3156 559 3463 722 
L 3463 178 
Q 3153 47 2828 -22 
Q 2503 -91 2169 -91 
Q 1331 -91 842 396 
Q 353 884 353 1716 
Q 353 2575 817 3079 
Q 1281 3584 2069 3584 
Q 2775 3584 3186 3129 
Q 3597 2675 3597 1894 
z
M 3022 2063 
Q 3016 2534 2758 2815 
Q 2500 3097 2075 3097 
Q 1594 3097 1305 2825 
Q 1016 2553 972 2059 
L 3022 2063 
z
" transform="scale(0.015625)"/>
       <path id="DejaVuSans-20" transform="scale(0.015625)"/>
       <path id="DejaVuSans-28" d="M 1984 4856 
Q 1566 4138 1362 3434 
Q 1159 2731 1159 2009 
Q 1159 1288 1364 580 
Q 1569 -128 1984 -844 
L 1484 -844 
Q 1016 -109 783 600 
Q 550 1309 550 2009 
Q 550 2706 781 3412 
Q 1013 4119 1484 4856 
L 1984 4856 
z
" transform="scale(0.015625)"/>
       <path id="DejaVuSans-73" d="M 2834 3397 
L 2834 2853 
Q 2591 2978 2328 3040 
Q 2066 3103 1784 3103 
Q 1356 3103 1142 2972 
Q 928 2841 928 2578 
Q 928 2378 1081 2264 
Q 1234 2150 1697 2047 
L 1894 2003 
Q 2506 1872 2764 1633 
Q 3022 1394 3022 966 
Q 3022 478 2636 193 
Q 2250 -91 1575 -91 
Q 1294 -91 989 -36 
Q 684 19 347 128 
L 347 722 
Q 666 556 975 473 
Q 1284 391 1588 391 
Q 1994 391 2212 530 
Q 2431 669 2431 922 
Q 2431 1156 2273 1281 
Q 2116 1406 1581 1522 
L 1381 1569 
Q 847 1681 609 1914 
Q 372 2147 372 2553 
Q 372 3047 722 3315 
Q 1072 3584 1716 3584 
Q 2034 3584 2315 3537 
Q 2597 3491 2834 3397 
z
" transform="scale(0.015625)"/>
       <path id="DejaVuSans-29" d="M 513 4856 
L 1013 4856 
Q 1481 4119 1714 3412 
Q 1947 2706 1947 2009 
Q 1947 1309 1714 600 
Q 1481 -109 1013 -844 
L 513 -844 
Q 928 -128 1133 580 
Q 1338 1288 1338 2009 
Q 1338 2731 1133 3434 
Q 928 4138 513 4856 
z
" transform="scale(0.015625)"/>
      </defs>
      <use xlink:href="#DejaVuSans-54"/>
      <use xlink:href="#DejaVuSans-69" x="57.958984"/>
      <use xlink:href="#DejaVuSans-6d" x="85.742188"/>
      <use xlink:href="#DejaVuSans-65" x="183.154297"/>
      <use xlink:href="#DejaVuSans-20" x="244.677734"/>
      <use xlink:href="#DejaVuSans-28" x="276.464844"/>
      <use xlink:href="#DejaVuSans-6d" x="315.478516"/>
      <use xlink:href="#DejaVuSans-73" x="412.890625"/>
      <use xlink:href="#DejaVuSans-29" x="464.990234"/>
     </g>
    </g>
   </g>
   <g id="matplotlib.axis_2">
    <g id="ytick_1">
     <g id="line2d_10">
      <defs>
       <path id="me56f8d0b65" d="M 0 0 
L -3.5 0 
" style="stroke: #000000; stroke-width: 0.8"/>
      </defs>
      <g>
       <use xlink:href="#me56f8d0b65" x="57.6" y="409.4712" style="stroke: #000000; stroke-width: 0.8"/>
      </g>
     </g>
     <g id="text_11">
      <!-- 0 -->
      <g transform="translate(44.2375 413.270419)scale(0.1 -0.1)">
       <use xlink:href="#DejaVuSans-30"/>
      </g>
     </g>
    </g>
    <g id="ytick_2">
     <g id="line2d_11">
      <g>
       <use xlink:href="#me56f8d0b65" x="57.6" y="341.9928" style="stroke: #000000; stroke-width: 0.8"/>
      </g>
     </g>
     <g id="text_12">
      <!-- 100 -->
      <g transform="translate(31.5125 345.792019)scale(0.1 -0.1)">
       <use xlink:href="#DejaVuSans-31"/>
       <use xlink:href="#DejaVuSans-30" x="63.623047"/>
       <use xlink:href="#DejaVuSans-30" x="127.246094"/>
      </g>
     </g>
    </g>
    <g id="ytick_3">
     <g id="line2d_12">
      <g>
       <use xlink:href="#me56f8d0b65" x="57.6" y="274.5144" style="stroke: #000000; stroke-width: 0.8"/>
      </g>
     </g>
     <g id="text_13">
      <!-- 200 -->
      <g transform="translate(31.5125 278.313619)scale(0.1 -0.1)">
       <use xlink:href="#DejaVuSans-32"/>
       <use xlink:href="#DejaVuSans-30" x="63.623047"/>
       <use xlink:href="#DejaVuSans-30" x="127.246094"/>
      </g>
     </g>
    </g>
    <g id="ytick_4">
     <g id="line2d_13">
      <g>
       <use xlink:href="#me56f8d0b65" x="57.6" y="207.036" style="stroke: #000000; stroke-width: 0.8"/>
      </g>
     </g>
     <g id="text_14">
      <!-- 300 -->
      <g transform="translate(31.5125 210.835219)scale(0.1 -0.1)">
       <defs>
        <path id="DejaVuSans-33" d="M 2597 2516 
Q 3050 2419 3304 2112 
Q 3559 1806 3559 1356 
Q 3559 666 3084 287 
Q 2609 -91 1734 -91 
Q 1441 -91 1130 -33 
Q 819 25 488 141 
L 488 750 
Q 750 597 1062 519 
Q 1375 441 1716 441 
Q 2309 441 2620 675 
Q 2931 909 2931 1356 
Q 2931 1769 2642 2001 
Q 2353 2234 1838 2234 
L 1294 2234 
L 1294 2753 
L 1863 2753 
Q 2328 2753 2575 2939 
Q 2822 3125 2822 3475 
Q 2822 3834 2567 4026 
Q 2313 4219 1838 4219 
Q 1578 4219 1281 4162 
Q 984 4106 628 3988 
L 628 4550 
Q 988 4650 1302 4700 
Q 1616 4750 1894 4750 
Q 2613 4750 3031 4423 
Q 3450 4097 3450 3541 
Q 3450 3153 3228 2886 
Q 3006 2619 2597 2516 
z
" transform="scale(0.015625)"/>
       </defs>
       <use xlink:href="#DejaVuSans-33"/>
       <use xlink:href="#DejaVuSans-30" x="63.623047"/>
       <use xlink:href="#DejaVuSans-30" x="127.246094"/>
      </g>
     </g>
    </g>
    <g id="ytick_5">
     <g id="line2d_14">
      <g>
       <use xlink:href="#me56f8d0b65" x="57.6" y="139.5576" style="stroke: #000000; stroke-width: 0.8"/>
      </g>
     </g>
     <g id="text_15">
      <!-- 400 -->
      <g transform="translate(31.5125 143.356819)scale(0.1 -0.1)">
       <defs>
        <path id="DejaVuSans-34" d="M 2419 4116 
L 825 1625 
L 2419 1625 
L 2419 4116 
z
M 2253 4666 
L 3047 4666 
L 3047 1625 
L 3713 1625 
L 3713 1100 
L 3047 1100 
L 3047 0 
L 2419 0 
L 2419 1100 
L 313 1100 
L 313 1709 
L 2253 4666 
z
" transform="scale(0.015625)"/>
       </defs>
       <use xlink:href="#DejaVuSans-34"/>
       <use xlink:href="#DejaVuSans-30" x="63.623047"/>
       <use xlink:href="#DejaVuSans-30" x="127.246094"/>
      </g>
     </g>
    </g>
    <g id="ytick_6">
     <g id="line2d_15">
      <g>
       <use xlink:href="#me56f8d0b65" x="57.6" y="72.0792" style="stroke: #000000; stroke-width: 0.8"/>
      </g>
     </g>
     <g id="text_16">
      <!-- 500 -->
      <g transform="translate(31.5125 75.878419)scale(0.1 -0.1)">
       <use xlink:href="#DejaVuSans-35"/>
       <use xlink:href="#DejaVuSans-30" x="63.623047"/>
       <use xlink:href="#DejaVuSans-30" x="127.246094"/>
      </g>
     </g>
    </g>
    <g id="text_17">
     <!-- Firing rate of population (Hz) -->
     <g transform="translate(25.432812 304.255244)rotate(-90)scale(0.1 -0.1)">
      <defs>
       <path id="DejaVuSans-46" d="M 628 4666 
L 3309 4666 
L 3309 4134 
L 1259 4134 
L 1259 2759 
L 3109 2759 
L 3109 2228 
L 1259 2228 
L 1259 0 
L 628 0 
L 628 4666 
z
" transform="scale(0.015625)"/>
       <path id="DejaVuSans-72" d="M 2631 2963 
Q 2534 3019 2420 3045 
Q 2306 3072 2169 3072 
Q 1681 3072 1420 2755 
Q 1159 2438 1159 1844 
L 1159 0 
L 581 0 
L 581 3500 
L 1159 3500 
L 1159 2956 
Q 1341 3275 1631 3429 
Q 1922 3584 2338 3584 
Q 2397 3584 2469 3576 
Q 2541 3569 2628 3553 
L 2631 2963 
z
" transform="scale(0.015625)"/>
       <path id="DejaVuSans-6e" d="M 3513 2113 
L 3513 0 
L 2938 0 
L 2938 2094 
Q 2938 2591 2744 2837 
Q 2550 3084 2163 3084 
Q 1697 3084 1428 2787 
Q 1159 2491 1159 1978 
L 1159 0 
L 581 0 
L 581 3500 
L 1159 3500 
L 1159 2956 
Q 1366 3272 1645 3428 
Q 1925 3584 2291 3584 
Q 2894 3584 3203 3211 
Q 3513 2838 3513 2113 
z
" transform="scale(0.015625)"/>
       <path id="DejaVuSans-67" d="M 2906 1791 
Q 2906 2416 2648 2759 
Q 2391 3103 1925 3103 
Q 1463 3103 1205 2759 
Q 947 2416 947 1791 
Q 947 1169 1205 825 
Q 1463 481 1925 481 
Q 2391 481 2648 825 
Q 2906 1169 2906 1791 
z
M 3481 434 
Q 3481 -459 3084 -895 
Q 2688 -1331 1869 -1331 
Q 1566 -1331 1297 -1286 
Q 1028 -1241 775 -1147 
L 775 -588 
Q 1028 -725 1275 -790 
Q 1522 -856 1778 -856 
Q 2344 -856 2625 -561 
Q 2906 -266 2906 331 
L 2906 616 
Q 2728 306 2450 153 
Q 2172 0 1784 0 
Q 1141 0 747 490 
Q 353 981 353 1791 
Q 353 2603 747 3093 
Q 1141 3584 1784 3584 
Q 2172 3584 2450 3431 
Q 2728 3278 2906 2969 
L 2906 3500 
L 3481 3500 
L 3481 434 
z
" transform="scale(0.015625)"/>
       <path id="DejaVuSans-61" d="M 2194 1759 
Q 1497 1759 1228 1600 
Q 959 1441 959 1056 
Q 959 750 1161 570 
Q 1363 391 1709 391 
Q 2188 391 2477 730 
Q 2766 1069 2766 1631 
L 2766 1759 
L 2194 1759 
z
M 3341 1997 
L 3341 0 
L 2766 0 
L 2766 531 
Q 2569 213 2275 61 
Q 1981 -91 1556 -91 
Q 1019 -91 701 211 
Q 384 513 384 1019 
Q 384 1609 779 1909 
Q 1175 2209 1959 2209 
L 2766 2209 
L 2766 2266 
Q 2766 2663 2505 2880 
Q 2244 3097 1772 3097 
Q 1472 3097 1187 3025 
Q 903 2953 641 2809 
L 641 3341 
Q 956 3463 1253 3523 
Q 1550 3584 1831 3584 
Q 2591 3584 2966 3190 
Q 3341 2797 3341 1997 
z
" transform="scale(0.015625)"/>
       <path id="DejaVuSans-74" d="M 1172 4494 
L 1172 3500 
L 2356 3500 
L 2356 3053 
L 1172 3053 
L 1172 1153 
Q 1172 725 1289 603 
Q 1406 481 1766 481 
L 2356 481 
L 2356 0 
L 1766 0 
Q 1100 0 847 248 
Q 594 497 594 1153 
L 594 3053 
L 172 3053 
L 172 3500 
L 594 3500 
L 594 4494 
L 1172 4494 
z
" transform="scale(0.015625)"/>
       <path id="DejaVuSans-6f" d="M 1959 3097 
Q 1497 3097 1228 2736 
Q 959 2375 959 1747 
Q 959 1119 1226 758 
Q 1494 397 1959 397 
Q 2419 397 2687 759 
Q 2956 1122 2956 1747 
Q 2956 2369 2687 2733 
Q 2419 3097 1959 3097 
z
M 1959 3584 
Q 2709 3584 3137 3096 
Q 3566 2609 3566 1747 
Q 3566 888 3137 398 
Q 2709 -91 1959 -91 
Q 1206 -91 779 398 
Q 353 888 353 1747 
Q 353 2609 779 3096 
Q 1206 3584 1959 3584 
z
" transform="scale(0.015625)"/>
       <path id="DejaVuSans-66" d="M 2375 4863 
L 2375 4384 
L 1825 4384 
Q 1516 4384 1395 4259 
Q 1275 4134 1275 3809 
L 1275 3500 
L 2222 3500 
L 2222 3053 
L 1275 3053 
L 1275 0 
L 697 0 
L 697 3053 
L 147 3053 
L 147 3500 
L 697 3500 
L 697 3744 
Q 697 4328 969 4595 
Q 1241 4863 1831 4863 
L 2375 4863 
z
" transform="scale(0.015625)"/>
       <path id="DejaVuSans-70" d="M 1159 525 
L 1159 -1331 
L 581 -1331 
L 581 3500 
L 1159 3500 
L 1159 2969 
Q 1341 3281 1617 3432 
Q 1894 3584 2278 3584 
Q 2916 3584 3314 3078 
Q 3713 2572 3713 1747 
Q 3713 922 3314 415 
Q 2916 -91 2278 -91 
Q 1894 -91 1617 61 
Q 1341 213 1159 525 
z
M 3116 1747 
Q 3116 2381 2855 2742 
Q 2594 3103 2138 3103 
Q 1681 3103 1420 2742 
Q 1159 2381 1159 1747 
Q 1159 1113 1420 752 
Q 1681 391 2138 391 
Q 2594 391 2855 752 
Q 3116 1113 3116 1747 
z
" transform="scale(0.015625)"/>
       <path id="DejaVuSans-75" d="M 544 1381 
L 544 3500 
L 1119 3500 
L 1119 1403 
Q 1119 906 1312 657 
Q 1506 409 1894 409 
Q 2359 409 2629 706 
Q 2900 1003 2900 1516 
L 2900 3500 
L 3475 3500 
L 3475 0 
L 2900 0 
L 2900 538 
Q 2691 219 2414 64 
Q 2138 -91 1772 -91 
Q 1169 -91 856 284 
Q 544 659 544 1381 
z
M 1991 3584 
L 1991 3584 
z
" transform="scale(0.015625)"/>
       <path id="DejaVuSans-6c" d="M 603 4863 
L 1178 4863 
L 1178 0 
L 603 0 
L 603 4863 
z
" transform="scale(0.015625)"/>
       <path id="DejaVuSans-48" d="M 628 4666 
L 1259 4666 
L 1259 2753 
L 3553 2753 
L 3553 4666 
L 4184 4666 
L 4184 0 
L 3553 0 
L 3553 2222 
L 1259 2222 
L 1259 0 
L 628 0 
L 628 4666 
z
" transform="scale(0.015625)"/>
       <path id="DejaVuSans-7a" d="M 353 3500 
L 3084 3500 
L 3084 2975 
L 922 459 
L 3084 459 
L 3084 0 
L 275 0 
L 275 525 
L 2438 3041 
L 353 3041 
L 353 3500 
z
" transform="scale(0.015625)"/>
      </defs>
      <use xlink:href="#DejaVuSans-46"/>
      <use xlink:href="#DejaVuSans-69" x="50.269531"/>
      <use xlink:href="#DejaVuSans-72" x="78.052734"/>
      <use xlink:href="#DejaVuSans-69" x="119.166016"/>
      <use xlink:href="#DejaVuSans-6e" x="146.949219"/>
      <use xlink:href="#DejaVuSans-67" x="210.328125"/>
      <use xlink:href="#DejaVuSans-20" x="273.804688"/>
      <use xlink:href="#DejaVuSans-72" x="305.591797"/>
      <use xlink:href="#DejaVuSans-61" x="346.705078"/>
      <use xlink:href="#DejaVuSans-74" x="407.984375"/>
      <use xlink:href="#DejaVuSans-65" x="447.193359"/>
      <use xlink:href="#DejaVuSans-20" x="508.716797"/>
      <use xlink:href="#DejaVuSans-6f" x="540.503906"/>
      <use xlink:href="#DejaVuSans-66" x="601.685547"/>
      <use xlink:href="#DejaVuSans-20" x="636.890625"/>
      <use xlink:href="#DejaVuSans-70" x="668.677734"/>
      <use xlink:href="#DejaVuSans-6f" x="732.154297"/>
      <use xlink:href="#DejaVuSans-70" x="793.335938"/>
      <use xlink:href="#DejaVuSans-75" x="856.8125"/>
      <use xlink:href="#DejaVuSans-6c" x="920.191406"/>
      <use xlink:href="#DejaVuSans-61" x="947.974609"/>
      <use xlink:href="#DejaVuSans-74" x="1009.253906"/>
      <use xlink:href="#DejaVuSans-69" x="1048.462891"/>
      <use xlink:href="#DejaVuSans-6f" x="1076.246094"/>
      <use xlink:href="#DejaVuSans-6e" x="1137.427734"/>
      <use xlink:href="#DejaVuSans-20" x="1200.806641"/>
      <use xlink:href="#DejaVuSans-28" x="1232.59375"/>
      <use xlink:href="#DejaVuSans-48" x="1271.607422"/>
      <use xlink:href="#DejaVuSans-7a" x="1346.802734"/>
      <use xlink:href="#DejaVuSans-29" x="1399.292969"/>
     </g>
    </g>
   </g>
   <g id="patch_103">
    <path d="M 57.6 409.4712 
L 57.6 55.2096 
" style="fill: none; stroke: #000000; stroke-width: 0.8; stroke-linejoin: miter; stroke-linecap: square"/>
   </g>
   <g id="patch_104">
    <path d="M 414.72 409.4712 
L 414.72 55.2096 
" style="fill: none; stroke: #000000; stroke-width: 0.8; stroke-linejoin: miter; stroke-linecap: square"/>
   </g>
   <g id="patch_105">
    <path d="M 57.6 409.4712 
L 414.72 409.4712 
" style="fill: none; stroke: #000000; stroke-width: 0.8; stroke-linejoin: miter; stroke-linecap: square"/>
   </g>
   <g id="patch_106">
    <path d="M 57.6 55.2096 
L 414.72 55.2096 
" style="fill: none; stroke: #000000; stroke-width: 0.8; stroke-linejoin: miter; stroke-linecap: square"/>
   </g>
   <g id="text_18">
    <!-- (100 neurones) -->
    <g transform="translate(190.199062 35.772225)scale(0.12 -0.12)">
     <use xlink:href="#DejaVuSans-28"/>
     <use xlink:href="#DejaVuSans-31" x="39.013672"/>
     <use xlink:href="#DejaVuSans-30" x="102.636719"/>
     <use xlink:href="#DejaVuSans-30" x="166.259766"/>
     <use xlink:href="#DejaVuSans-20" x="229.882812"/>
     <use xlink:href="#DejaVuSans-6e" x="261.669922"/>
     <use xlink:href="#DejaVuSans-65" x="325.048828"/>
     <use xlink:href="#DejaVuSans-75" x="386.572266"/>
     <use xlink:href="#DejaVuSans-72" x="449.951172"/>
     <use xlink:href="#DejaVuSans-6f" x="488.814453"/>
     <use xlink:href="#DejaVuSans-6e" x="549.996094"/>
     <use xlink:href="#DejaVuSans-65" x="613.375"/>
     <use xlink:href="#DejaVuSans-73" x="674.898438"/>
     <use xlink:href="#DejaVuSans-29" x="726.998047"/>
    </g>
    <!-- Mean population firing rate (Hz): 40.0 -->
    <g transform="translate(122.91375 49.2096)scale(0.12 -0.12)">
     <defs>
      <path id="DejaVuSans-4d" d="M 628 4666 
L 1569 4666 
L 2759 1491 
L 3956 4666 
L 4897 4666 
L 4897 0 
L 4281 0 
L 4281 4097 
L 3078 897 
L 2444 897 
L 1241 4097 
L 1241 0 
L 628 0 
L 628 4666 
z
" transform="scale(0.015625)"/>
      <path id="DejaVuSans-3a" d="M 750 794 
L 1409 794 
L 1409 0 
L 750 0 
L 750 794 
z
M 750 3309 
L 1409 3309 
L 1409 2516 
L 750 2516 
L 750 3309 
z
" transform="scale(0.015625)"/>
      <path id="DejaVuSans-2e" d="M 684 794 
L 1344 794 
L 1344 0 
L 684 0 
L 684 794 
z
" transform="scale(0.015625)"/>
     </defs>
     <use xlink:href="#DejaVuSans-4d"/>
     <use xlink:href="#DejaVuSans-65" x="86.279297"/>
     <use xlink:href="#DejaVuSans-61" x="147.802734"/>
     <use xlink:href="#DejaVuSans-6e" x="209.082031"/>
     <use xlink:href="#DejaVuSans-20" x="272.460938"/>
     <use xlink:href="#DejaVuSans-70" x="304.248047"/>
     <use xlink:href="#DejaVuSans-6f" x="367.724609"/>
     <use xlink:href="#DejaVuSans-70" x="428.90625"/>
     <use xlink:href="#DejaVuSans-75" x="492.382812"/>
     <use xlink:href="#DejaVuSans-6c" x="555.761719"/>
     <use xlink:href="#DejaVuSans-61" x="583.544922"/>
     <use xlink:href="#DejaVuSans-74" x="644.824219"/>
     <use xlink:href="#DejaVuSans-69" x="684.033203"/>
     <use xlink:href="#DejaVuSans-6f" x="711.816406"/>
     <use xlink:href="#DejaVuSans-6e" x="772.998047"/>
     <use xlink:href="#DejaVuSans-20" x="836.376953"/>
     <use xlink:href="#DejaVuSans-66" x="868.164062"/>
     <use xlink:href="#DejaVuSans-69" x="903.369141"/>
     <use xlink:href="#DejaVuSans-72" x="931.152344"/>
     <use xlink:href="#DejaVuSans-69" x="972.265625"/>
     <use xlink:href="#DejaVuSans-6e" x="1000.048828"/>
     <use xlink:href="#DejaVuSans-67" x="1063.427734"/>
     <use xlink:href="#DejaVuSans-20" x="1126.904297"/>
     <use xlink:href="#DejaVuSans-72" x="1158.691406"/>
     <use xlink:href="#DejaVuSans-61" x="1199.804688"/>
     <use xlink:href="#DejaVuSans-74" x="1261.083984"/>
     <use xlink:href="#DejaVuSans-65" x="1300.292969"/>
     <use xlink:href="#DejaVuSans-20" x="1361.816406"/>
     <use xlink:href="#DejaVuSans-28" x="1393.603516"/>
     <use xlink:href="#DejaVuSans-48" x="1432.617188"/>
     <use xlink:href="#DejaVuSans-7a" x="1507.8125"/>
     <use xlink:href="#DejaVuSans-29" x="1560.302734"/>
     <use xlink:href="#DejaVuSans-3a" x="1599.316406"/>
     <use xlink:href="#DejaVuSans-20" x="1633.007812"/>
     <use xlink:href="#DejaVuSans-34" x="1664.794922"/>
     <use xlink:href="#DejaVuSans-30" x="1728.417969"/>
     <use xlink:href="#DejaVuSans-2e" x="1792.041016"/>
     <use xlink:href="#DejaVuSans-30" x="1823.828125"/>
    </g>
   </g>
  </g>
  <g id="text_19">
   <!-- Firing rate of neuronal population over time -->
   <g transform="translate(99.249375 18.319725)scale(0.12 -0.12)">
    <defs>
     <path id="DejaVuSans-76" d="M 191 3500 
L 800 3500 
L 1894 563 
L 2988 3500 
L 3597 3500 
L 2284 0 
L 1503 0 
L 191 3500 
z
" transform="scale(0.015625)"/>
    </defs>
    <use xlink:href="#DejaVuSans-46"/>
    <use xlink:href="#DejaVuSans-69" x="50.269531"/>
    <use xlink:href="#DejaVuSans-72" x="78.052734"/>
    <use xlink:href="#DejaVuSans-69" x="119.166016"/>
    <use xlink:href="#DejaVuSans-6e" x="146.949219"/>
    <use xlink:href="#DejaVuSans-67" x="210.328125"/>
    <use xlink:href="#DejaVuSans-20" x="273.804688"/>
    <use xlink:href="#DejaVuSans-72" x="305.591797"/>
    <use xlink:href="#DejaVuSans-61" x="346.705078"/>
    <use xlink:href="#DejaVuSans-74" x="407.984375"/>
    <use xlink:href="#DejaVuSans-65" x="447.193359"/>
    <use xlink:href="#DejaVuSans-20" x="508.716797"/>
    <use xlink:href="#DejaVuSans-6f" x="540.503906"/>
    <use xlink:href="#DejaVuSans-66" x="601.685547"/>
    <use xlink:href="#DejaVuSans-20" x="636.890625"/>
    <use xlink:href="#DejaVuSans-6e" x="668.677734"/>
    <use xlink:href="#DejaVuSans-65" x="732.056641"/>
    <use xlink:href="#DejaVuSans-75" x="793.580078"/>
    <use xlink:href="#DejaVuSans-72" x="856.958984"/>
    <use xlink:href="#DejaVuSans-6f" x="895.822266"/>
    <use xlink:href="#DejaVuSans-6e" x="957.003906"/>
    <use xlink:href="#DejaVuSans-61" x="1020.382812"/>
    <use xlink:href="#DejaVuSans-6c" x="1081.662109"/>
    <use xlink:href="#DejaVuSans-20" x="1109.445312"/>
    <use xlink:href="#DejaVuSans-70" x="1141.232422"/>
    <use xlink:href="#DejaVuSans-6f" x="1204.708984"/>
    <use xlink:href="#DejaVuSans-70" x="1265.890625"/>
    <use xlink:href="#DejaVuSans-75" x="1329.367188"/>
    <use xlink:href="#DejaVuSans-6c" x="1392.746094"/>
    <use xlink:href="#DejaVuSans-61" x="1420.529297"/>
    <use xlink:href="#DejaVuSans-74" x="1481.808594"/>
    <use xlink:href="#DejaVuSans-69" x="1521.017578"/>
    <use xlink:href="#DejaVuSans-6f" x="1548.800781"/>
    <use xlink:href="#DejaVuSans-6e" x="1609.982422"/>
    <use xlink:href="#DejaVuSans-20" x="1673.361328"/>
    <use xlink:href="#DejaVuSans-6f" x="1705.148438"/>
    <use xlink:href="#DejaVuSans-76" x="1766.330078"/>
    <use xlink:href="#DejaVuSans-65" x="1825.509766"/>
    <use xlink:href="#DejaVuSans-72" x="1887.033203"/>
    <use xlink:href="#DejaVuSans-20" x="1928.146484"/>
    <use xlink:href="#DejaVuSans-74" x="1959.933594"/>
    <use xlink:href="#DejaVuSans-69" x="1999.142578"/>
    <use xlink:href="#DejaVuSans-6d" x="2026.925781"/>
    <use xlink:href="#DejaVuSans-65" x="2124.337891"/>
   </g>
  </g>
 </g>
 <defs>
  <clipPath id="p032774d202">
   <rect x="57.6" y="55.2096" width="357.12" height="354.2616"/>
  </clipPath>
 </defs>
</svg>
