<?xml version="1.0" encoding="utf-8" standalone="no"?>
<!DOCTYPE svg PUBLIC "-//W3C//DTD SVG 1.1//EN"
  "http://www.w3.org/Graphics/SVG/1.1/DTD/svg11.dtd">
<svg xmlns:xlink="http://www.w3.org/1999/xlink" width="460.8pt" height="345.6pt" viewBox="0 0 460.8 345.6" xmlns="http://www.w3.org/2000/svg" version="1.1">
 <metadata>
  <rdf:RDF xmlns:dc="http://purl.org/dc/elements/1.1/" xmlns:cc="http://creativecommons.org/ns#" xmlns:rdf="http://www.w3.org/1999/02/22-rdf-syntax-ns#">
   <cc:Work>
    <dc:type rdf:resource="http://purl.org/dc/dcmitype/StillImage"/>
    <dc:date>2022-04-10T13:44:40.095202</dc:date>
    <dc:format>image/svg+xml</dc:format>
    <dc:creator>
     <cc:Agent>
      <dc:title>Matplotlib v3.5.1, https://matplotlib.org/</dc:title>
     </cc:Agent>
    </dc:creator>
   </cc:Work>
  </rdf:RDF>
 </metadata>
 <defs>
  <style type="text/css">*{stroke-linejoin: round; stroke-linecap: butt}</style>
 </defs>
 <g id="figure_1">
  <g id="patch_1">
   <path d="M 0 345.6 
L 460.8 345.6 
L 460.8 0 
L 0 0 
z
" style="fill: #ffffff"/>
  </g>
  <g id="axes_1">
   <g id="patch_2">
    <path d="M 47.018 303.64 
L 404.332 303.64 
L 404.332 36.72 
L 47.018 36.72 
z
" style="fill: #ffffff"/>
   </g>
   <g id="matplotlib.axis_1">
    <g id="xtick_1">
     <g id="line2d_1">
      <defs>
       <path id="m39819dffc2" d="M 0 0 
L 0 3.5 
" style="stroke: #000000; stroke-width: 0.8"/>
      </defs>
      <g>
       <use xlink:href="#m39819dffc2" x="63.259545" y="303.64" style="stroke: #000000; stroke-width: 0.8"/>
      </g>
     </g>
     <g id="text_1">
      <!-- 0 -->
      <g transform="translate(60.078295 318.238437)scale(0.1 -0.1)">
       <defs>
        <path id="DejaVuSans-30" d="M 2034 4250 
Q 1547 4250 1301 3770 
Q 1056 3291 1056 2328 
Q 1056 1369 1301 889 
Q 1547 409 2034 409 
Q 2525 409 2770 889 
Q 3016 1369 3016 2328 
Q 3016 3291 2770 3770 
Q 2525 4250 2034 4250 
z
M 2034 4750 
Q 2819 4750 3233 4129 
Q 3647 3509 3647 2328 
Q 3647 1150 3233 529 
Q 2819 -91 2034 -91 
Q 1250 -91 836 529 
Q 422 1150 422 2328 
Q 422 3509 836 4129 
Q 1250 4750 2034 4750 
z
" transform="scale(0.015625)"/>
       </defs>
       <use xlink:href="#DejaVuSans-30"/>
      </g>
     </g>
    </g>
    <g id="xtick_2">
     <g id="line2d_2">
      <g>
       <use xlink:href="#m39819dffc2" x="104.067449" y="303.64" style="stroke: #000000; stroke-width: 0.8"/>
      </g>
     </g>
     <g id="text_2">
      <!-- 25 -->
      <g transform="translate(97.704949 318.238437)scale(0.1 -0.1)">
       <defs>
        <path id="DejaVuSans-32" d="M 1228 531 
L 3431 531 
L 3431 0 
L 469 0 
L 469 531 
Q 828 903 1448 1529 
Q 2069 2156 2228 2338 
Q 2531 2678 2651 2914 
Q 2772 3150 2772 3378 
Q 2772 3750 2511 3984 
Q 2250 4219 1831 4219 
Q 1534 4219 1204 4116 
Q 875 4013 500 3803 
L 500 4441 
Q 881 4594 1212 4672 
Q 1544 4750 1819 4750 
Q 2544 4750 2975 4387 
Q 3406 4025 3406 3419 
Q 3406 3131 3298 2873 
Q 3191 2616 2906 2266 
Q 2828 2175 2409 1742 
Q 1991 1309 1228 531 
z
" transform="scale(0.015625)"/>
        <path id="DejaVuSans-35" d="M 691 4666 
L 3169 4666 
L 3169 4134 
L 1269 4134 
L 1269 2991 
Q 1406 3038 1543 3061 
Q 1681 3084 1819 3084 
Q 2600 3084 3056 2656 
Q 3513 2228 3513 1497 
Q 3513 744 3044 326 
Q 2575 -91 1722 -91 
Q 1428 -91 1123 -41 
Q 819 9 494 109 
L 494 744 
Q 775 591 1075 516 
Q 1375 441 1709 441 
Q 2250 441 2565 725 
Q 2881 1009 2881 1497 
Q 2881 1984 2565 2268 
Q 2250 2553 1709 2553 
Q 1456 2553 1204 2497 
Q 953 2441 691 2322 
L 691 4666 
z
" transform="scale(0.015625)"/>
       </defs>
       <use xlink:href="#DejaVuSans-32"/>
       <use xlink:href="#DejaVuSans-35" x="63.623047"/>
      </g>
     </g>
    </g>
    <g id="xtick_3">
     <g id="line2d_3">
      <g>
       <use xlink:href="#m39819dffc2" x="144.875352" y="303.64" style="stroke: #000000; stroke-width: 0.8"/>
      </g>
     </g>
     <g id="text_3">
      <!-- 50 -->
      <g transform="translate(138.512852 318.238437)scale(0.1 -0.1)">
       <use xlink:href="#DejaVuSans-35"/>
       <use xlink:href="#DejaVuSans-30" x="63.623047"/>
      </g>
     </g>
    </g>
    <g id="xtick_4">
     <g id="line2d_4">
      <g>
       <use xlink:href="#m39819dffc2" x="185.683255" y="303.64" style="stroke: #000000; stroke-width: 0.8"/>
      </g>
     </g>
     <g id="text_4">
      <!-- 75 -->
      <g transform="translate(179.320755 318.238437)scale(0.1 -0.1)">
       <defs>
        <path id="DejaVuSans-37" d="M 525 4666 
L 3525 4666 
L 3525 4397 
L 1831 0 
L 1172 0 
L 2766 4134 
L 525 4134 
L 525 4666 
z
" transform="scale(0.015625)"/>
       </defs>
       <use xlink:href="#DejaVuSans-37"/>
       <use xlink:href="#DejaVuSans-35" x="63.623047"/>
      </g>
     </g>
    </g>
    <g id="xtick_5">
     <g id="line2d_5">
      <g>
       <use xlink:href="#m39819dffc2" x="226.491158" y="303.64" style="stroke: #000000; stroke-width: 0.8"/>
      </g>
     </g>
     <g id="text_5">
      <!-- 100 -->
      <g transform="translate(216.947408 318.238437)scale(0.1 -0.1)">
       <defs>
        <path id="DejaVuSans-31" d="M 794 531 
L 1825 531 
L 1825 4091 
L 703 3866 
L 703 4441 
L 1819 4666 
L 2450 4666 
L 2450 531 
L 3481 531 
L 3481 0 
L 794 0 
L 794 531 
z
" transform="scale(0.015625)"/>
       </defs>
       <use xlink:href="#DejaVuSans-31"/>
       <use xlink:href="#DejaVuSans-30" x="63.623047"/>
       <use xlink:href="#DejaVuSans-30" x="127.246094"/>
      </g>
     </g>
    </g>
    <g id="xtick_6">
     <g id="line2d_6">
      <g>
       <use xlink:href="#m39819dffc2" x="267.299061" y="303.64" style="stroke: #000000; stroke-width: 0.8"/>
      </g>
     </g>
     <g id="text_6">
      <!-- 125 -->
      <g transform="translate(257.755311 318.238437)scale(0.1 -0.1)">
       <use xlink:href="#DejaVuSans-31"/>
       <use xlink:href="#DejaVuSans-32" x="63.623047"/>
       <use xlink:href="#DejaVuSans-35" x="127.246094"/>
      </g>
     </g>
    </g>
    <g id="xtick_7">
     <g id="line2d_7">
      <g>
       <use xlink:href="#m39819dffc2" x="308.106964" y="303.64" style="stroke: #000000; stroke-width: 0.8"/>
      </g>
     </g>
     <g id="text_7">
      <!-- 150 -->
      <g transform="translate(298.563214 318.238437)scale(0.1 -0.1)">
       <use xlink:href="#DejaVuSans-31"/>
       <use xlink:href="#DejaVuSans-35" x="63.623047"/>
       <use xlink:href="#DejaVuSans-30" x="127.246094"/>
      </g>
     </g>
    </g>
    <g id="xtick_8">
     <g id="line2d_8">
      <g>
       <use xlink:href="#m39819dffc2" x="348.914868" y="303.64" style="stroke: #000000; stroke-width: 0.8"/>
      </g>
     </g>
     <g id="text_8">
      <!-- 175 -->
      <g transform="translate(339.371118 318.238437)scale(0.1 -0.1)">
       <use xlink:href="#DejaVuSans-31"/>
       <use xlink:href="#DejaVuSans-37" x="63.623047"/>
       <use xlink:href="#DejaVuSans-35" x="127.246094"/>
      </g>
     </g>
    </g>
    <g id="xtick_9">
     <g id="line2d_9">
      <g>
       <use xlink:href="#m39819dffc2" x="389.722771" y="303.64" style="stroke: #000000; stroke-width: 0.8"/>
      </g>
     </g>
     <g id="text_9">
      <!-- 200 -->
      <g transform="translate(380.179021 318.238437)scale(0.1 -0.1)">
       <use xlink:href="#DejaVuSans-32"/>
       <use xlink:href="#DejaVuSans-30" x="63.623047"/>
       <use xlink:href="#DejaVuSans-30" x="127.246094"/>
      </g>
     </g>
    </g>
    <g id="text_10">
     <!-- Time (ms) -->
     <g transform="translate(200.475781 331.916562)scale(0.1 -0.1)">
      <defs>
       <path id="DejaVuSans-54" d="M -19 4666 
L 3928 4666 
L 3928 4134 
L 2272 4134 
L 2272 0 
L 1638 0 
L 1638 4134 
L -19 4134 
L -19 4666 
z
" transform="scale(0.015625)"/>
       <path id="DejaVuSans-69" d="M 603 3500 
L 1178 3500 
L 1178 0 
L 603 0 
L 603 3500 
z
M 603 4863 
L 1178 4863 
L 1178 4134 
L 603 4134 
L 603 4863 
z
" transform="scale(0.015625)"/>
       <path id="DejaVuSans-6d" d="M 3328 2828 
Q 3544 3216 3844 3400 
Q 4144 3584 4550 3584 
Q 5097 3584 5394 3201 
Q 5691 2819 5691 2113 
L 5691 0 
L 5113 0 
L 5113 2094 
Q 5113 2597 4934 2840 
Q 4756 3084 4391 3084 
Q 3944 3084 3684 2787 
Q 3425 2491 3425 1978 
L 3425 0 
L 2847 0 
L 2847 2094 
Q 2847 2600 2669 2842 
Q 2491 3084 2119 3084 
Q 1678 3084 1418 2786 
Q 1159 2488 1159 1978 
L 1159 0 
L 581 0 
L 581 3500 
L 1159 3500 
L 1159 2956 
Q 1356 3278 1631 3431 
Q 1906 3584 2284 3584 
Q 2666 3584 2933 3390 
Q 3200 3197 3328 2828 
z
" transform="scale(0.015625)"/>
       <path id="DejaVuSans-65" d="M 3597 1894 
L 3597 1613 
L 953 1613 
Q 991 1019 1311 708 
Q 1631 397 2203 397 
Q 2534 397 2845 478 
Q 3156 559 3463 722 
L 3463 178 
Q 3153 47 2828 -22 
Q 2503 -91 2169 -91 
Q 1331 -91 842 396 
Q 353 884 353 1716 
Q 353 2575 817 3079 
Q 1281 3584 2069 3584 
Q 2775 3584 3186 3129 
Q 3597 2675 3597 1894 
z
M 3022 2063 
Q 3016 2534 2758 2815 
Q 2500 3097 2075 3097 
Q 1594 3097 1305 2825 
Q 1016 2553 972 2059 
L 3022 2063 
z
" transform="scale(0.015625)"/>
       <path id="DejaVuSans-20" transform="scale(0.015625)"/>
       <path id="DejaVuSans-28" d="M 1984 4856 
Q 1566 4138 1362 3434 
Q 1159 2731 1159 2009 
Q 1159 1288 1364 580 
Q 1569 -128 1984 -844 
L 1484 -844 
Q 1016 -109 783 600 
Q 550 1309 550 2009 
Q 550 2706 781 3412 
Q 1013 4119 1484 4856 
L 1984 4856 
z
" transform="scale(0.015625)"/>
       <path id="DejaVuSans-73" d="M 2834 3397 
L 2834 2853 
Q 2591 2978 2328 3040 
Q 2066 3103 1784 3103 
Q 1356 3103 1142 2972 
Q 928 2841 928 2578 
Q 928 2378 1081 2264 
Q 1234 2150 1697 2047 
L 1894 2003 
Q 2506 1872 2764 1633 
Q 3022 1394 3022 966 
Q 3022 478 2636 193 
Q 2250 -91 1575 -91 
Q 1294 -91 989 -36 
Q 684 19 347 128 
L 347 722 
Q 666 556 975 473 
Q 1284 391 1588 391 
Q 1994 391 2212 530 
Q 2431 669 2431 922 
Q 2431 1156 2273 1281 
Q 2116 1406 1581 1522 
L 1381 1569 
Q 847 1681 609 1914 
Q 372 2147 372 2553 
Q 372 3047 722 3315 
Q 1072 3584 1716 3584 
Q 2034 3584 2315 3537 
Q 2597 3491 2834 3397 
z
" transform="scale(0.015625)"/>
       <path id="DejaVuSans-29" d="M 513 4856 
L 1013 4856 
Q 1481 4119 1714 3412 
Q 1947 2706 1947 2009 
Q 1947 1309 1714 600 
Q 1481 -109 1013 -844 
L 513 -844 
Q 928 -128 1133 580 
Q 1338 1288 1338 2009 
Q 1338 2731 1133 3434 
Q 928 4138 513 4856 
z
" transform="scale(0.015625)"/>
      </defs>
      <use xlink:href="#DejaVuSans-54"/>
      <use xlink:href="#DejaVuSans-69" x="57.958984"/>
      <use xlink:href="#DejaVuSans-6d" x="85.742188"/>
      <use xlink:href="#DejaVuSans-65" x="183.154297"/>
      <use xlink:href="#DejaVuSans-20" x="244.677734"/>
      <use xlink:href="#DejaVuSans-28" x="276.464844"/>
      <use xlink:href="#DejaVuSans-6d" x="315.478516"/>
      <use xlink:href="#DejaVuSans-73" x="412.890625"/>
      <use xlink:href="#DejaVuSans-29" x="464.990234"/>
     </g>
    </g>
   </g>
   <g id="matplotlib.axis_2">
    <g id="ytick_1">
     <g id="line2d_10">
      <defs>
       <path id="ma69b6e49d9" d="M 0 0 
L -3.5 0 
" style="stroke: #000000; stroke-width: 0.8"/>
      </defs>
      <g>
       <use xlink:href="#ma69b6e49d9" x="47.018" y="301.196168" style="stroke: #000000; stroke-width: 0.8"/>
      </g>
     </g>
     <g id="text_11">
      <!-- 0 -->
      <g style="fill: #d62728" transform="translate(33.6555 304.995387)scale(0.1 -0.1)">
       <use xlink:href="#DejaVuSans-30"/>
      </g>
     </g>
    </g>
    <g id="ytick_2">
     <g id="line2d_11">
      <g>
       <use xlink:href="#ma69b6e49d9" x="47.018" y="269.653238" style="stroke: #000000; stroke-width: 0.8"/>
      </g>
     </g>
     <g id="text_12">
      <!-- 5 -->
      <g style="fill: #d62728" transform="translate(33.6555 273.452457)scale(0.1 -0.1)">
       <use xlink:href="#DejaVuSans-35"/>
      </g>
     </g>
    </g>
    <g id="ytick_3">
     <g id="line2d_12">
      <g>
       <use xlink:href="#ma69b6e49d9" x="47.018" y="238.110308" style="stroke: #000000; stroke-width: 0.8"/>
      </g>
     </g>
     <g id="text_13">
      <!-- 10 -->
      <g style="fill: #d62728" transform="translate(27.293 241.909527)scale(0.1 -0.1)">
       <use xlink:href="#DejaVuSans-31"/>
       <use xlink:href="#DejaVuSans-30" x="63.623047"/>
      </g>
     </g>
    </g>
    <g id="ytick_4">
     <g id="line2d_13">
      <g>
       <use xlink:href="#ma69b6e49d9" x="47.018" y="206.567378" style="stroke: #000000; stroke-width: 0.8"/>
      </g>
     </g>
     <g id="text_14">
      <!-- 15 -->
      <g style="fill: #d62728" transform="translate(27.293 210.366597)scale(0.1 -0.1)">
       <use xlink:href="#DejaVuSans-31"/>
       <use xlink:href="#DejaVuSans-35" x="63.623047"/>
      </g>
     </g>
    </g>
    <g id="ytick_5">
     <g id="line2d_14">
      <g>
       <use xlink:href="#ma69b6e49d9" x="47.018" y="175.024448" style="stroke: #000000; stroke-width: 0.8"/>
      </g>
     </g>
     <g id="text_15">
      <!-- 20 -->
      <g style="fill: #d62728" transform="translate(27.293 178.823666)scale(0.1 -0.1)">
       <use xlink:href="#DejaVuSans-32"/>
       <use xlink:href="#DejaVuSans-30" x="63.623047"/>
      </g>
     </g>
    </g>
    <g id="ytick_6">
     <g id="line2d_15">
      <g>
       <use xlink:href="#ma69b6e49d9" x="47.018" y="143.481518" style="stroke: #000000; stroke-width: 0.8"/>
      </g>
     </g>
     <g id="text_16">
      <!-- 25 -->
      <g style="fill: #d62728" transform="translate(27.293 147.280736)scale(0.1 -0.1)">
       <use xlink:href="#DejaVuSans-32"/>
       <use xlink:href="#DejaVuSans-35" x="63.623047"/>
      </g>
     </g>
    </g>
    <g id="ytick_7">
     <g id="line2d_16">
      <g>
       <use xlink:href="#ma69b6e49d9" x="47.018" y="111.938587" style="stroke: #000000; stroke-width: 0.8"/>
      </g>
     </g>
     <g id="text_17">
      <!-- 30 -->
      <g style="fill: #d62728" transform="translate(27.293 115.737806)scale(0.1 -0.1)">
       <defs>
        <path id="DejaVuSans-33" d="M 2597 2516 
Q 3050 2419 3304 2112 
Q 3559 1806 3559 1356 
Q 3559 666 3084 287 
Q 2609 -91 1734 -91 
Q 1441 -91 1130 -33 
Q 819 25 488 141 
L 488 750 
Q 750 597 1062 519 
Q 1375 441 1716 441 
Q 2309 441 2620 675 
Q 2931 909 2931 1356 
Q 2931 1769 2642 2001 
Q 2353 2234 1838 2234 
L 1294 2234 
L 1294 2753 
L 1863 2753 
Q 2328 2753 2575 2939 
Q 2822 3125 2822 3475 
Q 2822 3834 2567 4026 
Q 2313 4219 1838 4219 
Q 1578 4219 1281 4162 
Q 984 4106 628 3988 
L 628 4550 
Q 988 4650 1302 4700 
Q 1616 4750 1894 4750 
Q 2613 4750 3031 4423 
Q 3450 4097 3450 3541 
Q 3450 3153 3228 2886 
Q 3006 2619 2597 2516 
z
" transform="scale(0.015625)"/>
       </defs>
       <use xlink:href="#DejaVuSans-33"/>
       <use xlink:href="#DejaVuSans-30" x="63.623047"/>
      </g>
     </g>
    </g>
    <g id="ytick_8">
     <g id="line2d_17">
      <g>
       <use xlink:href="#ma69b6e49d9" x="47.018" y="80.395657" style="stroke: #000000; stroke-width: 0.8"/>
      </g>
     </g>
     <g id="text_18">
      <!-- 35 -->
      <g style="fill: #d62728" transform="translate(27.293 84.194876)scale(0.1 -0.1)">
       <use xlink:href="#DejaVuSans-33"/>
       <use xlink:href="#DejaVuSans-35" x="63.623047"/>
      </g>
     </g>
    </g>
    <g id="ytick_9">
     <g id="line2d_18">
      <g>
       <use xlink:href="#ma69b6e49d9" x="47.018" y="48.852727" style="stroke: #000000; stroke-width: 0.8"/>
      </g>
     </g>
     <g id="text_19">
      <!-- 40 -->
      <g style="fill: #d62728" transform="translate(27.293 52.651946)scale(0.1 -0.1)">
       <defs>
        <path id="DejaVuSans-34" d="M 2419 4116 
L 825 1625 
L 2419 1625 
L 2419 4116 
z
M 2253 4666 
L 3047 4666 
L 3047 1625 
L 3713 1625 
L 3713 1100 
L 3047 1100 
L 3047 0 
L 2419 0 
L 2419 1100 
L 313 1100 
L 313 1709 
L 2253 4666 
z
" transform="scale(0.015625)"/>
       </defs>
       <use xlink:href="#DejaVuSans-34"/>
       <use xlink:href="#DejaVuSans-30" x="63.623047"/>
      </g>
     </g>
    </g>
    <g id="text_20">
     <!-- $V_m$ (mV) -->
     <g style="fill: #d62728" transform="translate(21.213312 190.93)rotate(-90)scale(0.1 -0.1)">
      <defs>
       <path id="DejaVuSans-Oblique-56" d="M 1319 0 
L 500 4666 
L 1119 4666 
L 1797 653 
L 4063 4666 
L 4750 4666 
L 2053 0 
L 1319 0 
z
" transform="scale(0.015625)"/>
       <path id="DejaVuSans-Oblique-6d" d="M 5747 2113 
L 5338 0 
L 4763 0 
L 5166 2094 
Q 5191 2228 5203 2325 
Q 5216 2422 5216 2491 
Q 5216 2772 5059 2928 
Q 4903 3084 4622 3084 
Q 4203 3084 3875 2770 
Q 3547 2456 3450 1953 
L 3066 0 
L 2491 0 
L 2900 2094 
Q 2925 2209 2937 2307 
Q 2950 2406 2950 2484 
Q 2950 2769 2794 2926 
Q 2638 3084 2363 3084 
Q 1938 3084 1609 2770 
Q 1281 2456 1184 1953 
L 800 0 
L 225 0 
L 909 3500 
L 1484 3500 
L 1375 2956 
Q 1609 3263 1923 3423 
Q 2238 3584 2597 3584 
Q 2978 3584 3223 3384 
Q 3469 3184 3519 2828 
Q 3781 3197 4126 3390 
Q 4472 3584 4856 3584 
Q 5306 3584 5551 3325 
Q 5797 3066 5797 2591 
Q 5797 2488 5784 2364 
Q 5772 2241 5747 2113 
z
" transform="scale(0.015625)"/>
       <path id="DejaVuSans-56" d="M 1831 0 
L 50 4666 
L 709 4666 
L 2188 738 
L 3669 4666 
L 4325 4666 
L 2547 0 
L 1831 0 
z
" transform="scale(0.015625)"/>
      </defs>
      <use xlink:href="#DejaVuSans-Oblique-56" transform="translate(0 0.125)"/>
      <use xlink:href="#DejaVuSans-Oblique-6d" transform="translate(68.408203 -16.28125)scale(0.7)"/>
      <use xlink:href="#DejaVuSans-20" transform="translate(139.331055 0.125)"/>
      <use xlink:href="#DejaVuSans-28" transform="translate(171.118164 0.125)"/>
      <use xlink:href="#DejaVuSans-6d" transform="translate(210.131836 0.125)"/>
      <use xlink:href="#DejaVuSans-56" transform="translate(307.543945 0.125)"/>
      <use xlink:href="#DejaVuSans-29" transform="translate(375.952148 0.125)"/>
     </g>
    </g>
   </g>
   <g id="line2d_19">
    <path d="M 63.259545 288.578996 
L 64.891862 277.273286 
L 66.524178 267.246598 
L 68.156494 258.467394 
L 69.78881 250.90343 
L 71.421126 244.520364 
L 73.053442 239.280597 
L 74.685758 48.852727 
L 76.318074 291.507273 
L 77.950391 283.481511 
L 79.582707 276.99493 
L 81.215023 271.924357 
L 82.847339 268.146833 
L 84.479655 265.5393 
L 86.111971 263.978512 
L 87.744287 263.341152 
L 89.376603 263.504132 
L 91.00892 264.345059 
L 92.641236 265.742828 
L 94.273552 267.578338 
L 95.905868 269.735288 
L 99.1705 274.567547 
L 102.435132 279.398864 
L 104.067449 281.578594 
L 105.699765 283.490607 
L 107.332081 285.062967 
L 108.964397 286.233276 
L 110.596713 286.949235 
L 112.229029 287.169096 
L 113.861345 286.861978 
L 115.493661 286.008055 
L 117.125978 284.59859 
L 118.758294 282.635827 
L 120.39061 280.132735 
L 122.022926 277.112604 
L 123.655242 273.608494 
L 125.287558 269.662556 
L 126.919874 265.32522 
L 130.184507 255.713807 
L 135.081455 239.987327 
L 136.713771 48.852727 
L 138.346087 289.359326 
L 139.978403 278.368849 
L 141.61072 268.232605 
L 143.243036 258.961534 
L 144.875352 250.567826 
L 146.507668 243.063233 
L 148.139984 48.852727 
L 149.7723 289.022007 
L 151.404616 278.402581 
L 153.036932 269.269601 
L 154.669249 261.55491 
L 156.301565 255.189206 
L 157.933881 250.101007 
L 159.566197 246.215871 
L 161.198513 243.455855 
L 162.830829 241.739189 
L 164.463145 240.980181 
L 166.095461 241.089313 
L 167.727778 241.973524 
L 169.360094 243.536663 
L 170.99241 245.680093 
L 172.624726 248.303424 
L 174.257042 251.305356 
L 177.521674 258.040935 
L 182.418623 268.50703 
L 184.050939 271.726199 
L 185.683255 274.673196 
L 187.315571 277.275748 
L 188.947887 279.469594 
L 190.580203 281.199241 
L 192.212519 282.418603 
L 193.844836 283.091527 
L 195.477152 283.192167 
L 197.109468 282.705225 
L 198.741784 281.626043 
L 200.3741 279.960534 
L 202.006416 277.724972 
L 203.638732 274.945617 
L 205.271048 271.658205 
L 206.903365 267.907296 
L 208.535681 263.745486 
L 211.800313 254.434223 
L 216.697261 239.05451 
L 218.329577 48.852727 
L 219.961894 289.359326 
L 221.59421 278.368849 
L 223.226526 268.232605 
L 224.858842 258.961534 
L 226.491158 250.567826 
L 228.123474 243.063233 
L 229.75579 48.852727 
L 231.388106 289.022007 
L 233.020423 278.402581 
L 234.652739 269.269601 
L 236.285055 261.55491 
L 237.917371 255.189206 
L 239.549687 250.101007 
L 241.182003 246.215871 
L 242.814319 243.455855 
L 244.446635 241.739189 
L 246.078952 240.980181 
L 247.711268 241.089313 
L 249.343584 241.973524 
L 250.9759 243.536663 
L 252.608216 245.680093 
L 254.240532 248.303424 
L 255.872848 251.305356 
L 259.137481 258.040935 
L 264.034429 268.50703 
L 265.666745 271.726199 
L 267.299061 274.673196 
L 268.931377 277.275748 
L 270.563693 279.469594 
L 272.19601 281.199241 
L 273.828326 282.418603 
L 275.460642 283.091527 
L 277.092958 283.192167 
L 278.725274 282.705225 
L 280.35759 281.626043 
L 281.989906 279.960534 
L 283.622222 277.724972 
L 285.254539 274.945617 
L 286.886855 271.658205 
L 288.519171 267.907296 
L 290.151487 263.745486 
L 293.416119 254.434223 
L 298.313068 239.05451 
L 299.945384 48.852727 
L 301.5777 289.359326 
L 303.210016 278.368849 
L 304.842332 268.232605 
L 306.474648 258.961534 
L 308.106964 250.567826 
L 309.73928 243.063233 
L 311.371597 48.852727 
L 313.003913 289.022007 
L 314.636229 278.402581 
L 316.268545 269.269601 
L 317.900861 261.55491 
L 319.533177 255.189206 
L 321.165493 250.101007 
L 322.79781 246.215871 
L 324.430126 243.455855 
L 326.062442 241.739189 
L 327.694758 240.980181 
L 329.327074 241.089313 
L 330.95939 241.973524 
L 332.591706 243.536663 
L 334.224022 245.680093 
L 335.856339 248.303424 
L 337.488655 251.305356 
L 340.753287 258.040935 
L 345.650235 268.50703 
L 347.282551 271.726199 
L 348.914868 274.673196 
L 350.547184 277.275748 
L 352.1795 279.469594 
L 353.811816 281.199241 
L 355.444132 282.418603 
L 357.076448 283.091527 
L 358.708764 283.192167 
L 360.34108 282.705225 
L 361.973397 281.626043 
L 363.605713 279.960534 
L 365.238029 277.724972 
L 366.870345 274.945617 
L 368.502661 271.658205 
L 370.134977 267.907296 
L 371.767293 263.745486 
L 375.031926 254.434223 
L 379.928874 239.05451 
L 381.56119 48.852727 
L 383.193506 289.359326 
L 384.825822 278.368849 
L 386.458138 268.232605 
L 388.090455 258.961534 
L 388.090455 258.961534 
" clip-path="url(#pcd6d8ecb8d)" style="fill: none; stroke: #d62728; stroke-width: 1.5; stroke-linecap: square"/>
   </g>
   <g id="patch_3">
    <path d="M 47.018 303.64 
L 47.018 36.72 
" style="fill: none; stroke: #000000; stroke-width: 0.8; stroke-linejoin: miter; stroke-linecap: square"/>
   </g>
   <g id="patch_4">
    <path d="M 404.332 303.64 
L 404.332 36.72 
" style="fill: none; stroke: #000000; stroke-width: 0.8; stroke-linejoin: miter; stroke-linecap: square"/>
   </g>
   <g id="patch_5">
    <path d="M 47.018 303.64 
L 404.332 303.64 
" style="fill: none; stroke: #000000; stroke-width: 0.8; stroke-linejoin: miter; stroke-linecap: square"/>
   </g>
   <g id="patch_6">
    <path d="M 47.018 36.72 
L 404.332 36.72 
" style="fill: none; stroke: #000000; stroke-width: 0.8; stroke-linejoin: miter; stroke-linecap: square"/>
   </g>
  </g>
  <g id="axes_2">
   <g id="matplotlib.axis_3">
    <g id="ytick_10">
     <g id="line2d_20">
      <defs>
       <path id="m5a21bf45c5" d="M 0 0 
L 3.5 0 
" style="stroke: #000000; stroke-width: 0.8"/>
      </defs>
      <g>
       <use xlink:href="#m5a21bf45c5" x="404.332" y="291.507273" style="stroke: #000000; stroke-width: 0.8"/>
      </g>
     </g>
     <g id="text_21">
      <!-- 0.0 -->
      <g style="fill: #1f77b4" transform="translate(411.332 295.306491)scale(0.1 -0.1)">
       <defs>
        <path id="DejaVuSans-2e" d="M 684 794 
L 1344 794 
L 1344 0 
L 684 0 
L 684 794 
z
" transform="scale(0.015625)"/>
       </defs>
       <use xlink:href="#DejaVuSans-30"/>
       <use xlink:href="#DejaVuSans-2e" x="63.623047"/>
       <use xlink:href="#DejaVuSans-30" x="95.410156"/>
      </g>
     </g>
    </g>
    <g id="ytick_11">
     <g id="line2d_21">
      <g>
       <use xlink:href="#m5a21bf45c5" x="404.332" y="261.175455" style="stroke: #000000; stroke-width: 0.8"/>
      </g>
     </g>
     <g id="text_22">
      <!-- 2.5 -->
      <g style="fill: #1f77b4" transform="translate(411.332 264.974673)scale(0.1 -0.1)">
       <use xlink:href="#DejaVuSans-32"/>
       <use xlink:href="#DejaVuSans-2e" x="63.623047"/>
       <use xlink:href="#DejaVuSans-35" x="95.410156"/>
      </g>
     </g>
    </g>
    <g id="ytick_12">
     <g id="line2d_22">
      <g>
       <use xlink:href="#m5a21bf45c5" x="404.332" y="230.843636" style="stroke: #000000; stroke-width: 0.8"/>
      </g>
     </g>
     <g id="text_23">
      <!-- 5.0 -->
      <g style="fill: #1f77b4" transform="translate(411.332 234.642855)scale(0.1 -0.1)">
       <use xlink:href="#DejaVuSans-35"/>
       <use xlink:href="#DejaVuSans-2e" x="63.623047"/>
       <use xlink:href="#DejaVuSans-30" x="95.410156"/>
      </g>
     </g>
    </g>
    <g id="ytick_13">
     <g id="line2d_23">
      <g>
       <use xlink:href="#m5a21bf45c5" x="404.332" y="200.511818" style="stroke: #000000; stroke-width: 0.8"/>
      </g>
     </g>
     <g id="text_24">
      <!-- 7.5 -->
      <g style="fill: #1f77b4" transform="translate(411.332 204.311037)scale(0.1 -0.1)">
       <use xlink:href="#DejaVuSans-37"/>
       <use xlink:href="#DejaVuSans-2e" x="63.623047"/>
       <use xlink:href="#DejaVuSans-35" x="95.410156"/>
      </g>
     </g>
    </g>
    <g id="ytick_14">
     <g id="line2d_24">
      <g>
       <use xlink:href="#m5a21bf45c5" x="404.332" y="170.18" style="stroke: #000000; stroke-width: 0.8"/>
      </g>
     </g>
     <g id="text_25">
      <!-- 10.0 -->
      <g style="fill: #1f77b4" transform="translate(411.332 173.979219)scale(0.1 -0.1)">
       <use xlink:href="#DejaVuSans-31"/>
       <use xlink:href="#DejaVuSans-30" x="63.623047"/>
       <use xlink:href="#DejaVuSans-2e" x="127.246094"/>
       <use xlink:href="#DejaVuSans-30" x="159.033203"/>
      </g>
     </g>
    </g>
    <g id="ytick_15">
     <g id="line2d_25">
      <g>
       <use xlink:href="#m5a21bf45c5" x="404.332" y="139.848182" style="stroke: #000000; stroke-width: 0.8"/>
      </g>
     </g>
     <g id="text_26">
      <!-- 12.5 -->
      <g style="fill: #1f77b4" transform="translate(411.332 143.647401)scale(0.1 -0.1)">
       <use xlink:href="#DejaVuSans-31"/>
       <use xlink:href="#DejaVuSans-32" x="63.623047"/>
       <use xlink:href="#DejaVuSans-2e" x="127.246094"/>
       <use xlink:href="#DejaVuSans-35" x="159.033203"/>
      </g>
     </g>
    </g>
    <g id="ytick_16">
     <g id="line2d_26">
      <g>
       <use xlink:href="#m5a21bf45c5" x="404.332" y="109.516364" style="stroke: #000000; stroke-width: 0.8"/>
      </g>
     </g>
     <g id="text_27">
      <!-- 15.0 -->
      <g style="fill: #1f77b4" transform="translate(411.332 113.315582)scale(0.1 -0.1)">
       <use xlink:href="#DejaVuSans-31"/>
       <use xlink:href="#DejaVuSans-35" x="63.623047"/>
       <use xlink:href="#DejaVuSans-2e" x="127.246094"/>
       <use xlink:href="#DejaVuSans-30" x="159.033203"/>
      </g>
     </g>
    </g>
    <g id="ytick_17">
     <g id="line2d_27">
      <g>
       <use xlink:href="#m5a21bf45c5" x="404.332" y="79.184545" style="stroke: #000000; stroke-width: 0.8"/>
      </g>
     </g>
     <g id="text_28">
      <!-- 17.5 -->
      <g style="fill: #1f77b4" transform="translate(411.332 82.983764)scale(0.1 -0.1)">
       <use xlink:href="#DejaVuSans-31"/>
       <use xlink:href="#DejaVuSans-37" x="63.623047"/>
       <use xlink:href="#DejaVuSans-2e" x="127.246094"/>
       <use xlink:href="#DejaVuSans-35" x="159.033203"/>
      </g>
     </g>
    </g>
    <g id="ytick_18">
     <g id="line2d_28">
      <g>
       <use xlink:href="#m5a21bf45c5" x="404.332" y="48.852727" style="stroke: #000000; stroke-width: 0.8"/>
      </g>
     </g>
     <g id="text_29">
      <!-- 20.0 -->
      <g style="fill: #1f77b4" transform="translate(411.332 52.651946)scale(0.1 -0.1)">
       <use xlink:href="#DejaVuSans-32"/>
       <use xlink:href="#DejaVuSans-30" x="63.623047"/>
       <use xlink:href="#DejaVuSans-2e" x="127.246094"/>
       <use xlink:href="#DejaVuSans-30" x="159.033203"/>
      </g>
     </g>
    </g>
    <g id="text_30">
     <!-- $I_{ext}$ (nA) -->
     <g style="fill: #1f77b4" transform="translate(445.196063 189.48)rotate(-90)scale(0.1 -0.1)">
      <defs>
       <path id="DejaVuSans-Oblique-49" d="M 1081 4666 
L 1716 4666 
L 806 0 
L 172 0 
L 1081 4666 
z
" transform="scale(0.015625)"/>
       <path id="DejaVuSans-Oblique-65" d="M 3078 2063 
Q 3088 2113 3092 2166 
Q 3097 2219 3097 2272 
Q 3097 2653 2873 2875 
Q 2650 3097 2266 3097 
Q 1838 3097 1509 2826 
Q 1181 2556 1013 2059 
L 3078 2063 
z
M 3578 1613 
L 903 1613 
Q 884 1494 878 1425 
Q 872 1356 872 1306 
Q 872 872 1139 634 
Q 1406 397 1894 397 
Q 2269 397 2603 481 
Q 2938 566 3225 728 
L 3116 159 
Q 2806 34 2476 -28 
Q 2147 -91 1806 -91 
Q 1078 -91 686 257 
Q 294 606 294 1247 
Q 294 1794 489 2264 
Q 684 2734 1063 3103 
Q 1306 3334 1642 3459 
Q 1978 3584 2356 3584 
Q 2950 3584 3301 3228 
Q 3653 2872 3653 2272 
Q 3653 2128 3634 1964 
Q 3616 1800 3578 1613 
z
" transform="scale(0.015625)"/>
       <path id="DejaVuSans-Oblique-78" d="M 3841 3500 
L 2234 1784 
L 3219 0 
L 2559 0 
L 1819 1388 
L 531 0 
L -166 0 
L 1556 1844 
L 641 3500 
L 1300 3500 
L 1972 2234 
L 3144 3500 
L 3841 3500 
z
" transform="scale(0.015625)"/>
       <path id="DejaVuSans-Oblique-74" d="M 2706 3500 
L 2619 3053 
L 1472 3053 
L 1100 1153 
Q 1081 1047 1072 975 
Q 1063 903 1063 863 
Q 1063 663 1183 572 
Q 1303 481 1569 481 
L 2150 481 
L 2053 0 
L 1503 0 
Q 991 0 739 200 
Q 488 400 488 806 
Q 488 878 497 964 
Q 506 1050 525 1153 
L 897 3053 
L 409 3053 
L 500 3500 
L 978 3500 
L 1172 4494 
L 1747 4494 
L 1556 3500 
L 2706 3500 
z
" transform="scale(0.015625)"/>
       <path id="DejaVuSans-6e" d="M 3513 2113 
L 3513 0 
L 2938 0 
L 2938 2094 
Q 2938 2591 2744 2837 
Q 2550 3084 2163 3084 
Q 1697 3084 1428 2787 
Q 1159 2491 1159 1978 
L 1159 0 
L 581 0 
L 581 3500 
L 1159 3500 
L 1159 2956 
Q 1366 3272 1645 3428 
Q 1925 3584 2291 3584 
Q 2894 3584 3203 3211 
Q 3513 2838 3513 2113 
z
" transform="scale(0.015625)"/>
       <path id="DejaVuSans-41" d="M 2188 4044 
L 1331 1722 
L 3047 1722 
L 2188 4044 
z
M 1831 4666 
L 2547 4666 
L 4325 0 
L 3669 0 
L 3244 1197 
L 1141 1197 
L 716 0 
L 50 0 
L 1831 4666 
z
" transform="scale(0.015625)"/>
      </defs>
      <use xlink:href="#DejaVuSans-Oblique-49" transform="translate(0 0.125)"/>
      <use xlink:href="#DejaVuSans-Oblique-65" transform="translate(29.492188 -16.28125)scale(0.7)"/>
      <use xlink:href="#DejaVuSans-Oblique-78" transform="translate(72.558594 -16.28125)scale(0.7)"/>
      <use xlink:href="#DejaVuSans-Oblique-74" transform="translate(113.984375 -16.28125)scale(0.7)"/>
      <use xlink:href="#DejaVuSans-20" transform="translate(144.165039 0.125)"/>
      <use xlink:href="#DejaVuSans-28" transform="translate(175.952148 0.125)"/>
      <use xlink:href="#DejaVuSans-6e" transform="translate(214.96582 0.125)"/>
      <use xlink:href="#DejaVuSans-41" transform="translate(278.344727 0.125)"/>
      <use xlink:href="#DejaVuSans-29" transform="translate(346.75293 0.125)"/>
     </g>
    </g>
   </g>
   <g id="line2d_29">
    <path d="M 63.259545 48.852727 
L 64.891862 49.809429 
L 66.524178 52.664447 
L 68.156494 57.372755 
L 69.78881 63.8601 
L 71.421126 72.024174 
L 73.053442 81.736225 
L 74.685758 92.843086 
L 76.318074 105.169596 
L 79.582707 132.687811 
L 84.479655 177.798202 
L 87.744287 207.672189 
L 91.00892 235.190404 
L 92.641236 247.516914 
L 94.273552 258.623775 
L 95.905868 268.335826 
L 97.538184 276.4999 
L 99.1705 282.987245 
L 100.802816 287.695553 
L 102.435132 290.550571 
L 104.067449 291.507273 
L 105.699765 290.550571 
L 107.332081 287.695553 
L 108.964397 282.987245 
L 110.596713 276.4999 
L 112.229029 268.335826 
L 113.861345 258.623775 
L 115.493661 247.516914 
L 117.125978 235.190404 
L 120.39061 207.672189 
L 125.287558 162.561798 
L 128.55219 132.687811 
L 131.816823 105.169596 
L 133.449139 92.843086 
L 135.081455 81.736225 
L 136.713771 72.024174 
L 138.346087 63.8601 
L 139.978403 57.372755 
L 141.61072 52.664447 
L 143.243036 49.809429 
L 144.875352 48.852727 
L 146.507668 49.809429 
L 148.139984 52.664447 
L 149.7723 57.372755 
L 151.404616 63.8601 
L 153.036932 72.024174 
L 154.669249 81.736225 
L 156.301565 92.843086 
L 157.933881 105.169596 
L 161.198513 132.687811 
L 166.095461 177.798202 
L 169.360094 207.672189 
L 172.624726 235.190404 
L 174.257042 247.516914 
L 175.889358 258.623775 
L 177.521674 268.335826 
L 179.15399 276.4999 
L 180.786307 282.987245 
L 182.418623 287.695553 
L 184.050939 290.550571 
L 185.683255 291.507273 
L 187.315571 290.550571 
L 188.947887 287.695553 
L 190.580203 282.987245 
L 192.212519 276.4999 
L 193.844836 268.335826 
L 195.477152 258.623775 
L 197.109468 247.516914 
L 198.741784 235.190404 
L 202.006416 207.672189 
L 206.903365 162.561798 
L 210.167997 132.687811 
L 213.432629 105.169596 
L 215.064945 92.843086 
L 216.697261 81.736225 
L 218.329577 72.024174 
L 219.961894 63.8601 
L 221.59421 57.372755 
L 223.226526 52.664447 
L 224.858842 49.809429 
L 226.491158 48.852727 
L 228.123474 49.809429 
L 229.75579 52.664447 
L 231.388106 57.372755 
L 233.020423 63.8601 
L 234.652739 72.024174 
L 236.285055 81.736225 
L 237.917371 92.843086 
L 239.549687 105.169596 
L 242.814319 132.687811 
L 247.711268 177.798202 
L 250.9759 207.672189 
L 254.240532 235.190404 
L 255.872848 247.516914 
L 257.505164 258.623775 
L 259.137481 268.335826 
L 260.769797 276.4999 
L 262.402113 282.987245 
L 264.034429 287.695553 
L 265.666745 290.550571 
L 267.299061 291.507273 
L 268.931377 290.550571 
L 270.563693 287.695553 
L 272.19601 282.987245 
L 273.828326 276.4999 
L 275.460642 268.335826 
L 277.092958 258.623775 
L 278.725274 247.516914 
L 280.35759 235.190404 
L 283.622222 207.672189 
L 288.519171 162.561798 
L 291.783803 132.687811 
L 295.048435 105.169596 
L 296.680751 92.843086 
L 298.313068 81.736225 
L 299.945384 72.024174 
L 301.5777 63.8601 
L 303.210016 57.372755 
L 304.842332 52.664447 
L 306.474648 49.809429 
L 308.106964 48.852727 
L 309.73928 49.809429 
L 311.371597 52.664447 
L 313.003913 57.372755 
L 314.636229 63.8601 
L 316.268545 72.024174 
L 317.900861 81.736225 
L 319.533177 92.843086 
L 321.165493 105.169596 
L 324.430126 132.687811 
L 329.327074 177.798202 
L 332.591706 207.672189 
L 335.856339 235.190404 
L 337.488655 247.516914 
L 339.120971 258.623775 
L 340.753287 268.335826 
L 342.385603 276.4999 
L 344.017919 282.987245 
L 345.650235 287.695553 
L 347.282551 290.550571 
L 348.914868 291.507273 
L 350.547184 290.550571 
L 352.1795 287.695553 
L 353.811816 282.987245 
L 355.444132 276.4999 
L 357.076448 268.335826 
L 358.708764 258.623775 
L 360.34108 247.516914 
L 361.973397 235.190404 
L 365.238029 207.672189 
L 370.134977 162.561798 
L 373.399609 132.687811 
L 376.664242 105.169596 
L 378.296558 92.843086 
L 379.928874 81.736225 
L 381.56119 72.024174 
L 383.193506 63.8601 
L 384.825822 57.372755 
L 386.458138 52.664447 
L 388.090455 49.809429 
L 388.090455 49.809429 
" clip-path="url(#pcd6d8ecb8d)" style="fill: none; stroke: #1f77b4; stroke-width: 1.5; stroke-linecap: square"/>
   </g>
   <g id="patch_7">
    <path d="M 47.018 303.64 
L 47.018 36.72 
" style="fill: none; stroke: #000000; stroke-width: 0.8; stroke-linejoin: miter; stroke-linecap: square"/>
   </g>
   <g id="patch_8">
    <path d="M 404.332 303.64 
L 404.332 36.72 
" style="fill: none; stroke: #000000; stroke-width: 0.8; stroke-linejoin: miter; stroke-linecap: square"/>
   </g>
   <g id="patch_9">
    <path d="M 47.018 303.64 
L 404.332 303.64 
" style="fill: none; stroke: #000000; stroke-width: 0.8; stroke-linejoin: miter; stroke-linecap: square"/>
   </g>
   <g id="patch_10">
    <path d="M 47.018 36.72 
L 404.332 36.72 
" style="fill: none; stroke: #000000; stroke-width: 0.8; stroke-linejoin: miter; stroke-linecap: square"/>
   </g>
  </g>
  <g id="text_31">
   <!-- Time course of $I_{ext}$ and a neurone's $V_m$ -->
   <g transform="translate(114.66 16.030125)scale(0.12 -0.12)">
    <defs>
     <path id="DejaVuSans-63" d="M 3122 3366 
L 3122 2828 
Q 2878 2963 2633 3030 
Q 2388 3097 2138 3097 
Q 1578 3097 1268 2742 
Q 959 2388 959 1747 
Q 959 1106 1268 751 
Q 1578 397 2138 397 
Q 2388 397 2633 464 
Q 2878 531 3122 666 
L 3122 134 
Q 2881 22 2623 -34 
Q 2366 -91 2075 -91 
Q 1284 -91 818 406 
Q 353 903 353 1747 
Q 353 2603 823 3093 
Q 1294 3584 2113 3584 
Q 2378 3584 2631 3529 
Q 2884 3475 3122 3366 
z
" transform="scale(0.015625)"/>
     <path id="DejaVuSans-6f" d="M 1959 3097 
Q 1497 3097 1228 2736 
Q 959 2375 959 1747 
Q 959 1119 1226 758 
Q 1494 397 1959 397 
Q 2419 397 2687 759 
Q 2956 1122 2956 1747 
Q 2956 2369 2687 2733 
Q 2419 3097 1959 3097 
z
M 1959 3584 
Q 2709 3584 3137 3096 
Q 3566 2609 3566 1747 
Q 3566 888 3137 398 
Q 2709 -91 1959 -91 
Q 1206 -91 779 398 
Q 353 888 353 1747 
Q 353 2609 779 3096 
Q 1206 3584 1959 3584 
z
" transform="scale(0.015625)"/>
     <path id="DejaVuSans-75" d="M 544 1381 
L 544 3500 
L 1119 3500 
L 1119 1403 
Q 1119 906 1312 657 
Q 1506 409 1894 409 
Q 2359 409 2629 706 
Q 2900 1003 2900 1516 
L 2900 3500 
L 3475 3500 
L 3475 0 
L 2900 0 
L 2900 538 
Q 2691 219 2414 64 
Q 2138 -91 1772 -91 
Q 1169 -91 856 284 
Q 544 659 544 1381 
z
M 1991 3584 
L 1991 3584 
z
" transform="scale(0.015625)"/>
     <path id="DejaVuSans-72" d="M 2631 2963 
Q 2534 3019 2420 3045 
Q 2306 3072 2169 3072 
Q 1681 3072 1420 2755 
Q 1159 2438 1159 1844 
L 1159 0 
L 581 0 
L 581 3500 
L 1159 3500 
L 1159 2956 
Q 1341 3275 1631 3429 
Q 1922 3584 2338 3584 
Q 2397 3584 2469 3576 
Q 2541 3569 2628 3553 
L 2631 2963 
z
" transform="scale(0.015625)"/>
     <path id="DejaVuSans-66" d="M 2375 4863 
L 2375 4384 
L 1825 4384 
Q 1516 4384 1395 4259 
Q 1275 4134 1275 3809 
L 1275 3500 
L 2222 3500 
L 2222 3053 
L 1275 3053 
L 1275 0 
L 697 0 
L 697 3053 
L 147 3053 
L 147 3500 
L 697 3500 
L 697 3744 
Q 697 4328 969 4595 
Q 1241 4863 1831 4863 
L 2375 4863 
z
" transform="scale(0.015625)"/>
     <path id="DejaVuSans-61" d="M 2194 1759 
Q 1497 1759 1228 1600 
Q 959 1441 959 1056 
Q 959 750 1161 570 
Q 1363 391 1709 391 
Q 2188 391 2477 730 
Q 2766 1069 2766 1631 
L 2766 1759 
L 2194 1759 
z
M 3341 1997 
L 3341 0 
L 2766 0 
L 2766 531 
Q 2569 213 2275 61 
Q 1981 -91 1556 -91 
Q 1019 -91 701 211 
Q 384 513 384 1019 
Q 384 1609 779 1909 
Q 1175 2209 1959 2209 
L 2766 2209 
L 2766 2266 
Q 2766 2663 2505 2880 
Q 2244 3097 1772 3097 
Q 1472 3097 1187 3025 
Q 903 2953 641 2809 
L 641 3341 
Q 956 3463 1253 3523 
Q 1550 3584 1831 3584 
Q 2591 3584 2966 3190 
Q 3341 2797 3341 1997 
z
" transform="scale(0.015625)"/>
     <path id="DejaVuSans-64" d="M 2906 2969 
L 2906 4863 
L 3481 4863 
L 3481 0 
L 2906 0 
L 2906 525 
Q 2725 213 2448 61 
Q 2172 -91 1784 -91 
Q 1150 -91 751 415 
Q 353 922 353 1747 
Q 353 2572 751 3078 
Q 1150 3584 1784 3584 
Q 2172 3584 2448 3432 
Q 2725 3281 2906 2969 
z
M 947 1747 
Q 947 1113 1208 752 
Q 1469 391 1925 391 
Q 2381 391 2643 752 
Q 2906 1113 2906 1747 
Q 2906 2381 2643 2742 
Q 2381 3103 1925 3103 
Q 1469 3103 1208 2742 
Q 947 2381 947 1747 
z
" transform="scale(0.015625)"/>
     <path id="DejaVuSans-27" d="M 1147 4666 
L 1147 2931 
L 616 2931 
L 616 4666 
L 1147 4666 
z
" transform="scale(0.015625)"/>
    </defs>
    <use xlink:href="#DejaVuSans-54" transform="translate(0 0.015625)"/>
    <use xlink:href="#DejaVuSans-69" transform="translate(61.083984 0.015625)"/>
    <use xlink:href="#DejaVuSans-6d" transform="translate(88.867188 0.015625)"/>
    <use xlink:href="#DejaVuSans-65" transform="translate(186.279297 0.015625)"/>
    <use xlink:href="#DejaVuSans-20" transform="translate(247.802734 0.015625)"/>
    <use xlink:href="#DejaVuSans-63" transform="translate(279.589844 0.015625)"/>
    <use xlink:href="#DejaVuSans-6f" transform="translate(334.570312 0.015625)"/>
    <use xlink:href="#DejaVuSans-75" transform="translate(395.751953 0.015625)"/>
    <use xlink:href="#DejaVuSans-72" transform="translate(459.130859 0.015625)"/>
    <use xlink:href="#DejaVuSans-73" transform="translate(500.244141 0.015625)"/>
    <use xlink:href="#DejaVuSans-65" transform="translate(552.34375 0.015625)"/>
    <use xlink:href="#DejaVuSans-20" transform="translate(613.867188 0.015625)"/>
    <use xlink:href="#DejaVuSans-6f" transform="translate(645.654297 0.015625)"/>
    <use xlink:href="#DejaVuSans-66" transform="translate(706.835938 0.015625)"/>
    <use xlink:href="#DejaVuSans-20" transform="translate(742.041016 0.015625)"/>
    <use xlink:href="#DejaVuSans-Oblique-49" transform="translate(773.828125 0.015625)"/>
    <use xlink:href="#DejaVuSans-Oblique-65" transform="translate(803.320312 -16.390625)scale(0.7)"/>
    <use xlink:href="#DejaVuSans-Oblique-78" transform="translate(846.386719 -16.390625)scale(0.7)"/>
    <use xlink:href="#DejaVuSans-Oblique-74" transform="translate(887.8125 -16.390625)scale(0.7)"/>
    <use xlink:href="#DejaVuSans-20" transform="translate(917.993164 0.015625)"/>
    <use xlink:href="#DejaVuSans-61" transform="translate(949.780273 0.015625)"/>
    <use xlink:href="#DejaVuSans-6e" transform="translate(1011.05957 0.015625)"/>
    <use xlink:href="#DejaVuSans-64" transform="translate(1074.438477 0.015625)"/>
    <use xlink:href="#DejaVuSans-20" transform="translate(1137.915039 0.015625)"/>
    <use xlink:href="#DejaVuSans-61" transform="translate(1169.702148 0.015625)"/>
    <use xlink:href="#DejaVuSans-20" transform="translate(1230.981445 0.015625)"/>
    <use xlink:href="#DejaVuSans-6e" transform="translate(1262.768555 0.015625)"/>
    <use xlink:href="#DejaVuSans-65" transform="translate(1326.147461 0.015625)"/>
    <use xlink:href="#DejaVuSans-75" transform="translate(1387.670898 0.015625)"/>
    <use xlink:href="#DejaVuSans-72" transform="translate(1451.049805 0.015625)"/>
    <use xlink:href="#DejaVuSans-6f" transform="translate(1492.163086 0.015625)"/>
    <use xlink:href="#DejaVuSans-6e" transform="translate(1553.344727 0.015625)"/>
    <use xlink:href="#DejaVuSans-65" transform="translate(1616.723633 0.015625)"/>
    <use xlink:href="#DejaVuSans-27" transform="translate(1678.24707 0.015625)"/>
    <use xlink:href="#DejaVuSans-73" transform="translate(1705.737305 0.015625)"/>
    <use xlink:href="#DejaVuSans-20" transform="translate(1757.836914 0.015625)"/>
    <use xlink:href="#DejaVuSans-Oblique-56" transform="translate(1789.624023 0.015625)"/>
    <use xlink:href="#DejaVuSans-Oblique-6d" transform="translate(1858.032227 -16.390625)scale(0.7)"/>
   </g>
  </g>
 </g>
 <defs>
  <clipPath id="pcd6d8ecb8d">
   <rect x="47.018" y="36.72" width="357.314" height="266.92"/>
  </clipPath>
 </defs>
</svg>
