<?xml version="1.0" encoding="utf-8" standalone="no"?>
<!DOCTYPE svg PUBLIC "-//W3C//DTD SVG 1.1//EN"
  "http://www.w3.org/Graphics/SVG/1.1/DTD/svg11.dtd">
<svg xmlns:xlink="http://www.w3.org/1999/xlink" width="653.76pt" height="387.36pt" viewBox="0 0 653.76 387.36" xmlns="http://www.w3.org/2000/svg" version="1.1">
 <metadata>
  <rdf:RDF xmlns:dc="http://purl.org/dc/elements/1.1/" xmlns:cc="http://creativecommons.org/ns#" xmlns:rdf="http://www.w3.org/1999/02/22-rdf-syntax-ns#">
   <cc:Work>
    <dc:type rdf:resource="http://purl.org/dc/dcmitype/StillImage"/>
    <dc:date>2022-04-10T16:41:27.161162</dc:date>
    <dc:format>image/svg+xml</dc:format>
    <dc:creator>
     <cc:Agent>
      <dc:title>Matplotlib v3.5.1, https://matplotlib.org/</dc:title>
     </cc:Agent>
    </dc:creator>
   </cc:Work>
  </rdf:RDF>
 </metadata>
 <defs>
  <style type="text/css">*{stroke-linejoin: round; stroke-linecap: butt}</style>
 </defs>
 <g id="figure_1">
  <g id="patch_1">
   <path d="M 0 387.36 
L 653.76 387.36 
L 653.76 0 
L 0 0 
z
" style="fill: #ffffff"/>
  </g>
  <g id="axes_1">
   <g id="patch_2">
    <path d="M 52.94 345.4 
L 642.96 345.4 
L 642.96 45.0528 
L 52.94 45.0528 
z
" style="fill: #ffffff"/>
   </g>
   <g id="patch_3">
    <path d="M 79.759091 255.667359 
L 85.122909 255.667359 
L 85.122909 235.721799 
L 79.759091 235.721799 
z
" clip-path="url(#pa81b51e6d7)" style="fill: #1f77b4"/>
   </g>
   <g id="patch_4">
    <path d="M 85.122909 255.667359 
L 90.486727 255.667359 
L 90.486727 113.555238 
L 85.122909 113.555238 
z
" clip-path="url(#pa81b51e6d7)" style="fill: #1f77b4"/>
   </g>
   <g id="patch_5">
    <path d="M 90.486727 255.667359 
L 95.850545 255.667359 
L 95.850545 113.555238 
L 90.486727 113.555238 
z
" clip-path="url(#pa81b51e6d7)" style="fill: #1f77b4"/>
   </g>
   <g id="patch_6">
    <path d="M 95.850545 255.667359 
L 101.214364 255.667359 
L 101.214364 153.44636 
L 95.850545 153.44636 
z
" clip-path="url(#pa81b51e6d7)" style="fill: #1f77b4"/>
   </g>
   <g id="patch_7">
    <path d="M 101.214364 255.667359 
L 106.578182 255.667359 
L 106.578182 155.939555 
L 101.214364 155.939555 
z
" clip-path="url(#pa81b51e6d7)" style="fill: #1f77b4"/>
   </g>
   <g id="patch_8">
    <path d="M 106.578182 255.667359 
L 111.942 255.667359 
L 111.942 173.391921 
L 106.578182 173.391921 
z
" clip-path="url(#pa81b51e6d7)" style="fill: #1f77b4"/>
   </g>
   <g id="patch_9">
    <path d="M 111.942 255.667359 
L 117.305818 255.667359 
L 117.305818 195.830677 
L 111.942 195.830677 
z
" clip-path="url(#pa81b51e6d7)" style="fill: #1f77b4"/>
   </g>
   <g id="patch_10">
    <path d="M 117.305818 255.667359 
L 122.669636 255.667359 
L 122.669636 235.721799 
L 117.305818 235.721799 
z
" clip-path="url(#pa81b51e6d7)" style="fill: #1f77b4"/>
   </g>
   <g id="patch_11">
    <path d="M 122.669636 255.667359 
L 128.033455 255.667359 
L 128.033455 248.187774 
L 122.669636 248.187774 
z
" clip-path="url(#pa81b51e6d7)" style="fill: #1f77b4"/>
   </g>
   <g id="patch_12">
    <path d="M 128.033455 255.667359 
L 133.397273 255.667359 
L 133.397273 253.174164 
L 128.033455 253.174164 
z
" clip-path="url(#pa81b51e6d7)" style="fill: #1f77b4"/>
   </g>
   <g id="patch_13">
    <path d="M 133.397273 255.667359 
L 138.761091 255.667359 
L 138.761091 255.667359 
L 133.397273 255.667359 
z
" clip-path="url(#pa81b51e6d7)" style="fill: #1f77b4"/>
   </g>
   <g id="patch_14">
    <path d="M 138.761091 255.667359 
L 144.124909 255.667359 
L 144.124909 255.667359 
L 138.761091 255.667359 
z
" clip-path="url(#pa81b51e6d7)" style="fill: #1f77b4"/>
   </g>
   <g id="patch_15">
    <path d="M 144.124909 255.667359 
L 149.488727 255.667359 
L 149.488727 255.667359 
L 144.124909 255.667359 
z
" clip-path="url(#pa81b51e6d7)" style="fill: #1f77b4"/>
   </g>
   <g id="patch_16">
    <path d="M 149.488727 255.667359 
L 154.852545 255.667359 
L 154.852545 255.667359 
L 149.488727 255.667359 
z
" clip-path="url(#pa81b51e6d7)" style="fill: #1f77b4"/>
   </g>
   <g id="patch_17">
    <path d="M 154.852545 255.667359 
L 160.216364 255.667359 
L 160.216364 255.667359 
L 154.852545 255.667359 
z
" clip-path="url(#pa81b51e6d7)" style="fill: #1f77b4"/>
   </g>
   <g id="patch_18">
    <path d="M 160.216364 255.667359 
L 165.580182 255.667359 
L 165.580182 255.667359 
L 160.216364 255.667359 
z
" clip-path="url(#pa81b51e6d7)" style="fill: #1f77b4"/>
   </g>
   <g id="patch_19">
    <path d="M 165.580182 255.667359 
L 170.944 255.667359 
L 170.944 255.667359 
L 165.580182 255.667359 
z
" clip-path="url(#pa81b51e6d7)" style="fill: #1f77b4"/>
   </g>
   <g id="patch_20">
    <path d="M 170.944 255.667359 
L 176.307818 255.667359 
L 176.307818 255.667359 
L 170.944 255.667359 
z
" clip-path="url(#pa81b51e6d7)" style="fill: #1f77b4"/>
   </g>
   <g id="patch_21">
    <path d="M 176.307818 255.667359 
L 181.671636 255.667359 
L 181.671636 228.242213 
L 176.307818 228.242213 
z
" clip-path="url(#pa81b51e6d7)" style="fill: #1f77b4"/>
   </g>
   <g id="patch_22">
    <path d="M 181.671636 255.667359 
L 187.035455 255.667359 
L 187.035455 193.337482 
L 181.671636 193.337482 
z
" clip-path="url(#pa81b51e6d7)" style="fill: #1f77b4"/>
   </g>
   <g id="patch_23">
    <path d="M 187.035455 255.667359 
L 192.399273 255.667359 
L 192.399273 163.41914 
L 187.035455 163.41914 
z
" clip-path="url(#pa81b51e6d7)" style="fill: #1f77b4"/>
   </g>
   <g id="patch_24">
    <path d="M 192.399273 255.667359 
L 197.763091 255.667359 
L 197.763091 140.980384 
L 192.399273 140.980384 
z
" clip-path="url(#pa81b51e6d7)" style="fill: #1f77b4"/>
   </g>
   <g id="patch_25">
    <path d="M 197.763091 255.667359 
L 203.126909 255.667359 
L 203.126909 91.116482 
L 197.763091 91.116482 
z
" clip-path="url(#pa81b51e6d7)" style="fill: #1f77b4"/>
   </g>
   <g id="patch_26">
    <path d="M 203.126909 255.667359 
L 208.490727 255.667359 
L 208.490727 153.44636 
L 203.126909 153.44636 
z
" clip-path="url(#pa81b51e6d7)" style="fill: #1f77b4"/>
   </g>
   <g id="patch_27">
    <path d="M 208.490727 255.667359 
L 213.854545 255.667359 
L 213.854545 61.198141 
L 208.490727 61.198141 
z
" clip-path="url(#pa81b51e6d7)" style="fill: #1f77b4"/>
   </g>
   <g id="patch_28">
    <path d="M 213.854545 255.667359 
L 219.218364 255.667359 
L 219.218364 111.062043 
L 213.854545 111.062043 
z
" clip-path="url(#pa81b51e6d7)" style="fill: #1f77b4"/>
   </g>
   <g id="patch_29">
    <path d="M 219.218364 255.667359 
L 224.582182 255.667359 
L 224.582182 116.048433 
L 219.218364 116.048433 
z
" clip-path="url(#pa81b51e6d7)" style="fill: #1f77b4"/>
   </g>
   <g id="patch_30">
    <path d="M 224.582182 255.667359 
L 229.946 255.667359 
L 229.946 128.514409 
L 224.582182 128.514409 
z
" clip-path="url(#pa81b51e6d7)" style="fill: #1f77b4"/>
   </g>
   <g id="patch_31">
    <path d="M 229.946 255.667359 
L 235.309818 255.667359 
L 235.309818 140.980384 
L 229.946 140.980384 
z
" clip-path="url(#pa81b51e6d7)" style="fill: #1f77b4"/>
   </g>
   <g id="patch_32">
    <path d="M 235.309818 255.667359 
L 240.673636 255.667359 
L 240.673636 126.021214 
L 235.309818 126.021214 
z
" clip-path="url(#pa81b51e6d7)" style="fill: #1f77b4"/>
   </g>
   <g id="patch_33">
    <path d="M 240.673636 255.667359 
L 246.037455 255.667359 
L 246.037455 213.283043 
L 240.673636 213.283043 
z
" clip-path="url(#pa81b51e6d7)" style="fill: #1f77b4"/>
   </g>
   <g id="patch_34">
    <path d="M 246.037455 255.667359 
L 251.401273 255.667359 
L 251.401273 213.283043 
L 246.037455 213.283043 
z
" clip-path="url(#pa81b51e6d7)" style="fill: #1f77b4"/>
   </g>
   <g id="patch_35">
    <path d="M 251.401273 255.667359 
L 256.765091 255.667359 
L 256.765091 220.762628 
L 251.401273 220.762628 
z
" clip-path="url(#pa81b51e6d7)" style="fill: #1f77b4"/>
   </g>
   <g id="patch_36">
    <path d="M 256.765091 255.667359 
L 262.128909 255.667359 
L 262.128909 253.174164 
L 256.765091 253.174164 
z
" clip-path="url(#pa81b51e6d7)" style="fill: #1f77b4"/>
   </g>
   <g id="patch_37">
    <path d="M 262.128909 255.667359 
L 267.492727 255.667359 
L 267.492727 255.667359 
L 262.128909 255.667359 
z
" clip-path="url(#pa81b51e6d7)" style="fill: #1f77b4"/>
   </g>
   <g id="patch_38">
    <path d="M 267.492727 255.667359 
L 272.856545 255.667359 
L 272.856545 255.667359 
L 267.492727 255.667359 
z
" clip-path="url(#pa81b51e6d7)" style="fill: #1f77b4"/>
   </g>
   <g id="patch_39">
    <path d="M 272.856545 255.667359 
L 278.220364 255.667359 
L 278.220364 255.667359 
L 272.856545 255.667359 
z
" clip-path="url(#pa81b51e6d7)" style="fill: #1f77b4"/>
   </g>
   <g id="patch_40">
    <path d="M 278.220364 255.667359 
L 283.584182 255.667359 
L 283.584182 255.667359 
L 278.220364 255.667359 
z
" clip-path="url(#pa81b51e6d7)" style="fill: #1f77b4"/>
   </g>
   <g id="patch_41">
    <path d="M 283.584182 255.667359 
L 288.948 255.667359 
L 288.948 255.667359 
L 283.584182 255.667359 
z
" clip-path="url(#pa81b51e6d7)" style="fill: #1f77b4"/>
   </g>
   <g id="patch_42">
    <path d="M 288.948 255.667359 
L 294.311818 255.667359 
L 294.311818 255.667359 
L 288.948 255.667359 
z
" clip-path="url(#pa81b51e6d7)" style="fill: #1f77b4"/>
   </g>
   <g id="patch_43">
    <path d="M 294.311818 255.667359 
L 299.675636 255.667359 
L 299.675636 255.667359 
L 294.311818 255.667359 
z
" clip-path="url(#pa81b51e6d7)" style="fill: #1f77b4"/>
   </g>
   <g id="patch_44">
    <path d="M 299.675636 255.667359 
L 305.039455 255.667359 
L 305.039455 255.667359 
L 299.675636 255.667359 
z
" clip-path="url(#pa81b51e6d7)" style="fill: #1f77b4"/>
   </g>
   <g id="patch_45">
    <path d="M 305.039455 255.667359 
L 310.403273 255.667359 
L 310.403273 255.667359 
L 305.039455 255.667359 
z
" clip-path="url(#pa81b51e6d7)" style="fill: #1f77b4"/>
   </g>
   <g id="patch_46">
    <path d="M 310.403273 255.667359 
L 315.767091 255.667359 
L 315.767091 230.735408 
L 310.403273 230.735408 
z
" clip-path="url(#pa81b51e6d7)" style="fill: #1f77b4"/>
   </g>
   <g id="patch_47">
    <path d="M 315.767091 255.667359 
L 321.130909 255.667359 
L 321.130909 190.844286 
L 315.767091 190.844286 
z
" clip-path="url(#pa81b51e6d7)" style="fill: #1f77b4"/>
   </g>
   <g id="patch_48">
    <path d="M 321.130909 255.667359 
L 326.494727 255.667359 
L 326.494727 160.925945 
L 321.130909 160.925945 
z
" clip-path="url(#pa81b51e6d7)" style="fill: #1f77b4"/>
   </g>
   <g id="patch_49">
    <path d="M 326.494727 255.667359 
L 331.858545 255.667359 
L 331.858545 140.980384 
L 326.494727 140.980384 
z
" clip-path="url(#pa81b51e6d7)" style="fill: #1f77b4"/>
   </g>
   <g id="patch_50">
    <path d="M 331.858545 255.667359 
L 337.222364 255.667359 
L 337.222364 91.116482 
L 331.858545 91.116482 
z
" clip-path="url(#pa81b51e6d7)" style="fill: #1f77b4"/>
   </g>
   <g id="patch_51">
    <path d="M 337.222364 255.667359 
L 342.586182 255.667359 
L 342.586182 155.939555 
L 337.222364 155.939555 
z
" clip-path="url(#pa81b51e6d7)" style="fill: #1f77b4"/>
   </g>
   <g id="patch_52">
    <path d="M 342.586182 255.667359 
L 347.95 255.667359 
L 347.95 58.704945 
L 342.586182 58.704945 
z
" clip-path="url(#pa81b51e6d7)" style="fill: #1f77b4"/>
   </g>
   <g id="patch_53">
    <path d="M 347.95 255.667359 
L 353.313818 255.667359 
L 353.313818 116.048433 
L 347.95 116.048433 
z
" clip-path="url(#pa81b51e6d7)" style="fill: #1f77b4"/>
   </g>
   <g id="patch_54">
    <path d="M 353.313818 255.667359 
L 358.677636 255.667359 
L 358.677636 118.541628 
L 353.313818 118.541628 
z
" clip-path="url(#pa81b51e6d7)" style="fill: #1f77b4"/>
   </g>
   <g id="patch_55">
    <path d="M 358.677636 255.667359 
L 364.041455 255.667359 
L 364.041455 123.528018 
L 358.677636 123.528018 
z
" clip-path="url(#pa81b51e6d7)" style="fill: #1f77b4"/>
   </g>
   <g id="patch_56">
    <path d="M 364.041455 255.667359 
L 369.405273 255.667359 
L 369.405273 140.980384 
L 364.041455 140.980384 
z
" clip-path="url(#pa81b51e6d7)" style="fill: #1f77b4"/>
   </g>
   <g id="patch_57">
    <path d="M 369.405273 255.667359 
L 374.769091 255.667359 
L 374.769091 131.007604 
L 369.405273 131.007604 
z
" clip-path="url(#pa81b51e6d7)" style="fill: #1f77b4"/>
   </g>
   <g id="patch_58">
    <path d="M 374.769091 255.667359 
L 380.132909 255.667359 
L 380.132909 218.269433 
L 374.769091 218.269433 
z
" clip-path="url(#pa81b51e6d7)" style="fill: #1f77b4"/>
   </g>
   <g id="patch_59">
    <path d="M 380.132909 255.667359 
L 385.496727 255.667359 
L 385.496727 218.269433 
L 380.132909 218.269433 
z
" clip-path="url(#pa81b51e6d7)" style="fill: #1f77b4"/>
   </g>
   <g id="patch_60">
    <path d="M 385.496727 255.667359 
L 390.860545 255.667359 
L 390.860545 223.255823 
L 385.496727 223.255823 
z
" clip-path="url(#pa81b51e6d7)" style="fill: #1f77b4"/>
   </g>
   <g id="patch_61">
    <path d="M 390.860545 255.667359 
L 396.224364 255.667359 
L 396.224364 250.680969 
L 390.860545 250.680969 
z
" clip-path="url(#pa81b51e6d7)" style="fill: #1f77b4"/>
   </g>
   <g id="patch_62">
    <path d="M 396.224364 255.667359 
L 401.588182 255.667359 
L 401.588182 255.667359 
L 396.224364 255.667359 
z
" clip-path="url(#pa81b51e6d7)" style="fill: #1f77b4"/>
   </g>
   <g id="patch_63">
    <path d="M 401.588182 255.667359 
L 406.952 255.667359 
L 406.952 255.667359 
L 401.588182 255.667359 
z
" clip-path="url(#pa81b51e6d7)" style="fill: #1f77b4"/>
   </g>
   <g id="patch_64">
    <path d="M 406.952 255.667359 
L 412.315818 255.667359 
L 412.315818 255.667359 
L 406.952 255.667359 
z
" clip-path="url(#pa81b51e6d7)" style="fill: #1f77b4"/>
   </g>
   <g id="patch_65">
    <path d="M 412.315818 255.667359 
L 417.679636 255.667359 
L 417.679636 255.667359 
L 412.315818 255.667359 
z
" clip-path="url(#pa81b51e6d7)" style="fill: #1f77b4"/>
   </g>
   <g id="patch_66">
    <path d="M 417.679636 255.667359 
L 423.043455 255.667359 
L 423.043455 255.667359 
L 417.679636 255.667359 
z
" clip-path="url(#pa81b51e6d7)" style="fill: #1f77b4"/>
   </g>
   <g id="patch_67">
    <path d="M 423.043455 255.667359 
L 428.407273 255.667359 
L 428.407273 255.667359 
L 423.043455 255.667359 
z
" clip-path="url(#pa81b51e6d7)" style="fill: #1f77b4"/>
   </g>
   <g id="patch_68">
    <path d="M 428.407273 255.667359 
L 433.771091 255.667359 
L 433.771091 255.667359 
L 428.407273 255.667359 
z
" clip-path="url(#pa81b51e6d7)" style="fill: #1f77b4"/>
   </g>
   <g id="patch_69">
    <path d="M 433.771091 255.667359 
L 439.134909 255.667359 
L 439.134909 255.667359 
L 433.771091 255.667359 
z
" clip-path="url(#pa81b51e6d7)" style="fill: #1f77b4"/>
   </g>
   <g id="patch_70">
    <path d="M 439.134909 255.667359 
L 444.498727 255.667359 
L 444.498727 255.667359 
L 439.134909 255.667359 
z
" clip-path="url(#pa81b51e6d7)" style="fill: #1f77b4"/>
   </g>
   <g id="patch_71">
    <path d="M 444.498727 255.667359 
L 449.862545 255.667359 
L 449.862545 228.242213 
L 444.498727 228.242213 
z
" clip-path="url(#pa81b51e6d7)" style="fill: #1f77b4"/>
   </g>
   <g id="patch_72">
    <path d="M 449.862545 255.667359 
L 455.226364 255.667359 
L 455.226364 193.337482 
L 449.862545 193.337482 
z
" clip-path="url(#pa81b51e6d7)" style="fill: #1f77b4"/>
   </g>
   <g id="patch_73">
    <path d="M 455.226364 255.667359 
L 460.590182 255.667359 
L 460.590182 158.43275 
L 455.226364 158.43275 
z
" clip-path="url(#pa81b51e6d7)" style="fill: #1f77b4"/>
   </g>
   <g id="patch_74">
    <path d="M 460.590182 255.667359 
L 465.954 255.667359 
L 465.954 145.966774 
L 460.590182 145.966774 
z
" clip-path="url(#pa81b51e6d7)" style="fill: #1f77b4"/>
   </g>
   <g id="patch_75">
    <path d="M 465.954 255.667359 
L 471.317818 255.667359 
L 471.317818 91.116482 
L 465.954 91.116482 
z
" clip-path="url(#pa81b51e6d7)" style="fill: #1f77b4"/>
   </g>
   <g id="patch_76">
    <path d="M 471.317818 255.667359 
L 476.681636 255.667359 
L 476.681636 153.44636 
L 471.317818 153.44636 
z
" clip-path="url(#pa81b51e6d7)" style="fill: #1f77b4"/>
   </g>
   <g id="patch_77">
    <path d="M 476.681636 255.667359 
L 482.045455 255.667359 
L 482.045455 61.198141 
L 476.681636 61.198141 
z
" clip-path="url(#pa81b51e6d7)" style="fill: #1f77b4"/>
   </g>
   <g id="patch_78">
    <path d="M 482.045455 255.667359 
L 487.409273 255.667359 
L 487.409273 108.568848 
L 482.045455 108.568848 
z
" clip-path="url(#pa81b51e6d7)" style="fill: #1f77b4"/>
   </g>
   <g id="patch_79">
    <path d="M 487.409273 255.667359 
L 492.773091 255.667359 
L 492.773091 118.541628 
L 487.409273 118.541628 
z
" clip-path="url(#pa81b51e6d7)" style="fill: #1f77b4"/>
   </g>
   <g id="patch_80">
    <path d="M 492.773091 255.667359 
L 498.136909 255.667359 
L 498.136909 131.007604 
L 492.773091 131.007604 
z
" clip-path="url(#pa81b51e6d7)" style="fill: #1f77b4"/>
   </g>
   <g id="patch_81">
    <path d="M 498.136909 255.667359 
L 503.500727 255.667359 
L 503.500727 138.487189 
L 498.136909 138.487189 
z
" clip-path="url(#pa81b51e6d7)" style="fill: #1f77b4"/>
   </g>
   <g id="patch_82">
    <path d="M 503.500727 255.667359 
L 508.864545 255.667359 
L 508.864545 126.021214 
L 503.500727 126.021214 
z
" clip-path="url(#pa81b51e6d7)" style="fill: #1f77b4"/>
   </g>
   <g id="patch_83">
    <path d="M 508.864545 255.667359 
L 514.228364 255.667359 
L 514.228364 213.283043 
L 508.864545 213.283043 
z
" clip-path="url(#pa81b51e6d7)" style="fill: #1f77b4"/>
   </g>
   <g id="patch_84">
    <path d="M 514.228364 255.667359 
L 519.592182 255.667359 
L 519.592182 213.283043 
L 514.228364 213.283043 
z
" clip-path="url(#pa81b51e6d7)" style="fill: #1f77b4"/>
   </g>
   <g id="patch_85">
    <path d="M 519.592182 255.667359 
L 524.956 255.667359 
L 524.956 220.762628 
L 519.592182 220.762628 
z
" clip-path="url(#pa81b51e6d7)" style="fill: #1f77b4"/>
   </g>
   <g id="patch_86">
    <path d="M 524.956 255.667359 
L 530.319818 255.667359 
L 530.319818 253.174164 
L 524.956 253.174164 
z
" clip-path="url(#pa81b51e6d7)" style="fill: #1f77b4"/>
   </g>
   <g id="patch_87">
    <path d="M 530.319818 255.667359 
L 535.683636 255.667359 
L 535.683636 255.667359 
L 530.319818 255.667359 
z
" clip-path="url(#pa81b51e6d7)" style="fill: #1f77b4"/>
   </g>
   <g id="patch_88">
    <path d="M 535.683636 255.667359 
L 541.047455 255.667359 
L 541.047455 255.667359 
L 535.683636 255.667359 
z
" clip-path="url(#pa81b51e6d7)" style="fill: #1f77b4"/>
   </g>
   <g id="patch_89">
    <path d="M 541.047455 255.667359 
L 546.411273 255.667359 
L 546.411273 255.667359 
L 541.047455 255.667359 
z
" clip-path="url(#pa81b51e6d7)" style="fill: #1f77b4"/>
   </g>
   <g id="patch_90">
    <path d="M 546.411273 255.667359 
L 551.775091 255.667359 
L 551.775091 255.667359 
L 546.411273 255.667359 
z
" clip-path="url(#pa81b51e6d7)" style="fill: #1f77b4"/>
   </g>
   <g id="patch_91">
    <path d="M 551.775091 255.667359 
L 557.138909 255.667359 
L 557.138909 255.667359 
L 551.775091 255.667359 
z
" clip-path="url(#pa81b51e6d7)" style="fill: #1f77b4"/>
   </g>
   <g id="patch_92">
    <path d="M 557.138909 255.667359 
L 562.502727 255.667359 
L 562.502727 255.667359 
L 557.138909 255.667359 
z
" clip-path="url(#pa81b51e6d7)" style="fill: #1f77b4"/>
   </g>
   <g id="patch_93">
    <path d="M 562.502727 255.667359 
L 567.866545 255.667359 
L 567.866545 255.667359 
L 562.502727 255.667359 
z
" clip-path="url(#pa81b51e6d7)" style="fill: #1f77b4"/>
   </g>
   <g id="patch_94">
    <path d="M 567.866545 255.667359 
L 573.230364 255.667359 
L 573.230364 255.667359 
L 567.866545 255.667359 
z
" clip-path="url(#pa81b51e6d7)" style="fill: #1f77b4"/>
   </g>
   <g id="patch_95">
    <path d="M 573.230364 255.667359 
L 578.594182 255.667359 
L 578.594182 255.667359 
L 573.230364 255.667359 
z
" clip-path="url(#pa81b51e6d7)" style="fill: #1f77b4"/>
   </g>
   <g id="patch_96">
    <path d="M 578.594182 255.667359 
L 583.958 255.667359 
L 583.958 230.735408 
L 578.594182 230.735408 
z
" clip-path="url(#pa81b51e6d7)" style="fill: #1f77b4"/>
   </g>
   <g id="patch_97">
    <path d="M 583.958 255.667359 
L 589.321818 255.667359 
L 589.321818 190.844286 
L 583.958 190.844286 
z
" clip-path="url(#pa81b51e6d7)" style="fill: #1f77b4"/>
   </g>
   <g id="patch_98">
    <path d="M 589.321818 255.667359 
L 594.685636 255.667359 
L 594.685636 160.925945 
L 589.321818 160.925945 
z
" clip-path="url(#pa81b51e6d7)" style="fill: #1f77b4"/>
   </g>
   <g id="patch_99">
    <path d="M 594.685636 255.667359 
L 600.049455 255.667359 
L 600.049455 140.980384 
L 594.685636 140.980384 
z
" clip-path="url(#pa81b51e6d7)" style="fill: #1f77b4"/>
   </g>
   <g id="patch_100">
    <path d="M 600.049455 255.667359 
L 605.413273 255.667359 
L 605.413273 91.116482 
L 600.049455 91.116482 
z
" clip-path="url(#pa81b51e6d7)" style="fill: #1f77b4"/>
   </g>
   <g id="patch_101">
    <path d="M 605.413273 255.667359 
L 610.777091 255.667359 
L 610.777091 155.939555 
L 605.413273 155.939555 
z
" clip-path="url(#pa81b51e6d7)" style="fill: #1f77b4"/>
   </g>
   <g id="patch_102">
    <path d="M 610.777091 255.667359 
L 616.140909 255.667359 
L 616.140909 58.704945 
L 610.777091 58.704945 
z
" clip-path="url(#pa81b51e6d7)" style="fill: #1f77b4"/>
   </g>
   <g id="matplotlib.axis_1">
    <g id="xtick_1">
     <g id="line2d_1">
      <defs>
       <path id="mf083ccdc59" d="M 0 0 
L 0 3.5 
" style="stroke: #000000; stroke-width: 0.8"/>
      </defs>
      <g>
       <use xlink:href="#mf083ccdc59" x="81.100045" y="345.4" style="stroke: #000000; stroke-width: 0.8"/>
      </g>
     </g>
     <g id="text_1">
      <!-- 0 -->
      <g transform="translate(77.918795 359.998438)scale(0.1 -0.1)">
       <defs>
        <path id="DejaVuSans-30" d="M 2034 4250 
Q 1547 4250 1301 3770 
Q 1056 3291 1056 2328 
Q 1056 1369 1301 889 
Q 1547 409 2034 409 
Q 2525 409 2770 889 
Q 3016 1369 3016 2328 
Q 3016 3291 2770 3770 
Q 2525 4250 2034 4250 
z
M 2034 4750 
Q 2819 4750 3233 4129 
Q 3647 3509 3647 2328 
Q 3647 1150 3233 529 
Q 2819 -91 2034 -91 
Q 1250 -91 836 529 
Q 422 1150 422 2328 
Q 422 3509 836 4129 
Q 1250 4750 2034 4750 
z
" transform="scale(0.015625)"/>
       </defs>
       <use xlink:href="#DejaVuSans-30"/>
      </g>
     </g>
    </g>
    <g id="xtick_2">
     <g id="line2d_2">
      <g>
       <use xlink:href="#mf083ccdc59" x="148.147773" y="345.4" style="stroke: #000000; stroke-width: 0.8"/>
      </g>
     </g>
     <g id="text_2">
      <!-- 25 -->
      <g transform="translate(141.785273 359.998438)scale(0.1 -0.1)">
       <defs>
        <path id="DejaVuSans-32" d="M 1228 531 
L 3431 531 
L 3431 0 
L 469 0 
L 469 531 
Q 828 903 1448 1529 
Q 2069 2156 2228 2338 
Q 2531 2678 2651 2914 
Q 2772 3150 2772 3378 
Q 2772 3750 2511 3984 
Q 2250 4219 1831 4219 
Q 1534 4219 1204 4116 
Q 875 4013 500 3803 
L 500 4441 
Q 881 4594 1212 4672 
Q 1544 4750 1819 4750 
Q 2544 4750 2975 4387 
Q 3406 4025 3406 3419 
Q 3406 3131 3298 2873 
Q 3191 2616 2906 2266 
Q 2828 2175 2409 1742 
Q 1991 1309 1228 531 
z
" transform="scale(0.015625)"/>
        <path id="DejaVuSans-35" d="M 691 4666 
L 3169 4666 
L 3169 4134 
L 1269 4134 
L 1269 2991 
Q 1406 3038 1543 3061 
Q 1681 3084 1819 3084 
Q 2600 3084 3056 2656 
Q 3513 2228 3513 1497 
Q 3513 744 3044 326 
Q 2575 -91 1722 -91 
Q 1428 -91 1123 -41 
Q 819 9 494 109 
L 494 744 
Q 775 591 1075 516 
Q 1375 441 1709 441 
Q 2250 441 2565 725 
Q 2881 1009 2881 1497 
Q 2881 1984 2565 2268 
Q 2250 2553 1709 2553 
Q 1456 2553 1204 2497 
Q 953 2441 691 2322 
L 691 4666 
z
" transform="scale(0.015625)"/>
       </defs>
       <use xlink:href="#DejaVuSans-32"/>
       <use xlink:href="#DejaVuSans-35" x="63.623047"/>
      </g>
     </g>
    </g>
    <g id="xtick_3">
     <g id="line2d_3">
      <g>
       <use xlink:href="#mf083ccdc59" x="215.1955" y="345.4" style="stroke: #000000; stroke-width: 0.8"/>
      </g>
     </g>
     <g id="text_3">
      <!-- 50 -->
      <g transform="translate(208.833 359.998438)scale(0.1 -0.1)">
       <use xlink:href="#DejaVuSans-35"/>
       <use xlink:href="#DejaVuSans-30" x="63.623047"/>
      </g>
     </g>
    </g>
    <g id="xtick_4">
     <g id="line2d_4">
      <g>
       <use xlink:href="#mf083ccdc59" x="282.243227" y="345.4" style="stroke: #000000; stroke-width: 0.8"/>
      </g>
     </g>
     <g id="text_4">
      <!-- 75 -->
      <g transform="translate(275.880727 359.998438)scale(0.1 -0.1)">
       <defs>
        <path id="DejaVuSans-37" d="M 525 4666 
L 3525 4666 
L 3525 4397 
L 1831 0 
L 1172 0 
L 2766 4134 
L 525 4134 
L 525 4666 
z
" transform="scale(0.015625)"/>
       </defs>
       <use xlink:href="#DejaVuSans-37"/>
       <use xlink:href="#DejaVuSans-35" x="63.623047"/>
      </g>
     </g>
    </g>
    <g id="xtick_5">
     <g id="line2d_5">
      <g>
       <use xlink:href="#mf083ccdc59" x="349.290955" y="345.4" style="stroke: #000000; stroke-width: 0.8"/>
      </g>
     </g>
     <g id="text_5">
      <!-- 100 -->
      <g transform="translate(339.747205 359.998438)scale(0.1 -0.1)">
       <defs>
        <path id="DejaVuSans-31" d="M 794 531 
L 1825 531 
L 1825 4091 
L 703 3866 
L 703 4441 
L 1819 4666 
L 2450 4666 
L 2450 531 
L 3481 531 
L 3481 0 
L 794 0 
L 794 531 
z
" transform="scale(0.015625)"/>
       </defs>
       <use xlink:href="#DejaVuSans-31"/>
       <use xlink:href="#DejaVuSans-30" x="63.623047"/>
       <use xlink:href="#DejaVuSans-30" x="127.246094"/>
      </g>
     </g>
    </g>
    <g id="xtick_6">
     <g id="line2d_6">
      <g>
       <use xlink:href="#mf083ccdc59" x="416.338682" y="345.4" style="stroke: #000000; stroke-width: 0.8"/>
      </g>
     </g>
     <g id="text_6">
      <!-- 125 -->
      <g transform="translate(406.794932 359.998438)scale(0.1 -0.1)">
       <use xlink:href="#DejaVuSans-31"/>
       <use xlink:href="#DejaVuSans-32" x="63.623047"/>
       <use xlink:href="#DejaVuSans-35" x="127.246094"/>
      </g>
     </g>
    </g>
    <g id="xtick_7">
     <g id="line2d_7">
      <g>
       <use xlink:href="#mf083ccdc59" x="483.386409" y="345.4" style="stroke: #000000; stroke-width: 0.8"/>
      </g>
     </g>
     <g id="text_7">
      <!-- 150 -->
      <g transform="translate(473.842659 359.998438)scale(0.1 -0.1)">
       <use xlink:href="#DejaVuSans-31"/>
       <use xlink:href="#DejaVuSans-35" x="63.623047"/>
       <use xlink:href="#DejaVuSans-30" x="127.246094"/>
      </g>
     </g>
    </g>
    <g id="xtick_8">
     <g id="line2d_8">
      <g>
       <use xlink:href="#mf083ccdc59" x="550.434136" y="345.4" style="stroke: #000000; stroke-width: 0.8"/>
      </g>
     </g>
     <g id="text_8">
      <!-- 175 -->
      <g transform="translate(540.890386 359.998438)scale(0.1 -0.1)">
       <use xlink:href="#DejaVuSans-31"/>
       <use xlink:href="#DejaVuSans-37" x="63.623047"/>
       <use xlink:href="#DejaVuSans-35" x="127.246094"/>
      </g>
     </g>
    </g>
    <g id="xtick_9">
     <g id="line2d_9">
      <g>
       <use xlink:href="#mf083ccdc59" x="617.481864" y="345.4" style="stroke: #000000; stroke-width: 0.8"/>
      </g>
     </g>
     <g id="text_9">
      <!-- 200 -->
      <g transform="translate(607.938114 359.998438)scale(0.1 -0.1)">
       <use xlink:href="#DejaVuSans-32"/>
       <use xlink:href="#DejaVuSans-30" x="63.623047"/>
       <use xlink:href="#DejaVuSans-30" x="127.246094"/>
      </g>
     </g>
    </g>
    <g id="text_10">
     <!-- Time (ms) -->
     <g transform="translate(322.750781 373.676562)scale(0.1 -0.1)">
      <defs>
       <path id="DejaVuSans-54" d="M -19 4666 
L 3928 4666 
L 3928 4134 
L 2272 4134 
L 2272 0 
L 1638 0 
L 1638 4134 
L -19 4134 
L -19 4666 
z
" transform="scale(0.015625)"/>
       <path id="DejaVuSans-69" d="M 603 3500 
L 1178 3500 
L 1178 0 
L 603 0 
L 603 3500 
z
M 603 4863 
L 1178 4863 
L 1178 4134 
L 603 4134 
L 603 4863 
z
" transform="scale(0.015625)"/>
       <path id="DejaVuSans-6d" d="M 3328 2828 
Q 3544 3216 3844 3400 
Q 4144 3584 4550 3584 
Q 5097 3584 5394 3201 
Q 5691 2819 5691 2113 
L 5691 0 
L 5113 0 
L 5113 2094 
Q 5113 2597 4934 2840 
Q 4756 3084 4391 3084 
Q 3944 3084 3684 2787 
Q 3425 2491 3425 1978 
L 3425 0 
L 2847 0 
L 2847 2094 
Q 2847 2600 2669 2842 
Q 2491 3084 2119 3084 
Q 1678 3084 1418 2786 
Q 1159 2488 1159 1978 
L 1159 0 
L 581 0 
L 581 3500 
L 1159 3500 
L 1159 2956 
Q 1356 3278 1631 3431 
Q 1906 3584 2284 3584 
Q 2666 3584 2933 3390 
Q 3200 3197 3328 2828 
z
" transform="scale(0.015625)"/>
       <path id="DejaVuSans-65" d="M 3597 1894 
L 3597 1613 
L 953 1613 
Q 991 1019 1311 708 
Q 1631 397 2203 397 
Q 2534 397 2845 478 
Q 3156 559 3463 722 
L 3463 178 
Q 3153 47 2828 -22 
Q 2503 -91 2169 -91 
Q 1331 -91 842 396 
Q 353 884 353 1716 
Q 353 2575 817 3079 
Q 1281 3584 2069 3584 
Q 2775 3584 3186 3129 
Q 3597 2675 3597 1894 
z
M 3022 2063 
Q 3016 2534 2758 2815 
Q 2500 3097 2075 3097 
Q 1594 3097 1305 2825 
Q 1016 2553 972 2059 
L 3022 2063 
z
" transform="scale(0.015625)"/>
       <path id="DejaVuSans-20" transform="scale(0.015625)"/>
       <path id="DejaVuSans-28" d="M 1984 4856 
Q 1566 4138 1362 3434 
Q 1159 2731 1159 2009 
Q 1159 1288 1364 580 
Q 1569 -128 1984 -844 
L 1484 -844 
Q 1016 -109 783 600 
Q 550 1309 550 2009 
Q 550 2706 781 3412 
Q 1013 4119 1484 4856 
L 1984 4856 
z
" transform="scale(0.015625)"/>
       <path id="DejaVuSans-73" d="M 2834 3397 
L 2834 2853 
Q 2591 2978 2328 3040 
Q 2066 3103 1784 3103 
Q 1356 3103 1142 2972 
Q 928 2841 928 2578 
Q 928 2378 1081 2264 
Q 1234 2150 1697 2047 
L 1894 2003 
Q 2506 1872 2764 1633 
Q 3022 1394 3022 966 
Q 3022 478 2636 193 
Q 2250 -91 1575 -91 
Q 1294 -91 989 -36 
Q 684 19 347 128 
L 347 722 
Q 666 556 975 473 
Q 1284 391 1588 391 
Q 1994 391 2212 530 
Q 2431 669 2431 922 
Q 2431 1156 2273 1281 
Q 2116 1406 1581 1522 
L 1381 1569 
Q 847 1681 609 1914 
Q 372 2147 372 2553 
Q 372 3047 722 3315 
Q 1072 3584 1716 3584 
Q 2034 3584 2315 3537 
Q 2597 3491 2834 3397 
z
" transform="scale(0.015625)"/>
       <path id="DejaVuSans-29" d="M 513 4856 
L 1013 4856 
Q 1481 4119 1714 3412 
Q 1947 2706 1947 2009 
Q 1947 1309 1714 600 
Q 1481 -109 1013 -844 
L 513 -844 
Q 928 -128 1133 580 
Q 1338 1288 1338 2009 
Q 1338 2731 1133 3434 
Q 928 4138 513 4856 
z
" transform="scale(0.015625)"/>
      </defs>
      <use xlink:href="#DejaVuSans-54"/>
      <use xlink:href="#DejaVuSans-69" x="57.958984"/>
      <use xlink:href="#DejaVuSans-6d" x="85.742188"/>
      <use xlink:href="#DejaVuSans-65" x="183.154297"/>
      <use xlink:href="#DejaVuSans-20" x="244.677734"/>
      <use xlink:href="#DejaVuSans-28" x="276.464844"/>
      <use xlink:href="#DejaVuSans-6d" x="315.478516"/>
      <use xlink:href="#DejaVuSans-73" x="412.890625"/>
      <use xlink:href="#DejaVuSans-29" x="464.990234"/>
     </g>
    </g>
   </g>
   <g id="matplotlib.axis_2">
    <g id="ytick_1">
     <g id="line2d_10">
      <defs>
       <path id="m17c3230afe" d="M 0 0 
L -3.5 0 
" style="stroke: #000000; stroke-width: 0.8"/>
      </defs>
      <g>
       <use xlink:href="#m17c3230afe" x="52.94" y="305.531262" style="stroke: #000000; stroke-width: 0.8"/>
      </g>
     </g>
     <g id="text_11">
      <!-- −10 -->
      <g transform="translate(24.835313 309.33048)scale(0.1 -0.1)">
       <defs>
        <path id="DejaVuSans-2212" d="M 678 2272 
L 4684 2272 
L 4684 1741 
L 678 1741 
L 678 2272 
z
" transform="scale(0.015625)"/>
       </defs>
       <use xlink:href="#DejaVuSans-2212"/>
       <use xlink:href="#DejaVuSans-31" x="83.789062"/>
       <use xlink:href="#DejaVuSans-30" x="147.412109"/>
      </g>
     </g>
    </g>
    <g id="ytick_2">
     <g id="line2d_11">
      <g>
       <use xlink:href="#m17c3230afe" x="52.94" y="255.667359" style="stroke: #000000; stroke-width: 0.8"/>
      </g>
     </g>
     <g id="text_12">
      <!-- 0 -->
      <g transform="translate(39.5775 259.466578)scale(0.1 -0.1)">
       <use xlink:href="#DejaVuSans-30"/>
      </g>
     </g>
    </g>
    <g id="ytick_3">
     <g id="line2d_12">
      <g>
       <use xlink:href="#m17c3230afe" x="52.94" y="205.803457" style="stroke: #000000; stroke-width: 0.8"/>
      </g>
     </g>
     <g id="text_13">
      <!-- 10 -->
      <g transform="translate(33.215 209.602676)scale(0.1 -0.1)">
       <use xlink:href="#DejaVuSans-31"/>
       <use xlink:href="#DejaVuSans-30" x="63.623047"/>
      </g>
     </g>
    </g>
    <g id="ytick_4">
     <g id="line2d_13">
      <g>
       <use xlink:href="#m17c3230afe" x="52.94" y="155.939555" style="stroke: #000000; stroke-width: 0.8"/>
      </g>
     </g>
     <g id="text_14">
      <!-- 20 -->
      <g transform="translate(33.215 159.738774)scale(0.1 -0.1)">
       <use xlink:href="#DejaVuSans-32"/>
       <use xlink:href="#DejaVuSans-30" x="63.623047"/>
      </g>
     </g>
    </g>
    <g id="ytick_5">
     <g id="line2d_14">
      <g>
       <use xlink:href="#m17c3230afe" x="52.94" y="106.075653" style="stroke: #000000; stroke-width: 0.8"/>
      </g>
     </g>
     <g id="text_15">
      <!-- 30 -->
      <g transform="translate(33.215 109.874871)scale(0.1 -0.1)">
       <defs>
        <path id="DejaVuSans-33" d="M 2597 2516 
Q 3050 2419 3304 2112 
Q 3559 1806 3559 1356 
Q 3559 666 3084 287 
Q 2609 -91 1734 -91 
Q 1441 -91 1130 -33 
Q 819 25 488 141 
L 488 750 
Q 750 597 1062 519 
Q 1375 441 1716 441 
Q 2309 441 2620 675 
Q 2931 909 2931 1356 
Q 2931 1769 2642 2001 
Q 2353 2234 1838 2234 
L 1294 2234 
L 1294 2753 
L 1863 2753 
Q 2328 2753 2575 2939 
Q 2822 3125 2822 3475 
Q 2822 3834 2567 4026 
Q 2313 4219 1838 4219 
Q 1578 4219 1281 4162 
Q 984 4106 628 3988 
L 628 4550 
Q 988 4650 1302 4700 
Q 1616 4750 1894 4750 
Q 2613 4750 3031 4423 
Q 3450 4097 3450 3541 
Q 3450 3153 3228 2886 
Q 3006 2619 2597 2516 
z
" transform="scale(0.015625)"/>
       </defs>
       <use xlink:href="#DejaVuSans-33"/>
       <use xlink:href="#DejaVuSans-30" x="63.623047"/>
      </g>
     </g>
    </g>
    <g id="ytick_6">
     <g id="line2d_15">
      <g>
       <use xlink:href="#m17c3230afe" x="52.94" y="56.21175" style="stroke: #000000; stroke-width: 0.8"/>
      </g>
     </g>
     <g id="text_16">
      <!-- 40 -->
      <g transform="translate(33.215 60.010969)scale(0.1 -0.1)">
       <defs>
        <path id="DejaVuSans-34" d="M 2419 4116 
L 825 1625 
L 2419 1625 
L 2419 4116 
z
M 2253 4666 
L 3047 4666 
L 3047 1625 
L 3713 1625 
L 3713 1100 
L 3047 1100 
L 3047 0 
L 2419 0 
L 2419 1100 
L 313 1100 
L 313 1709 
L 2253 4666 
z
" transform="scale(0.015625)"/>
       </defs>
       <use xlink:href="#DejaVuSans-34"/>
       <use xlink:href="#DejaVuSans-30" x="63.623047"/>
      </g>
     </g>
    </g>
    <g id="text_17">
     <!-- Mean firing rate of population's neurones (Hz) -->
     <g transform="translate(18.755625 310.434994)rotate(-90)scale(0.1 -0.1)">
      <defs>
       <path id="DejaVuSans-4d" d="M 628 4666 
L 1569 4666 
L 2759 1491 
L 3956 4666 
L 4897 4666 
L 4897 0 
L 4281 0 
L 4281 4097 
L 3078 897 
L 2444 897 
L 1241 4097 
L 1241 0 
L 628 0 
L 628 4666 
z
" transform="scale(0.015625)"/>
       <path id="DejaVuSans-61" d="M 2194 1759 
Q 1497 1759 1228 1600 
Q 959 1441 959 1056 
Q 959 750 1161 570 
Q 1363 391 1709 391 
Q 2188 391 2477 730 
Q 2766 1069 2766 1631 
L 2766 1759 
L 2194 1759 
z
M 3341 1997 
L 3341 0 
L 2766 0 
L 2766 531 
Q 2569 213 2275 61 
Q 1981 -91 1556 -91 
Q 1019 -91 701 211 
Q 384 513 384 1019 
Q 384 1609 779 1909 
Q 1175 2209 1959 2209 
L 2766 2209 
L 2766 2266 
Q 2766 2663 2505 2880 
Q 2244 3097 1772 3097 
Q 1472 3097 1187 3025 
Q 903 2953 641 2809 
L 641 3341 
Q 956 3463 1253 3523 
Q 1550 3584 1831 3584 
Q 2591 3584 2966 3190 
Q 3341 2797 3341 1997 
z
" transform="scale(0.015625)"/>
       <path id="DejaVuSans-6e" d="M 3513 2113 
L 3513 0 
L 2938 0 
L 2938 2094 
Q 2938 2591 2744 2837 
Q 2550 3084 2163 3084 
Q 1697 3084 1428 2787 
Q 1159 2491 1159 1978 
L 1159 0 
L 581 0 
L 581 3500 
L 1159 3500 
L 1159 2956 
Q 1366 3272 1645 3428 
Q 1925 3584 2291 3584 
Q 2894 3584 3203 3211 
Q 3513 2838 3513 2113 
z
" transform="scale(0.015625)"/>
       <path id="DejaVuSans-66" d="M 2375 4863 
L 2375 4384 
L 1825 4384 
Q 1516 4384 1395 4259 
Q 1275 4134 1275 3809 
L 1275 3500 
L 2222 3500 
L 2222 3053 
L 1275 3053 
L 1275 0 
L 697 0 
L 697 3053 
L 147 3053 
L 147 3500 
L 697 3500 
L 697 3744 
Q 697 4328 969 4595 
Q 1241 4863 1831 4863 
L 2375 4863 
z
" transform="scale(0.015625)"/>
       <path id="DejaVuSans-72" d="M 2631 2963 
Q 2534 3019 2420 3045 
Q 2306 3072 2169 3072 
Q 1681 3072 1420 2755 
Q 1159 2438 1159 1844 
L 1159 0 
L 581 0 
L 581 3500 
L 1159 3500 
L 1159 2956 
Q 1341 3275 1631 3429 
Q 1922 3584 2338 3584 
Q 2397 3584 2469 3576 
Q 2541 3569 2628 3553 
L 2631 2963 
z
" transform="scale(0.015625)"/>
       <path id="DejaVuSans-67" d="M 2906 1791 
Q 2906 2416 2648 2759 
Q 2391 3103 1925 3103 
Q 1463 3103 1205 2759 
Q 947 2416 947 1791 
Q 947 1169 1205 825 
Q 1463 481 1925 481 
Q 2391 481 2648 825 
Q 2906 1169 2906 1791 
z
M 3481 434 
Q 3481 -459 3084 -895 
Q 2688 -1331 1869 -1331 
Q 1566 -1331 1297 -1286 
Q 1028 -1241 775 -1147 
L 775 -588 
Q 1028 -725 1275 -790 
Q 1522 -856 1778 -856 
Q 2344 -856 2625 -561 
Q 2906 -266 2906 331 
L 2906 616 
Q 2728 306 2450 153 
Q 2172 0 1784 0 
Q 1141 0 747 490 
Q 353 981 353 1791 
Q 353 2603 747 3093 
Q 1141 3584 1784 3584 
Q 2172 3584 2450 3431 
Q 2728 3278 2906 2969 
L 2906 3500 
L 3481 3500 
L 3481 434 
z
" transform="scale(0.015625)"/>
       <path id="DejaVuSans-74" d="M 1172 4494 
L 1172 3500 
L 2356 3500 
L 2356 3053 
L 1172 3053 
L 1172 1153 
Q 1172 725 1289 603 
Q 1406 481 1766 481 
L 2356 481 
L 2356 0 
L 1766 0 
Q 1100 0 847 248 
Q 594 497 594 1153 
L 594 3053 
L 172 3053 
L 172 3500 
L 594 3500 
L 594 4494 
L 1172 4494 
z
" transform="scale(0.015625)"/>
       <path id="DejaVuSans-6f" d="M 1959 3097 
Q 1497 3097 1228 2736 
Q 959 2375 959 1747 
Q 959 1119 1226 758 
Q 1494 397 1959 397 
Q 2419 397 2687 759 
Q 2956 1122 2956 1747 
Q 2956 2369 2687 2733 
Q 2419 3097 1959 3097 
z
M 1959 3584 
Q 2709 3584 3137 3096 
Q 3566 2609 3566 1747 
Q 3566 888 3137 398 
Q 2709 -91 1959 -91 
Q 1206 -91 779 398 
Q 353 888 353 1747 
Q 353 2609 779 3096 
Q 1206 3584 1959 3584 
z
" transform="scale(0.015625)"/>
       <path id="DejaVuSans-70" d="M 1159 525 
L 1159 -1331 
L 581 -1331 
L 581 3500 
L 1159 3500 
L 1159 2969 
Q 1341 3281 1617 3432 
Q 1894 3584 2278 3584 
Q 2916 3584 3314 3078 
Q 3713 2572 3713 1747 
Q 3713 922 3314 415 
Q 2916 -91 2278 -91 
Q 1894 -91 1617 61 
Q 1341 213 1159 525 
z
M 3116 1747 
Q 3116 2381 2855 2742 
Q 2594 3103 2138 3103 
Q 1681 3103 1420 2742 
Q 1159 2381 1159 1747 
Q 1159 1113 1420 752 
Q 1681 391 2138 391 
Q 2594 391 2855 752 
Q 3116 1113 3116 1747 
z
" transform="scale(0.015625)"/>
       <path id="DejaVuSans-75" d="M 544 1381 
L 544 3500 
L 1119 3500 
L 1119 1403 
Q 1119 906 1312 657 
Q 1506 409 1894 409 
Q 2359 409 2629 706 
Q 2900 1003 2900 1516 
L 2900 3500 
L 3475 3500 
L 3475 0 
L 2900 0 
L 2900 538 
Q 2691 219 2414 64 
Q 2138 -91 1772 -91 
Q 1169 -91 856 284 
Q 544 659 544 1381 
z
M 1991 3584 
L 1991 3584 
z
" transform="scale(0.015625)"/>
       <path id="DejaVuSans-6c" d="M 603 4863 
L 1178 4863 
L 1178 0 
L 603 0 
L 603 4863 
z
" transform="scale(0.015625)"/>
       <path id="DejaVuSans-27" d="M 1147 4666 
L 1147 2931 
L 616 2931 
L 616 4666 
L 1147 4666 
z
" transform="scale(0.015625)"/>
       <path id="DejaVuSans-48" d="M 628 4666 
L 1259 4666 
L 1259 2753 
L 3553 2753 
L 3553 4666 
L 4184 4666 
L 4184 0 
L 3553 0 
L 3553 2222 
L 1259 2222 
L 1259 0 
L 628 0 
L 628 4666 
z
" transform="scale(0.015625)"/>
       <path id="DejaVuSans-7a" d="M 353 3500 
L 3084 3500 
L 3084 2975 
L 922 459 
L 3084 459 
L 3084 0 
L 275 0 
L 275 525 
L 2438 3041 
L 353 3041 
L 353 3500 
z
" transform="scale(0.015625)"/>
      </defs>
      <use xlink:href="#DejaVuSans-4d"/>
      <use xlink:href="#DejaVuSans-65" x="86.279297"/>
      <use xlink:href="#DejaVuSans-61" x="147.802734"/>
      <use xlink:href="#DejaVuSans-6e" x="209.082031"/>
      <use xlink:href="#DejaVuSans-20" x="272.460938"/>
      <use xlink:href="#DejaVuSans-66" x="304.248047"/>
      <use xlink:href="#DejaVuSans-69" x="339.453125"/>
      <use xlink:href="#DejaVuSans-72" x="367.236328"/>
      <use xlink:href="#DejaVuSans-69" x="408.349609"/>
      <use xlink:href="#DejaVuSans-6e" x="436.132812"/>
      <use xlink:href="#DejaVuSans-67" x="499.511719"/>
      <use xlink:href="#DejaVuSans-20" x="562.988281"/>
      <use xlink:href="#DejaVuSans-72" x="594.775391"/>
      <use xlink:href="#DejaVuSans-61" x="635.888672"/>
      <use xlink:href="#DejaVuSans-74" x="697.167969"/>
      <use xlink:href="#DejaVuSans-65" x="736.376953"/>
      <use xlink:href="#DejaVuSans-20" x="797.900391"/>
      <use xlink:href="#DejaVuSans-6f" x="829.6875"/>
      <use xlink:href="#DejaVuSans-66" x="890.869141"/>
      <use xlink:href="#DejaVuSans-20" x="926.074219"/>
      <use xlink:href="#DejaVuSans-70" x="957.861328"/>
      <use xlink:href="#DejaVuSans-6f" x="1021.337891"/>
      <use xlink:href="#DejaVuSans-70" x="1082.519531"/>
      <use xlink:href="#DejaVuSans-75" x="1145.996094"/>
      <use xlink:href="#DejaVuSans-6c" x="1209.375"/>
      <use xlink:href="#DejaVuSans-61" x="1237.158203"/>
      <use xlink:href="#DejaVuSans-74" x="1298.4375"/>
      <use xlink:href="#DejaVuSans-69" x="1337.646484"/>
      <use xlink:href="#DejaVuSans-6f" x="1365.429688"/>
      <use xlink:href="#DejaVuSans-6e" x="1426.611328"/>
      <use xlink:href="#DejaVuSans-27" x="1489.990234"/>
      <use xlink:href="#DejaVuSans-73" x="1517.480469"/>
      <use xlink:href="#DejaVuSans-20" x="1569.580078"/>
      <use xlink:href="#DejaVuSans-6e" x="1601.367188"/>
      <use xlink:href="#DejaVuSans-65" x="1664.746094"/>
      <use xlink:href="#DejaVuSans-75" x="1726.269531"/>
      <use xlink:href="#DejaVuSans-72" x="1789.648438"/>
      <use xlink:href="#DejaVuSans-6f" x="1828.511719"/>
      <use xlink:href="#DejaVuSans-6e" x="1889.693359"/>
      <use xlink:href="#DejaVuSans-65" x="1953.072266"/>
      <use xlink:href="#DejaVuSans-73" x="2014.595703"/>
      <use xlink:href="#DejaVuSans-20" x="2066.695312"/>
      <use xlink:href="#DejaVuSans-28" x="2098.482422"/>
      <use xlink:href="#DejaVuSans-48" x="2137.496094"/>
      <use xlink:href="#DejaVuSans-7a" x="2212.691406"/>
      <use xlink:href="#DejaVuSans-29" x="2265.181641"/>
     </g>
    </g>
   </g>
   <g id="line2d_16">
    <path d="M 82.441 58.983246 
L 87.804818 65.435464 
L 93.168636 80.051129 
L 98.532455 101.911884 
L 103.896273 129.644137 
L 109.260091 161.505369 
L 114.623909 195.493622 
L 119.987727 229.473288 
L 125.351545 261.309301 
L 130.715364 289.001286 
L 136.079182 310.809254 
L 141.443 325.362931 
L 146.806818 331.747855 
L 152.170636 329.562838 
L 157.534455 318.945172 
L 162.898273 300.562006 
L 168.262091 275.56842 
L 173.625909 245.534854 
L 178.989727 212.348427 
L 184.353545 178.094364 
L 189.717364 144.924974 
L 195.081182 114.924412 
L 200.445 89.977723 
L 205.808818 71.6524 
L 211.172636 61.09989 
L 216.536455 58.983246 
L 221.900273 65.435464 
L 227.264091 80.051129 
L 232.627909 101.911884 
L 237.991727 129.644137 
L 243.355545 161.505369 
L 248.719364 195.493622 
L 254.083182 229.473288 
L 259.447 261.309301 
L 264.810818 289.001286 
L 270.174636 310.809254 
L 275.538455 325.362931 
L 280.902273 331.747855 
L 286.266091 329.562838 
L 291.629909 318.945172 
L 296.993727 300.562006 
L 302.357545 275.56842 
L 307.721364 245.534854 
L 313.085182 212.348427 
L 318.449 178.094364 
L 323.812818 144.924974 
L 329.176636 114.924412 
L 334.540455 89.977723 
L 339.904273 71.6524 
L 345.268091 61.09989 
L 350.631909 58.983246 
L 355.995727 65.435464 
L 361.359545 80.051129 
L 366.723364 101.911884 
L 372.087182 129.644137 
L 377.451 161.505369 
L 382.814818 195.493622 
L 388.178636 229.473288 
L 393.542455 261.309301 
L 398.906273 289.001286 
L 404.270091 310.809254 
L 409.633909 325.362931 
L 414.997727 331.747855 
L 420.361545 329.562838 
L 425.725364 318.945172 
L 431.089182 300.562006 
L 436.453 275.56842 
L 441.816818 245.534854 
L 447.180636 212.348427 
L 452.544455 178.094364 
L 457.908273 144.924974 
L 463.272091 114.924412 
L 468.635909 89.977723 
L 473.999727 71.6524 
L 479.363545 61.09989 
L 484.727364 58.983246 
L 490.091182 65.435464 
L 495.455 80.051129 
L 500.818818 101.911884 
L 506.182636 129.644137 
L 511.546455 161.505369 
L 516.910273 195.493622 
L 522.274091 229.473288 
L 527.637909 261.309301 
L 533.001727 289.001286 
L 538.365545 310.809254 
L 543.729364 325.362931 
L 549.093182 331.747855 
L 554.457 329.562838 
L 559.820818 318.945172 
L 565.184636 300.562006 
L 570.548455 275.56842 
L 575.912273 245.534854 
L 581.276091 212.348427 
L 586.639909 178.094364 
L 592.003727 144.924974 
L 597.367545 114.924412 
L 602.731364 89.977723 
L 608.095182 71.6524 
L 613.459 61.09989 
" clip-path="url(#pa81b51e6d7)" style="fill: none; stroke: #800080; stroke-width: 1.5; stroke-linecap: square"/>
   </g>
   <g id="line2d_17">
    <path d="M 82.441 114.789209 
L 87.804818 118.906827 
L 93.168636 127.828088 
L 98.532455 140.992437 
L 103.896273 157.57271 
L 109.260091 176.527107 
L 114.623909 196.664653 
L 119.987727 216.720033 
L 125.351545 235.433093 
L 130.715364 251.628022 
L 136.079182 264.287235 
L 141.443 272.615305 
L 146.806818 276.08895 
L 152.170636 274.489908 
L 157.534455 267.918652 
L 162.898273 256.788079 
L 168.262091 241.797564 
L 173.625909 223.889015 
L 178.989727 204.187692 
L 184.353545 183.931503 
L 189.717364 164.393218 
L 195.081182 146.800499 
L 200.445 132.258762 
L 205.808818 121.681718 
L 211.172636 115.73396 
L 216.536455 114.789209 
L 221.900273 118.906827 
L 227.264091 127.828088 
L 232.627909 140.992437 
L 237.991727 157.57271 
L 243.355545 176.527107 
L 248.719364 196.664653 
L 254.083182 216.720033 
L 259.447 235.433093 
L 264.810818 251.628022 
L 270.174636 264.287235 
L 275.538455 272.615305 
L 280.902273 276.08895 
L 286.266091 274.489908 
L 291.629909 267.918652 
L 296.993727 256.788079 
L 302.357545 241.797564 
L 307.721364 223.889015 
L 313.085182 204.187692 
L 318.449 183.931503 
L 323.812818 164.393218 
L 329.176636 146.800499 
L 334.540455 132.258762 
L 339.904273 121.681718 
L 345.268091 115.73396 
L 350.631909 114.789209 
L 355.995727 118.906827 
L 361.359545 127.828088 
L 366.723364 140.992437 
L 372.087182 157.57271 
L 377.451 176.527107 
L 382.814818 196.664653 
L 388.178636 216.720033 
L 393.542455 235.433093 
L 398.906273 251.628022 
L 404.270091 264.287235 
L 409.633909 272.615305 
L 414.997727 276.08895 
L 420.361545 274.489908 
L 425.725364 267.918652 
L 431.089182 256.788079 
L 436.453 241.797564 
L 441.816818 223.889015 
L 447.180636 204.187692 
L 452.544455 183.931503 
L 457.908273 164.393218 
L 463.272091 146.800499 
L 468.635909 132.258762 
L 473.999727 121.681718 
L 479.363545 115.73396 
L 484.727364 114.789209 
L 490.091182 118.906827 
L 495.455 127.828088 
L 500.818818 140.992437 
L 506.182636 157.57271 
L 511.546455 176.527107 
L 516.910273 196.664653 
L 522.274091 216.720033 
L 527.637909 235.433093 
L 533.001727 251.628022 
L 538.365545 264.287235 
L 543.729364 272.615305 
L 549.093182 276.08895 
L 554.457 274.489908 
L 559.820818 267.918652 
L 565.184636 256.788079 
L 570.548455 241.797564 
L 575.912273 223.889015 
L 581.276091 204.187692 
L 586.639909 183.931503 
L 592.003727 164.393218 
L 597.367545 146.800499 
L 602.731364 132.258762 
L 608.095182 121.681718 
L 613.459 115.73396 
" clip-path="url(#pa81b51e6d7)" style="fill: none; stroke-dasharray: 5.55,2.4; stroke-dashoffset: 0; stroke: #008000; stroke-width: 1.5"/>
   </g>
   <g id="patch_103">
    <path d="M 52.94 345.4 
L 52.94 45.0528 
" style="fill: none; stroke: #000000; stroke-width: 0.8; stroke-linejoin: miter; stroke-linecap: square"/>
   </g>
   <g id="patch_104">
    <path d="M 642.96 345.4 
L 642.96 45.0528 
" style="fill: none; stroke: #000000; stroke-width: 0.8; stroke-linejoin: miter; stroke-linecap: square"/>
   </g>
   <g id="patch_105">
    <path d="M 52.94 345.4 
L 642.96 345.4 
" style="fill: none; stroke: #000000; stroke-width: 0.8; stroke-linejoin: miter; stroke-linecap: square"/>
   </g>
   <g id="patch_106">
    <path d="M 52.94 45.0528 
L 642.96 45.0528 
" style="fill: none; stroke: #000000; stroke-width: 0.8; stroke-linejoin: miter; stroke-linecap: square"/>
   </g>
   <g id="text_18">
    <!-- $A_{initial}$: 12.095, $B_{initial}$: 27.405, $φ_{initial}$= 0.001 -->
    <g transform="translate(219.01 25.59105)scale(0.12 -0.12)">
     <defs>
      <path id="DejaVuSans-Oblique-41" d="M 2356 4666 
L 3072 4666 
L 3938 0 
L 3278 0 
L 3084 1197 
L 984 1197 
L 325 0 
L -341 0 
L 2356 4666 
z
M 2584 4044 
L 1275 1722 
L 2988 1722 
L 2584 4044 
z
" transform="scale(0.015625)"/>
      <path id="DejaVuSans-Oblique-69" d="M 1172 4863 
L 1747 4863 
L 1606 4134 
L 1031 4134 
L 1172 4863 
z
M 909 3500 
L 1484 3500 
L 800 0 
L 225 0 
L 909 3500 
z
" transform="scale(0.015625)"/>
      <path id="DejaVuSans-Oblique-6e" d="M 3566 2113 
L 3156 0 
L 2578 0 
L 2988 2091 
Q 3016 2238 3031 2350 
Q 3047 2463 3047 2528 
Q 3047 2791 2881 2937 
Q 2716 3084 2419 3084 
Q 1956 3084 1622 2776 
Q 1288 2469 1184 1941 
L 800 0 
L 225 0 
L 903 3500 
L 1478 3500 
L 1363 2950 
Q 1603 3253 1940 3418 
Q 2278 3584 2650 3584 
Q 3113 3584 3367 3334 
Q 3622 3084 3622 2631 
Q 3622 2519 3608 2391 
Q 3594 2263 3566 2113 
z
" transform="scale(0.015625)"/>
      <path id="DejaVuSans-Oblique-74" d="M 2706 3500 
L 2619 3053 
L 1472 3053 
L 1100 1153 
Q 1081 1047 1072 975 
Q 1063 903 1063 863 
Q 1063 663 1183 572 
Q 1303 481 1569 481 
L 2150 481 
L 2053 0 
L 1503 0 
Q 991 0 739 200 
Q 488 400 488 806 
Q 488 878 497 964 
Q 506 1050 525 1153 
L 897 3053 
L 409 3053 
L 500 3500 
L 978 3500 
L 1172 4494 
L 1747 4494 
L 1556 3500 
L 2706 3500 
z
" transform="scale(0.015625)"/>
      <path id="DejaVuSans-Oblique-61" d="M 3438 1997 
L 3047 0 
L 2472 0 
L 2578 531 
Q 2325 219 2001 64 
Q 1678 -91 1281 -91 
Q 834 -91 548 182 
Q 263 456 263 884 
Q 263 1497 752 1853 
Q 1241 2209 2100 2209 
L 2900 2209 
L 2931 2363 
Q 2938 2388 2941 2417 
Q 2944 2447 2944 2509 
Q 2944 2788 2717 2942 
Q 2491 3097 2081 3097 
Q 1800 3097 1504 3025 
Q 1209 2953 897 2809 
L 997 3341 
Q 1322 3463 1633 3523 
Q 1944 3584 2234 3584 
Q 2853 3584 3176 3315 
Q 3500 3047 3500 2534 
Q 3500 2431 3484 2292 
Q 3469 2153 3438 1997 
z
M 2816 1759 
L 2241 1759 
Q 1534 1759 1195 1570 
Q 856 1381 856 984 
Q 856 709 1029 553 
Q 1203 397 1509 397 
Q 1978 397 2328 733 
Q 2678 1069 2791 1631 
L 2816 1759 
z
" transform="scale(0.015625)"/>
      <path id="DejaVuSans-Oblique-6c" d="M 1172 4863 
L 1747 4863 
L 800 0 
L 225 0 
L 1172 4863 
z
" transform="scale(0.015625)"/>
      <path id="DejaVuSans-3a" d="M 750 794 
L 1409 794 
L 1409 0 
L 750 0 
L 750 794 
z
M 750 3309 
L 1409 3309 
L 1409 2516 
L 750 2516 
L 750 3309 
z
" transform="scale(0.015625)"/>
      <path id="DejaVuSans-2e" d="M 684 794 
L 1344 794 
L 1344 0 
L 684 0 
L 684 794 
z
" transform="scale(0.015625)"/>
      <path id="DejaVuSans-39" d="M 703 97 
L 703 672 
Q 941 559 1184 500 
Q 1428 441 1663 441 
Q 2288 441 2617 861 
Q 2947 1281 2994 2138 
Q 2813 1869 2534 1725 
Q 2256 1581 1919 1581 
Q 1219 1581 811 2004 
Q 403 2428 403 3163 
Q 403 3881 828 4315 
Q 1253 4750 1959 4750 
Q 2769 4750 3195 4129 
Q 3622 3509 3622 2328 
Q 3622 1225 3098 567 
Q 2575 -91 1691 -91 
Q 1453 -91 1209 -44 
Q 966 3 703 97 
z
M 1959 2075 
Q 2384 2075 2632 2365 
Q 2881 2656 2881 3163 
Q 2881 3666 2632 3958 
Q 2384 4250 1959 4250 
Q 1534 4250 1286 3958 
Q 1038 3666 1038 3163 
Q 1038 2656 1286 2365 
Q 1534 2075 1959 2075 
z
" transform="scale(0.015625)"/>
      <path id="DejaVuSans-2c" d="M 750 794 
L 1409 794 
L 1409 256 
L 897 -744 
L 494 -744 
L 750 256 
L 750 794 
z
" transform="scale(0.015625)"/>
      <path id="DejaVuSans-Oblique-42" d="M 1081 4666 
L 2694 4666 
Q 3350 4666 3675 4422 
Q 4000 4178 4000 3688 
Q 4000 3238 3720 2911 
Q 3441 2584 2988 2516 
Q 3375 2428 3569 2181 
Q 3763 1934 3763 1522 
Q 3763 819 3242 409 
Q 2722 0 1819 0 
L 172 0 
L 1081 4666 
z
M 1234 2228 
L 903 519 
L 1919 519 
Q 2491 519 2800 781 
Q 3109 1044 3109 1522 
Q 3109 1891 2904 2059 
Q 2700 2228 2247 2228 
L 1234 2228 
z
M 1606 4147 
L 1331 2741 
L 2272 2741 
Q 2775 2741 3058 2959 
Q 3341 3178 3341 3566 
Q 3341 3869 3150 4008 
Q 2959 4147 2541 4147 
L 1606 4147 
z
" transform="scale(0.015625)"/>
      <path id="DejaVuSans-Oblique-3c6" d="M 2969 3034 
Q 2766 3034 2675 2581 
L 2259 438 
Q 2553 438 2916 763 
Q 3244 1053 3375 1750 
Q 3497 2400 3300 2750 
Q 3138 3034 2969 3034 
z
M 3063 3525 
Q 3513 3525 3819 3113 
Q 4147 2672 3981 1750 
Q 3828 903 3291 400 
Q 2784 -75 2159 -75 
L 1916 -1331 
L 1344 -1331 
L 1588 -78 
Q 963 -78 641 400 
Q 309 888 475 1747 
Q 647 2641 1166 3097 
Q 1556 3438 2084 3525 
L 1984 3016 
Q 1766 2944 1538 2700 
Q 1194 2341 1081 1747 
Q 963 1116 1156 756 
Q 1334 434 1688 434 
L 2103 2581 
Q 2288 3525 3063 3525 
z
" transform="scale(0.015625)"/>
      <path id="DejaVuSans-3d" d="M 678 2906 
L 4684 2906 
L 4684 2381 
L 678 2381 
L 678 2906 
z
M 678 1631 
L 4684 1631 
L 4684 1100 
L 678 1100 
L 678 1631 
z
" transform="scale(0.015625)"/>
     </defs>
     <use xlink:href="#DejaVuSans-Oblique-41" transform="translate(0 0.78125)"/>
     <use xlink:href="#DejaVuSans-Oblique-69" transform="translate(68.408203 -15.625)scale(0.7)"/>
     <use xlink:href="#DejaVuSans-Oblique-6e" transform="translate(87.856445 -15.625)scale(0.7)"/>
     <use xlink:href="#DejaVuSans-Oblique-69" transform="translate(132.22168 -15.625)scale(0.7)"/>
     <use xlink:href="#DejaVuSans-Oblique-74" transform="translate(151.669922 -15.625)scale(0.7)"/>
     <use xlink:href="#DejaVuSans-Oblique-69" transform="translate(179.116211 -15.625)scale(0.7)"/>
     <use xlink:href="#DejaVuSans-Oblique-61" transform="translate(198.564453 -15.625)scale(0.7)"/>
     <use xlink:href="#DejaVuSans-Oblique-6c" transform="translate(241.459961 -15.625)scale(0.7)"/>
     <use xlink:href="#DejaVuSans-3a" transform="translate(263.642578 0.78125)"/>
     <use xlink:href="#DejaVuSans-20" transform="translate(297.333984 0.78125)"/>
     <use xlink:href="#DejaVuSans-31" transform="translate(329.121094 0.78125)"/>
     <use xlink:href="#DejaVuSans-32" transform="translate(392.744141 0.78125)"/>
     <use xlink:href="#DejaVuSans-2e" transform="translate(456.367188 0.78125)"/>
     <use xlink:href="#DejaVuSans-30" transform="translate(488.154297 0.78125)"/>
     <use xlink:href="#DejaVuSans-39" transform="translate(551.777344 0.78125)"/>
     <use xlink:href="#DejaVuSans-35" transform="translate(615.400391 0.78125)"/>
     <use xlink:href="#DejaVuSans-2c" transform="translate(679.023438 0.78125)"/>
     <use xlink:href="#DejaVuSans-20" transform="translate(710.810547 0.78125)"/>
     <use xlink:href="#DejaVuSans-Oblique-42" transform="translate(742.597656 0.78125)"/>
     <use xlink:href="#DejaVuSans-Oblique-69" transform="translate(811.201172 -15.625)scale(0.7)"/>
     <use xlink:href="#DejaVuSans-Oblique-6e" transform="translate(830.649414 -15.625)scale(0.7)"/>
     <use xlink:href="#DejaVuSans-Oblique-69" transform="translate(875.014648 -15.625)scale(0.7)"/>
     <use xlink:href="#DejaVuSans-Oblique-74" transform="translate(894.462891 -15.625)scale(0.7)"/>
     <use xlink:href="#DejaVuSans-Oblique-69" transform="translate(921.90918 -15.625)scale(0.7)"/>
     <use xlink:href="#DejaVuSans-Oblique-61" transform="translate(941.357422 -15.625)scale(0.7)"/>
     <use xlink:href="#DejaVuSans-Oblique-6c" transform="translate(984.25293 -15.625)scale(0.7)"/>
     <use xlink:href="#DejaVuSans-3a" transform="translate(1006.435547 0.78125)"/>
     <use xlink:href="#DejaVuSans-20" transform="translate(1040.126953 0.78125)"/>
     <use xlink:href="#DejaVuSans-32" transform="translate(1071.914062 0.78125)"/>
     <use xlink:href="#DejaVuSans-37" transform="translate(1135.537109 0.78125)"/>
     <use xlink:href="#DejaVuSans-2e" transform="translate(1199.160156 0.78125)"/>
     <use xlink:href="#DejaVuSans-34" transform="translate(1230.947266 0.78125)"/>
     <use xlink:href="#DejaVuSans-30" transform="translate(1294.570312 0.78125)"/>
     <use xlink:href="#DejaVuSans-35" transform="translate(1358.193359 0.78125)"/>
     <use xlink:href="#DejaVuSans-2c" transform="translate(1421.816406 0.78125)"/>
     <use xlink:href="#DejaVuSans-20" transform="translate(1453.603516 0.78125)"/>
     <use xlink:href="#DejaVuSans-Oblique-3c6" transform="translate(1485.390625 0.78125)"/>
     <use xlink:href="#DejaVuSans-Oblique-69" transform="translate(1551.357422 -15.625)scale(0.7)"/>
     <use xlink:href="#DejaVuSans-Oblique-6e" transform="translate(1570.805664 -15.625)scale(0.7)"/>
     <use xlink:href="#DejaVuSans-Oblique-69" transform="translate(1615.170898 -15.625)scale(0.7)"/>
     <use xlink:href="#DejaVuSans-Oblique-74" transform="translate(1634.619141 -15.625)scale(0.7)"/>
     <use xlink:href="#DejaVuSans-Oblique-69" transform="translate(1662.06543 -15.625)scale(0.7)"/>
     <use xlink:href="#DejaVuSans-Oblique-61" transform="translate(1681.513672 -15.625)scale(0.7)"/>
     <use xlink:href="#DejaVuSans-Oblique-6c" transform="translate(1724.40918 -15.625)scale(0.7)"/>
     <use xlink:href="#DejaVuSans-3d" transform="translate(1746.591797 0.78125)"/>
     <use xlink:href="#DejaVuSans-20" transform="translate(1830.380859 0.78125)"/>
     <use xlink:href="#DejaVuSans-30" transform="translate(1862.167969 0.78125)"/>
     <use xlink:href="#DejaVuSans-2e" transform="translate(1925.791016 0.78125)"/>
     <use xlink:href="#DejaVuSans-30" transform="translate(1957.578125 0.78125)"/>
     <use xlink:href="#DejaVuSans-30" transform="translate(2021.201172 0.78125)"/>
     <use xlink:href="#DejaVuSans-31" transform="translate(2084.824219 0.78125)"/>
    </g>
    <!-- $A_{optimal}$: 12.0950000040311, $B_{optimal}$: 16.208099603753816, $φ_{optimal}$= 0.016180920844786745 -->
    <g transform="translate(65.23 39.0528)scale(0.12 -0.12)">
     <defs>
      <path id="DejaVuSans-Oblique-6f" d="M 1625 -91 
Q 1009 -91 651 289 
Q 294 669 294 1325 
Q 294 1706 417 2101 
Q 541 2497 738 2766 
Q 1047 3184 1428 3384 
Q 1809 3584 2291 3584 
Q 2888 3584 3255 3212 
Q 3622 2841 3622 2241 
Q 3622 1825 3500 1412 
Q 3378 1000 3181 728 
Q 2875 309 2494 109 
Q 2113 -91 1625 -91 
z
M 891 1344 
Q 891 869 1089 633 
Q 1288 397 1691 397 
Q 2269 397 2648 901 
Q 3028 1406 3028 2181 
Q 3028 2634 2825 2865 
Q 2622 3097 2228 3097 
Q 1903 3097 1650 2945 
Q 1397 2794 1197 2484 
Q 1050 2253 970 1956 
Q 891 1659 891 1344 
z
" transform="scale(0.015625)"/>
      <path id="DejaVuSans-Oblique-70" d="M 3175 2156 
Q 3175 2616 2975 2859 
Q 2775 3103 2400 3103 
Q 2144 3103 1911 2972 
Q 1678 2841 1497 2591 
Q 1319 2344 1212 1994 
Q 1106 1644 1106 1300 
Q 1106 863 1306 627 
Q 1506 391 1875 391 
Q 2147 391 2380 519 
Q 2613 647 2778 891 
Q 2956 1147 3065 1494 
Q 3175 1841 3175 2156 
z
M 1394 2969 
Q 1625 3272 1939 3428 
Q 2253 3584 2638 3584 
Q 3175 3584 3472 3232 
Q 3769 2881 3769 2247 
Q 3769 1728 3584 1258 
Q 3400 788 3053 416 
Q 2822 169 2531 39 
Q 2241 -91 1919 -91 
Q 1547 -91 1294 64 
Q 1041 219 916 525 
L 556 -1331 
L -19 -1331 
L 922 3500 
L 1497 3500 
L 1394 2969 
z
" transform="scale(0.015625)"/>
      <path id="DejaVuSans-Oblique-6d" d="M 5747 2113 
L 5338 0 
L 4763 0 
L 5166 2094 
Q 5191 2228 5203 2325 
Q 5216 2422 5216 2491 
Q 5216 2772 5059 2928 
Q 4903 3084 4622 3084 
Q 4203 3084 3875 2770 
Q 3547 2456 3450 1953 
L 3066 0 
L 2491 0 
L 2900 2094 
Q 2925 2209 2937 2307 
Q 2950 2406 2950 2484 
Q 2950 2769 2794 2926 
Q 2638 3084 2363 3084 
Q 1938 3084 1609 2770 
Q 1281 2456 1184 1953 
L 800 0 
L 225 0 
L 909 3500 
L 1484 3500 
L 1375 2956 
Q 1609 3263 1923 3423 
Q 2238 3584 2597 3584 
Q 2978 3584 3223 3384 
Q 3469 3184 3519 2828 
Q 3781 3197 4126 3390 
Q 4472 3584 4856 3584 
Q 5306 3584 5551 3325 
Q 5797 3066 5797 2591 
Q 5797 2488 5784 2364 
Q 5772 2241 5747 2113 
z
" transform="scale(0.015625)"/>
      <path id="DejaVuSans-36" d="M 2113 2584 
Q 1688 2584 1439 2293 
Q 1191 2003 1191 1497 
Q 1191 994 1439 701 
Q 1688 409 2113 409 
Q 2538 409 2786 701 
Q 3034 994 3034 1497 
Q 3034 2003 2786 2293 
Q 2538 2584 2113 2584 
z
M 3366 4563 
L 3366 3988 
Q 3128 4100 2886 4159 
Q 2644 4219 2406 4219 
Q 1781 4219 1451 3797 
Q 1122 3375 1075 2522 
Q 1259 2794 1537 2939 
Q 1816 3084 2150 3084 
Q 2853 3084 3261 2657 
Q 3669 2231 3669 1497 
Q 3669 778 3244 343 
Q 2819 -91 2113 -91 
Q 1303 -91 875 529 
Q 447 1150 447 2328 
Q 447 3434 972 4092 
Q 1497 4750 2381 4750 
Q 2619 4750 2861 4703 
Q 3103 4656 3366 4563 
z
" transform="scale(0.015625)"/>
      <path id="DejaVuSans-38" d="M 2034 2216 
Q 1584 2216 1326 1975 
Q 1069 1734 1069 1313 
Q 1069 891 1326 650 
Q 1584 409 2034 409 
Q 2484 409 2743 651 
Q 3003 894 3003 1313 
Q 3003 1734 2745 1975 
Q 2488 2216 2034 2216 
z
M 1403 2484 
Q 997 2584 770 2862 
Q 544 3141 544 3541 
Q 544 4100 942 4425 
Q 1341 4750 2034 4750 
Q 2731 4750 3128 4425 
Q 3525 4100 3525 3541 
Q 3525 3141 3298 2862 
Q 3072 2584 2669 2484 
Q 3125 2378 3379 2068 
Q 3634 1759 3634 1313 
Q 3634 634 3220 271 
Q 2806 -91 2034 -91 
Q 1263 -91 848 271 
Q 434 634 434 1313 
Q 434 1759 690 2068 
Q 947 2378 1403 2484 
z
M 1172 3481 
Q 1172 3119 1398 2916 
Q 1625 2713 2034 2713 
Q 2441 2713 2670 2916 
Q 2900 3119 2900 3481 
Q 2900 3844 2670 4047 
Q 2441 4250 2034 4250 
Q 1625 4250 1398 4047 
Q 1172 3844 1172 3481 
z
" transform="scale(0.015625)"/>
     </defs>
     <use xlink:href="#DejaVuSans-Oblique-41" transform="translate(0 0.78125)"/>
     <use xlink:href="#DejaVuSans-Oblique-6f" transform="translate(68.408203 -15.625)scale(0.7)"/>
     <use xlink:href="#DejaVuSans-Oblique-70" transform="translate(111.235352 -15.625)scale(0.7)"/>
     <use xlink:href="#DejaVuSans-Oblique-74" transform="translate(155.668945 -15.625)scale(0.7)"/>
     <use xlink:href="#DejaVuSans-Oblique-69" transform="translate(183.115234 -15.625)scale(0.7)"/>
     <use xlink:href="#DejaVuSans-Oblique-6d" transform="translate(202.563477 -15.625)scale(0.7)"/>
     <use xlink:href="#DejaVuSans-Oblique-61" transform="translate(270.751953 -15.625)scale(0.7)"/>
     <use xlink:href="#DejaVuSans-Oblique-6c" transform="translate(313.647461 -15.625)scale(0.7)"/>
     <use xlink:href="#DejaVuSans-3a" transform="translate(335.830078 0.78125)"/>
     <use xlink:href="#DejaVuSans-20" transform="translate(369.521484 0.78125)"/>
     <use xlink:href="#DejaVuSans-31" transform="translate(401.308594 0.78125)"/>
     <use xlink:href="#DejaVuSans-32" transform="translate(464.931641 0.78125)"/>
     <use xlink:href="#DejaVuSans-2e" transform="translate(528.554688 0.78125)"/>
     <use xlink:href="#DejaVuSans-30" transform="translate(560.341797 0.78125)"/>
     <use xlink:href="#DejaVuSans-39" transform="translate(623.964844 0.78125)"/>
     <use xlink:href="#DejaVuSans-35" transform="translate(687.587891 0.78125)"/>
     <use xlink:href="#DejaVuSans-30" transform="translate(751.210938 0.78125)"/>
     <use xlink:href="#DejaVuSans-30" transform="translate(814.833984 0.78125)"/>
     <use xlink:href="#DejaVuSans-30" transform="translate(878.457031 0.78125)"/>
     <use xlink:href="#DejaVuSans-30" transform="translate(942.080078 0.78125)"/>
     <use xlink:href="#DejaVuSans-30" transform="translate(1005.703125 0.78125)"/>
     <use xlink:href="#DejaVuSans-34" transform="translate(1069.326172 0.78125)"/>
     <use xlink:href="#DejaVuSans-30" transform="translate(1132.949219 0.78125)"/>
     <use xlink:href="#DejaVuSans-33" transform="translate(1196.572266 0.78125)"/>
     <use xlink:href="#DejaVuSans-31" transform="translate(1260.195312 0.78125)"/>
     <use xlink:href="#DejaVuSans-31" transform="translate(1323.818359 0.78125)"/>
     <use xlink:href="#DejaVuSans-2c" transform="translate(1387.441406 0.78125)"/>
     <use xlink:href="#DejaVuSans-20" transform="translate(1419.228516 0.78125)"/>
     <use xlink:href="#DejaVuSans-Oblique-42" transform="translate(1451.015625 0.78125)"/>
     <use xlink:href="#DejaVuSans-Oblique-6f" transform="translate(1519.619141 -15.625)scale(0.7)"/>
     <use xlink:href="#DejaVuSans-Oblique-70" transform="translate(1562.446289 -15.625)scale(0.7)"/>
     <use xlink:href="#DejaVuSans-Oblique-74" transform="translate(1606.879883 -15.625)scale(0.7)"/>
     <use xlink:href="#DejaVuSans-Oblique-69" transform="translate(1634.326172 -15.625)scale(0.7)"/>
     <use xlink:href="#DejaVuSans-Oblique-6d" transform="translate(1653.774414 -15.625)scale(0.7)"/>
     <use xlink:href="#DejaVuSans-Oblique-61" transform="translate(1721.962891 -15.625)scale(0.7)"/>
     <use xlink:href="#DejaVuSans-Oblique-6c" transform="translate(1764.858398 -15.625)scale(0.7)"/>
     <use xlink:href="#DejaVuSans-3a" transform="translate(1787.041016 0.78125)"/>
     <use xlink:href="#DejaVuSans-20" transform="translate(1820.732422 0.78125)"/>
     <use xlink:href="#DejaVuSans-31" transform="translate(1852.519531 0.78125)"/>
     <use xlink:href="#DejaVuSans-36" transform="translate(1916.142578 0.78125)"/>
     <use xlink:href="#DejaVuSans-2e" transform="translate(1979.765625 0.78125)"/>
     <use xlink:href="#DejaVuSans-32" transform="translate(2006.052734 0.78125)"/>
     <use xlink:href="#DejaVuSans-30" transform="translate(2069.675781 0.78125)"/>
     <use xlink:href="#DejaVuSans-38" transform="translate(2133.298828 0.78125)"/>
     <use xlink:href="#DejaVuSans-30" transform="translate(2196.921875 0.78125)"/>
     <use xlink:href="#DejaVuSans-39" transform="translate(2260.544922 0.78125)"/>
     <use xlink:href="#DejaVuSans-39" transform="translate(2324.167969 0.78125)"/>
     <use xlink:href="#DejaVuSans-36" transform="translate(2387.791016 0.78125)"/>
     <use xlink:href="#DejaVuSans-30" transform="translate(2451.414062 0.78125)"/>
     <use xlink:href="#DejaVuSans-33" transform="translate(2515.037109 0.78125)"/>
     <use xlink:href="#DejaVuSans-37" transform="translate(2578.660156 0.78125)"/>
     <use xlink:href="#DejaVuSans-35" transform="translate(2642.283203 0.78125)"/>
     <use xlink:href="#DejaVuSans-33" transform="translate(2705.90625 0.78125)"/>
     <use xlink:href="#DejaVuSans-38" transform="translate(2769.529297 0.78125)"/>
     <use xlink:href="#DejaVuSans-31" transform="translate(2833.152344 0.78125)"/>
     <use xlink:href="#DejaVuSans-36" transform="translate(2896.775391 0.78125)"/>
     <use xlink:href="#DejaVuSans-2c" transform="translate(2960.398438 0.78125)"/>
     <use xlink:href="#DejaVuSans-20" transform="translate(2992.185547 0.78125)"/>
     <use xlink:href="#DejaVuSans-Oblique-3c6" transform="translate(3023.972656 0.78125)"/>
     <use xlink:href="#DejaVuSans-Oblique-6f" transform="translate(3089.939453 -15.625)scale(0.7)"/>
     <use xlink:href="#DejaVuSans-Oblique-70" transform="translate(3132.766602 -15.625)scale(0.7)"/>
     <use xlink:href="#DejaVuSans-Oblique-74" transform="translate(3177.200195 -15.625)scale(0.7)"/>
     <use xlink:href="#DejaVuSans-Oblique-69" transform="translate(3204.646484 -15.625)scale(0.7)"/>
     <use xlink:href="#DejaVuSans-Oblique-6d" transform="translate(3224.094727 -15.625)scale(0.7)"/>
     <use xlink:href="#DejaVuSans-Oblique-61" transform="translate(3292.283203 -15.625)scale(0.7)"/>
     <use xlink:href="#DejaVuSans-Oblique-6c" transform="translate(3335.178711 -15.625)scale(0.7)"/>
     <use xlink:href="#DejaVuSans-3d" transform="translate(3357.361328 0.78125)"/>
     <use xlink:href="#DejaVuSans-20" transform="translate(3441.150391 0.78125)"/>
     <use xlink:href="#DejaVuSans-30" transform="translate(3472.9375 0.78125)"/>
     <use xlink:href="#DejaVuSans-2e" transform="translate(3536.560547 0.78125)"/>
     <use xlink:href="#DejaVuSans-30" transform="translate(3568.347656 0.78125)"/>
     <use xlink:href="#DejaVuSans-31" transform="translate(3631.970703 0.78125)"/>
     <use xlink:href="#DejaVuSans-36" transform="translate(3695.59375 0.78125)"/>
     <use xlink:href="#DejaVuSans-31" transform="translate(3759.216797 0.78125)"/>
     <use xlink:href="#DejaVuSans-38" transform="translate(3822.839844 0.78125)"/>
     <use xlink:href="#DejaVuSans-30" transform="translate(3886.462891 0.78125)"/>
     <use xlink:href="#DejaVuSans-39" transform="translate(3950.085938 0.78125)"/>
     <use xlink:href="#DejaVuSans-32" transform="translate(4011.958984 0.78125)"/>
     <use xlink:href="#DejaVuSans-30" transform="translate(4075.582031 0.78125)"/>
     <use xlink:href="#DejaVuSans-38" transform="translate(4139.205078 0.78125)"/>
     <use xlink:href="#DejaVuSans-34" transform="translate(4202.828125 0.78125)"/>
     <use xlink:href="#DejaVuSans-34" transform="translate(4266.451172 0.78125)"/>
     <use xlink:href="#DejaVuSans-37" transform="translate(4330.074219 0.78125)"/>
     <use xlink:href="#DejaVuSans-38" transform="translate(4393.697266 0.78125)"/>
     <use xlink:href="#DejaVuSans-36" transform="translate(4457.320312 0.78125)"/>
     <use xlink:href="#DejaVuSans-37" transform="translate(4520.943359 0.78125)"/>
     <use xlink:href="#DejaVuSans-34" transform="translate(4584.566406 0.78125)"/>
     <use xlink:href="#DejaVuSans-35" transform="translate(4648.189453 0.78125)"/>
    </g>
   </g>
   <g id="legend_1">
    <g id="patch_107">
     <path d="M 59.94 340.4 
L 259.786875 340.4 
Q 261.786875 340.4 261.786875 338.4 
L 261.786875 295.365625 
Q 261.786875 293.365625 259.786875 293.365625 
L 59.94 293.365625 
Q 57.94 293.365625 57.94 295.365625 
L 57.94 338.4 
Q 57.94 340.4 59.94 340.4 
z
" style="fill: #ffffff; opacity: 0.8; stroke: #cccccc; stroke-linejoin: miter"/>
    </g>
    <g id="line2d_18">
     <path d="M 61.94 301.464063 
L 71.94 301.464063 
L 81.94 301.464063 
" style="fill: none; stroke: #800080; stroke-width: 1.5; stroke-linecap: square"/>
    </g>
    <g id="text_19">
     <!-- Fitting curve: initial parameters -->
     <g transform="translate(89.94 304.964063)scale(0.1 -0.1)">
      <defs>
       <path id="DejaVuSans-46" d="M 628 4666 
L 3309 4666 
L 3309 4134 
L 1259 4134 
L 1259 2759 
L 3109 2759 
L 3109 2228 
L 1259 2228 
L 1259 0 
L 628 0 
L 628 4666 
z
" transform="scale(0.015625)"/>
       <path id="DejaVuSans-63" d="M 3122 3366 
L 3122 2828 
Q 2878 2963 2633 3030 
Q 2388 3097 2138 3097 
Q 1578 3097 1268 2742 
Q 959 2388 959 1747 
Q 959 1106 1268 751 
Q 1578 397 2138 397 
Q 2388 397 2633 464 
Q 2878 531 3122 666 
L 3122 134 
Q 2881 22 2623 -34 
Q 2366 -91 2075 -91 
Q 1284 -91 818 406 
Q 353 903 353 1747 
Q 353 2603 823 3093 
Q 1294 3584 2113 3584 
Q 2378 3584 2631 3529 
Q 2884 3475 3122 3366 
z
" transform="scale(0.015625)"/>
       <path id="DejaVuSans-76" d="M 191 3500 
L 800 3500 
L 1894 563 
L 2988 3500 
L 3597 3500 
L 2284 0 
L 1503 0 
L 191 3500 
z
" transform="scale(0.015625)"/>
      </defs>
      <use xlink:href="#DejaVuSans-46"/>
      <use xlink:href="#DejaVuSans-69" x="50.269531"/>
      <use xlink:href="#DejaVuSans-74" x="78.052734"/>
      <use xlink:href="#DejaVuSans-74" x="117.261719"/>
      <use xlink:href="#DejaVuSans-69" x="156.470703"/>
      <use xlink:href="#DejaVuSans-6e" x="184.253906"/>
      <use xlink:href="#DejaVuSans-67" x="247.632812"/>
      <use xlink:href="#DejaVuSans-20" x="311.109375"/>
      <use xlink:href="#DejaVuSans-63" x="342.896484"/>
      <use xlink:href="#DejaVuSans-75" x="397.876953"/>
      <use xlink:href="#DejaVuSans-72" x="461.255859"/>
      <use xlink:href="#DejaVuSans-76" x="502.369141"/>
      <use xlink:href="#DejaVuSans-65" x="561.548828"/>
      <use xlink:href="#DejaVuSans-3a" x="623.072266"/>
      <use xlink:href="#DejaVuSans-20" x="656.763672"/>
      <use xlink:href="#DejaVuSans-69" x="688.550781"/>
      <use xlink:href="#DejaVuSans-6e" x="716.333984"/>
      <use xlink:href="#DejaVuSans-69" x="779.712891"/>
      <use xlink:href="#DejaVuSans-74" x="807.496094"/>
      <use xlink:href="#DejaVuSans-69" x="846.705078"/>
      <use xlink:href="#DejaVuSans-61" x="874.488281"/>
      <use xlink:href="#DejaVuSans-6c" x="935.767578"/>
      <use xlink:href="#DejaVuSans-20" x="963.550781"/>
      <use xlink:href="#DejaVuSans-70" x="995.337891"/>
      <use xlink:href="#DejaVuSans-61" x="1058.814453"/>
      <use xlink:href="#DejaVuSans-72" x="1120.09375"/>
      <use xlink:href="#DejaVuSans-61" x="1161.207031"/>
      <use xlink:href="#DejaVuSans-6d" x="1222.486328"/>
      <use xlink:href="#DejaVuSans-65" x="1319.898438"/>
      <use xlink:href="#DejaVuSans-74" x="1381.421875"/>
      <use xlink:href="#DejaVuSans-65" x="1420.630859"/>
      <use xlink:href="#DejaVuSans-72" x="1482.154297"/>
      <use xlink:href="#DejaVuSans-73" x="1523.267578"/>
     </g>
    </g>
    <g id="line2d_19">
     <path d="M 61.94 316.142187 
L 71.94 316.142187 
L 81.94 316.142187 
" style="fill: none; stroke-dasharray: 5.55,2.4; stroke-dashoffset: 0; stroke: #008000; stroke-width: 1.5"/>
    </g>
    <g id="text_20">
     <!-- Fitting curve: optimal parameters -->
     <g transform="translate(89.94 319.642187)scale(0.1 -0.1)">
      <use xlink:href="#DejaVuSans-46"/>
      <use xlink:href="#DejaVuSans-69" x="50.269531"/>
      <use xlink:href="#DejaVuSans-74" x="78.052734"/>
      <use xlink:href="#DejaVuSans-74" x="117.261719"/>
      <use xlink:href="#DejaVuSans-69" x="156.470703"/>
      <use xlink:href="#DejaVuSans-6e" x="184.253906"/>
      <use xlink:href="#DejaVuSans-67" x="247.632812"/>
      <use xlink:href="#DejaVuSans-20" x="311.109375"/>
      <use xlink:href="#DejaVuSans-63" x="342.896484"/>
      <use xlink:href="#DejaVuSans-75" x="397.876953"/>
      <use xlink:href="#DejaVuSans-72" x="461.255859"/>
      <use xlink:href="#DejaVuSans-76" x="502.369141"/>
      <use xlink:href="#DejaVuSans-65" x="561.548828"/>
      <use xlink:href="#DejaVuSans-3a" x="623.072266"/>
      <use xlink:href="#DejaVuSans-20" x="656.763672"/>
      <use xlink:href="#DejaVuSans-6f" x="688.550781"/>
      <use xlink:href="#DejaVuSans-70" x="749.732422"/>
      <use xlink:href="#DejaVuSans-74" x="813.208984"/>
      <use xlink:href="#DejaVuSans-69" x="852.417969"/>
      <use xlink:href="#DejaVuSans-6d" x="880.201172"/>
      <use xlink:href="#DejaVuSans-61" x="977.613281"/>
      <use xlink:href="#DejaVuSans-6c" x="1038.892578"/>
      <use xlink:href="#DejaVuSans-20" x="1066.675781"/>
      <use xlink:href="#DejaVuSans-70" x="1098.462891"/>
      <use xlink:href="#DejaVuSans-61" x="1161.939453"/>
      <use xlink:href="#DejaVuSans-72" x="1223.21875"/>
      <use xlink:href="#DejaVuSans-61" x="1264.332031"/>
      <use xlink:href="#DejaVuSans-6d" x="1325.611328"/>
      <use xlink:href="#DejaVuSans-65" x="1423.023438"/>
      <use xlink:href="#DejaVuSans-74" x="1484.546875"/>
      <use xlink:href="#DejaVuSans-65" x="1523.755859"/>
      <use xlink:href="#DejaVuSans-72" x="1585.279297"/>
      <use xlink:href="#DejaVuSans-73" x="1626.392578"/>
     </g>
    </g>
    <g id="patch_108">
     <path d="M 61.94 334.320312 
L 81.94 334.320312 
L 81.94 327.320312 
L 61.94 327.320312 
z
" style="fill: #1f77b4"/>
    </g>
    <g id="text_21">
     <!-- Neuronal activity (data) -->
     <g transform="translate(89.94 334.320312)scale(0.1 -0.1)">
      <defs>
       <path id="DejaVuSans-4e" d="M 628 4666 
L 1478 4666 
L 3547 763 
L 3547 4666 
L 4159 4666 
L 4159 0 
L 3309 0 
L 1241 3903 
L 1241 0 
L 628 0 
L 628 4666 
z
" transform="scale(0.015625)"/>
       <path id="DejaVuSans-79" d="M 2059 -325 
Q 1816 -950 1584 -1140 
Q 1353 -1331 966 -1331 
L 506 -1331 
L 506 -850 
L 844 -850 
Q 1081 -850 1212 -737 
Q 1344 -625 1503 -206 
L 1606 56 
L 191 3500 
L 800 3500 
L 1894 763 
L 2988 3500 
L 3597 3500 
L 2059 -325 
z
" transform="scale(0.015625)"/>
       <path id="DejaVuSans-64" d="M 2906 2969 
L 2906 4863 
L 3481 4863 
L 3481 0 
L 2906 0 
L 2906 525 
Q 2725 213 2448 61 
Q 2172 -91 1784 -91 
Q 1150 -91 751 415 
Q 353 922 353 1747 
Q 353 2572 751 3078 
Q 1150 3584 1784 3584 
Q 2172 3584 2448 3432 
Q 2725 3281 2906 2969 
z
M 947 1747 
Q 947 1113 1208 752 
Q 1469 391 1925 391 
Q 2381 391 2643 752 
Q 2906 1113 2906 1747 
Q 2906 2381 2643 2742 
Q 2381 3103 1925 3103 
Q 1469 3103 1208 2742 
Q 947 2381 947 1747 
z
" transform="scale(0.015625)"/>
      </defs>
      <use xlink:href="#DejaVuSans-4e"/>
      <use xlink:href="#DejaVuSans-65" x="74.804688"/>
      <use xlink:href="#DejaVuSans-75" x="136.328125"/>
      <use xlink:href="#DejaVuSans-72" x="199.707031"/>
      <use xlink:href="#DejaVuSans-6f" x="238.570312"/>
      <use xlink:href="#DejaVuSans-6e" x="299.751953"/>
      <use xlink:href="#DejaVuSans-61" x="363.130859"/>
      <use xlink:href="#DejaVuSans-6c" x="424.410156"/>
      <use xlink:href="#DejaVuSans-20" x="452.193359"/>
      <use xlink:href="#DejaVuSans-61" x="483.980469"/>
      <use xlink:href="#DejaVuSans-63" x="545.259766"/>
      <use xlink:href="#DejaVuSans-74" x="600.240234"/>
      <use xlink:href="#DejaVuSans-69" x="639.449219"/>
      <use xlink:href="#DejaVuSans-76" x="667.232422"/>
      <use xlink:href="#DejaVuSans-69" x="726.412109"/>
      <use xlink:href="#DejaVuSans-74" x="754.195312"/>
      <use xlink:href="#DejaVuSans-79" x="793.404297"/>
      <use xlink:href="#DejaVuSans-20" x="852.583984"/>
      <use xlink:href="#DejaVuSans-28" x="884.371094"/>
      <use xlink:href="#DejaVuSans-64" x="923.384766"/>
      <use xlink:href="#DejaVuSans-61" x="986.861328"/>
      <use xlink:href="#DejaVuSans-74" x="1048.140625"/>
      <use xlink:href="#DejaVuSans-61" x="1087.349609"/>
      <use xlink:href="#DejaVuSans-29" x="1148.628906"/>
     </g>
    </g>
   </g>
  </g>
 </g>
 <defs>
  <clipPath id="pa81b51e6d7">
   <rect x="52.94" y="45.0528" width="590.02" height="300.3472"/>
  </clipPath>
 </defs>
</svg>
