<?xml version="1.0" encoding="utf-8" standalone="no"?>
<!DOCTYPE svg PUBLIC "-//W3C//DTD SVG 1.1//EN"
  "http://www.w3.org/Graphics/SVG/1.1/DTD/svg11.dtd">
<svg xmlns:xlink="http://www.w3.org/1999/xlink" width="460.8pt" height="345.6pt" viewBox="0 0 460.8 345.6" xmlns="http://www.w3.org/2000/svg" version="1.1">
 <metadata>
  <rdf:RDF xmlns:dc="http://purl.org/dc/elements/1.1/" xmlns:cc="http://creativecommons.org/ns#" xmlns:rdf="http://www.w3.org/1999/02/22-rdf-syntax-ns#">
   <cc:Work>
    <dc:type rdf:resource="http://purl.org/dc/dcmitype/StillImage"/>
    <dc:date>2022-04-10T17:32:16.454963</dc:date>
    <dc:format>image/svg+xml</dc:format>
    <dc:creator>
     <cc:Agent>
      <dc:title>Matplotlib v3.5.1, https://matplotlib.org/</dc:title>
     </cc:Agent>
    </dc:creator>
   </cc:Work>
  </rdf:RDF>
 </metadata>
 <defs>
  <style type="text/css">*{stroke-linejoin: round; stroke-linecap: butt}</style>
 </defs>
 <g id="figure_1">
  <g id="patch_1">
   <path d="M 0 345.6 
L 460.8 345.6 
L 460.8 0 
L 0 0 
z
" style="fill: #ffffff"/>
  </g>
  <g id="axes_1">
   <g id="patch_2">
    <path d="M 57.6 307.584 
L 414.72 307.584 
L 414.72 41.472 
L 57.6 41.472 
z
" style="fill: #ffffff"/>
   </g>
   <g id="matplotlib.axis_1">
    <g id="xtick_1">
     <g id="line2d_1">
      <defs>
       <path id="mc3492abc87" d="M 0 0 
L 0 3.5 
" style="stroke: #000000; stroke-width: 0.8"/>
      </defs>
      <g>
       <use xlink:href="#mc3492abc87" x="73.832727" y="307.584" style="stroke: #000000; stroke-width: 0.8"/>
      </g>
     </g>
     <g id="text_1">
      <!-- 0 -->
      <g transform="translate(70.651477 322.182437)scale(0.1 -0.1)">
       <defs>
        <path id="DejaVuSans-30" d="M 2034 4250 
Q 1547 4250 1301 3770 
Q 1056 3291 1056 2328 
Q 1056 1369 1301 889 
Q 1547 409 2034 409 
Q 2525 409 2770 889 
Q 3016 1369 3016 2328 
Q 3016 3291 2770 3770 
Q 2525 4250 2034 4250 
z
M 2034 4750 
Q 2819 4750 3233 4129 
Q 3647 3509 3647 2328 
Q 3647 1150 3233 529 
Q 2819 -91 2034 -91 
Q 1250 -91 836 529 
Q 422 1150 422 2328 
Q 422 3509 836 4129 
Q 1250 4750 2034 4750 
z
" transform="scale(0.015625)"/>
       </defs>
       <use xlink:href="#DejaVuSans-30"/>
      </g>
     </g>
    </g>
    <g id="xtick_2">
     <g id="line2d_2">
      <g>
       <use xlink:href="#mc3492abc87" x="138.763636" y="307.584" style="stroke: #000000; stroke-width: 0.8"/>
      </g>
     </g>
     <g id="text_2">
      <!-- 20000 -->
      <g transform="translate(122.857386 322.182437)scale(0.1 -0.1)">
       <defs>
        <path id="DejaVuSans-32" d="M 1228 531 
L 3431 531 
L 3431 0 
L 469 0 
L 469 531 
Q 828 903 1448 1529 
Q 2069 2156 2228 2338 
Q 2531 2678 2651 2914 
Q 2772 3150 2772 3378 
Q 2772 3750 2511 3984 
Q 2250 4219 1831 4219 
Q 1534 4219 1204 4116 
Q 875 4013 500 3803 
L 500 4441 
Q 881 4594 1212 4672 
Q 1544 4750 1819 4750 
Q 2544 4750 2975 4387 
Q 3406 4025 3406 3419 
Q 3406 3131 3298 2873 
Q 3191 2616 2906 2266 
Q 2828 2175 2409 1742 
Q 1991 1309 1228 531 
z
" transform="scale(0.015625)"/>
       </defs>
       <use xlink:href="#DejaVuSans-32"/>
       <use xlink:href="#DejaVuSans-30" x="63.623047"/>
       <use xlink:href="#DejaVuSans-30" x="127.246094"/>
       <use xlink:href="#DejaVuSans-30" x="190.869141"/>
       <use xlink:href="#DejaVuSans-30" x="254.492188"/>
      </g>
     </g>
    </g>
    <g id="xtick_3">
     <g id="line2d_3">
      <g>
       <use xlink:href="#mc3492abc87" x="203.694545" y="307.584" style="stroke: #000000; stroke-width: 0.8"/>
      </g>
     </g>
     <g id="text_3">
      <!-- 40000 -->
      <g transform="translate(187.788295 322.182437)scale(0.1 -0.1)">
       <defs>
        <path id="DejaVuSans-34" d="M 2419 4116 
L 825 1625 
L 2419 1625 
L 2419 4116 
z
M 2253 4666 
L 3047 4666 
L 3047 1625 
L 3713 1625 
L 3713 1100 
L 3047 1100 
L 3047 0 
L 2419 0 
L 2419 1100 
L 313 1100 
L 313 1709 
L 2253 4666 
z
" transform="scale(0.015625)"/>
       </defs>
       <use xlink:href="#DejaVuSans-34"/>
       <use xlink:href="#DejaVuSans-30" x="63.623047"/>
       <use xlink:href="#DejaVuSans-30" x="127.246094"/>
       <use xlink:href="#DejaVuSans-30" x="190.869141"/>
       <use xlink:href="#DejaVuSans-30" x="254.492188"/>
      </g>
     </g>
    </g>
    <g id="xtick_4">
     <g id="line2d_4">
      <g>
       <use xlink:href="#mc3492abc87" x="268.625455" y="307.584" style="stroke: #000000; stroke-width: 0.8"/>
      </g>
     </g>
     <g id="text_4">
      <!-- 60000 -->
      <g transform="translate(252.719205 322.182437)scale(0.1 -0.1)">
       <defs>
        <path id="DejaVuSans-36" d="M 2113 2584 
Q 1688 2584 1439 2293 
Q 1191 2003 1191 1497 
Q 1191 994 1439 701 
Q 1688 409 2113 409 
Q 2538 409 2786 701 
Q 3034 994 3034 1497 
Q 3034 2003 2786 2293 
Q 2538 2584 2113 2584 
z
M 3366 4563 
L 3366 3988 
Q 3128 4100 2886 4159 
Q 2644 4219 2406 4219 
Q 1781 4219 1451 3797 
Q 1122 3375 1075 2522 
Q 1259 2794 1537 2939 
Q 1816 3084 2150 3084 
Q 2853 3084 3261 2657 
Q 3669 2231 3669 1497 
Q 3669 778 3244 343 
Q 2819 -91 2113 -91 
Q 1303 -91 875 529 
Q 447 1150 447 2328 
Q 447 3434 972 4092 
Q 1497 4750 2381 4750 
Q 2619 4750 2861 4703 
Q 3103 4656 3366 4563 
z
" transform="scale(0.015625)"/>
       </defs>
       <use xlink:href="#DejaVuSans-36"/>
       <use xlink:href="#DejaVuSans-30" x="63.623047"/>
       <use xlink:href="#DejaVuSans-30" x="127.246094"/>
       <use xlink:href="#DejaVuSans-30" x="190.869141"/>
       <use xlink:href="#DejaVuSans-30" x="254.492188"/>
      </g>
     </g>
    </g>
    <g id="xtick_5">
     <g id="line2d_5">
      <g>
       <use xlink:href="#mc3492abc87" x="333.556364" y="307.584" style="stroke: #000000; stroke-width: 0.8"/>
      </g>
     </g>
     <g id="text_5">
      <!-- 80000 -->
      <g transform="translate(317.650114 322.182437)scale(0.1 -0.1)">
       <defs>
        <path id="DejaVuSans-38" d="M 2034 2216 
Q 1584 2216 1326 1975 
Q 1069 1734 1069 1313 
Q 1069 891 1326 650 
Q 1584 409 2034 409 
Q 2484 409 2743 651 
Q 3003 894 3003 1313 
Q 3003 1734 2745 1975 
Q 2488 2216 2034 2216 
z
M 1403 2484 
Q 997 2584 770 2862 
Q 544 3141 544 3541 
Q 544 4100 942 4425 
Q 1341 4750 2034 4750 
Q 2731 4750 3128 4425 
Q 3525 4100 3525 3541 
Q 3525 3141 3298 2862 
Q 3072 2584 2669 2484 
Q 3125 2378 3379 2068 
Q 3634 1759 3634 1313 
Q 3634 634 3220 271 
Q 2806 -91 2034 -91 
Q 1263 -91 848 271 
Q 434 634 434 1313 
Q 434 1759 690 2068 
Q 947 2378 1403 2484 
z
M 1172 3481 
Q 1172 3119 1398 2916 
Q 1625 2713 2034 2713 
Q 2441 2713 2670 2916 
Q 2900 3119 2900 3481 
Q 2900 3844 2670 4047 
Q 2441 4250 2034 4250 
Q 1625 4250 1398 4047 
Q 1172 3844 1172 3481 
z
" transform="scale(0.015625)"/>
       </defs>
       <use xlink:href="#DejaVuSans-38"/>
       <use xlink:href="#DejaVuSans-30" x="63.623047"/>
       <use xlink:href="#DejaVuSans-30" x="127.246094"/>
       <use xlink:href="#DejaVuSans-30" x="190.869141"/>
       <use xlink:href="#DejaVuSans-30" x="254.492188"/>
      </g>
     </g>
    </g>
    <g id="xtick_6">
     <g id="line2d_6">
      <g>
       <use xlink:href="#mc3492abc87" x="398.487273" y="307.584" style="stroke: #000000; stroke-width: 0.8"/>
      </g>
     </g>
     <g id="text_6">
      <!-- 100000 -->
      <g transform="translate(379.399773 322.182437)scale(0.1 -0.1)">
       <defs>
        <path id="DejaVuSans-31" d="M 794 531 
L 1825 531 
L 1825 4091 
L 703 3866 
L 703 4441 
L 1819 4666 
L 2450 4666 
L 2450 531 
L 3481 531 
L 3481 0 
L 794 0 
L 794 531 
z
" transform="scale(0.015625)"/>
       </defs>
       <use xlink:href="#DejaVuSans-31"/>
       <use xlink:href="#DejaVuSans-30" x="63.623047"/>
       <use xlink:href="#DejaVuSans-30" x="127.246094"/>
       <use xlink:href="#DejaVuSans-30" x="190.869141"/>
       <use xlink:href="#DejaVuSans-30" x="254.492188"/>
       <use xlink:href="#DejaVuSans-30" x="318.115234"/>
      </g>
     </g>
    </g>
    <g id="text_7">
     <!-- CV -->
     <g transform="translate(229.248281 335.860562)scale(0.1 -0.1)">
      <defs>
       <path id="DejaVuSans-43" d="M 4122 4306 
L 4122 3641 
Q 3803 3938 3442 4084 
Q 3081 4231 2675 4231 
Q 1875 4231 1450 3742 
Q 1025 3253 1025 2328 
Q 1025 1406 1450 917 
Q 1875 428 2675 428 
Q 3081 428 3442 575 
Q 3803 722 4122 1019 
L 4122 359 
Q 3791 134 3420 21 
Q 3050 -91 2638 -91 
Q 1578 -91 968 557 
Q 359 1206 359 2328 
Q 359 3453 968 4101 
Q 1578 4750 2638 4750 
Q 3056 4750 3426 4639 
Q 3797 4528 4122 4306 
z
" transform="scale(0.015625)"/>
       <path id="DejaVuSans-56" d="M 1831 0 
L 50 4666 
L 709 4666 
L 2188 738 
L 3669 4666 
L 4325 4666 
L 2547 0 
L 1831 0 
z
" transform="scale(0.015625)"/>
      </defs>
      <use xlink:href="#DejaVuSans-43"/>
      <use xlink:href="#DejaVuSans-56" x="69.824219"/>
     </g>
    </g>
   </g>
   <g id="matplotlib.axis_2">
    <g id="ytick_1">
     <g id="line2d_7">
      <defs>
       <path id="mb9f13c635a" d="M 0 0 
L -3.5 0 
" style="stroke: #000000; stroke-width: 0.8"/>
      </defs>
      <g>
       <use xlink:href="#mb9f13c635a" x="57.6" y="298.775767" style="stroke: #000000; stroke-width: 0.8"/>
      </g>
     </g>
     <g id="text_8">
      <!-- 0 -->
      <g transform="translate(44.2375 302.574985)scale(0.1 -0.1)">
       <use xlink:href="#DejaVuSans-30"/>
      </g>
     </g>
    </g>
    <g id="ytick_2">
     <g id="line2d_8">
      <g>
       <use xlink:href="#mb9f13c635a" x="57.6" y="260.862511" style="stroke: #000000; stroke-width: 0.8"/>
      </g>
     </g>
     <g id="text_9">
      <!-- 100 -->
      <g transform="translate(31.5125 264.66173)scale(0.1 -0.1)">
       <use xlink:href="#DejaVuSans-31"/>
       <use xlink:href="#DejaVuSans-30" x="63.623047"/>
       <use xlink:href="#DejaVuSans-30" x="127.246094"/>
      </g>
     </g>
    </g>
    <g id="ytick_3">
     <g id="line2d_9">
      <g>
       <use xlink:href="#mb9f13c635a" x="57.6" y="222.949255" style="stroke: #000000; stroke-width: 0.8"/>
      </g>
     </g>
     <g id="text_10">
      <!-- 200 -->
      <g transform="translate(31.5125 226.748474)scale(0.1 -0.1)">
       <use xlink:href="#DejaVuSans-32"/>
       <use xlink:href="#DejaVuSans-30" x="63.623047"/>
       <use xlink:href="#DejaVuSans-30" x="127.246094"/>
      </g>
     </g>
    </g>
    <g id="ytick_4">
     <g id="line2d_10">
      <g>
       <use xlink:href="#mb9f13c635a" x="57.6" y="185.036" style="stroke: #000000; stroke-width: 0.8"/>
      </g>
     </g>
     <g id="text_11">
      <!-- 300 -->
      <g transform="translate(31.5125 188.835218)scale(0.1 -0.1)">
       <defs>
        <path id="DejaVuSans-33" d="M 2597 2516 
Q 3050 2419 3304 2112 
Q 3559 1806 3559 1356 
Q 3559 666 3084 287 
Q 2609 -91 1734 -91 
Q 1441 -91 1130 -33 
Q 819 25 488 141 
L 488 750 
Q 750 597 1062 519 
Q 1375 441 1716 441 
Q 2309 441 2620 675 
Q 2931 909 2931 1356 
Q 2931 1769 2642 2001 
Q 2353 2234 1838 2234 
L 1294 2234 
L 1294 2753 
L 1863 2753 
Q 2328 2753 2575 2939 
Q 2822 3125 2822 3475 
Q 2822 3834 2567 4026 
Q 2313 4219 1838 4219 
Q 1578 4219 1281 4162 
Q 984 4106 628 3988 
L 628 4550 
Q 988 4650 1302 4700 
Q 1616 4750 1894 4750 
Q 2613 4750 3031 4423 
Q 3450 4097 3450 3541 
Q 3450 3153 3228 2886 
Q 3006 2619 2597 2516 
z
" transform="scale(0.015625)"/>
       </defs>
       <use xlink:href="#DejaVuSans-33"/>
       <use xlink:href="#DejaVuSans-30" x="63.623047"/>
       <use xlink:href="#DejaVuSans-30" x="127.246094"/>
      </g>
     </g>
    </g>
    <g id="ytick_5">
     <g id="line2d_11">
      <g>
       <use xlink:href="#mb9f13c635a" x="57.6" y="147.122744" style="stroke: #000000; stroke-width: 0.8"/>
      </g>
     </g>
     <g id="text_12">
      <!-- 400 -->
      <g transform="translate(31.5125 150.921963)scale(0.1 -0.1)">
       <use xlink:href="#DejaVuSans-34"/>
       <use xlink:href="#DejaVuSans-30" x="63.623047"/>
       <use xlink:href="#DejaVuSans-30" x="127.246094"/>
      </g>
     </g>
    </g>
    <g id="ytick_6">
     <g id="line2d_12">
      <g>
       <use xlink:href="#mb9f13c635a" x="57.6" y="109.209488" style="stroke: #000000; stroke-width: 0.8"/>
      </g>
     </g>
     <g id="text_13">
      <!-- 500 -->
      <g transform="translate(31.5125 113.008707)scale(0.1 -0.1)">
       <defs>
        <path id="DejaVuSans-35" d="M 691 4666 
L 3169 4666 
L 3169 4134 
L 1269 4134 
L 1269 2991 
Q 1406 3038 1543 3061 
Q 1681 3084 1819 3084 
Q 2600 3084 3056 2656 
Q 3513 2228 3513 1497 
Q 3513 744 3044 326 
Q 2575 -91 1722 -91 
Q 1428 -91 1123 -41 
Q 819 9 494 109 
L 494 744 
Q 775 591 1075 516 
Q 1375 441 1709 441 
Q 2250 441 2565 725 
Q 2881 1009 2881 1497 
Q 2881 1984 2565 2268 
Q 2250 2553 1709 2553 
Q 1456 2553 1204 2497 
Q 953 2441 691 2322 
L 691 4666 
z
" transform="scale(0.015625)"/>
       </defs>
       <use xlink:href="#DejaVuSans-35"/>
       <use xlink:href="#DejaVuSans-30" x="63.623047"/>
       <use xlink:href="#DejaVuSans-30" x="127.246094"/>
      </g>
     </g>
    </g>
    <g id="ytick_7">
     <g id="line2d_13">
      <g>
       <use xlink:href="#mb9f13c635a" x="57.6" y="71.296233" style="stroke: #000000; stroke-width: 0.8"/>
      </g>
     </g>
     <g id="text_14">
      <!-- 600 -->
      <g transform="translate(31.5125 75.095452)scale(0.1 -0.1)">
       <use xlink:href="#DejaVuSans-36"/>
       <use xlink:href="#DejaVuSans-30" x="63.623047"/>
       <use xlink:href="#DejaVuSans-30" x="127.246094"/>
      </g>
     </g>
    </g>
    <g id="text_15">
     <!-- MSE -->
     <g transform="translate(25.432812 185.175656)rotate(-90)scale(0.1 -0.1)">
      <defs>
       <path id="DejaVuSans-4d" d="M 628 4666 
L 1569 4666 
L 2759 1491 
L 3956 4666 
L 4897 4666 
L 4897 0 
L 4281 0 
L 4281 4097 
L 3078 897 
L 2444 897 
L 1241 4097 
L 1241 0 
L 628 0 
L 628 4666 
z
" transform="scale(0.015625)"/>
       <path id="DejaVuSans-53" d="M 3425 4513 
L 3425 3897 
Q 3066 4069 2747 4153 
Q 2428 4238 2131 4238 
Q 1616 4238 1336 4038 
Q 1056 3838 1056 3469 
Q 1056 3159 1242 3001 
Q 1428 2844 1947 2747 
L 2328 2669 
Q 3034 2534 3370 2195 
Q 3706 1856 3706 1288 
Q 3706 609 3251 259 
Q 2797 -91 1919 -91 
Q 1588 -91 1214 -16 
Q 841 59 441 206 
L 441 856 
Q 825 641 1194 531 
Q 1563 422 1919 422 
Q 2459 422 2753 634 
Q 3047 847 3047 1241 
Q 3047 1584 2836 1778 
Q 2625 1972 2144 2069 
L 1759 2144 
Q 1053 2284 737 2584 
Q 422 2884 422 3419 
Q 422 4038 858 4394 
Q 1294 4750 2059 4750 
Q 2388 4750 2728 4690 
Q 3069 4631 3425 4513 
z
" transform="scale(0.015625)"/>
       <path id="DejaVuSans-45" d="M 628 4666 
L 3578 4666 
L 3578 4134 
L 1259 4134 
L 1259 2753 
L 3481 2753 
L 3481 2222 
L 1259 2222 
L 1259 531 
L 3634 531 
L 3634 0 
L 628 0 
L 628 4666 
z
" transform="scale(0.015625)"/>
      </defs>
      <use xlink:href="#DejaVuSans-4d"/>
      <use xlink:href="#DejaVuSans-53" x="86.279297"/>
      <use xlink:href="#DejaVuSans-45" x="149.755859"/>
     </g>
    </g>
   </g>
   <g id="line2d_14">
    <path d="M 74.918528 295.488 
" clip-path="url(#p99daa35b63)" style="fill: none; stroke: #0000ff; stroke-width: 1.5; stroke-linecap: square"/>
    <defs>
     <path id="mf2bb06331f" d="M 0 3 
C 0.795609 3 1.55874 2.683901 2.12132 2.12132 
C 2.683901 1.55874 3 0.795609 3 0 
C 3 -0.795609 2.683901 -1.55874 2.12132 -2.12132 
C 1.55874 -2.683901 0.795609 -3 0 -3 
C -0.795609 -3 -1.55874 -2.683901 -2.12132 -2.12132 
C -2.683901 -1.55874 -3 -0.795609 -3 0 
C -3 0.795609 -2.683901 1.55874 -2.12132 2.12132 
C -1.55874 2.683901 -0.795609 3 0 3 
z
" style="stroke: #0000ff"/>
    </defs>
    <g clip-path="url(#p99daa35b63)">
     <use xlink:href="#mf2bb06331f" x="74.918528" y="295.488" style="fill: #0000ff; stroke: #0000ff"/>
    </g>
   </g>
   <g id="line2d_15">
    <path d="M 398.487273 186.48929 
" clip-path="url(#p99daa35b63)" style="fill: none; stroke: #0000ff; stroke-width: 1.5; stroke-linecap: square"/>
    <g clip-path="url(#p99daa35b63)">
     <use xlink:href="#mf2bb06331f" x="398.487273" y="186.48929" style="fill: #0000ff; stroke: #0000ff"/>
    </g>
   </g>
   <g id="line2d_16">
    <path d="M 73.832727 53.568 
" clip-path="url(#p99daa35b63)" style="fill: none; stroke: #0000ff; stroke-width: 1.5; stroke-linecap: square"/>
    <g clip-path="url(#p99daa35b63)">
     <use xlink:href="#mf2bb06331f" x="73.832727" y="53.568" style="fill: #0000ff; stroke: #0000ff"/>
    </g>
   </g>
   <g id="line2d_17">
    <path d="M 73.832727 53.568 
L 74.918528 295.488 
L 76.00433 292.753521 
L 77.090131 284.480751 
L 79.261733 257.083485 
L 80.347534 250.907649 
L 81.433335 236.350246 
L 83.604938 215.506864 
L 84.690739 208.991534 
L 85.77654 199.075001 
L 86.862341 196.003346 
L 87.948142 191.932587 
L 89.033943 183.126518 
L 90.119745 179.71408 
L 91.205546 174.987661 
L 92.291347 173.346832 
L 94.462949 161.479712 
L 95.54875 159.770521 
L 97.720353 161.644182 
L 98.806154 158.267195 
L 99.891955 155.450722 
L 100.977756 152.275189 
L 102.063557 151.079307 
L 103.149358 150.303243 
L 106.406762 148.553487 
L 107.492563 146.827578 
L 108.578364 147.725771 
L 109.664165 145.671068 
L 110.749967 146.436198 
L 111.835768 146.04069 
L 112.921569 148.001898 
L 114.00737 146.060123 
L 115.093171 143.617737 
L 116.178972 144.925383 
L 117.264773 143.577894 
L 118.350575 143.910446 
L 119.436376 141.730522 
L 120.522177 142.848799 
L 121.607978 145.989775 
L 122.693779 145.777572 
L 123.77958 147.67081 
L 124.865382 148.364366 
L 125.951183 149.384312 
L 127.036984 149.658481 
L 128.122785 147.309425 
L 130.294387 150.783704 
L 131.380189 151.108825 
L 132.46599 148.28985 
L 133.551791 148.523594 
L 134.637592 149.19832 
L 135.723393 148.828927 
L 136.809194 146.60663 
L 137.894995 146.876523 
L 140.066598 149.072973 
L 141.152399 149.718996 
L 142.2382 152.983032 
L 143.324001 154.657425 
L 144.409802 154.247683 
L 146.581405 151.297954 
L 147.667206 151.7262 
L 148.753007 151.477906 
L 149.838808 151.398644 
L 150.924609 151.070151 
L 152.01041 150.435082 
L 153.096212 147.971653 
L 154.182013 146.547635 
L 155.267814 145.726977 
L 156.353615 145.520587 
L 157.439416 146.703913 
L 158.525217 147.11395 
L 159.611019 150.127893 
L 160.69682 152.503082 
L 161.782621 153.239508 
L 162.868422 153.062065 
L 165.040024 154.860969 
L 166.125825 156.236545 
L 167.211627 154.9815 
L 168.297428 156.215268 
L 169.383229 155.083594 
L 170.46903 155.044391 
L 171.554831 153.784586 
L 172.640632 153.367734 
L 173.726434 154.93488 
L 174.812235 155.781167 
L 175.898036 156.429396 
L 176.983837 154.332727 
L 178.069638 152.988437 
L 179.155439 152.993119 
L 180.24124 152.824228 
L 181.327042 153.434671 
L 182.412843 153.137367 
L 183.498644 153.163517 
L 184.584445 152.042536 
L 185.670246 153.377396 
L 186.756047 152.601564 
L 187.841849 152.266667 
L 190.013451 153.95822 
L 191.099252 151.992392 
L 192.185053 152.530125 
L 193.270854 154.478193 
L 195.442457 154.443472 
L 196.528258 154.730467 
L 197.614059 154.238576 
L 199.785661 153.751144 
L 200.871462 154.312079 
L 201.957264 154.437804 
L 203.043065 154.913788 
L 204.128866 154.252543 
L 205.214667 155.878375 
L 206.300468 155.058134 
L 208.472071 151.984036 
L 209.557872 151.910189 
L 210.643673 152.6883 
L 211.729474 152.518329 
L 212.815275 153.609426 
L 213.901076 156.767217 
L 214.986877 156.618604 
L 216.072679 160.057746 
L 217.15848 160.057746 
L 218.244281 161.12027 
L 219.330082 160.897944 
L 221.501684 160.901198 
L 222.587486 159.995233 
L 223.673287 161.425932 
L 224.759088 162.218413 
L 225.844889 162.493976 
L 226.93069 162.890968 
L 228.016491 164.891519 
L 229.102292 164.242314 
L 230.188094 164.480809 
L 231.273895 163.027038 
L 232.359696 162.487924 
L 233.445497 160.447452 
L 234.531298 161.42157 
L 235.617099 159.517437 
L 236.702901 158.482542 
L 237.788702 158.594467 
L 238.874503 158.594467 
L 241.046105 160.203423 
L 242.131906 159.597413 
L 243.217708 160.568333 
L 244.303509 160.001944 
L 245.38931 159.821919 
L 246.475111 159.419776 
L 247.560912 158.853881 
L 249.732514 159.60697 
L 250.818316 159.328556 
L 251.904117 156.758701 
L 254.075719 156.738478 
L 255.16152 156.555696 
L 256.247321 157.02054 
L 258.418924 157.02054 
L 259.504725 157.276941 
L 260.590526 157.276941 
L 261.676327 157.438012 
L 262.762128 156.816496 
L 263.847929 156.816496 
L 264.933731 156.951302 
L 267.105333 156.951302 
L 268.191134 158.57725 
L 269.276935 158.57725 
L 270.362736 159.274811 
L 272.534339 159.274811 
L 273.62014 159.696802 
L 274.705941 162.055944 
L 275.791742 163.009929 
L 276.877543 162.214795 
L 277.963344 162.429756 
L 279.049146 162.429756 
L 280.134947 163.121793 
L 281.220748 163.121793 
L 282.306549 164.280907 
L 283.39235 164.041239 
L 284.478151 164.915955 
L 285.563953 164.766526 
L 288.821356 164.766526 
L 289.907157 164.965727 
L 290.992958 164.965727 
L 292.07876 166.286002 
L 293.164561 166.326905 
L 294.250362 165.473725 
L 297.507765 165.473725 
L 298.593566 165.23664 
L 299.679368 167.21938 
L 300.765169 168.773964 
L 301.85097 168.773964 
L 302.936771 170.316984 
L 304.022572 170.316984 
L 305.108373 168.137714 
L 306.194175 168.530176 
L 307.279976 168.708373 
L 308.365777 168.708373 
L 309.451578 168.436236 
L 310.537379 169.620853 
L 311.62318 168.900871 
L 312.708981 168.900871 
L 313.794783 168.323296 
L 314.880584 168.799521 
L 317.052186 168.72153 
L 319.223788 171.039336 
L 320.30959 171.039336 
L 321.395391 171.626267 
L 323.566993 172.35401 
L 324.652794 172.423841 
L 325.738595 174.274066 
L 326.824396 174.274066 
L 327.910198 174.616309 
L 328.995999 176.09449 
L 330.0818 176.09449 
L 331.167601 176.747394 
L 332.253402 177.063836 
L 333.339203 178.513109 
L 334.425005 179.645938 
L 335.510806 179.479513 
L 336.596607 179.479513 
L 337.682408 179.785827 
L 342.025613 179.791984 
L 343.111414 180.920434 
L 344.197215 180.484888 
L 345.283016 181.405017 
L 346.368817 183.142835 
L 348.54042 183.154541 
L 349.626221 183.741167 
L 350.712022 184.056162 
L 351.797823 184.583769 
L 352.883624 185.683236 
L 355.055227 185.683236 
L 356.141028 186.560356 
L 357.226829 185.552887 
L 358.31263 185.552887 
L 359.398431 184.530291 
L 361.570033 184.530291 
L 362.655835 184.005397 
L 363.741636 183.247962 
L 364.827437 183.362533 
L 365.913238 183.155143 
L 366.999039 182.370348 
L 368.08484 182.151006 
L 370.256443 182.071461 
L 371.342244 182.349099 
L 372.428045 181.265778 
L 373.513846 181.536688 
L 374.599647 181.536688 
L 375.685448 182.675824 
L 376.77125 182.940952 
L 377.857051 182.716321 
L 380.028653 184.977615 
L 381.114454 184.977615 
L 382.200255 184.837421 
L 383.286057 185.099927 
L 384.371858 184.272107 
L 385.457659 185.403726 
L 386.54346 183.893238 
L 388.715062 183.920205 
L 389.800863 185.054442 
L 390.886665 185.507586 
L 391.972466 187.756152 
L 394.144068 187.756152 
L 395.229869 186.918038 
L 397.401472 186.918038 
L 398.487273 186.48929 
L 398.487273 186.48929 
" clip-path="url(#p99daa35b63)" style="fill: none; stroke: #1f77b4; stroke-width: 2; stroke-linecap: square"/>
   </g>
   <g id="patch_3">
    <path d="M 57.6 307.584 
L 57.6 41.472 
" style="fill: none; stroke: #000000; stroke-width: 0.8; stroke-linejoin: miter; stroke-linecap: square"/>
   </g>
   <g id="patch_4">
    <path d="M 414.72 307.584 
L 414.72 41.472 
" style="fill: none; stroke: #000000; stroke-width: 0.8; stroke-linejoin: miter; stroke-linecap: square"/>
   </g>
   <g id="patch_5">
    <path d="M 57.6 307.584 
L 414.72 307.584 
" style="fill: none; stroke: #000000; stroke-width: 0.8; stroke-linejoin: miter; stroke-linecap: square"/>
   </g>
   <g id="patch_6">
    <path d="M 57.6 41.472 
L 414.72 41.472 
" style="fill: none; stroke: #000000; stroke-width: 0.8; stroke-linejoin: miter; stroke-linecap: square"/>
   </g>
   <g id="text_16">
    <!-- (334.44816053511704, 8.672) -->
    <g transform="translate(74.918528 295.488)scale(0.12 -0.12)">
     <defs>
      <path id="DejaVuSans-28" d="M 1984 4856 
Q 1566 4138 1362 3434 
Q 1159 2731 1159 2009 
Q 1159 1288 1364 580 
Q 1569 -128 1984 -844 
L 1484 -844 
Q 1016 -109 783 600 
Q 550 1309 550 2009 
Q 550 2706 781 3412 
Q 1013 4119 1484 4856 
L 1984 4856 
z
" transform="scale(0.015625)"/>
      <path id="DejaVuSans-2e" d="M 684 794 
L 1344 794 
L 1344 0 
L 684 0 
L 684 794 
z
" transform="scale(0.015625)"/>
      <path id="DejaVuSans-37" d="M 525 4666 
L 3525 4666 
L 3525 4397 
L 1831 0 
L 1172 0 
L 2766 4134 
L 525 4134 
L 525 4666 
z
" transform="scale(0.015625)"/>
      <path id="DejaVuSans-2c" d="M 750 794 
L 1409 794 
L 1409 256 
L 897 -744 
L 494 -744 
L 750 256 
L 750 794 
z
" transform="scale(0.015625)"/>
      <path id="DejaVuSans-20" transform="scale(0.015625)"/>
      <path id="DejaVuSans-29" d="M 513 4856 
L 1013 4856 
Q 1481 4119 1714 3412 
Q 1947 2706 1947 2009 
Q 1947 1309 1714 600 
Q 1481 -109 1013 -844 
L 513 -844 
Q 928 -128 1133 580 
Q 1338 1288 1338 2009 
Q 1338 2731 1133 3434 
Q 928 4138 513 4856 
z
" transform="scale(0.015625)"/>
     </defs>
     <use xlink:href="#DejaVuSans-28"/>
     <use xlink:href="#DejaVuSans-33" x="39.013672"/>
     <use xlink:href="#DejaVuSans-33" x="102.636719"/>
     <use xlink:href="#DejaVuSans-34" x="166.259766"/>
     <use xlink:href="#DejaVuSans-2e" x="229.882812"/>
     <use xlink:href="#DejaVuSans-34" x="261.669922"/>
     <use xlink:href="#DejaVuSans-34" x="325.292969"/>
     <use xlink:href="#DejaVuSans-38" x="388.916016"/>
     <use xlink:href="#DejaVuSans-31" x="452.539062"/>
     <use xlink:href="#DejaVuSans-36" x="516.162109"/>
     <use xlink:href="#DejaVuSans-30" x="579.785156"/>
     <use xlink:href="#DejaVuSans-35" x="643.408203"/>
     <use xlink:href="#DejaVuSans-33" x="707.03125"/>
     <use xlink:href="#DejaVuSans-35" x="770.654297"/>
     <use xlink:href="#DejaVuSans-31" x="834.277344"/>
     <use xlink:href="#DejaVuSans-31" x="897.900391"/>
     <use xlink:href="#DejaVuSans-37" x="961.523438"/>
     <use xlink:href="#DejaVuSans-30" x="1025.146484"/>
     <use xlink:href="#DejaVuSans-34" x="1088.769531"/>
     <use xlink:href="#DejaVuSans-2c" x="1152.392578"/>
     <use xlink:href="#DejaVuSans-20" x="1184.179688"/>
     <use xlink:href="#DejaVuSans-38" x="1215.966797"/>
     <use xlink:href="#DejaVuSans-2e" x="1279.589844"/>
     <use xlink:href="#DejaVuSans-36" x="1311.376953"/>
     <use xlink:href="#DejaVuSans-37" x="1375"/>
     <use xlink:href="#DejaVuSans-32" x="1438.623047"/>
     <use xlink:href="#DejaVuSans-29" x="1502.246094"/>
    </g>
   </g>
   <g id="text_17">
    <!-- (100000.0, 296.167) -->
    <g transform="translate(274.613523 186.48929)scale(0.12 -0.12)">
     <defs>
      <path id="DejaVuSans-39" d="M 703 97 
L 703 672 
Q 941 559 1184 500 
Q 1428 441 1663 441 
Q 2288 441 2617 861 
Q 2947 1281 2994 2138 
Q 2813 1869 2534 1725 
Q 2256 1581 1919 1581 
Q 1219 1581 811 2004 
Q 403 2428 403 3163 
Q 403 3881 828 4315 
Q 1253 4750 1959 4750 
Q 2769 4750 3195 4129 
Q 3622 3509 3622 2328 
Q 3622 1225 3098 567 
Q 2575 -91 1691 -91 
Q 1453 -91 1209 -44 
Q 966 3 703 97 
z
M 1959 2075 
Q 2384 2075 2632 2365 
Q 2881 2656 2881 3163 
Q 2881 3666 2632 3958 
Q 2384 4250 1959 4250 
Q 1534 4250 1286 3958 
Q 1038 3666 1038 3163 
Q 1038 2656 1286 2365 
Q 1534 2075 1959 2075 
z
" transform="scale(0.015625)"/>
     </defs>
     <use xlink:href="#DejaVuSans-28"/>
     <use xlink:href="#DejaVuSans-31" x="39.013672"/>
     <use xlink:href="#DejaVuSans-30" x="102.636719"/>
     <use xlink:href="#DejaVuSans-30" x="166.259766"/>
     <use xlink:href="#DejaVuSans-30" x="229.882812"/>
     <use xlink:href="#DejaVuSans-30" x="293.505859"/>
     <use xlink:href="#DejaVuSans-30" x="357.128906"/>
     <use xlink:href="#DejaVuSans-2e" x="420.751953"/>
     <use xlink:href="#DejaVuSans-30" x="452.539062"/>
     <use xlink:href="#DejaVuSans-2c" x="516.162109"/>
     <use xlink:href="#DejaVuSans-20" x="547.949219"/>
     <use xlink:href="#DejaVuSans-32" x="579.736328"/>
     <use xlink:href="#DejaVuSans-39" x="643.359375"/>
     <use xlink:href="#DejaVuSans-36" x="706.982422"/>
     <use xlink:href="#DejaVuSans-2e" x="770.605469"/>
     <use xlink:href="#DejaVuSans-31" x="802.392578"/>
     <use xlink:href="#DejaVuSans-36" x="866.015625"/>
     <use xlink:href="#DejaVuSans-37" x="929.638672"/>
     <use xlink:href="#DejaVuSans-29" x="993.261719"/>
    </g>
   </g>
   <g id="text_18">
    <!-- (0.0, 646.76) -->
    <g transform="translate(73.832727 53.568)scale(0.12 -0.12)">
     <use xlink:href="#DejaVuSans-28"/>
     <use xlink:href="#DejaVuSans-30" x="39.013672"/>
     <use xlink:href="#DejaVuSans-2e" x="102.636719"/>
     <use xlink:href="#DejaVuSans-30" x="134.423828"/>
     <use xlink:href="#DejaVuSans-2c" x="198.046875"/>
     <use xlink:href="#DejaVuSans-20" x="229.833984"/>
     <use xlink:href="#DejaVuSans-36" x="261.621094"/>
     <use xlink:href="#DejaVuSans-34" x="325.244141"/>
     <use xlink:href="#DejaVuSans-36" x="388.867188"/>
     <use xlink:href="#DejaVuSans-2e" x="452.490234"/>
     <use xlink:href="#DejaVuSans-37" x="484.277344"/>
     <use xlink:href="#DejaVuSans-36" x="547.900391"/>
     <use xlink:href="#DejaVuSans-29" x="611.523438"/>
    </g>
   </g>
   <g id="text_19">
    <!-- The effects of varying CV of $R_m$ on mean-squared error (MSE) -->
    <g transform="translate(51.42 35.472)scale(0.12 -0.12)">
     <defs>
      <path id="DejaVuSans-54" d="M -19 4666 
L 3928 4666 
L 3928 4134 
L 2272 4134 
L 2272 0 
L 1638 0 
L 1638 4134 
L -19 4134 
L -19 4666 
z
" transform="scale(0.015625)"/>
      <path id="DejaVuSans-68" d="M 3513 2113 
L 3513 0 
L 2938 0 
L 2938 2094 
Q 2938 2591 2744 2837 
Q 2550 3084 2163 3084 
Q 1697 3084 1428 2787 
Q 1159 2491 1159 1978 
L 1159 0 
L 581 0 
L 581 4863 
L 1159 4863 
L 1159 2956 
Q 1366 3272 1645 3428 
Q 1925 3584 2291 3584 
Q 2894 3584 3203 3211 
Q 3513 2838 3513 2113 
z
" transform="scale(0.015625)"/>
      <path id="DejaVuSans-65" d="M 3597 1894 
L 3597 1613 
L 953 1613 
Q 991 1019 1311 708 
Q 1631 397 2203 397 
Q 2534 397 2845 478 
Q 3156 559 3463 722 
L 3463 178 
Q 3153 47 2828 -22 
Q 2503 -91 2169 -91 
Q 1331 -91 842 396 
Q 353 884 353 1716 
Q 353 2575 817 3079 
Q 1281 3584 2069 3584 
Q 2775 3584 3186 3129 
Q 3597 2675 3597 1894 
z
M 3022 2063 
Q 3016 2534 2758 2815 
Q 2500 3097 2075 3097 
Q 1594 3097 1305 2825 
Q 1016 2553 972 2059 
L 3022 2063 
z
" transform="scale(0.015625)"/>
      <path id="DejaVuSans-66" d="M 2375 4863 
L 2375 4384 
L 1825 4384 
Q 1516 4384 1395 4259 
Q 1275 4134 1275 3809 
L 1275 3500 
L 2222 3500 
L 2222 3053 
L 1275 3053 
L 1275 0 
L 697 0 
L 697 3053 
L 147 3053 
L 147 3500 
L 697 3500 
L 697 3744 
Q 697 4328 969 4595 
Q 1241 4863 1831 4863 
L 2375 4863 
z
" transform="scale(0.015625)"/>
      <path id="DejaVuSans-63" d="M 3122 3366 
L 3122 2828 
Q 2878 2963 2633 3030 
Q 2388 3097 2138 3097 
Q 1578 3097 1268 2742 
Q 959 2388 959 1747 
Q 959 1106 1268 751 
Q 1578 397 2138 397 
Q 2388 397 2633 464 
Q 2878 531 3122 666 
L 3122 134 
Q 2881 22 2623 -34 
Q 2366 -91 2075 -91 
Q 1284 -91 818 406 
Q 353 903 353 1747 
Q 353 2603 823 3093 
Q 1294 3584 2113 3584 
Q 2378 3584 2631 3529 
Q 2884 3475 3122 3366 
z
" transform="scale(0.015625)"/>
      <path id="DejaVuSans-74" d="M 1172 4494 
L 1172 3500 
L 2356 3500 
L 2356 3053 
L 1172 3053 
L 1172 1153 
Q 1172 725 1289 603 
Q 1406 481 1766 481 
L 2356 481 
L 2356 0 
L 1766 0 
Q 1100 0 847 248 
Q 594 497 594 1153 
L 594 3053 
L 172 3053 
L 172 3500 
L 594 3500 
L 594 4494 
L 1172 4494 
z
" transform="scale(0.015625)"/>
      <path id="DejaVuSans-73" d="M 2834 3397 
L 2834 2853 
Q 2591 2978 2328 3040 
Q 2066 3103 1784 3103 
Q 1356 3103 1142 2972 
Q 928 2841 928 2578 
Q 928 2378 1081 2264 
Q 1234 2150 1697 2047 
L 1894 2003 
Q 2506 1872 2764 1633 
Q 3022 1394 3022 966 
Q 3022 478 2636 193 
Q 2250 -91 1575 -91 
Q 1294 -91 989 -36 
Q 684 19 347 128 
L 347 722 
Q 666 556 975 473 
Q 1284 391 1588 391 
Q 1994 391 2212 530 
Q 2431 669 2431 922 
Q 2431 1156 2273 1281 
Q 2116 1406 1581 1522 
L 1381 1569 
Q 847 1681 609 1914 
Q 372 2147 372 2553 
Q 372 3047 722 3315 
Q 1072 3584 1716 3584 
Q 2034 3584 2315 3537 
Q 2597 3491 2834 3397 
z
" transform="scale(0.015625)"/>
      <path id="DejaVuSans-6f" d="M 1959 3097 
Q 1497 3097 1228 2736 
Q 959 2375 959 1747 
Q 959 1119 1226 758 
Q 1494 397 1959 397 
Q 2419 397 2687 759 
Q 2956 1122 2956 1747 
Q 2956 2369 2687 2733 
Q 2419 3097 1959 3097 
z
M 1959 3584 
Q 2709 3584 3137 3096 
Q 3566 2609 3566 1747 
Q 3566 888 3137 398 
Q 2709 -91 1959 -91 
Q 1206 -91 779 398 
Q 353 888 353 1747 
Q 353 2609 779 3096 
Q 1206 3584 1959 3584 
z
" transform="scale(0.015625)"/>
      <path id="DejaVuSans-76" d="M 191 3500 
L 800 3500 
L 1894 563 
L 2988 3500 
L 3597 3500 
L 2284 0 
L 1503 0 
L 191 3500 
z
" transform="scale(0.015625)"/>
      <path id="DejaVuSans-61" d="M 2194 1759 
Q 1497 1759 1228 1600 
Q 959 1441 959 1056 
Q 959 750 1161 570 
Q 1363 391 1709 391 
Q 2188 391 2477 730 
Q 2766 1069 2766 1631 
L 2766 1759 
L 2194 1759 
z
M 3341 1997 
L 3341 0 
L 2766 0 
L 2766 531 
Q 2569 213 2275 61 
Q 1981 -91 1556 -91 
Q 1019 -91 701 211 
Q 384 513 384 1019 
Q 384 1609 779 1909 
Q 1175 2209 1959 2209 
L 2766 2209 
L 2766 2266 
Q 2766 2663 2505 2880 
Q 2244 3097 1772 3097 
Q 1472 3097 1187 3025 
Q 903 2953 641 2809 
L 641 3341 
Q 956 3463 1253 3523 
Q 1550 3584 1831 3584 
Q 2591 3584 2966 3190 
Q 3341 2797 3341 1997 
z
" transform="scale(0.015625)"/>
      <path id="DejaVuSans-72" d="M 2631 2963 
Q 2534 3019 2420 3045 
Q 2306 3072 2169 3072 
Q 1681 3072 1420 2755 
Q 1159 2438 1159 1844 
L 1159 0 
L 581 0 
L 581 3500 
L 1159 3500 
L 1159 2956 
Q 1341 3275 1631 3429 
Q 1922 3584 2338 3584 
Q 2397 3584 2469 3576 
Q 2541 3569 2628 3553 
L 2631 2963 
z
" transform="scale(0.015625)"/>
      <path id="DejaVuSans-79" d="M 2059 -325 
Q 1816 -950 1584 -1140 
Q 1353 -1331 966 -1331 
L 506 -1331 
L 506 -850 
L 844 -850 
Q 1081 -850 1212 -737 
Q 1344 -625 1503 -206 
L 1606 56 
L 191 3500 
L 800 3500 
L 1894 763 
L 2988 3500 
L 3597 3500 
L 2059 -325 
z
" transform="scale(0.015625)"/>
      <path id="DejaVuSans-69" d="M 603 3500 
L 1178 3500 
L 1178 0 
L 603 0 
L 603 3500 
z
M 603 4863 
L 1178 4863 
L 1178 4134 
L 603 4134 
L 603 4863 
z
" transform="scale(0.015625)"/>
      <path id="DejaVuSans-6e" d="M 3513 2113 
L 3513 0 
L 2938 0 
L 2938 2094 
Q 2938 2591 2744 2837 
Q 2550 3084 2163 3084 
Q 1697 3084 1428 2787 
Q 1159 2491 1159 1978 
L 1159 0 
L 581 0 
L 581 3500 
L 1159 3500 
L 1159 2956 
Q 1366 3272 1645 3428 
Q 1925 3584 2291 3584 
Q 2894 3584 3203 3211 
Q 3513 2838 3513 2113 
z
" transform="scale(0.015625)"/>
      <path id="DejaVuSans-67" d="M 2906 1791 
Q 2906 2416 2648 2759 
Q 2391 3103 1925 3103 
Q 1463 3103 1205 2759 
Q 947 2416 947 1791 
Q 947 1169 1205 825 
Q 1463 481 1925 481 
Q 2391 481 2648 825 
Q 2906 1169 2906 1791 
z
M 3481 434 
Q 3481 -459 3084 -895 
Q 2688 -1331 1869 -1331 
Q 1566 -1331 1297 -1286 
Q 1028 -1241 775 -1147 
L 775 -588 
Q 1028 -725 1275 -790 
Q 1522 -856 1778 -856 
Q 2344 -856 2625 -561 
Q 2906 -266 2906 331 
L 2906 616 
Q 2728 306 2450 153 
Q 2172 0 1784 0 
Q 1141 0 747 490 
Q 353 981 353 1791 
Q 353 2603 747 3093 
Q 1141 3584 1784 3584 
Q 2172 3584 2450 3431 
Q 2728 3278 2906 2969 
L 2906 3500 
L 3481 3500 
L 3481 434 
z
" transform="scale(0.015625)"/>
      <path id="DejaVuSans-Oblique-52" d="M 1613 4147 
L 1294 2491 
L 2106 2491 
Q 2584 2491 2879 2755 
Q 3175 3019 3175 3444 
Q 3175 3784 2976 3965 
Q 2778 4147 2406 4147 
L 1613 4147 
z
M 2772 2241 
Q 2972 2194 3105 2009 
Q 3238 1825 3413 1275 
L 3809 0 
L 3144 0 
L 2778 1197 
Q 2638 1659 2453 1815 
Q 2269 1972 1888 1972 
L 1191 1972 
L 806 0 
L 172 0 
L 1081 4666 
L 2503 4666 
Q 3150 4666 3495 4373 
Q 3841 4081 3841 3531 
Q 3841 3044 3547 2687 
Q 3253 2331 2772 2241 
z
" transform="scale(0.015625)"/>
      <path id="DejaVuSans-Oblique-6d" d="M 5747 2113 
L 5338 0 
L 4763 0 
L 5166 2094 
Q 5191 2228 5203 2325 
Q 5216 2422 5216 2491 
Q 5216 2772 5059 2928 
Q 4903 3084 4622 3084 
Q 4203 3084 3875 2770 
Q 3547 2456 3450 1953 
L 3066 0 
L 2491 0 
L 2900 2094 
Q 2925 2209 2937 2307 
Q 2950 2406 2950 2484 
Q 2950 2769 2794 2926 
Q 2638 3084 2363 3084 
Q 1938 3084 1609 2770 
Q 1281 2456 1184 1953 
L 800 0 
L 225 0 
L 909 3500 
L 1484 3500 
L 1375 2956 
Q 1609 3263 1923 3423 
Q 2238 3584 2597 3584 
Q 2978 3584 3223 3384 
Q 3469 3184 3519 2828 
Q 3781 3197 4126 3390 
Q 4472 3584 4856 3584 
Q 5306 3584 5551 3325 
Q 5797 3066 5797 2591 
Q 5797 2488 5784 2364 
Q 5772 2241 5747 2113 
z
" transform="scale(0.015625)"/>
      <path id="DejaVuSans-6d" d="M 3328 2828 
Q 3544 3216 3844 3400 
Q 4144 3584 4550 3584 
Q 5097 3584 5394 3201 
Q 5691 2819 5691 2113 
L 5691 0 
L 5113 0 
L 5113 2094 
Q 5113 2597 4934 2840 
Q 4756 3084 4391 3084 
Q 3944 3084 3684 2787 
Q 3425 2491 3425 1978 
L 3425 0 
L 2847 0 
L 2847 2094 
Q 2847 2600 2669 2842 
Q 2491 3084 2119 3084 
Q 1678 3084 1418 2786 
Q 1159 2488 1159 1978 
L 1159 0 
L 581 0 
L 581 3500 
L 1159 3500 
L 1159 2956 
Q 1356 3278 1631 3431 
Q 1906 3584 2284 3584 
Q 2666 3584 2933 3390 
Q 3200 3197 3328 2828 
z
" transform="scale(0.015625)"/>
      <path id="DejaVuSans-2d" d="M 313 2009 
L 1997 2009 
L 1997 1497 
L 313 1497 
L 313 2009 
z
" transform="scale(0.015625)"/>
      <path id="DejaVuSans-71" d="M 947 1747 
Q 947 1113 1208 752 
Q 1469 391 1925 391 
Q 2381 391 2643 752 
Q 2906 1113 2906 1747 
Q 2906 2381 2643 2742 
Q 2381 3103 1925 3103 
Q 1469 3103 1208 2742 
Q 947 2381 947 1747 
z
M 2906 525 
Q 2725 213 2448 61 
Q 2172 -91 1784 -91 
Q 1150 -91 751 415 
Q 353 922 353 1747 
Q 353 2572 751 3078 
Q 1150 3584 1784 3584 
Q 2172 3584 2448 3432 
Q 2725 3281 2906 2969 
L 2906 3500 
L 3481 3500 
L 3481 -1331 
L 2906 -1331 
L 2906 525 
z
" transform="scale(0.015625)"/>
      <path id="DejaVuSans-75" d="M 544 1381 
L 544 3500 
L 1119 3500 
L 1119 1403 
Q 1119 906 1312 657 
Q 1506 409 1894 409 
Q 2359 409 2629 706 
Q 2900 1003 2900 1516 
L 2900 3500 
L 3475 3500 
L 3475 0 
L 2900 0 
L 2900 538 
Q 2691 219 2414 64 
Q 2138 -91 1772 -91 
Q 1169 -91 856 284 
Q 544 659 544 1381 
z
M 1991 3584 
L 1991 3584 
z
" transform="scale(0.015625)"/>
      <path id="DejaVuSans-64" d="M 2906 2969 
L 2906 4863 
L 3481 4863 
L 3481 0 
L 2906 0 
L 2906 525 
Q 2725 213 2448 61 
Q 2172 -91 1784 -91 
Q 1150 -91 751 415 
Q 353 922 353 1747 
Q 353 2572 751 3078 
Q 1150 3584 1784 3584 
Q 2172 3584 2448 3432 
Q 2725 3281 2906 2969 
z
M 947 1747 
Q 947 1113 1208 752 
Q 1469 391 1925 391 
Q 2381 391 2643 752 
Q 2906 1113 2906 1747 
Q 2906 2381 2643 2742 
Q 2381 3103 1925 3103 
Q 1469 3103 1208 2742 
Q 947 2381 947 1747 
z
" transform="scale(0.015625)"/>
     </defs>
     <use xlink:href="#DejaVuSans-54" transform="translate(0 0.015625)"/>
     <use xlink:href="#DejaVuSans-68" transform="translate(61.083984 0.015625)"/>
     <use xlink:href="#DejaVuSans-65" transform="translate(124.462891 0.015625)"/>
     <use xlink:href="#DejaVuSans-20" transform="translate(185.986328 0.015625)"/>
     <use xlink:href="#DejaVuSans-65" transform="translate(217.773438 0.015625)"/>
     <use xlink:href="#DejaVuSans-66" transform="translate(279.296875 0.015625)"/>
     <use xlink:href="#DejaVuSans-66" transform="translate(314.501953 0.015625)"/>
     <use xlink:href="#DejaVuSans-65" transform="translate(349.707031 0.015625)"/>
     <use xlink:href="#DejaVuSans-63" transform="translate(411.230469 0.015625)"/>
     <use xlink:href="#DejaVuSans-74" transform="translate(466.210938 0.015625)"/>
     <use xlink:href="#DejaVuSans-73" transform="translate(505.419922 0.015625)"/>
     <use xlink:href="#DejaVuSans-20" transform="translate(557.519531 0.015625)"/>
     <use xlink:href="#DejaVuSans-6f" transform="translate(589.306641 0.015625)"/>
     <use xlink:href="#DejaVuSans-66" transform="translate(650.488281 0.015625)"/>
     <use xlink:href="#DejaVuSans-20" transform="translate(685.693359 0.015625)"/>
     <use xlink:href="#DejaVuSans-76" transform="translate(717.480469 0.015625)"/>
     <use xlink:href="#DejaVuSans-61" transform="translate(776.660156 0.015625)"/>
     <use xlink:href="#DejaVuSans-72" transform="translate(837.939453 0.015625)"/>
     <use xlink:href="#DejaVuSans-79" transform="translate(879.052734 0.015625)"/>
     <use xlink:href="#DejaVuSans-69" transform="translate(938.232422 0.015625)"/>
     <use xlink:href="#DejaVuSans-6e" transform="translate(966.015625 0.015625)"/>
     <use xlink:href="#DejaVuSans-67" transform="translate(1029.394531 0.015625)"/>
     <use xlink:href="#DejaVuSans-20" transform="translate(1092.871094 0.015625)"/>
     <use xlink:href="#DejaVuSans-43" transform="translate(1124.658203 0.015625)"/>
     <use xlink:href="#DejaVuSans-56" transform="translate(1194.482422 0.015625)"/>
     <use xlink:href="#DejaVuSans-20" transform="translate(1262.890625 0.015625)"/>
     <use xlink:href="#DejaVuSans-6f" transform="translate(1294.677734 0.015625)"/>
     <use xlink:href="#DejaVuSans-66" transform="translate(1355.859375 0.015625)"/>
     <use xlink:href="#DejaVuSans-20" transform="translate(1391.064453 0.015625)"/>
     <use xlink:href="#DejaVuSans-Oblique-52" transform="translate(1422.851562 0.015625)"/>
     <use xlink:href="#DejaVuSans-Oblique-6d" transform="translate(1492.333984 -16.390625)scale(0.7)"/>
     <use xlink:href="#DejaVuSans-20" transform="translate(1563.256836 0.015625)"/>
     <use xlink:href="#DejaVuSans-6f" transform="translate(1595.043945 0.015625)"/>
     <use xlink:href="#DejaVuSans-6e" transform="translate(1656.225586 0.015625)"/>
     <use xlink:href="#DejaVuSans-20" transform="translate(1719.604492 0.015625)"/>
     <use xlink:href="#DejaVuSans-6d" transform="translate(1751.391602 0.015625)"/>
     <use xlink:href="#DejaVuSans-65" transform="translate(1848.803711 0.015625)"/>
     <use xlink:href="#DejaVuSans-61" transform="translate(1910.327148 0.015625)"/>
     <use xlink:href="#DejaVuSans-6e" transform="translate(1971.606445 0.015625)"/>
     <use xlink:href="#DejaVuSans-2d" transform="translate(2034.985352 0.015625)"/>
     <use xlink:href="#DejaVuSans-73" transform="translate(2071.069336 0.015625)"/>
     <use xlink:href="#DejaVuSans-71" transform="translate(2123.168945 0.015625)"/>
     <use xlink:href="#DejaVuSans-75" transform="translate(2186.645508 0.015625)"/>
     <use xlink:href="#DejaVuSans-61" transform="translate(2250.024414 0.015625)"/>
     <use xlink:href="#DejaVuSans-72" transform="translate(2311.303711 0.015625)"/>
     <use xlink:href="#DejaVuSans-65" transform="translate(2352.416992 0.015625)"/>
     <use xlink:href="#DejaVuSans-64" transform="translate(2413.94043 0.015625)"/>
     <use xlink:href="#DejaVuSans-20" transform="translate(2477.416992 0.015625)"/>
     <use xlink:href="#DejaVuSans-65" transform="translate(2509.204102 0.015625)"/>
     <use xlink:href="#DejaVuSans-72" transform="translate(2570.727539 0.015625)"/>
     <use xlink:href="#DejaVuSans-72" transform="translate(2611.84082 0.015625)"/>
     <use xlink:href="#DejaVuSans-6f" transform="translate(2652.954102 0.015625)"/>
     <use xlink:href="#DejaVuSans-72" transform="translate(2714.135742 0.015625)"/>
     <use xlink:href="#DejaVuSans-20" transform="translate(2755.249023 0.015625)"/>
     <use xlink:href="#DejaVuSans-28" transform="translate(2787.036133 0.015625)"/>
     <use xlink:href="#DejaVuSans-4d" transform="translate(2826.049805 0.015625)"/>
     <use xlink:href="#DejaVuSans-53" transform="translate(2912.329102 0.015625)"/>
     <use xlink:href="#DejaVuSans-45" transform="translate(2975.805664 0.015625)"/>
     <use xlink:href="#DejaVuSans-29" transform="translate(3038.989258 0.015625)"/>
    </g>
   </g>
  </g>
 </g>
 <defs>
  <clipPath id="p99daa35b63">
   <rect x="57.6" y="41.472" width="357.12" height="266.112"/>
  </clipPath>
 </defs>
</svg>
